%TF.GenerationSoftware,KiCad,Pcbnew,7.0.2*%
%TF.CreationDate,2023-04-27T13:19:39+10:00*%
%TF.ProjectId,neptune,6e657074-756e-4652-9e6b-696361645f70,rev?*%
%TF.SameCoordinates,Original*%
%TF.FileFunction,Legend,Bot*%
%TF.FilePolarity,Positive*%
%FSLAX46Y46*%
G04 Gerber Fmt 4.6, Leading zero omitted, Abs format (unit mm)*
G04 Created by KiCad (PCBNEW 7.0.2) date 2023-04-27 13:19:39*
%MOMM*%
%LPD*%
G01*
G04 APERTURE LIST*
%ADD10C,0.137500*%
%ADD11C,0.120000*%
%ADD12C,0.010000*%
G04 APERTURE END LIST*
D10*
X106369047Y-68182690D02*
X106369047Y-67632690D01*
X106369047Y-67632690D02*
X106238095Y-67632690D01*
X106238095Y-67632690D02*
X106159523Y-67658880D01*
X106159523Y-67658880D02*
X106107142Y-67711261D01*
X106107142Y-67711261D02*
X106080952Y-67763642D01*
X106080952Y-67763642D02*
X106054761Y-67868404D01*
X106054761Y-67868404D02*
X106054761Y-67946976D01*
X106054761Y-67946976D02*
X106080952Y-68051738D01*
X106080952Y-68051738D02*
X106107142Y-68104119D01*
X106107142Y-68104119D02*
X106159523Y-68156500D01*
X106159523Y-68156500D02*
X106238095Y-68182690D01*
X106238095Y-68182690D02*
X106369047Y-68182690D01*
X105609523Y-68156500D02*
X105661904Y-68182690D01*
X105661904Y-68182690D02*
X105766666Y-68182690D01*
X105766666Y-68182690D02*
X105819047Y-68156500D01*
X105819047Y-68156500D02*
X105845238Y-68104119D01*
X105845238Y-68104119D02*
X105845238Y-67894595D01*
X105845238Y-67894595D02*
X105819047Y-67842214D01*
X105819047Y-67842214D02*
X105766666Y-67816023D01*
X105766666Y-67816023D02*
X105661904Y-67816023D01*
X105661904Y-67816023D02*
X105609523Y-67842214D01*
X105609523Y-67842214D02*
X105583333Y-67894595D01*
X105583333Y-67894595D02*
X105583333Y-67946976D01*
X105583333Y-67946976D02*
X105845238Y-67999357D01*
X105373809Y-68156500D02*
X105321428Y-68182690D01*
X105321428Y-68182690D02*
X105216666Y-68182690D01*
X105216666Y-68182690D02*
X105164285Y-68156500D01*
X105164285Y-68156500D02*
X105138094Y-68104119D01*
X105138094Y-68104119D02*
X105138094Y-68077928D01*
X105138094Y-68077928D02*
X105164285Y-68025547D01*
X105164285Y-68025547D02*
X105216666Y-67999357D01*
X105216666Y-67999357D02*
X105295237Y-67999357D01*
X105295237Y-67999357D02*
X105347618Y-67973166D01*
X105347618Y-67973166D02*
X105373809Y-67920785D01*
X105373809Y-67920785D02*
X105373809Y-67894595D01*
X105373809Y-67894595D02*
X105347618Y-67842214D01*
X105347618Y-67842214D02*
X105295237Y-67816023D01*
X105295237Y-67816023D02*
X105216666Y-67816023D01*
X105216666Y-67816023D02*
X105164285Y-67842214D01*
X104902380Y-68182690D02*
X104902380Y-67816023D01*
X104902380Y-67632690D02*
X104928571Y-67658880D01*
X104928571Y-67658880D02*
X104902380Y-67685071D01*
X104902380Y-67685071D02*
X104876190Y-67658880D01*
X104876190Y-67658880D02*
X104902380Y-67632690D01*
X104902380Y-67632690D02*
X104902380Y-67685071D01*
X104404761Y-67816023D02*
X104404761Y-68261261D01*
X104404761Y-68261261D02*
X104430951Y-68313642D01*
X104430951Y-68313642D02*
X104457142Y-68339833D01*
X104457142Y-68339833D02*
X104509523Y-68366023D01*
X104509523Y-68366023D02*
X104588094Y-68366023D01*
X104588094Y-68366023D02*
X104640475Y-68339833D01*
X104404761Y-68156500D02*
X104457142Y-68182690D01*
X104457142Y-68182690D02*
X104561904Y-68182690D01*
X104561904Y-68182690D02*
X104614285Y-68156500D01*
X104614285Y-68156500D02*
X104640475Y-68130309D01*
X104640475Y-68130309D02*
X104666666Y-68077928D01*
X104666666Y-68077928D02*
X104666666Y-67920785D01*
X104666666Y-67920785D02*
X104640475Y-67868404D01*
X104640475Y-67868404D02*
X104614285Y-67842214D01*
X104614285Y-67842214D02*
X104561904Y-67816023D01*
X104561904Y-67816023D02*
X104457142Y-67816023D01*
X104457142Y-67816023D02*
X104404761Y-67842214D01*
X104142856Y-67816023D02*
X104142856Y-68182690D01*
X104142856Y-67868404D02*
X104116666Y-67842214D01*
X104116666Y-67842214D02*
X104064285Y-67816023D01*
X104064285Y-67816023D02*
X103985713Y-67816023D01*
X103985713Y-67816023D02*
X103933332Y-67842214D01*
X103933332Y-67842214D02*
X103907142Y-67894595D01*
X103907142Y-67894595D02*
X103907142Y-68182690D01*
X103435713Y-68156500D02*
X103488094Y-68182690D01*
X103488094Y-68182690D02*
X103592856Y-68182690D01*
X103592856Y-68182690D02*
X103645237Y-68156500D01*
X103645237Y-68156500D02*
X103671428Y-68104119D01*
X103671428Y-68104119D02*
X103671428Y-67894595D01*
X103671428Y-67894595D02*
X103645237Y-67842214D01*
X103645237Y-67842214D02*
X103592856Y-67816023D01*
X103592856Y-67816023D02*
X103488094Y-67816023D01*
X103488094Y-67816023D02*
X103435713Y-67842214D01*
X103435713Y-67842214D02*
X103409523Y-67894595D01*
X103409523Y-67894595D02*
X103409523Y-67946976D01*
X103409523Y-67946976D02*
X103671428Y-67999357D01*
X102938094Y-68182690D02*
X102938094Y-67632690D01*
X102938094Y-68156500D02*
X102990475Y-68182690D01*
X102990475Y-68182690D02*
X103095237Y-68182690D01*
X103095237Y-68182690D02*
X103147618Y-68156500D01*
X103147618Y-68156500D02*
X103173808Y-68130309D01*
X103173808Y-68130309D02*
X103199999Y-68077928D01*
X103199999Y-68077928D02*
X103199999Y-67920785D01*
X103199999Y-67920785D02*
X103173808Y-67868404D01*
X103173808Y-67868404D02*
X103147618Y-67842214D01*
X103147618Y-67842214D02*
X103095237Y-67816023D01*
X103095237Y-67816023D02*
X102990475Y-67816023D01*
X102990475Y-67816023D02*
X102938094Y-67842214D01*
X102257141Y-68182690D02*
X102257141Y-67632690D01*
X102257141Y-67842214D02*
X102204760Y-67816023D01*
X102204760Y-67816023D02*
X102099998Y-67816023D01*
X102099998Y-67816023D02*
X102047617Y-67842214D01*
X102047617Y-67842214D02*
X102021427Y-67868404D01*
X102021427Y-67868404D02*
X101995236Y-67920785D01*
X101995236Y-67920785D02*
X101995236Y-68077928D01*
X101995236Y-68077928D02*
X102021427Y-68130309D01*
X102021427Y-68130309D02*
X102047617Y-68156500D01*
X102047617Y-68156500D02*
X102099998Y-68182690D01*
X102099998Y-68182690D02*
X102204760Y-68182690D01*
X102204760Y-68182690D02*
X102257141Y-68156500D01*
X101811903Y-67816023D02*
X101680951Y-68182690D01*
X101549998Y-67816023D02*
X101680951Y-68182690D01*
X101680951Y-68182690D02*
X101733332Y-68313642D01*
X101733332Y-68313642D02*
X101759522Y-68339833D01*
X101759522Y-68339833D02*
X101811903Y-68366023D01*
X100764283Y-67632690D02*
X100764283Y-68025547D01*
X100764283Y-68025547D02*
X100790474Y-68104119D01*
X100790474Y-68104119D02*
X100842855Y-68156500D01*
X100842855Y-68156500D02*
X100921426Y-68182690D01*
X100921426Y-68182690D02*
X100973807Y-68182690D01*
X100266664Y-68182690D02*
X100266664Y-67894595D01*
X100266664Y-67894595D02*
X100292854Y-67842214D01*
X100292854Y-67842214D02*
X100345235Y-67816023D01*
X100345235Y-67816023D02*
X100449997Y-67816023D01*
X100449997Y-67816023D02*
X100502378Y-67842214D01*
X100266664Y-68156500D02*
X100319045Y-68182690D01*
X100319045Y-68182690D02*
X100449997Y-68182690D01*
X100449997Y-68182690D02*
X100502378Y-68156500D01*
X100502378Y-68156500D02*
X100528569Y-68104119D01*
X100528569Y-68104119D02*
X100528569Y-68051738D01*
X100528569Y-68051738D02*
X100502378Y-67999357D01*
X100502378Y-67999357D02*
X100449997Y-67973166D01*
X100449997Y-67973166D02*
X100319045Y-67973166D01*
X100319045Y-67973166D02*
X100266664Y-67946976D01*
X99769045Y-68156500D02*
X99821426Y-68182690D01*
X99821426Y-68182690D02*
X99926188Y-68182690D01*
X99926188Y-68182690D02*
X99978569Y-68156500D01*
X99978569Y-68156500D02*
X100004759Y-68130309D01*
X100004759Y-68130309D02*
X100030950Y-68077928D01*
X100030950Y-68077928D02*
X100030950Y-67920785D01*
X100030950Y-67920785D02*
X100004759Y-67868404D01*
X100004759Y-67868404D02*
X99978569Y-67842214D01*
X99978569Y-67842214D02*
X99926188Y-67816023D01*
X99926188Y-67816023D02*
X99821426Y-67816023D01*
X99821426Y-67816023D02*
X99769045Y-67842214D01*
X99533330Y-68182690D02*
X99533330Y-67632690D01*
X99480949Y-67973166D02*
X99323806Y-68182690D01*
X99323806Y-67816023D02*
X99533330Y-68025547D01*
X98485711Y-67894595D02*
X98407139Y-67920785D01*
X98407139Y-67920785D02*
X98380949Y-67946976D01*
X98380949Y-67946976D02*
X98354758Y-67999357D01*
X98354758Y-67999357D02*
X98354758Y-68077928D01*
X98354758Y-68077928D02*
X98380949Y-68130309D01*
X98380949Y-68130309D02*
X98407139Y-68156500D01*
X98407139Y-68156500D02*
X98459520Y-68182690D01*
X98459520Y-68182690D02*
X98669044Y-68182690D01*
X98669044Y-68182690D02*
X98669044Y-67632690D01*
X98669044Y-67632690D02*
X98485711Y-67632690D01*
X98485711Y-67632690D02*
X98433330Y-67658880D01*
X98433330Y-67658880D02*
X98407139Y-67685071D01*
X98407139Y-67685071D02*
X98380949Y-67737452D01*
X98380949Y-67737452D02*
X98380949Y-67789833D01*
X98380949Y-67789833D02*
X98407139Y-67842214D01*
X98407139Y-67842214D02*
X98433330Y-67868404D01*
X98433330Y-67868404D02*
X98485711Y-67894595D01*
X98485711Y-67894595D02*
X98669044Y-67894595D01*
X98119044Y-68182690D02*
X98119044Y-67816023D01*
X98119044Y-67920785D02*
X98092854Y-67868404D01*
X98092854Y-67868404D02*
X98066663Y-67842214D01*
X98066663Y-67842214D02*
X98014282Y-67816023D01*
X98014282Y-67816023D02*
X97961901Y-67816023D01*
X97542854Y-68182690D02*
X97542854Y-67894595D01*
X97542854Y-67894595D02*
X97569044Y-67842214D01*
X97569044Y-67842214D02*
X97621425Y-67816023D01*
X97621425Y-67816023D02*
X97726187Y-67816023D01*
X97726187Y-67816023D02*
X97778568Y-67842214D01*
X97542854Y-68156500D02*
X97595235Y-68182690D01*
X97595235Y-68182690D02*
X97726187Y-68182690D01*
X97726187Y-68182690D02*
X97778568Y-68156500D01*
X97778568Y-68156500D02*
X97804759Y-68104119D01*
X97804759Y-68104119D02*
X97804759Y-68051738D01*
X97804759Y-68051738D02*
X97778568Y-67999357D01*
X97778568Y-67999357D02*
X97726187Y-67973166D01*
X97726187Y-67973166D02*
X97595235Y-67973166D01*
X97595235Y-67973166D02*
X97542854Y-67946976D01*
X97045235Y-68182690D02*
X97045235Y-67632690D01*
X97045235Y-68156500D02*
X97097616Y-68182690D01*
X97097616Y-68182690D02*
X97202378Y-68182690D01*
X97202378Y-68182690D02*
X97254759Y-68156500D01*
X97254759Y-68156500D02*
X97280949Y-68130309D01*
X97280949Y-68130309D02*
X97307140Y-68077928D01*
X97307140Y-68077928D02*
X97307140Y-67920785D01*
X97307140Y-67920785D02*
X97280949Y-67868404D01*
X97280949Y-67868404D02*
X97254759Y-67842214D01*
X97254759Y-67842214D02*
X97202378Y-67816023D01*
X97202378Y-67816023D02*
X97097616Y-67816023D01*
X97097616Y-67816023D02*
X97045235Y-67842214D01*
X96704759Y-68182690D02*
X96757140Y-68156500D01*
X96757140Y-68156500D02*
X96783330Y-68104119D01*
X96783330Y-68104119D02*
X96783330Y-67632690D01*
X96285711Y-68156500D02*
X96338092Y-68182690D01*
X96338092Y-68182690D02*
X96442854Y-68182690D01*
X96442854Y-68182690D02*
X96495235Y-68156500D01*
X96495235Y-68156500D02*
X96521426Y-68104119D01*
X96521426Y-68104119D02*
X96521426Y-67894595D01*
X96521426Y-67894595D02*
X96495235Y-67842214D01*
X96495235Y-67842214D02*
X96442854Y-67816023D01*
X96442854Y-67816023D02*
X96338092Y-67816023D01*
X96338092Y-67816023D02*
X96285711Y-67842214D01*
X96285711Y-67842214D02*
X96259521Y-67894595D01*
X96259521Y-67894595D02*
X96259521Y-67946976D01*
X96259521Y-67946976D02*
X96521426Y-67999357D01*
X96076187Y-67816023D02*
X95945235Y-68182690D01*
X95814282Y-67816023D02*
X95945235Y-68182690D01*
X95945235Y-68182690D02*
X95997616Y-68313642D01*
X95997616Y-68313642D02*
X96023806Y-68339833D01*
X96023806Y-68339833D02*
X96076187Y-68366023D01*
D11*
%TO.C,C23*%
X124890000Y-94884420D02*
X124890000Y-95165580D01*
X123870000Y-94884420D02*
X123870000Y-95165580D01*
%TO.C,H5*%
D12*
X117353957Y-77427898D02*
X117341038Y-77441252D01*
X117249972Y-77542675D01*
X117193930Y-77638203D01*
X117164417Y-77761060D01*
X117152939Y-77944467D01*
X117151000Y-78221648D01*
X117151000Y-78806000D01*
X117786000Y-78806000D01*
X117786000Y-77218500D01*
X118563875Y-77220783D01*
X119341750Y-77223067D01*
X119151250Y-77379218D01*
X119116318Y-77407224D01*
X118988698Y-77498647D01*
X118913125Y-77535684D01*
X118905972Y-77551933D01*
X118892995Y-77670544D01*
X118881862Y-77889058D01*
X118873171Y-78189548D01*
X118867518Y-78554088D01*
X118865500Y-78964750D01*
X118865500Y-80393500D01*
X117786000Y-80393500D01*
X117786000Y-79377500D01*
X117214500Y-79377500D01*
X117214500Y-80393500D01*
X116135000Y-80393500D01*
X116135000Y-77218500D01*
X117556914Y-77218500D01*
X117353957Y-77427898D01*
G36*
X117353957Y-77427898D02*
G01*
X117341038Y-77441252D01*
X117249972Y-77542675D01*
X117193930Y-77638203D01*
X117164417Y-77761060D01*
X117152939Y-77944467D01*
X117151000Y-78221648D01*
X117151000Y-78806000D01*
X117786000Y-78806000D01*
X117786000Y-77218500D01*
X118563875Y-77220783D01*
X119341750Y-77223067D01*
X119151250Y-77379218D01*
X119116318Y-77407224D01*
X118988698Y-77498647D01*
X118913125Y-77535684D01*
X118905972Y-77551933D01*
X118892995Y-77670544D01*
X118881862Y-77889058D01*
X118873171Y-78189548D01*
X118867518Y-78554088D01*
X118865500Y-78964750D01*
X118865500Y-80393500D01*
X117786000Y-80393500D01*
X117786000Y-79377500D01*
X117214500Y-79377500D01*
X117214500Y-80393500D01*
X116135000Y-80393500D01*
X116135000Y-77218500D01*
X117556914Y-77218500D01*
X117353957Y-77427898D01*
G37*
X114801500Y-76609008D02*
X114782471Y-76790338D01*
X114680275Y-76989063D01*
X114486397Y-77103581D01*
X114370796Y-77120945D01*
X114171761Y-77061414D01*
X114013604Y-76893809D01*
X113995203Y-76860404D01*
X113939962Y-76655986D01*
X114164366Y-76655986D01*
X114185461Y-76831725D01*
X114242700Y-76951800D01*
X114291326Y-76991368D01*
X114416464Y-77016762D01*
X114521628Y-76942161D01*
X114588542Y-76787095D01*
X114598930Y-76571094D01*
X114539905Y-76387105D01*
X114421855Y-76284057D01*
X114270382Y-76285651D01*
X114222506Y-76332556D01*
X114177390Y-76473342D01*
X114164366Y-76655986D01*
X113939962Y-76655986D01*
X113934668Y-76636396D01*
X113970868Y-76431911D01*
X114082670Y-76268381D01*
X114248943Y-76167239D01*
X114448554Y-76149918D01*
X114660371Y-76237850D01*
X114713426Y-76282109D01*
X114782399Y-76407173D01*
X114797912Y-76571094D01*
X114801500Y-76609008D01*
G36*
X114801500Y-76609008D02*
G01*
X114782471Y-76790338D01*
X114680275Y-76989063D01*
X114486397Y-77103581D01*
X114370796Y-77120945D01*
X114171761Y-77061414D01*
X114013604Y-76893809D01*
X113995203Y-76860404D01*
X113939962Y-76655986D01*
X114164366Y-76655986D01*
X114185461Y-76831725D01*
X114242700Y-76951800D01*
X114291326Y-76991368D01*
X114416464Y-77016762D01*
X114521628Y-76942161D01*
X114588542Y-76787095D01*
X114598930Y-76571094D01*
X114539905Y-76387105D01*
X114421855Y-76284057D01*
X114270382Y-76285651D01*
X114222506Y-76332556D01*
X114177390Y-76473342D01*
X114164366Y-76655986D01*
X113939962Y-76655986D01*
X113934668Y-76636396D01*
X113970868Y-76431911D01*
X114082670Y-76268381D01*
X114248943Y-76167239D01*
X114448554Y-76149918D01*
X114660371Y-76237850D01*
X114713426Y-76282109D01*
X114782399Y-76407173D01*
X114797912Y-76571094D01*
X114801500Y-76609008D01*
G37*
X115690500Y-80393500D02*
X114674500Y-80393500D01*
X114674500Y-79568000D01*
X114087125Y-79566588D01*
X114052258Y-79566456D01*
X113735982Y-79556314D01*
X113512686Y-79520655D01*
X113351622Y-79445772D01*
X113222038Y-79317956D01*
X113093185Y-79123500D01*
X113071364Y-79085128D01*
X113035683Y-78996500D01*
X114039500Y-78996500D01*
X114674500Y-78996500D01*
X114674500Y-77917000D01*
X114039500Y-77917000D01*
X114039500Y-78996500D01*
X113035683Y-78996500D01*
X113004469Y-78918967D01*
X112970063Y-78710768D01*
X112960238Y-78418600D01*
X112963201Y-78247158D01*
X113002135Y-77868165D01*
X113090535Y-77579943D01*
X113233866Y-77361375D01*
X113272537Y-77321426D01*
X113324917Y-77284115D01*
X113399970Y-77257119D01*
X113515083Y-77238770D01*
X113687645Y-77227401D01*
X113935042Y-77221344D01*
X114274664Y-77218933D01*
X114723898Y-77218500D01*
X116084657Y-77218500D01*
X115887579Y-77442959D01*
X115690500Y-77667419D01*
X115690500Y-77917000D01*
X115690500Y-80393500D01*
G36*
X115690500Y-80393500D02*
G01*
X114674500Y-80393500D01*
X114674500Y-79568000D01*
X114087125Y-79566588D01*
X114052258Y-79566456D01*
X113735982Y-79556314D01*
X113512686Y-79520655D01*
X113351622Y-79445772D01*
X113222038Y-79317956D01*
X113093185Y-79123500D01*
X113071364Y-79085128D01*
X113035683Y-78996500D01*
X114039500Y-78996500D01*
X114674500Y-78996500D01*
X114674500Y-77917000D01*
X114039500Y-77917000D01*
X114039500Y-78996500D01*
X113035683Y-78996500D01*
X113004469Y-78918967D01*
X112970063Y-78710768D01*
X112960238Y-78418600D01*
X112963201Y-78247158D01*
X113002135Y-77868165D01*
X113090535Y-77579943D01*
X113233866Y-77361375D01*
X113272537Y-77321426D01*
X113324917Y-77284115D01*
X113399970Y-77257119D01*
X113515083Y-77238770D01*
X113687645Y-77227401D01*
X113935042Y-77221344D01*
X114274664Y-77218933D01*
X114723898Y-77218500D01*
X116084657Y-77218500D01*
X115887579Y-77442959D01*
X115690500Y-77667419D01*
X115690500Y-77917000D01*
X115690500Y-80393500D01*
G37*
X112854352Y-76853375D02*
X112953520Y-77091500D01*
X112782135Y-77090527D01*
X112779729Y-77090511D01*
X112674420Y-77076523D01*
X112692276Y-77037825D01*
X112728350Y-77003731D01*
X112740143Y-76905148D01*
X112671793Y-76814048D01*
X112547250Y-76774000D01*
X112424835Y-76813152D01*
X112347560Y-76915113D01*
X112360292Y-77033730D01*
X112360967Y-77034881D01*
X112330347Y-77074908D01*
X112211569Y-77091500D01*
X112027142Y-77091500D01*
X112207821Y-76733301D01*
X112249025Y-76647000D01*
X112452000Y-76647000D01*
X112464116Y-76677346D01*
X112550998Y-76710500D01*
X112596355Y-76701362D01*
X112610750Y-76647000D01*
X112597753Y-76629658D01*
X112511753Y-76583500D01*
X112497576Y-76585317D01*
X112452000Y-76647000D01*
X112249025Y-76647000D01*
X112290880Y-76559337D01*
X112361394Y-76389645D01*
X112388500Y-76292549D01*
X112391943Y-76263156D01*
X112449566Y-76172254D01*
X112499401Y-76186853D01*
X112591420Y-76307178D01*
X112711536Y-76532379D01*
X112762533Y-76647000D01*
X112854352Y-76853375D01*
G36*
X112854352Y-76853375D02*
G01*
X112953520Y-77091500D01*
X112782135Y-77090527D01*
X112779729Y-77090511D01*
X112674420Y-77076523D01*
X112692276Y-77037825D01*
X112728350Y-77003731D01*
X112740143Y-76905148D01*
X112671793Y-76814048D01*
X112547250Y-76774000D01*
X112424835Y-76813152D01*
X112347560Y-76915113D01*
X112360292Y-77033730D01*
X112360967Y-77034881D01*
X112330347Y-77074908D01*
X112211569Y-77091500D01*
X112027142Y-77091500D01*
X112207821Y-76733301D01*
X112249025Y-76647000D01*
X112452000Y-76647000D01*
X112464116Y-76677346D01*
X112550998Y-76710500D01*
X112596355Y-76701362D01*
X112610750Y-76647000D01*
X112597753Y-76629658D01*
X112511753Y-76583500D01*
X112497576Y-76585317D01*
X112452000Y-76647000D01*
X112249025Y-76647000D01*
X112290880Y-76559337D01*
X112361394Y-76389645D01*
X112388500Y-76292549D01*
X112391943Y-76263156D01*
X112449566Y-76172254D01*
X112499401Y-76186853D01*
X112591420Y-76307178D01*
X112711536Y-76532379D01*
X112762533Y-76647000D01*
X112854352Y-76853375D01*
G37*
X111801125Y-76178108D02*
X111845715Y-76191422D01*
X111938871Y-76284407D01*
X111952380Y-76424411D01*
X111889604Y-76574459D01*
X111753902Y-76697578D01*
X111617474Y-76798598D01*
X111566479Y-76908963D01*
X111635214Y-77001635D01*
X111720165Y-76989251D01*
X111824302Y-76894257D01*
X111941177Y-76742250D01*
X111942589Y-76934846D01*
X111937629Y-77038304D01*
X111892188Y-77108102D01*
X111769375Y-77114630D01*
X111636078Y-77104973D01*
X111517610Y-77096658D01*
X111500265Y-77093509D01*
X111407581Y-77017583D01*
X111344272Y-76886975D01*
X111342372Y-76762725D01*
X111355946Y-76739602D01*
X111453711Y-76641590D01*
X111603463Y-76530493D01*
X111711032Y-76454389D01*
X111779654Y-76373027D01*
X111756312Y-76308243D01*
X111740675Y-76294490D01*
X111663820Y-76284028D01*
X111564190Y-76377125D01*
X111525843Y-76422675D01*
X111431725Y-76507135D01*
X111385075Y-76478409D01*
X111372500Y-76333446D01*
X111382715Y-76237192D01*
X111441227Y-76163029D01*
X111572791Y-76146200D01*
X111801125Y-76178108D01*
G36*
X111801125Y-76178108D02*
G01*
X111845715Y-76191422D01*
X111938871Y-76284407D01*
X111952380Y-76424411D01*
X111889604Y-76574459D01*
X111753902Y-76697578D01*
X111617474Y-76798598D01*
X111566479Y-76908963D01*
X111635214Y-77001635D01*
X111720165Y-76989251D01*
X111824302Y-76894257D01*
X111941177Y-76742250D01*
X111942589Y-76934846D01*
X111937629Y-77038304D01*
X111892188Y-77108102D01*
X111769375Y-77114630D01*
X111636078Y-77104973D01*
X111517610Y-77096658D01*
X111500265Y-77093509D01*
X111407581Y-77017583D01*
X111344272Y-76886975D01*
X111342372Y-76762725D01*
X111355946Y-76739602D01*
X111453711Y-76641590D01*
X111603463Y-76530493D01*
X111711032Y-76454389D01*
X111779654Y-76373027D01*
X111756312Y-76308243D01*
X111740675Y-76294490D01*
X111663820Y-76284028D01*
X111564190Y-76377125D01*
X111525843Y-76422675D01*
X111431725Y-76507135D01*
X111385075Y-76478409D01*
X111372500Y-76333446D01*
X111382715Y-76237192D01*
X111441227Y-76163029D01*
X111572791Y-76146200D01*
X111801125Y-76178108D01*
G37*
X113819700Y-76139001D02*
X113945431Y-76165331D01*
X113969676Y-76224699D01*
X113880750Y-76288963D01*
X113879743Y-76289363D01*
X113822065Y-76372435D01*
X113790204Y-76533002D01*
X113785377Y-76724628D01*
X113808803Y-76900873D01*
X113861700Y-77015300D01*
X113887216Y-77048661D01*
X113857492Y-77080698D01*
X113718825Y-77086486D01*
X113681709Y-77085114D01*
X113579912Y-77071289D01*
X113579125Y-77049445D01*
X113593407Y-77039858D01*
X113640122Y-76936078D01*
X113658500Y-76762700D01*
X113658500Y-76507984D01*
X113429203Y-76783867D01*
X113330711Y-76898277D01*
X113212399Y-77023644D01*
X113143453Y-77080916D01*
X113115042Y-77034385D01*
X113094744Y-76891795D01*
X113087000Y-76684041D01*
X113079263Y-76479395D01*
X113056579Y-76324391D01*
X113023500Y-76266000D01*
X113008322Y-76264154D01*
X112960000Y-76202500D01*
X112960015Y-76201709D01*
X113016744Y-76157393D01*
X113150500Y-76139000D01*
X113152413Y-76139001D01*
X113302124Y-76155038D01*
X113330801Y-76205237D01*
X113240752Y-76293552D01*
X113178708Y-76379293D01*
X113161377Y-76574650D01*
X113182250Y-76782444D01*
X113421607Y-76460722D01*
X113556212Y-76294470D01*
X113694554Y-76174931D01*
X113818482Y-76139000D01*
X113819700Y-76139001D01*
G36*
X113819700Y-76139001D02*
G01*
X113945431Y-76165331D01*
X113969676Y-76224699D01*
X113880750Y-76288963D01*
X113879743Y-76289363D01*
X113822065Y-76372435D01*
X113790204Y-76533002D01*
X113785377Y-76724628D01*
X113808803Y-76900873D01*
X113861700Y-77015300D01*
X113887216Y-77048661D01*
X113857492Y-77080698D01*
X113718825Y-77086486D01*
X113681709Y-77085114D01*
X113579912Y-77071289D01*
X113579125Y-77049445D01*
X113593407Y-77039858D01*
X113640122Y-76936078D01*
X113658500Y-76762700D01*
X113658500Y-76507984D01*
X113429203Y-76783867D01*
X113330711Y-76898277D01*
X113212399Y-77023644D01*
X113143453Y-77080916D01*
X113115042Y-77034385D01*
X113094744Y-76891795D01*
X113087000Y-76684041D01*
X113079263Y-76479395D01*
X113056579Y-76324391D01*
X113023500Y-76266000D01*
X113008322Y-76264154D01*
X112960000Y-76202500D01*
X112960015Y-76201709D01*
X113016744Y-76157393D01*
X113150500Y-76139000D01*
X113152413Y-76139001D01*
X113302124Y-76155038D01*
X113330801Y-76205237D01*
X113240752Y-76293552D01*
X113178708Y-76379293D01*
X113161377Y-76574650D01*
X113182250Y-76782444D01*
X113421607Y-76460722D01*
X113556212Y-76294470D01*
X113694554Y-76174931D01*
X113818482Y-76139000D01*
X113819700Y-76139001D01*
G37*
X112706000Y-80393500D02*
X111626500Y-80393500D01*
X111626500Y-79980750D01*
X111620279Y-79769641D01*
X111594644Y-79617539D01*
X111547125Y-79570668D01*
X111538417Y-79572653D01*
X111454909Y-79638579D01*
X111327971Y-79778823D01*
X111181416Y-79967543D01*
X110895081Y-80361750D01*
X110340041Y-80380097D01*
X110226637Y-80382969D01*
X110000418Y-80382595D01*
X109843639Y-80373530D01*
X109785000Y-80356969D01*
X109787275Y-80349454D01*
X109842896Y-80266641D01*
X109957812Y-80120938D01*
X110111747Y-79938327D01*
X110438493Y-79561159D01*
X110295375Y-79460915D01*
X110199261Y-79374190D01*
X110047807Y-79128528D01*
X110007986Y-78996500D01*
X110991500Y-78996500D01*
X111626500Y-78996500D01*
X111626500Y-77917000D01*
X110991500Y-77917000D01*
X110991500Y-78996500D01*
X110007986Y-78996500D01*
X109949284Y-78801871D01*
X109913395Y-78420650D01*
X109921092Y-78209930D01*
X109962679Y-77891946D01*
X110033078Y-77611645D01*
X110124077Y-77398777D01*
X110227462Y-77283091D01*
X110228669Y-77282471D01*
X110335013Y-77261362D01*
X110551484Y-77243690D01*
X110861687Y-77230175D01*
X111249226Y-77221539D01*
X111697706Y-77218500D01*
X113047261Y-77218500D01*
X112876631Y-77396599D01*
X112706000Y-77574699D01*
X112706000Y-77917000D01*
X112706000Y-80393500D01*
G36*
X112706000Y-80393500D02*
G01*
X111626500Y-80393500D01*
X111626500Y-79980750D01*
X111620279Y-79769641D01*
X111594644Y-79617539D01*
X111547125Y-79570668D01*
X111538417Y-79572653D01*
X111454909Y-79638579D01*
X111327971Y-79778823D01*
X111181416Y-79967543D01*
X110895081Y-80361750D01*
X110340041Y-80380097D01*
X110226637Y-80382969D01*
X110000418Y-80382595D01*
X109843639Y-80373530D01*
X109785000Y-80356969D01*
X109787275Y-80349454D01*
X109842896Y-80266641D01*
X109957812Y-80120938D01*
X110111747Y-79938327D01*
X110438493Y-79561159D01*
X110295375Y-79460915D01*
X110199261Y-79374190D01*
X110047807Y-79128528D01*
X110007986Y-78996500D01*
X110991500Y-78996500D01*
X111626500Y-78996500D01*
X111626500Y-77917000D01*
X110991500Y-77917000D01*
X110991500Y-78996500D01*
X110007986Y-78996500D01*
X109949284Y-78801871D01*
X109913395Y-78420650D01*
X109921092Y-78209930D01*
X109962679Y-77891946D01*
X110033078Y-77611645D01*
X110124077Y-77398777D01*
X110227462Y-77283091D01*
X110228669Y-77282471D01*
X110335013Y-77261362D01*
X110551484Y-77243690D01*
X110861687Y-77230175D01*
X111249226Y-77221539D01*
X111697706Y-77218500D01*
X113047261Y-77218500D01*
X112876631Y-77396599D01*
X112706000Y-77574699D01*
X112706000Y-77917000D01*
X112706000Y-80393500D01*
G37*
X115954069Y-76153329D02*
X116008000Y-76202500D01*
X116006155Y-76217678D01*
X115944500Y-76266000D01*
X115906752Y-76318195D01*
X115885093Y-76456394D01*
X115880457Y-76639649D01*
X115892013Y-76826930D01*
X115918930Y-76977206D01*
X115960375Y-77049445D01*
X115969920Y-77073056D01*
X115877876Y-77086486D01*
X115862943Y-77086877D01*
X115766141Y-77074733D01*
X115731816Y-77008857D01*
X115738520Y-76853375D01*
X115761038Y-76615250D01*
X115618038Y-76853375D01*
X115577829Y-76918106D01*
X115490831Y-77042095D01*
X115439894Y-77091176D01*
X115428549Y-77084418D01*
X115370951Y-77001020D01*
X115295049Y-76853051D01*
X115185347Y-76615250D01*
X115202923Y-76853375D01*
X115207156Y-76914355D01*
X115201596Y-77037362D01*
X115141860Y-77081804D01*
X114995125Y-77084133D01*
X114949735Y-77081901D01*
X114861592Y-77067701D01*
X114880875Y-77047727D01*
X114944942Y-76976661D01*
X114985846Y-76828158D01*
X115002296Y-76642589D01*
X114993475Y-76460206D01*
X114958566Y-76321260D01*
X114896750Y-76266000D01*
X114852933Y-76258835D01*
X114801500Y-76202500D01*
X114853463Y-76158182D01*
X114983497Y-76139000D01*
X115050138Y-76142638D01*
X115139929Y-76179401D01*
X115212810Y-76279665D01*
X115295903Y-76472375D01*
X115426313Y-76805750D01*
X115571010Y-76472375D01*
X115580216Y-76451321D01*
X115676502Y-76260852D01*
X115762985Y-76165224D01*
X115861853Y-76139000D01*
X115954069Y-76153329D01*
G36*
X115954069Y-76153329D02*
G01*
X116008000Y-76202500D01*
X116006155Y-76217678D01*
X115944500Y-76266000D01*
X115906752Y-76318195D01*
X115885093Y-76456394D01*
X115880457Y-76639649D01*
X115892013Y-76826930D01*
X115918930Y-76977206D01*
X115960375Y-77049445D01*
X115969920Y-77073056D01*
X115877876Y-77086486D01*
X115862943Y-77086877D01*
X115766141Y-77074733D01*
X115731816Y-77008857D01*
X115738520Y-76853375D01*
X115761038Y-76615250D01*
X115618038Y-76853375D01*
X115577829Y-76918106D01*
X115490831Y-77042095D01*
X115439894Y-77091176D01*
X115428549Y-77084418D01*
X115370951Y-77001020D01*
X115295049Y-76853051D01*
X115185347Y-76615250D01*
X115202923Y-76853375D01*
X115207156Y-76914355D01*
X115201596Y-77037362D01*
X115141860Y-77081804D01*
X114995125Y-77084133D01*
X114949735Y-77081901D01*
X114861592Y-77067701D01*
X114880875Y-77047727D01*
X114944942Y-76976661D01*
X114985846Y-76828158D01*
X115002296Y-76642589D01*
X114993475Y-76460206D01*
X114958566Y-76321260D01*
X114896750Y-76266000D01*
X114852933Y-76258835D01*
X114801500Y-76202500D01*
X114853463Y-76158182D01*
X114983497Y-76139000D01*
X115050138Y-76142638D01*
X115139929Y-76179401D01*
X115212810Y-76279665D01*
X115295903Y-76472375D01*
X115426313Y-76805750D01*
X115571010Y-76472375D01*
X115580216Y-76451321D01*
X115676502Y-76260852D01*
X115762985Y-76165224D01*
X115861853Y-76139000D01*
X115954069Y-76153329D01*
G37*
X111115918Y-76139548D02*
X111253179Y-76160528D01*
X111309000Y-76202500D01*
X111307155Y-76217678D01*
X111245500Y-76266000D01*
X111207752Y-76318195D01*
X111186093Y-76456394D01*
X111181457Y-76639649D01*
X111193013Y-76826930D01*
X111219930Y-76977206D01*
X111261375Y-77049445D01*
X111273317Y-77057993D01*
X111224978Y-77074796D01*
X111086750Y-77081473D01*
X111021844Y-77080307D01*
X110916712Y-77068961D01*
X110912125Y-77049445D01*
X110962314Y-76994398D01*
X110991500Y-76863958D01*
X110991002Y-76839983D01*
X110953983Y-76737112D01*
X110832750Y-76710500D01*
X110807949Y-76710982D01*
X110701531Y-76746766D01*
X110674000Y-76863958D01*
X110691998Y-76968251D01*
X110753375Y-77049445D01*
X110765317Y-77057993D01*
X110716978Y-77074796D01*
X110578750Y-77081473D01*
X110513844Y-77080307D01*
X110408712Y-77068961D01*
X110404125Y-77049445D01*
X110444310Y-76981462D01*
X110471771Y-76833312D01*
X110483902Y-76646659D01*
X110479872Y-76462536D01*
X110458848Y-76321972D01*
X110420000Y-76266000D01*
X110404822Y-76264154D01*
X110356500Y-76202500D01*
X110358420Y-76194166D01*
X110431850Y-76154949D01*
X110578750Y-76139000D01*
X110607918Y-76139548D01*
X110745179Y-76160528D01*
X110801000Y-76202500D01*
X110799155Y-76217678D01*
X110737500Y-76266000D01*
X110695737Y-76305413D01*
X110674000Y-76424750D01*
X110674671Y-76454005D01*
X110711909Y-76557272D01*
X110832750Y-76583500D01*
X110862006Y-76582829D01*
X110965273Y-76545591D01*
X110991500Y-76424750D01*
X110975735Y-76320342D01*
X110928000Y-76266000D01*
X110912822Y-76264154D01*
X110864500Y-76202500D01*
X110866420Y-76194166D01*
X110939850Y-76154949D01*
X111086750Y-76139000D01*
X111115918Y-76139548D01*
G36*
X111115918Y-76139548D02*
G01*
X111253179Y-76160528D01*
X111309000Y-76202500D01*
X111307155Y-76217678D01*
X111245500Y-76266000D01*
X111207752Y-76318195D01*
X111186093Y-76456394D01*
X111181457Y-76639649D01*
X111193013Y-76826930D01*
X111219930Y-76977206D01*
X111261375Y-77049445D01*
X111273317Y-77057993D01*
X111224978Y-77074796D01*
X111086750Y-77081473D01*
X111021844Y-77080307D01*
X110916712Y-77068961D01*
X110912125Y-77049445D01*
X110962314Y-76994398D01*
X110991500Y-76863958D01*
X110991002Y-76839983D01*
X110953983Y-76737112D01*
X110832750Y-76710500D01*
X110807949Y-76710982D01*
X110701531Y-76746766D01*
X110674000Y-76863958D01*
X110691998Y-76968251D01*
X110753375Y-77049445D01*
X110765317Y-77057993D01*
X110716978Y-77074796D01*
X110578750Y-77081473D01*
X110513844Y-77080307D01*
X110408712Y-77068961D01*
X110404125Y-77049445D01*
X110444310Y-76981462D01*
X110471771Y-76833312D01*
X110483902Y-76646659D01*
X110479872Y-76462536D01*
X110458848Y-76321972D01*
X110420000Y-76266000D01*
X110404822Y-76264154D01*
X110356500Y-76202500D01*
X110358420Y-76194166D01*
X110431850Y-76154949D01*
X110578750Y-76139000D01*
X110607918Y-76139548D01*
X110745179Y-76160528D01*
X110801000Y-76202500D01*
X110799155Y-76217678D01*
X110737500Y-76266000D01*
X110695737Y-76305413D01*
X110674000Y-76424750D01*
X110674671Y-76454005D01*
X110711909Y-76557272D01*
X110832750Y-76583500D01*
X110862006Y-76582829D01*
X110965273Y-76545591D01*
X110991500Y-76424750D01*
X110975735Y-76320342D01*
X110928000Y-76266000D01*
X110912822Y-76264154D01*
X110864500Y-76202500D01*
X110866420Y-76194166D01*
X110939850Y-76154949D01*
X111086750Y-76139000D01*
X111115918Y-76139548D01*
G37*
X124241586Y-75436376D02*
X124173721Y-76300272D01*
X124017635Y-77186750D01*
X123886354Y-77719580D01*
X123742807Y-78182965D01*
X123568273Y-78629565D01*
X123343477Y-79114492D01*
X123135549Y-79514114D01*
X122573334Y-80407614D01*
X121920074Y-81213763D01*
X121177873Y-81930146D01*
X120348834Y-82554344D01*
X120274650Y-82603022D01*
X119414914Y-83101128D01*
X118528070Y-83491016D01*
X117590728Y-83781542D01*
X116579500Y-83981561D01*
X116566002Y-83983564D01*
X115592829Y-84064075D01*
X114606010Y-84024389D01*
X113619160Y-83868257D01*
X112645895Y-83599427D01*
X111699828Y-83221648D01*
X110794575Y-82738671D01*
X109943750Y-82154243D01*
X109915999Y-82132463D01*
X109659759Y-81911364D01*
X109363265Y-81628283D01*
X109053951Y-81312033D01*
X108759249Y-80991427D01*
X108506591Y-80695277D01*
X108323412Y-80452396D01*
X108295335Y-80410894D01*
X108162924Y-80219298D01*
X108060138Y-80077092D01*
X108007262Y-80012500D01*
X107971280Y-79968443D01*
X107882927Y-79821804D01*
X107764682Y-79601460D01*
X107629111Y-79333070D01*
X107488778Y-79042294D01*
X107356249Y-78754790D01*
X107244089Y-78496219D01*
X107164863Y-78292240D01*
X107098104Y-78098159D01*
X106952186Y-77644638D01*
X106842317Y-77239911D01*
X106764371Y-76854765D01*
X106714218Y-76459983D01*
X106687733Y-76026350D01*
X106680787Y-75524650D01*
X106684669Y-75250000D01*
X107435500Y-75250000D01*
X107455260Y-75653244D01*
X107524610Y-76201765D01*
X107635705Y-76791988D01*
X107780022Y-77385178D01*
X107949039Y-77942601D01*
X108134231Y-78425524D01*
X108221552Y-78613191D01*
X108408066Y-78973275D01*
X108623148Y-79351633D01*
X108846634Y-79714740D01*
X109058361Y-80029070D01*
X109238168Y-80261098D01*
X109392388Y-80429009D01*
X109619252Y-80662452D01*
X109877073Y-80918559D01*
X110136374Y-81168524D01*
X110367677Y-81383539D01*
X110541505Y-81534797D01*
X110661772Y-81624978D01*
X110862967Y-81763202D01*
X111105482Y-81921775D01*
X111364844Y-82085529D01*
X111616577Y-82239296D01*
X111836205Y-82367908D01*
X111999254Y-82456199D01*
X112081249Y-82489000D01*
X112141633Y-82506418D01*
X112289092Y-82564889D01*
X112483356Y-82650291D01*
X112802510Y-82774966D01*
X113235189Y-82906386D01*
X113723363Y-83024840D01*
X114230000Y-83120361D01*
X114327768Y-83132749D01*
X114589480Y-83152393D01*
X114923441Y-83166728D01*
X115296480Y-83175385D01*
X115675427Y-83177994D01*
X116027110Y-83174187D01*
X116318358Y-83163592D01*
X116516000Y-83145840D01*
X117293283Y-82987192D01*
X118151646Y-82722504D01*
X118964200Y-82378180D01*
X119696378Y-81967035D01*
X119887071Y-81842683D01*
X120142417Y-81669263D01*
X120353332Y-81511525D01*
X120552814Y-81342553D01*
X120773860Y-81135426D01*
X121049469Y-80863228D01*
X121267461Y-80641068D01*
X121587410Y-80289661D01*
X121838834Y-79970133D01*
X122043049Y-79654305D01*
X122221369Y-79314000D01*
X122312118Y-79119261D01*
X122377365Y-78955202D01*
X122417743Y-78799481D01*
X122439364Y-78618263D01*
X122448342Y-78377714D01*
X122450786Y-78044000D01*
X122450956Y-77942917D01*
X122447381Y-77620743D01*
X122433401Y-77380304D01*
X122404130Y-77185698D01*
X122354682Y-77001022D01*
X122280171Y-76790373D01*
X122277325Y-76782823D01*
X121996598Y-76133016D01*
X121669576Y-75568532D01*
X121270542Y-75050988D01*
X120773779Y-74541997D01*
X120748205Y-74518030D01*
X120490372Y-74260482D01*
X120329730Y-74058565D01*
X120259414Y-73897148D01*
X120272555Y-73761098D01*
X120362286Y-73635285D01*
X120485767Y-73553042D01*
X120677142Y-73541524D01*
X120912285Y-73638134D01*
X121199145Y-73844863D01*
X121541578Y-74152884D01*
X122110119Y-74793754D01*
X122582840Y-75517613D01*
X122960400Y-76325387D01*
X123213549Y-76977078D01*
X123274086Y-76732664D01*
X123274427Y-76731269D01*
X123293500Y-76589540D01*
X123310257Y-76345893D01*
X123323663Y-76024985D01*
X123332683Y-75651469D01*
X123336284Y-75250000D01*
X123336327Y-75074658D01*
X123333641Y-74660944D01*
X123325142Y-74337581D01*
X123308693Y-74077613D01*
X123282156Y-73854082D01*
X123243395Y-73640030D01*
X123190271Y-73408500D01*
X123154406Y-73266050D01*
X123079546Y-72990085D01*
X123010371Y-72760003D01*
X122958263Y-72614750D01*
X122897543Y-72473515D01*
X122805001Y-72252406D01*
X122705997Y-72011500D01*
X122611767Y-71794651D01*
X122495015Y-71554253D01*
X122395307Y-71376500D01*
X122347381Y-71301670D01*
X122209969Y-71085870D01*
X122072380Y-70868500D01*
X121832445Y-70527977D01*
X121516118Y-70139453D01*
X121155048Y-69739279D01*
X120778182Y-69359520D01*
X120414469Y-69032236D01*
X119931816Y-68675255D01*
X119339068Y-68318911D01*
X118690755Y-67996458D01*
X118023332Y-67725957D01*
X117373250Y-67525466D01*
X116904796Y-67427581D01*
X116133429Y-67337720D01*
X115318924Y-67316732D01*
X114498798Y-67363502D01*
X113710568Y-67476912D01*
X112991750Y-67655848D01*
X112547250Y-67795713D01*
X113023500Y-67974820D01*
X113167733Y-68031443D01*
X113526368Y-68186650D01*
X113927979Y-68375845D01*
X114349812Y-68586888D01*
X114769111Y-68807635D01*
X115163121Y-69025946D01*
X115509087Y-69229677D01*
X115784255Y-69406689D01*
X115965870Y-69544838D01*
X115975680Y-69553167D01*
X116125688Y-69634944D01*
X116315120Y-69691182D01*
X116458531Y-69719002D01*
X116838225Y-69807025D01*
X117280441Y-69924117D01*
X117754106Y-70060804D01*
X118228143Y-70207611D01*
X118671479Y-70355063D01*
X119053040Y-70493686D01*
X119341750Y-70614004D01*
X119358706Y-70621875D01*
X119553418Y-70710583D01*
X119808012Y-70824650D01*
X120072000Y-70941439D01*
X120141441Y-70972142D01*
X120354607Y-71069225D01*
X120510733Y-71144650D01*
X120580000Y-71184168D01*
X120589183Y-71191396D01*
X120683870Y-71248521D01*
X120854038Y-71343070D01*
X121070714Y-71458825D01*
X121682694Y-71806168D01*
X122309437Y-72216173D01*
X122860431Y-72634951D01*
X122902834Y-72672389D01*
X122907379Y-72701256D01*
X122802500Y-72685485D01*
X122406419Y-72614694D01*
X121477004Y-72534447D01*
X120532948Y-72566161D01*
X119605278Y-72709602D01*
X118979805Y-72846668D01*
X118462569Y-72349709D01*
X118280077Y-72173861D01*
X118091186Y-71990635D01*
X117951201Y-71853454D01*
X117881542Y-71783203D01*
X117822037Y-71728626D01*
X117666116Y-71603086D01*
X117446523Y-71435767D01*
X117186986Y-71244355D01*
X116911236Y-71046539D01*
X116643000Y-70860006D01*
X116279625Y-70623487D01*
X115851780Y-70365857D01*
X115417424Y-70122250D01*
X115012888Y-69912996D01*
X114674500Y-69758426D01*
X114456737Y-69667397D01*
X114203338Y-69558228D01*
X114007750Y-69470521D01*
X113939565Y-69441505D01*
X113721887Y-69362850D01*
X113444390Y-69274361D01*
X113150500Y-69190236D01*
X113004593Y-69150796D01*
X112729995Y-69075170D01*
X112501222Y-69010418D01*
X112356750Y-68967343D01*
X112284448Y-68946148D01*
X112059293Y-68893267D01*
X111798839Y-68844403D01*
X111542814Y-68805841D01*
X111330944Y-68783867D01*
X111202954Y-68784768D01*
X111176178Y-68805966D01*
X111198692Y-68871253D01*
X111290188Y-68989778D01*
X111459093Y-69172167D01*
X111713830Y-69429044D01*
X111720185Y-69435336D01*
X111996402Y-69702244D01*
X112285878Y-69971262D01*
X112554634Y-70211383D01*
X112768688Y-70391602D01*
X112911766Y-70502406D01*
X113148293Y-70676515D01*
X113408242Y-70860206D01*
X113670590Y-71039432D01*
X113914318Y-71200145D01*
X114118405Y-71328297D01*
X114261830Y-71409839D01*
X114323572Y-71430723D01*
X114325072Y-71425105D01*
X114308463Y-71335884D01*
X114260226Y-71164342D01*
X114188787Y-70941091D01*
X114171529Y-70888809D01*
X114106765Y-70671672D01*
X114069764Y-70510760D01*
X114068113Y-70437720D01*
X114077152Y-70433865D01*
X114157527Y-70467250D01*
X114278288Y-70562415D01*
X114281257Y-70565156D01*
X114451854Y-70710888D01*
X114712163Y-70916018D01*
X115067323Y-71184500D01*
X115522469Y-71520288D01*
X115648127Y-71610933D01*
X115949286Y-71821041D01*
X116279295Y-72043819D01*
X116611683Y-72262017D01*
X116919976Y-72458384D01*
X117177702Y-72615670D01*
X117358389Y-72716625D01*
X117435462Y-72756467D01*
X117609166Y-72853969D01*
X117722500Y-72928335D01*
X117722527Y-72928356D01*
X117827091Y-72991340D01*
X118009579Y-73082859D01*
X118230500Y-73183108D01*
X118441614Y-73273978D01*
X118732755Y-73400062D01*
X118935122Y-73493749D01*
X119065780Y-73568039D01*
X119141791Y-73635928D01*
X119180222Y-73710414D01*
X119198135Y-73804496D01*
X119212596Y-73931172D01*
X119245618Y-74182976D01*
X119363023Y-74914218D01*
X119500320Y-75539864D01*
X119660765Y-76075500D01*
X119686116Y-76147943D01*
X119833749Y-76560715D01*
X119949118Y-76863892D01*
X120036572Y-77067739D01*
X120100460Y-77182520D01*
X120145133Y-77218500D01*
X120157774Y-77220277D01*
X120199000Y-77282000D01*
X120196247Y-77299850D01*
X120130959Y-77345500D01*
X120127119Y-77344936D01*
X120042853Y-77303283D01*
X119878792Y-77205767D01*
X119656973Y-77066750D01*
X119399430Y-76900593D01*
X119128200Y-76721657D01*
X118865320Y-76544303D01*
X118632825Y-76382892D01*
X118452750Y-76251786D01*
X118430757Y-76234997D01*
X118148185Y-76005497D01*
X117823777Y-75721446D01*
X117474804Y-75400007D01*
X117118535Y-75058345D01*
X116772243Y-74713625D01*
X116453197Y-74383010D01*
X116178668Y-74083665D01*
X115965928Y-73832753D01*
X115832246Y-73647440D01*
X115798640Y-73599641D01*
X115685040Y-73501201D01*
X115500002Y-73408054D01*
X115216916Y-73305408D01*
X115152626Y-73283563D01*
X114895899Y-73187540D01*
X114598363Y-73066138D01*
X114282667Y-72929783D01*
X113971463Y-72788897D01*
X113687402Y-72653905D01*
X113453134Y-72535231D01*
X113291311Y-72443299D01*
X113224584Y-72388533D01*
X113215466Y-72371378D01*
X113129334Y-72324528D01*
X113056727Y-72298391D01*
X112911114Y-72217970D01*
X112686163Y-72078384D01*
X112373916Y-71874689D01*
X111966414Y-71601940D01*
X111815042Y-71486452D01*
X111587944Y-71292466D01*
X111315038Y-71045179D01*
X111018141Y-70764389D01*
X110719071Y-70469898D01*
X109843392Y-69588667D01*
X109607821Y-69837339D01*
X109399404Y-70060589D01*
X109235229Y-70248206D01*
X109091839Y-70431518D01*
X108940005Y-70647943D01*
X108750499Y-70934900D01*
X108696431Y-71019925D01*
X108495910Y-71361911D01*
X108296451Y-71735726D01*
X108134231Y-72074475D01*
X107976530Y-72477740D01*
X107804487Y-73026277D01*
X107655840Y-73616506D01*
X107539111Y-74209691D01*
X107462824Y-74767101D01*
X107435500Y-75250000D01*
X106684669Y-75250000D01*
X106689253Y-74925668D01*
X106695121Y-74678529D01*
X106708426Y-74271469D01*
X106728563Y-73942869D01*
X106760917Y-73660544D01*
X106810873Y-73392311D01*
X106883819Y-73105984D01*
X106985139Y-72769380D01*
X107120219Y-72350314D01*
X107180334Y-72181731D01*
X107289390Y-71910475D01*
X107421092Y-71607524D01*
X107563622Y-71297740D01*
X107705163Y-71005984D01*
X107833896Y-70757118D01*
X107938005Y-70576002D01*
X108005673Y-70487500D01*
X108007976Y-70485573D01*
X108067506Y-70412614D01*
X108173976Y-70265871D01*
X108305988Y-70074750D01*
X108334828Y-70032940D01*
X108518016Y-69787825D01*
X108739867Y-69514274D01*
X108958700Y-69264057D01*
X109353708Y-68834365D01*
X109236957Y-68660807D01*
X109210292Y-68617904D01*
X109116744Y-68445588D01*
X108999595Y-68209946D01*
X108877983Y-67948930D01*
X108775267Y-67716816D01*
X108707261Y-67544385D01*
X108683323Y-67439161D01*
X108698107Y-67376012D01*
X108746266Y-67329805D01*
X108756086Y-67323672D01*
X108891193Y-67287392D01*
X109124059Y-67263128D01*
X109429577Y-67250945D01*
X109782641Y-67250908D01*
X110158144Y-67263080D01*
X110530980Y-67287528D01*
X110876042Y-67324315D01*
X110900793Y-67327608D01*
X111164858Y-67360369D01*
X111345081Y-67371255D01*
X111480416Y-67356292D01*
X111609817Y-67311508D01*
X111772239Y-67232933D01*
X111948988Y-67145541D01*
X112139280Y-67059163D01*
X112329581Y-66985532D01*
X112550734Y-66913938D01*
X112833582Y-66833669D01*
X113208970Y-66734015D01*
X113688936Y-66621536D01*
X114711540Y-66471103D01*
X115728230Y-66445656D01*
X116748079Y-66545267D01*
X117780157Y-66770007D01*
X118327951Y-66941322D01*
X119233220Y-67314525D01*
X120093384Y-67781747D01*
X120890234Y-68331260D01*
X121605561Y-68951336D01*
X122221158Y-69630250D01*
X122450828Y-69928964D01*
X123019291Y-70779084D01*
X123472413Y-71649718D01*
X123817566Y-72559132D01*
X124062121Y-73525595D01*
X124213450Y-74567375D01*
X124218931Y-74625849D01*
X124231476Y-75074658D01*
X124241586Y-75436376D01*
G36*
X124241586Y-75436376D02*
G01*
X124173721Y-76300272D01*
X124017635Y-77186750D01*
X123886354Y-77719580D01*
X123742807Y-78182965D01*
X123568273Y-78629565D01*
X123343477Y-79114492D01*
X123135549Y-79514114D01*
X122573334Y-80407614D01*
X121920074Y-81213763D01*
X121177873Y-81930146D01*
X120348834Y-82554344D01*
X120274650Y-82603022D01*
X119414914Y-83101128D01*
X118528070Y-83491016D01*
X117590728Y-83781542D01*
X116579500Y-83981561D01*
X116566002Y-83983564D01*
X115592829Y-84064075D01*
X114606010Y-84024389D01*
X113619160Y-83868257D01*
X112645895Y-83599427D01*
X111699828Y-83221648D01*
X110794575Y-82738671D01*
X109943750Y-82154243D01*
X109915999Y-82132463D01*
X109659759Y-81911364D01*
X109363265Y-81628283D01*
X109053951Y-81312033D01*
X108759249Y-80991427D01*
X108506591Y-80695277D01*
X108323412Y-80452396D01*
X108295335Y-80410894D01*
X108162924Y-80219298D01*
X108060138Y-80077092D01*
X108007262Y-80012500D01*
X107971280Y-79968443D01*
X107882927Y-79821804D01*
X107764682Y-79601460D01*
X107629111Y-79333070D01*
X107488778Y-79042294D01*
X107356249Y-78754790D01*
X107244089Y-78496219D01*
X107164863Y-78292240D01*
X107098104Y-78098159D01*
X106952186Y-77644638D01*
X106842317Y-77239911D01*
X106764371Y-76854765D01*
X106714218Y-76459983D01*
X106687733Y-76026350D01*
X106680787Y-75524650D01*
X106684669Y-75250000D01*
X107435500Y-75250000D01*
X107455260Y-75653244D01*
X107524610Y-76201765D01*
X107635705Y-76791988D01*
X107780022Y-77385178D01*
X107949039Y-77942601D01*
X108134231Y-78425524D01*
X108221552Y-78613191D01*
X108408066Y-78973275D01*
X108623148Y-79351633D01*
X108846634Y-79714740D01*
X109058361Y-80029070D01*
X109238168Y-80261098D01*
X109392388Y-80429009D01*
X109619252Y-80662452D01*
X109877073Y-80918559D01*
X110136374Y-81168524D01*
X110367677Y-81383539D01*
X110541505Y-81534797D01*
X110661772Y-81624978D01*
X110862967Y-81763202D01*
X111105482Y-81921775D01*
X111364844Y-82085529D01*
X111616577Y-82239296D01*
X111836205Y-82367908D01*
X111999254Y-82456199D01*
X112081249Y-82489000D01*
X112141633Y-82506418D01*
X112289092Y-82564889D01*
X112483356Y-82650291D01*
X112802510Y-82774966D01*
X113235189Y-82906386D01*
X113723363Y-83024840D01*
X114230000Y-83120361D01*
X114327768Y-83132749D01*
X114589480Y-83152393D01*
X114923441Y-83166728D01*
X115296480Y-83175385D01*
X115675427Y-83177994D01*
X116027110Y-83174187D01*
X116318358Y-83163592D01*
X116516000Y-83145840D01*
X117293283Y-82987192D01*
X118151646Y-82722504D01*
X118964200Y-82378180D01*
X119696378Y-81967035D01*
X119887071Y-81842683D01*
X120142417Y-81669263D01*
X120353332Y-81511525D01*
X120552814Y-81342553D01*
X120773860Y-81135426D01*
X121049469Y-80863228D01*
X121267461Y-80641068D01*
X121587410Y-80289661D01*
X121838834Y-79970133D01*
X122043049Y-79654305D01*
X122221369Y-79314000D01*
X122312118Y-79119261D01*
X122377365Y-78955202D01*
X122417743Y-78799481D01*
X122439364Y-78618263D01*
X122448342Y-78377714D01*
X122450786Y-78044000D01*
X122450956Y-77942917D01*
X122447381Y-77620743D01*
X122433401Y-77380304D01*
X122404130Y-77185698D01*
X122354682Y-77001022D01*
X122280171Y-76790373D01*
X122277325Y-76782823D01*
X121996598Y-76133016D01*
X121669576Y-75568532D01*
X121270542Y-75050988D01*
X120773779Y-74541997D01*
X120748205Y-74518030D01*
X120490372Y-74260482D01*
X120329730Y-74058565D01*
X120259414Y-73897148D01*
X120272555Y-73761098D01*
X120362286Y-73635285D01*
X120485767Y-73553042D01*
X120677142Y-73541524D01*
X120912285Y-73638134D01*
X121199145Y-73844863D01*
X121541578Y-74152884D01*
X122110119Y-74793754D01*
X122582840Y-75517613D01*
X122960400Y-76325387D01*
X123213549Y-76977078D01*
X123274086Y-76732664D01*
X123274427Y-76731269D01*
X123293500Y-76589540D01*
X123310257Y-76345893D01*
X123323663Y-76024985D01*
X123332683Y-75651469D01*
X123336284Y-75250000D01*
X123336327Y-75074658D01*
X123333641Y-74660944D01*
X123325142Y-74337581D01*
X123308693Y-74077613D01*
X123282156Y-73854082D01*
X123243395Y-73640030D01*
X123190271Y-73408500D01*
X123154406Y-73266050D01*
X123079546Y-72990085D01*
X123010371Y-72760003D01*
X122958263Y-72614750D01*
X122897543Y-72473515D01*
X122805001Y-72252406D01*
X122705997Y-72011500D01*
X122611767Y-71794651D01*
X122495015Y-71554253D01*
X122395307Y-71376500D01*
X122347381Y-71301670D01*
X122209969Y-71085870D01*
X122072380Y-70868500D01*
X121832445Y-70527977D01*
X121516118Y-70139453D01*
X121155048Y-69739279D01*
X120778182Y-69359520D01*
X120414469Y-69032236D01*
X119931816Y-68675255D01*
X119339068Y-68318911D01*
X118690755Y-67996458D01*
X118023332Y-67725957D01*
X117373250Y-67525466D01*
X116904796Y-67427581D01*
X116133429Y-67337720D01*
X115318924Y-67316732D01*
X114498798Y-67363502D01*
X113710568Y-67476912D01*
X112991750Y-67655848D01*
X112547250Y-67795713D01*
X113023500Y-67974820D01*
X113167733Y-68031443D01*
X113526368Y-68186650D01*
X113927979Y-68375845D01*
X114349812Y-68586888D01*
X114769111Y-68807635D01*
X115163121Y-69025946D01*
X115509087Y-69229677D01*
X115784255Y-69406689D01*
X115965870Y-69544838D01*
X115975680Y-69553167D01*
X116125688Y-69634944D01*
X116315120Y-69691182D01*
X116458531Y-69719002D01*
X116838225Y-69807025D01*
X117280441Y-69924117D01*
X117754106Y-70060804D01*
X118228143Y-70207611D01*
X118671479Y-70355063D01*
X119053040Y-70493686D01*
X119341750Y-70614004D01*
X119358706Y-70621875D01*
X119553418Y-70710583D01*
X119808012Y-70824650D01*
X120072000Y-70941439D01*
X120141441Y-70972142D01*
X120354607Y-71069225D01*
X120510733Y-71144650D01*
X120580000Y-71184168D01*
X120589183Y-71191396D01*
X120683870Y-71248521D01*
X120854038Y-71343070D01*
X121070714Y-71458825D01*
X121682694Y-71806168D01*
X122309437Y-72216173D01*
X122860431Y-72634951D01*
X122902834Y-72672389D01*
X122907379Y-72701256D01*
X122802500Y-72685485D01*
X122406419Y-72614694D01*
X121477004Y-72534447D01*
X120532948Y-72566161D01*
X119605278Y-72709602D01*
X118979805Y-72846668D01*
X118462569Y-72349709D01*
X118280077Y-72173861D01*
X118091186Y-71990635D01*
X117951201Y-71853454D01*
X117881542Y-71783203D01*
X117822037Y-71728626D01*
X117666116Y-71603086D01*
X117446523Y-71435767D01*
X117186986Y-71244355D01*
X116911236Y-71046539D01*
X116643000Y-70860006D01*
X116279625Y-70623487D01*
X115851780Y-70365857D01*
X115417424Y-70122250D01*
X115012888Y-69912996D01*
X114674500Y-69758426D01*
X114456737Y-69667397D01*
X114203338Y-69558228D01*
X114007750Y-69470521D01*
X113939565Y-69441505D01*
X113721887Y-69362850D01*
X113444390Y-69274361D01*
X113150500Y-69190236D01*
X113004593Y-69150796D01*
X112729995Y-69075170D01*
X112501222Y-69010418D01*
X112356750Y-68967343D01*
X112284448Y-68946148D01*
X112059293Y-68893267D01*
X111798839Y-68844403D01*
X111542814Y-68805841D01*
X111330944Y-68783867D01*
X111202954Y-68784768D01*
X111176178Y-68805966D01*
X111198692Y-68871253D01*
X111290188Y-68989778D01*
X111459093Y-69172167D01*
X111713830Y-69429044D01*
X111720185Y-69435336D01*
X111996402Y-69702244D01*
X112285878Y-69971262D01*
X112554634Y-70211383D01*
X112768688Y-70391602D01*
X112911766Y-70502406D01*
X113148293Y-70676515D01*
X113408242Y-70860206D01*
X113670590Y-71039432D01*
X113914318Y-71200145D01*
X114118405Y-71328297D01*
X114261830Y-71409839D01*
X114323572Y-71430723D01*
X114325072Y-71425105D01*
X114308463Y-71335884D01*
X114260226Y-71164342D01*
X114188787Y-70941091D01*
X114171529Y-70888809D01*
X114106765Y-70671672D01*
X114069764Y-70510760D01*
X114068113Y-70437720D01*
X114077152Y-70433865D01*
X114157527Y-70467250D01*
X114278288Y-70562415D01*
X114281257Y-70565156D01*
X114451854Y-70710888D01*
X114712163Y-70916018D01*
X115067323Y-71184500D01*
X115522469Y-71520288D01*
X115648127Y-71610933D01*
X115949286Y-71821041D01*
X116279295Y-72043819D01*
X116611683Y-72262017D01*
X116919976Y-72458384D01*
X117177702Y-72615670D01*
X117358389Y-72716625D01*
X117435462Y-72756467D01*
X117609166Y-72853969D01*
X117722500Y-72928335D01*
X117722527Y-72928356D01*
X117827091Y-72991340D01*
X118009579Y-73082859D01*
X118230500Y-73183108D01*
X118441614Y-73273978D01*
X118732755Y-73400062D01*
X118935122Y-73493749D01*
X119065780Y-73568039D01*
X119141791Y-73635928D01*
X119180222Y-73710414D01*
X119198135Y-73804496D01*
X119212596Y-73931172D01*
X119245618Y-74182976D01*
X119363023Y-74914218D01*
X119500320Y-75539864D01*
X119660765Y-76075500D01*
X119686116Y-76147943D01*
X119833749Y-76560715D01*
X119949118Y-76863892D01*
X120036572Y-77067739D01*
X120100460Y-77182520D01*
X120145133Y-77218500D01*
X120157774Y-77220277D01*
X120199000Y-77282000D01*
X120196247Y-77299850D01*
X120130959Y-77345500D01*
X120127119Y-77344936D01*
X120042853Y-77303283D01*
X119878792Y-77205767D01*
X119656973Y-77066750D01*
X119399430Y-76900593D01*
X119128200Y-76721657D01*
X118865320Y-76544303D01*
X118632825Y-76382892D01*
X118452750Y-76251786D01*
X118430757Y-76234997D01*
X118148185Y-76005497D01*
X117823777Y-75721446D01*
X117474804Y-75400007D01*
X117118535Y-75058345D01*
X116772243Y-74713625D01*
X116453197Y-74383010D01*
X116178668Y-74083665D01*
X115965928Y-73832753D01*
X115832246Y-73647440D01*
X115798640Y-73599641D01*
X115685040Y-73501201D01*
X115500002Y-73408054D01*
X115216916Y-73305408D01*
X115152626Y-73283563D01*
X114895899Y-73187540D01*
X114598363Y-73066138D01*
X114282667Y-72929783D01*
X113971463Y-72788897D01*
X113687402Y-72653905D01*
X113453134Y-72535231D01*
X113291311Y-72443299D01*
X113224584Y-72388533D01*
X113215466Y-72371378D01*
X113129334Y-72324528D01*
X113056727Y-72298391D01*
X112911114Y-72217970D01*
X112686163Y-72078384D01*
X112373916Y-71874689D01*
X111966414Y-71601940D01*
X111815042Y-71486452D01*
X111587944Y-71292466D01*
X111315038Y-71045179D01*
X111018141Y-70764389D01*
X110719071Y-70469898D01*
X109843392Y-69588667D01*
X109607821Y-69837339D01*
X109399404Y-70060589D01*
X109235229Y-70248206D01*
X109091839Y-70431518D01*
X108940005Y-70647943D01*
X108750499Y-70934900D01*
X108696431Y-71019925D01*
X108495910Y-71361911D01*
X108296451Y-71735726D01*
X108134231Y-72074475D01*
X107976530Y-72477740D01*
X107804487Y-73026277D01*
X107655840Y-73616506D01*
X107539111Y-74209691D01*
X107462824Y-74767101D01*
X107435500Y-75250000D01*
X106684669Y-75250000D01*
X106689253Y-74925668D01*
X106695121Y-74678529D01*
X106708426Y-74271469D01*
X106728563Y-73942869D01*
X106760917Y-73660544D01*
X106810873Y-73392311D01*
X106883819Y-73105984D01*
X106985139Y-72769380D01*
X107120219Y-72350314D01*
X107180334Y-72181731D01*
X107289390Y-71910475D01*
X107421092Y-71607524D01*
X107563622Y-71297740D01*
X107705163Y-71005984D01*
X107833896Y-70757118D01*
X107938005Y-70576002D01*
X108005673Y-70487500D01*
X108007976Y-70485573D01*
X108067506Y-70412614D01*
X108173976Y-70265871D01*
X108305988Y-70074750D01*
X108334828Y-70032940D01*
X108518016Y-69787825D01*
X108739867Y-69514274D01*
X108958700Y-69264057D01*
X109353708Y-68834365D01*
X109236957Y-68660807D01*
X109210292Y-68617904D01*
X109116744Y-68445588D01*
X108999595Y-68209946D01*
X108877983Y-67948930D01*
X108775267Y-67716816D01*
X108707261Y-67544385D01*
X108683323Y-67439161D01*
X108698107Y-67376012D01*
X108746266Y-67329805D01*
X108756086Y-67323672D01*
X108891193Y-67287392D01*
X109124059Y-67263128D01*
X109429577Y-67250945D01*
X109782641Y-67250908D01*
X110158144Y-67263080D01*
X110530980Y-67287528D01*
X110876042Y-67324315D01*
X110900793Y-67327608D01*
X111164858Y-67360369D01*
X111345081Y-67371255D01*
X111480416Y-67356292D01*
X111609817Y-67311508D01*
X111772239Y-67232933D01*
X111948988Y-67145541D01*
X112139280Y-67059163D01*
X112329581Y-66985532D01*
X112550734Y-66913938D01*
X112833582Y-66833669D01*
X113208970Y-66734015D01*
X113688936Y-66621536D01*
X114711540Y-66471103D01*
X115728230Y-66445656D01*
X116748079Y-66545267D01*
X117780157Y-66770007D01*
X118327951Y-66941322D01*
X119233220Y-67314525D01*
X120093384Y-67781747D01*
X120890234Y-68331260D01*
X121605561Y-68951336D01*
X122221158Y-69630250D01*
X122450828Y-69928964D01*
X123019291Y-70779084D01*
X123472413Y-71649718D01*
X123817566Y-72559132D01*
X124062121Y-73525595D01*
X124213450Y-74567375D01*
X124218931Y-74625849D01*
X124231476Y-75074658D01*
X124241586Y-75436376D01*
G37*
D11*
%TO.C,C10*%
X121390000Y-94884420D02*
X121390000Y-95165580D01*
X120370000Y-94884420D02*
X120370000Y-95165580D01*
%TO.C,U5*%
X111650000Y-107650000D02*
X127850000Y-107650000D01*
X111650000Y-108050000D02*
X111650000Y-107650000D01*
X111650000Y-123500000D02*
X110750000Y-123500000D01*
X111650000Y-123850000D02*
X111650000Y-123500000D01*
X111650000Y-123850000D02*
X127850000Y-123850000D01*
X127850000Y-107650000D02*
X127850000Y-108050000D01*
X127850000Y-123850000D02*
X127850000Y-123450000D01*
%TO.C,L2*%
X116560000Y-93924622D02*
X116560000Y-93125378D01*
X117680000Y-93924622D02*
X117680000Y-93125378D01*
%TO.C,C9*%
X119630000Y-94884420D02*
X119630000Y-95165580D01*
X118610000Y-94884420D02*
X118610000Y-95165580D01*
%TO.C,C22*%
X123140000Y-94884420D02*
X123140000Y-95165580D01*
X122120000Y-94884420D02*
X122120000Y-95165580D01*
%TO.C,C11*%
X119729420Y-92015000D02*
X120010580Y-92015000D01*
X119729420Y-93035000D02*
X120010580Y-93035000D01*
%TD*%
M02*
