%TF.GenerationSoftware,KiCad,Pcbnew,7.0.2*%
%TF.CreationDate,2023-04-27T13:29:06+10:00*%
%TF.ProjectId,neptune,6e657074-756e-4652-9e6b-696361645f70,rev?*%
%TF.SameCoordinates,Original*%
%TF.FileFunction,Copper,L3,Inr*%
%TF.FilePolarity,Positive*%
%FSLAX46Y46*%
G04 Gerber Fmt 4.6, Leading zero omitted, Abs format (unit mm)*
G04 Created by KiCad (PCBNEW 7.0.2) date 2023-04-27 13:29:06*
%MOMM*%
%LPD*%
G01*
G04 APERTURE LIST*
%TA.AperFunction,ComponentPad*%
%ADD10R,1.700000X1.700000*%
%TD*%
%TA.AperFunction,ComponentPad*%
%ADD11O,1.700000X1.700000*%
%TD*%
%TA.AperFunction,ComponentPad*%
%ADD12C,2.550000*%
%TD*%
%TA.AperFunction,ComponentPad*%
%ADD13C,1.500000*%
%TD*%
%TA.AperFunction,ComponentPad*%
%ADD14C,0.500000*%
%TD*%
%TA.AperFunction,ComponentPad*%
%ADD15C,2.050000*%
%TD*%
%TA.AperFunction,ComponentPad*%
%ADD16C,2.250000*%
%TD*%
%TA.AperFunction,ComponentPad*%
%ADD17O,1.900000X1.200000*%
%TD*%
%TA.AperFunction,ComponentPad*%
%ADD18C,1.450000*%
%TD*%
%TA.AperFunction,ViaPad*%
%ADD19C,0.800000*%
%TD*%
%TA.AperFunction,Conductor*%
%ADD20C,1.400000*%
%TD*%
%TA.AperFunction,Conductor*%
%ADD21C,0.250000*%
%TD*%
G04 APERTURE END LIST*
D10*
%TO.N,/STM32/S2_control*%
%TO.C,J7*%
X92670000Y-119000000D03*
D11*
%TO.N,+5V*%
X95210000Y-119000000D03*
%TO.N,GND*%
X97750000Y-119000000D03*
%TO.N,/STM32/S2_feedback*%
X100290000Y-119000000D03*
%TD*%
D10*
%TO.N,+3.3V*%
%TO.C,J5*%
X103750000Y-115380000D03*
D11*
%TO.N,GND*%
X103750000Y-117920000D03*
%TO.N,/STM32/SWDIO*%
X103750000Y-120460000D03*
%TO.N,/STM32/SWCLK*%
X103750000Y-123000000D03*
%TD*%
D12*
%TO.N,Net-(J2-Pin_1)*%
%TO.C,J2*%
X98750000Y-73912000D03*
%TO.N,GND*%
X103750000Y-73912000D03*
D13*
%TO.N,N/C*%
X106750000Y-63912000D03*
X95750000Y-63912000D03*
%TD*%
D14*
%TO.N,N/C*%
%TO.C,U3*%
X96250000Y-96750000D03*
X96250000Y-95750000D03*
X96250000Y-94750000D03*
X94950000Y-96750000D03*
X94950000Y-95750000D03*
X94950000Y-94750000D03*
%TD*%
D15*
%TO.N,Net-(J3-In)*%
%TO.C,J3*%
X125460000Y-87540000D03*
D16*
%TO.N,GND*%
X122920000Y-85000000D03*
X122920000Y-90080000D03*
X128000000Y-85000000D03*
X128000000Y-90080000D03*
%TD*%
D17*
%TO.N,GND*%
%TO.C,J4*%
X92512500Y-107000000D03*
D18*
X95212500Y-108000000D03*
X95212500Y-113000000D03*
D17*
X92512500Y-114000000D03*
%TD*%
D10*
%TO.N,/STM32/S1_control*%
%TO.C,J6*%
X92670000Y-122000000D03*
D11*
%TO.N,+5V*%
X95210000Y-122000000D03*
%TO.N,GND*%
X97750000Y-122000000D03*
%TO.N,/STM32/S1_feedback*%
X100290000Y-122000000D03*
%TD*%
D19*
%TO.N,GND*%
X119850000Y-114600000D03*
X113179392Y-94150500D03*
X127650000Y-106250000D03*
X109100000Y-86150000D03*
X91724500Y-96000000D03*
X112750000Y-75500000D03*
X105000000Y-100500000D03*
X106000000Y-85000000D03*
X95500000Y-93500000D03*
X126091823Y-95736905D03*
X115666825Y-92891077D03*
X115437451Y-113262049D03*
%TO.N,/STM32/OSC_OUT*%
X119500000Y-106049500D03*
X119168363Y-97525500D03*
%TO.N,+3.3V*%
X127001000Y-104521728D03*
X120011397Y-103224756D03*
X113200000Y-74525000D03*
X110250000Y-108000000D03*
X126250000Y-94750000D03*
X112750000Y-96000000D03*
X129086655Y-113710128D03*
X127024500Y-107515500D03*
X123250000Y-116750000D03*
X118303559Y-93374121D03*
%TO.N,VDC*%
X96750000Y-81000000D03*
X106750000Y-81000000D03*
%TO.N,Net-(U3-BOOT)*%
X96500000Y-97849502D03*
X98500000Y-100750000D03*
%TO.N,Net-(U7-VDDA)*%
X115688201Y-100762299D03*
%TO.N,Net-(U3-COMP)*%
X91747919Y-94569500D03*
X95000000Y-90250000D03*
%TO.N,/STM32/NRST*%
X125550500Y-106249098D03*
X120000000Y-98250000D03*
%TO.N,/STM32/OSC_IN*%
X115700500Y-98710494D03*
X118449500Y-96734211D03*
%TO.N,/CS_SD*%
X114050000Y-81025000D03*
X115700500Y-99750000D03*
%TO.N,/MOSI_SD*%
X116300000Y-73425000D03*
X124275500Y-91750500D03*
%TO.N,/STM32/SWDIO*%
X126900000Y-96325000D03*
%TO.N,/STM32/SWCLK*%
X129200000Y-91750500D03*
%TO.N,/STM32/S1_control*%
X123497643Y-95028815D03*
%TO.N,/STM32/S1_feedback*%
X116800000Y-106488426D03*
%TO.N,/STM32/S2_control*%
X121755000Y-95012751D03*
%TO.N,/STM32/S2_feedback*%
X118482443Y-106056542D03*
%TO.N,Net-(Q2-G)*%
X103495050Y-84654952D03*
X102000000Y-87250000D03*
%TO.N,/STM32/BOOT0*%
X120800000Y-91275000D03*
X125400000Y-121775000D03*
%TO.N,/MISO_RF*%
X127050982Y-102850500D03*
X114853497Y-120199166D03*
%TO.N,/MOSI_RF*%
X126345291Y-102119317D03*
X114500000Y-119099502D03*
%TO.N,/SCK_RF*%
X115614298Y-120847384D03*
X128450500Y-103650902D03*
%TO.N,/CS_RF*%
X118979030Y-99974500D03*
%TO.N,/RESET_RF*%
X120138008Y-100094528D03*
%TO.N,/RF_1O0*%
X120446991Y-99143983D03*
%TO.N,/STM32/USB_D-*%
X99500500Y-107975000D03*
X126039075Y-101162861D03*
%TO.N,/STM32/USB_D+*%
X96761076Y-108263924D03*
X126600500Y-100025500D03*
%TO.N,/IMU_SCK*%
X121579482Y-106104482D03*
X107647038Y-115099500D03*
%TO.N,/IMU_MISO*%
X119700000Y-102275000D03*
X107080902Y-108674500D03*
%TO.N,/IMU_MOSI*%
X121775500Y-102325000D03*
X106900000Y-114375000D03*
%TO.N,/CE_ACC*%
X108050500Y-111725000D03*
X125341467Y-101878646D03*
%TO.N,/CE_GYR*%
X125550500Y-102856046D03*
X110166521Y-116261830D03*
%TO.N,/CE_MAG*%
X110227570Y-111435478D03*
X123306032Y-106038926D03*
%TD*%
D20*
%TO.N,+5V*%
X95210000Y-119000000D02*
X95210000Y-122000000D01*
D21*
%TO.N,/STM32/S1_control*%
X92670000Y-122000000D02*
X93035000Y-121635000D01*
X116612249Y-95737751D02*
X122788707Y-95737751D01*
X93035000Y-121635000D02*
X94035000Y-121635000D01*
X122788707Y-95737751D02*
X123497643Y-95028815D01*
X94035000Y-118315000D02*
X116612249Y-95737751D01*
X94035000Y-121635000D02*
X94035000Y-118315000D01*
%TO.N,/STM32/S2_control*%
X121755000Y-95012751D02*
X116657249Y-95012751D01*
X116657249Y-95012751D02*
X92670000Y-119000000D01*
%TO.N,/STM32/BOOT0*%
X125400000Y-112345140D02*
X129450000Y-108295140D01*
X129450000Y-92475000D02*
X122000000Y-92475000D01*
X122000000Y-92475000D02*
X120800000Y-91275000D01*
X125400000Y-121775000D02*
X125400000Y-112345140D01*
X129450000Y-108295140D02*
X129450000Y-92475000D01*
%TO.N,/MISO_RF*%
X128550000Y-104975000D02*
X127050982Y-103475982D01*
X128550000Y-107775806D02*
X128550000Y-104975000D01*
X116200403Y-120125403D02*
X128550000Y-107775806D01*
X116197384Y-120122384D02*
X116200403Y-120125403D01*
X114853497Y-120199166D02*
X114930279Y-120122384D01*
X114930279Y-120122384D02*
X116197384Y-120122384D01*
X127050982Y-103475982D02*
X127050982Y-102850500D01*
%TO.N,/MOSI_RF*%
X126275500Y-103156351D02*
X126275500Y-102189108D01*
X116016728Y-119672682D02*
X126300000Y-109389410D01*
X114779138Y-119099502D02*
X115352318Y-119672682D01*
X126000000Y-103431851D02*
X126275500Y-103156351D01*
X126300000Y-109389410D02*
X126300000Y-105973293D01*
X115352318Y-119672682D02*
X116016728Y-119672682D01*
X126275500Y-102189108D02*
X126345291Y-102119317D01*
X126000000Y-105673293D02*
X126000000Y-103431851D01*
X126300000Y-105973293D02*
X126000000Y-105673293D01*
X114500000Y-119099502D02*
X114779138Y-119099502D01*
%TO.N,/SCK_RF*%
X129000000Y-107962201D02*
X129000000Y-104200402D01*
X116114817Y-120847384D02*
X129000000Y-107962201D01*
X129000000Y-104200402D02*
X128450500Y-103650902D01*
X115614298Y-120847384D02*
X116114817Y-120847384D01*
%TO.N,/IMU_SCK*%
X107647038Y-112346843D02*
X107325500Y-112025305D01*
X117423486Y-110260478D02*
X121579482Y-106104482D01*
X108489717Y-110260478D02*
X117423486Y-110260478D01*
X107647038Y-115099500D02*
X107647038Y-112346843D01*
X107325500Y-111424695D02*
X108489717Y-110260478D01*
X107325500Y-112025305D02*
X107325500Y-111424695D01*
%TO.N,/IMU_MISO*%
X119350000Y-102275000D02*
X119030078Y-102594922D01*
X119700000Y-102275000D02*
X119350000Y-102275000D01*
X113160480Y-102594922D02*
X107080902Y-108674500D01*
X119030078Y-102594922D02*
X113160480Y-102594922D01*
%TO.N,/IMU_MOSI*%
X106875500Y-112211701D02*
X106875500Y-111199500D01*
X121445518Y-105379482D02*
X121450000Y-105375000D01*
X106875500Y-111199500D02*
X109350000Y-108725000D01*
X121450000Y-102650500D02*
X121775500Y-102325000D01*
X106900000Y-114375000D02*
X106900000Y-112236201D01*
X120854482Y-105804177D02*
X121279177Y-105379482D01*
X121450000Y-105375000D02*
X121450000Y-102650500D01*
X106900000Y-112236201D02*
X106875500Y-112211701D01*
X109350000Y-108725000D02*
X118322568Y-108725000D01*
X120854482Y-106193086D02*
X120854482Y-105804177D01*
X121279177Y-105379482D02*
X121445518Y-105379482D01*
X118322568Y-108725000D02*
X120854482Y-106193086D01*
%TO.N,/CE_ACC*%
X110785478Y-110710478D02*
X111050000Y-110975000D01*
X108050500Y-111725000D02*
X109065022Y-110710478D01*
X109065022Y-110710478D02*
X110785478Y-110710478D01*
X122800000Y-104420113D02*
X125341467Y-101878646D01*
X122800000Y-105475000D02*
X122800000Y-104420113D01*
X122516781Y-105758219D02*
X122800000Y-105475000D01*
X117733562Y-110975000D02*
X122516781Y-106191781D01*
X111050000Y-110975000D02*
X117550000Y-110975000D01*
X117550000Y-110975000D02*
X117733562Y-110975000D01*
X122516781Y-106191781D02*
X122516781Y-105758219D01*
%TO.N,/CE_GYR*%
X114513170Y-116261830D02*
X125550500Y-105224500D01*
X110166521Y-116261830D02*
X114513170Y-116261830D01*
X125550500Y-105224500D02*
X125550500Y-102856046D01*
%TO.N,/CE_MAG*%
X117909480Y-111435478D02*
X123306032Y-106038926D01*
X110227570Y-111435478D02*
X117909480Y-111435478D01*
%TD*%
%TA.AperFunction,Conductor*%
%TO.N,+3.3V*%
G36*
X127065597Y-60770462D02*
G01*
X127120135Y-60825000D01*
X127140097Y-60899500D01*
X127120135Y-60974000D01*
X127065597Y-61028538D01*
X127044324Y-61038668D01*
X126962445Y-61069983D01*
X126726219Y-61202561D01*
X126511827Y-61368108D01*
X126511823Y-61368111D01*
X126511823Y-61368112D01*
X126421131Y-61462180D01*
X126323812Y-61563121D01*
X126166200Y-61783420D01*
X126042343Y-62024325D01*
X125954882Y-62280691D01*
X125905681Y-62547066D01*
X125895788Y-62817768D01*
X125925414Y-63087017D01*
X125993928Y-63349090D01*
X126099869Y-63598389D01*
X126240979Y-63829606D01*
X126240981Y-63829608D01*
X126240982Y-63829610D01*
X126414255Y-64037820D01*
X126615998Y-64218582D01*
X126841910Y-64368044D01*
X126964542Y-64425532D01*
X127087173Y-64483019D01*
X127087175Y-64483019D01*
X127087176Y-64483020D01*
X127346569Y-64561060D01*
X127614561Y-64600500D01*
X127814908Y-64600500D01*
X127817631Y-64600500D01*
X128020156Y-64585677D01*
X128284553Y-64526780D01*
X128398971Y-64483019D01*
X128537554Y-64430016D01*
X128537558Y-64430014D01*
X128773777Y-64297441D01*
X128988177Y-64131888D01*
X129176186Y-63936881D01*
X129333799Y-63716579D01*
X129457656Y-63475675D01*
X129459481Y-63470325D01*
X129502427Y-63406263D01*
X129571652Y-63372254D01*
X129648608Y-63377415D01*
X129712672Y-63420362D01*
X129746681Y-63489587D01*
X129749500Y-63518435D01*
X129749500Y-91113090D01*
X129729538Y-91187590D01*
X129675000Y-91242128D01*
X129600500Y-91262090D01*
X129526000Y-91242128D01*
X129509795Y-91231300D01*
X129502841Y-91225964D01*
X129356760Y-91165455D01*
X129200000Y-91144817D01*
X129175018Y-91148106D01*
X129098550Y-91138037D01*
X129037361Y-91091083D01*
X129007847Y-91019825D01*
X129017916Y-90943357D01*
X129033514Y-90914925D01*
X129152301Y-90745282D01*
X129250320Y-90535079D01*
X129310349Y-90311050D01*
X129330563Y-90080000D01*
X129310349Y-89848950D01*
X129261047Y-89664956D01*
X129250320Y-89624921D01*
X129152301Y-89414720D01*
X129152301Y-89414719D01*
X129019270Y-89224731D01*
X128855269Y-89060730D01*
X128665282Y-88927699D01*
X128665283Y-88927699D01*
X128665281Y-88927698D01*
X128455079Y-88829679D01*
X128231050Y-88769650D01*
X128000000Y-88749437D01*
X127768949Y-88769650D01*
X127544921Y-88829679D01*
X127334720Y-88927698D01*
X127144730Y-89060730D01*
X126980730Y-89224730D01*
X126847698Y-89414720D01*
X126749679Y-89624921D01*
X126689650Y-89848949D01*
X126669437Y-90080000D01*
X126689650Y-90311050D01*
X126749679Y-90535079D01*
X126847698Y-90745281D01*
X126847699Y-90745282D01*
X126980730Y-90935269D01*
X127144731Y-91099270D01*
X127325668Y-91225964D01*
X127334718Y-91232301D01*
X127544920Y-91330320D01*
X127768949Y-91390349D01*
X127787536Y-91391975D01*
X128000000Y-91410563D01*
X128231050Y-91390349D01*
X128455079Y-91330320D01*
X128455084Y-91330317D01*
X128465801Y-91327446D01*
X128542929Y-91327446D01*
X128609724Y-91366009D01*
X128648289Y-91432804D01*
X128648289Y-91509932D01*
X128642024Y-91528389D01*
X128614955Y-91593738D01*
X128594317Y-91750500D01*
X128614955Y-91907260D01*
X128629958Y-91943480D01*
X128640025Y-92019948D01*
X128610510Y-92091205D01*
X128549320Y-92138158D01*
X128492300Y-92149500D01*
X124983200Y-92149500D01*
X124908700Y-92129538D01*
X124854162Y-92075000D01*
X124834200Y-92000500D01*
X124845542Y-91943480D01*
X124857037Y-91915728D01*
X124860544Y-91907262D01*
X124881182Y-91750500D01*
X124860544Y-91593738D01*
X124800036Y-91447659D01*
X124703782Y-91322218D01*
X124578341Y-91225964D01*
X124432262Y-91165456D01*
X124432260Y-91165455D01*
X124275499Y-91144817D01*
X124118735Y-91165455D01*
X124111207Y-91168574D01*
X124034738Y-91178639D01*
X123963482Y-91149120D01*
X123916532Y-91087929D01*
X123906467Y-91011460D01*
X123932139Y-90945450D01*
X123939263Y-90935275D01*
X123939270Y-90935269D01*
X124072301Y-90745282D01*
X124170320Y-90535079D01*
X124230349Y-90311050D01*
X124250563Y-90080000D01*
X124230349Y-89848950D01*
X124181047Y-89664956D01*
X124170320Y-89624921D01*
X124072301Y-89414720D01*
X124072301Y-89414719D01*
X123939270Y-89224731D01*
X123775269Y-89060730D01*
X123585282Y-88927699D01*
X123585283Y-88927699D01*
X123585281Y-88927698D01*
X123375079Y-88829679D01*
X123151050Y-88769650D01*
X122920000Y-88749437D01*
X122688949Y-88769650D01*
X122464921Y-88829679D01*
X122254720Y-88927698D01*
X122064730Y-89060730D01*
X121900730Y-89224730D01*
X121767698Y-89414720D01*
X121669679Y-89624921D01*
X121609650Y-89848949D01*
X121589437Y-90080000D01*
X121609650Y-90311050D01*
X121669679Y-90535079D01*
X121767698Y-90745281D01*
X121767699Y-90745282D01*
X121900730Y-90935269D01*
X122064731Y-91099270D01*
X122245668Y-91225964D01*
X122254718Y-91232301D01*
X122464920Y-91330320D01*
X122688949Y-91390349D01*
X122709162Y-91392117D01*
X122920000Y-91410563D01*
X123151050Y-91390349D01*
X123375079Y-91330320D01*
X123553932Y-91246919D01*
X123629886Y-91233527D01*
X123702363Y-91259906D01*
X123751940Y-91318990D01*
X123765333Y-91394946D01*
X123754558Y-91438979D01*
X123690455Y-91593737D01*
X123669817Y-91750499D01*
X123690455Y-91907260D01*
X123705458Y-91943480D01*
X123715525Y-92019948D01*
X123686010Y-92091205D01*
X123624820Y-92138158D01*
X123567800Y-92149500D01*
X122196545Y-92149500D01*
X122122045Y-92129538D01*
X122091186Y-92105859D01*
X121440728Y-91455402D01*
X121402164Y-91388607D01*
X121398362Y-91330595D01*
X121405682Y-91275000D01*
X121403982Y-91262090D01*
X121385044Y-91118239D01*
X121385044Y-91118238D01*
X121324536Y-90972159D01*
X121228282Y-90846718D01*
X121102841Y-90750464D01*
X120956762Y-90689956D01*
X120956760Y-90689955D01*
X120800000Y-90669317D01*
X120643239Y-90689955D01*
X120497158Y-90750464D01*
X120371718Y-90846718D01*
X120275464Y-90972158D01*
X120214955Y-91118239D01*
X120194317Y-91275000D01*
X120214955Y-91431760D01*
X120254980Y-91528389D01*
X120275464Y-91577841D01*
X120371718Y-91703282D01*
X120497159Y-91799536D01*
X120643238Y-91860044D01*
X120671548Y-91863771D01*
X120799997Y-91880682D01*
X120799998Y-91880681D01*
X120800000Y-91880682D01*
X120855594Y-91873362D01*
X120932060Y-91883428D01*
X120980401Y-91915727D01*
X121370705Y-92306032D01*
X121755191Y-92690518D01*
X121763973Y-92700102D01*
X121787545Y-92728194D01*
X121819313Y-92746535D01*
X121830270Y-92753516D01*
X121862823Y-92776310D01*
X121883941Y-92785056D01*
X121886953Y-92785587D01*
X121886955Y-92785588D01*
X121902403Y-92788311D01*
X121923074Y-92791957D01*
X121935763Y-92794769D01*
X121971193Y-92804263D01*
X122007725Y-92801067D01*
X122020711Y-92800500D01*
X128975500Y-92800500D01*
X129050000Y-92820462D01*
X129104538Y-92875000D01*
X129124500Y-92949500D01*
X129124500Y-103109024D01*
X129104538Y-103183524D01*
X129050000Y-103238062D01*
X128975500Y-103258024D01*
X128901000Y-103238062D01*
X128884795Y-103227234D01*
X128753341Y-103126366D01*
X128607260Y-103065857D01*
X128450500Y-103045219D01*
X128293739Y-103065857D01*
X128147658Y-103126366D01*
X128022218Y-103222620D01*
X127925964Y-103348060D01*
X127857949Y-103512263D01*
X127857308Y-103511997D01*
X127836289Y-103562743D01*
X127775099Y-103609695D01*
X127698630Y-103619761D01*
X127627373Y-103590245D01*
X127612721Y-103577395D01*
X127499954Y-103464628D01*
X127461390Y-103397833D01*
X127461390Y-103320705D01*
X127487101Y-103268567D01*
X127575518Y-103153341D01*
X127636026Y-103007262D01*
X127656664Y-102850500D01*
X127649954Y-102799536D01*
X127636026Y-102693739D01*
X127624003Y-102664713D01*
X127575518Y-102547659D01*
X127479264Y-102422218D01*
X127353823Y-102325964D01*
X127279958Y-102295368D01*
X127207742Y-102265455D01*
X127079376Y-102248555D01*
X127008119Y-102219039D01*
X126961167Y-102157849D01*
X126951100Y-102120278D01*
X126930335Y-101962556D01*
X126903064Y-101896718D01*
X126869827Y-101816476D01*
X126773573Y-101691035D01*
X126648132Y-101594781D01*
X126648131Y-101594780D01*
X126634130Y-101584037D01*
X126587177Y-101522847D01*
X126577110Y-101446379D01*
X126587174Y-101408813D01*
X126624119Y-101319623D01*
X126644757Y-101162861D01*
X126624119Y-101006099D01*
X126563611Y-100860020D01*
X126563610Y-100860019D01*
X126556104Y-100841897D01*
X126556500Y-100841732D01*
X126535104Y-100790078D01*
X126545171Y-100713610D01*
X126592123Y-100652420D01*
X126663380Y-100622904D01*
X126663381Y-100622904D01*
X126719827Y-100615472D01*
X126757262Y-100610544D01*
X126903341Y-100550036D01*
X127028782Y-100453782D01*
X127125036Y-100328341D01*
X127185544Y-100182262D01*
X127206182Y-100025500D01*
X127185544Y-99868738D01*
X127125036Y-99722659D01*
X127028782Y-99597218D01*
X126903341Y-99500964D01*
X126805170Y-99460300D01*
X126757260Y-99440455D01*
X126600499Y-99419817D01*
X126443739Y-99440455D01*
X126297658Y-99500964D01*
X126172218Y-99597218D01*
X126075964Y-99722658D01*
X126015455Y-99868739D01*
X125994817Y-100025500D01*
X126015455Y-100182260D01*
X126083471Y-100346464D01*
X126083074Y-100346628D01*
X126104470Y-100398283D01*
X126094403Y-100474751D01*
X126047450Y-100535941D01*
X125976195Y-100565456D01*
X125882313Y-100577816D01*
X125736233Y-100638325D01*
X125610793Y-100734579D01*
X125514539Y-100860019D01*
X125454030Y-101006099D01*
X125435186Y-101149237D01*
X125405671Y-101220494D01*
X125344481Y-101267446D01*
X125306909Y-101277513D01*
X125184706Y-101293601D01*
X125038625Y-101354110D01*
X124913185Y-101450364D01*
X124816931Y-101575804D01*
X124756422Y-101721885D01*
X124735784Y-101878646D01*
X124743103Y-101934242D01*
X124733036Y-102010710D01*
X124700737Y-102059048D01*
X122584484Y-104175301D01*
X122574903Y-104184081D01*
X122546805Y-104207658D01*
X122528460Y-104239432D01*
X122521480Y-104250388D01*
X122498692Y-104282934D01*
X122489942Y-104304057D01*
X122483042Y-104343189D01*
X122480229Y-104355874D01*
X122470735Y-104391304D01*
X122473933Y-104427845D01*
X122474500Y-104440832D01*
X122474499Y-105278455D01*
X122454537Y-105352955D01*
X122430858Y-105383814D01*
X122301265Y-105513407D01*
X122291684Y-105522187D01*
X122263586Y-105545764D01*
X122245241Y-105577538D01*
X122238259Y-105588496D01*
X122207029Y-105633098D01*
X122147946Y-105682675D01*
X122071990Y-105696069D01*
X121999513Y-105669690D01*
X121994270Y-105665846D01*
X121992507Y-105664493D01*
X121882323Y-105579946D01*
X121876510Y-105577538D01*
X121867798Y-105573929D01*
X121806609Y-105526976D01*
X121777094Y-105455718D01*
X121779969Y-105411869D01*
X121776067Y-105367261D01*
X121775500Y-105354275D01*
X121775500Y-103061351D01*
X121795462Y-102986851D01*
X121850000Y-102932313D01*
X121905049Y-102913626D01*
X121932262Y-102910044D01*
X122078341Y-102849536D01*
X122203782Y-102753282D01*
X122300036Y-102627841D01*
X122360544Y-102481762D01*
X122381182Y-102325000D01*
X122360544Y-102168238D01*
X122300036Y-102022159D01*
X122203782Y-101896718D01*
X122078341Y-101800464D01*
X121932262Y-101739956D01*
X121932260Y-101739955D01*
X121775499Y-101719317D01*
X121618739Y-101739955D01*
X121472658Y-101800464D01*
X121347218Y-101896718D01*
X121250964Y-102022158D01*
X121190455Y-102168239D01*
X121169817Y-102325000D01*
X121179780Y-102400674D01*
X121169713Y-102477142D01*
X121154111Y-102505582D01*
X121148691Y-102513321D01*
X121139942Y-102534444D01*
X121133042Y-102573576D01*
X121130229Y-102586261D01*
X121120735Y-102621691D01*
X121123933Y-102658232D01*
X121124500Y-102671219D01*
X121124500Y-105006904D01*
X121104538Y-105081404D01*
X121081525Y-105104418D01*
X121083607Y-105106165D01*
X121043142Y-105154386D01*
X121034364Y-105163966D01*
X120638966Y-105559365D01*
X120629385Y-105568145D01*
X120601287Y-105591722D01*
X120582942Y-105623496D01*
X120575962Y-105634452D01*
X120553174Y-105666998D01*
X120544424Y-105688121D01*
X120537524Y-105727253D01*
X120534711Y-105739938D01*
X120525217Y-105775368D01*
X120528415Y-105811909D01*
X120528982Y-105824896D01*
X120528982Y-105996542D01*
X120509020Y-106071042D01*
X120485341Y-106101901D01*
X120350554Y-106236687D01*
X120283759Y-106275251D01*
X120206630Y-106275251D01*
X120139836Y-106236687D01*
X120101272Y-106169892D01*
X120097470Y-106111879D01*
X120105682Y-106049499D01*
X120085044Y-105892739D01*
X120080904Y-105882743D01*
X120024536Y-105746659D01*
X119928282Y-105621218D01*
X119802841Y-105524964D01*
X119713711Y-105488045D01*
X119656760Y-105464455D01*
X119499999Y-105443817D01*
X119343239Y-105464455D01*
X119197156Y-105524965D01*
X119077336Y-105616905D01*
X119006079Y-105646420D01*
X118929611Y-105636353D01*
X118895927Y-105616905D01*
X118785284Y-105532006D01*
X118639203Y-105471497D01*
X118482442Y-105450859D01*
X118325682Y-105471497D01*
X118179601Y-105532006D01*
X118054161Y-105628260D01*
X117957907Y-105753700D01*
X117897398Y-105899781D01*
X117876760Y-106056542D01*
X117897398Y-106213302D01*
X117923058Y-106275251D01*
X117957907Y-106359383D01*
X118054161Y-106484824D01*
X118179602Y-106581078D01*
X118325681Y-106641586D01*
X118393215Y-106650477D01*
X118482442Y-106662224D01*
X118482442Y-106662223D01*
X118482443Y-106662224D01*
X118639205Y-106641586D01*
X118785284Y-106581078D01*
X118905106Y-106489135D01*
X118976362Y-106459621D01*
X119052830Y-106469688D01*
X119086514Y-106489135D01*
X119197159Y-106574036D01*
X119343238Y-106634544D01*
X119392960Y-106641090D01*
X119499999Y-106655182D01*
X119499999Y-106655181D01*
X119500000Y-106655182D01*
X119518685Y-106652722D01*
X119562379Y-106646970D01*
X119638848Y-106657037D01*
X119700037Y-106703989D01*
X119729553Y-106775246D01*
X119719486Y-106851715D01*
X119687187Y-106900054D01*
X118231383Y-108355859D01*
X118164588Y-108394423D01*
X118126024Y-108399500D01*
X109370709Y-108399500D01*
X109357722Y-108398933D01*
X109321194Y-108395737D01*
X109321193Y-108395737D01*
X109285765Y-108405229D01*
X109273088Y-108408039D01*
X109233953Y-108414940D01*
X109212814Y-108423697D01*
X109180267Y-108446485D01*
X109169311Y-108453465D01*
X109137542Y-108471807D01*
X109113965Y-108499904D01*
X109105187Y-108509484D01*
X106659984Y-110954688D01*
X106650403Y-110963468D01*
X106622305Y-110987045D01*
X106603960Y-111018819D01*
X106596980Y-111029775D01*
X106574192Y-111062321D01*
X106565442Y-111083444D01*
X106558542Y-111122576D01*
X106555729Y-111135261D01*
X106546235Y-111170691D01*
X106549433Y-111207232D01*
X106550000Y-111220219D01*
X106550000Y-112190980D01*
X106549433Y-112203967D01*
X106546235Y-112240510D01*
X106555729Y-112275941D01*
X106558542Y-112288626D01*
X106569474Y-112350617D01*
X106566429Y-112351153D01*
X106574500Y-112381265D01*
X106574500Y-113794371D01*
X106554538Y-113868871D01*
X106516207Y-113912580D01*
X106471717Y-113946718D01*
X106375464Y-114072158D01*
X106314955Y-114218239D01*
X106294317Y-114375000D01*
X106314955Y-114531760D01*
X106314956Y-114531762D01*
X106375464Y-114677841D01*
X106471718Y-114803282D01*
X106597159Y-114899536D01*
X106743238Y-114960044D01*
X106900000Y-114980682D01*
X106914576Y-114982601D01*
X106985833Y-115012116D01*
X107032786Y-115073306D01*
X107042853Y-115110877D01*
X107061993Y-115256261D01*
X107102307Y-115353586D01*
X107122502Y-115402341D01*
X107218756Y-115527782D01*
X107344197Y-115624036D01*
X107490276Y-115684544D01*
X107647038Y-115705182D01*
X107803800Y-115684544D01*
X107949879Y-115624036D01*
X108075320Y-115527782D01*
X108171574Y-115402341D01*
X108232082Y-115256262D01*
X108252720Y-115099500D01*
X108232082Y-114942738D01*
X108171574Y-114796659D01*
X108075320Y-114671218D01*
X108030831Y-114637080D01*
X107983879Y-114575889D01*
X107972538Y-114518871D01*
X107972538Y-113262049D01*
X114831768Y-113262049D01*
X114852406Y-113418809D01*
X114852407Y-113418811D01*
X114912915Y-113564890D01*
X115009169Y-113690331D01*
X115134610Y-113786585D01*
X115280689Y-113847093D01*
X115359069Y-113857412D01*
X115437450Y-113867731D01*
X115437450Y-113867730D01*
X115437451Y-113867731D01*
X115594213Y-113847093D01*
X115740292Y-113786585D01*
X115865733Y-113690331D01*
X115961987Y-113564890D01*
X116022495Y-113418811D01*
X116043133Y-113262049D01*
X116022495Y-113105287D01*
X115961987Y-112959208D01*
X115865733Y-112833767D01*
X115740292Y-112737513D01*
X115740291Y-112737513D01*
X115594211Y-112677004D01*
X115437451Y-112656366D01*
X115280690Y-112677004D01*
X115134609Y-112737513D01*
X115009169Y-112833767D01*
X114912915Y-112959207D01*
X114852406Y-113105288D01*
X114831768Y-113262049D01*
X107972538Y-113262049D01*
X107972538Y-112471615D01*
X107992500Y-112397115D01*
X108047038Y-112342577D01*
X108102089Y-112323890D01*
X108207262Y-112310044D01*
X108353341Y-112249536D01*
X108478782Y-112153282D01*
X108575036Y-112027841D01*
X108635544Y-111881762D01*
X108651371Y-111761545D01*
X108656182Y-111725002D01*
X108651399Y-111688672D01*
X108648862Y-111669403D01*
X108658928Y-111592937D01*
X108691225Y-111544599D01*
X109156206Y-111079619D01*
X109223002Y-111041055D01*
X109261566Y-111035978D01*
X109520077Y-111035978D01*
X109594577Y-111055940D01*
X109649115Y-111110478D01*
X109669077Y-111184978D01*
X109657735Y-111241998D01*
X109642525Y-111278717D01*
X109621887Y-111435477D01*
X109642525Y-111592238D01*
X109690065Y-111707008D01*
X109703034Y-111738319D01*
X109799288Y-111863760D01*
X109924729Y-111960014D01*
X110070808Y-112020522D01*
X110126402Y-112027841D01*
X110227569Y-112041160D01*
X110227569Y-112041159D01*
X110227570Y-112041160D01*
X110384332Y-112020522D01*
X110530411Y-111960014D01*
X110655852Y-111863760D01*
X110689987Y-111819273D01*
X110751178Y-111772320D01*
X110808198Y-111760978D01*
X117888760Y-111760978D01*
X117901746Y-111761544D01*
X117938287Y-111764742D01*
X117973733Y-111755243D01*
X117986397Y-111752435D01*
X118022525Y-111746066D01*
X118022526Y-111746065D01*
X118025545Y-111745533D01*
X118046651Y-111736790D01*
X118049160Y-111735032D01*
X118049164Y-111735032D01*
X118079214Y-111713989D01*
X118090149Y-111707022D01*
X118121935Y-111688672D01*
X118145524Y-111660558D01*
X118154284Y-111650998D01*
X123125630Y-106679652D01*
X123192423Y-106641090D01*
X123250435Y-106637288D01*
X123306032Y-106644608D01*
X123306032Y-106644607D01*
X123325483Y-106647169D01*
X123324939Y-106651299D01*
X123366509Y-106656763D01*
X123427709Y-106703702D01*
X123457241Y-106774952D01*
X123447191Y-106851423D01*
X123414879Y-106899793D01*
X114421985Y-115892689D01*
X114355190Y-115931253D01*
X114316626Y-115936330D01*
X110747149Y-115936330D01*
X110672649Y-115916368D01*
X110628939Y-115878035D01*
X110594803Y-115833548D01*
X110469362Y-115737294D01*
X110323281Y-115676785D01*
X110166521Y-115656147D01*
X110009760Y-115676785D01*
X109863679Y-115737294D01*
X109738239Y-115833548D01*
X109641985Y-115958988D01*
X109581476Y-116105069D01*
X109560838Y-116261830D01*
X109581476Y-116418590D01*
X109629016Y-116533360D01*
X109641985Y-116564671D01*
X109738239Y-116690112D01*
X109863680Y-116786366D01*
X110009759Y-116846874D01*
X110166521Y-116867512D01*
X110323283Y-116846874D01*
X110469362Y-116786366D01*
X110594803Y-116690112D01*
X110628938Y-116645625D01*
X110690129Y-116598672D01*
X110747149Y-116587330D01*
X114492450Y-116587330D01*
X114505436Y-116587896D01*
X114541977Y-116591094D01*
X114577423Y-116581595D01*
X114590087Y-116578787D01*
X114626215Y-116572418D01*
X114626216Y-116572417D01*
X114629235Y-116571885D01*
X114650341Y-116563142D01*
X114652850Y-116561384D01*
X114652854Y-116561384D01*
X114682904Y-116540341D01*
X114693839Y-116533374D01*
X114725625Y-116515024D01*
X114749214Y-116486910D01*
X114757974Y-116477350D01*
X124767946Y-106467378D01*
X124834739Y-106428816D01*
X124911867Y-106428816D01*
X124978662Y-106467380D01*
X125010961Y-106515718D01*
X125025964Y-106551940D01*
X125048322Y-106581077D01*
X125122218Y-106677380D01*
X125247659Y-106773634D01*
X125393738Y-106834142D01*
X125472119Y-106844460D01*
X125550499Y-106854780D01*
X125550499Y-106854779D01*
X125550500Y-106854780D01*
X125707262Y-106834142D01*
X125768482Y-106808783D01*
X125844947Y-106798717D01*
X125916204Y-106828231D01*
X125963158Y-106889421D01*
X125974500Y-106946442D01*
X125974500Y-109192865D01*
X125954538Y-109267365D01*
X125930859Y-109298224D01*
X120689501Y-114539581D01*
X120622706Y-114578145D01*
X120545578Y-114578145D01*
X120478783Y-114539581D01*
X120440219Y-114472786D01*
X120436418Y-114453678D01*
X120435044Y-114443238D01*
X120374536Y-114297159D01*
X120278282Y-114171718D01*
X120152841Y-114075464D01*
X120044110Y-114030426D01*
X120006760Y-114014955D01*
X119849999Y-113994317D01*
X119693239Y-114014955D01*
X119547158Y-114075464D01*
X119421718Y-114171718D01*
X119325464Y-114297158D01*
X119264955Y-114443239D01*
X119244317Y-114599999D01*
X119264955Y-114756760D01*
X119276805Y-114785368D01*
X119325464Y-114902841D01*
X119421718Y-115028282D01*
X119547159Y-115124536D01*
X119650449Y-115167320D01*
X119693235Y-115185043D01*
X119693238Y-115185044D01*
X119703669Y-115186417D01*
X119774924Y-115215930D01*
X119821878Y-115277118D01*
X119831948Y-115353586D01*
X119802434Y-115424844D01*
X119789581Y-115439501D01*
X115925543Y-119303541D01*
X115858748Y-119342105D01*
X115820184Y-119347182D01*
X115548862Y-119347182D01*
X115474362Y-119327220D01*
X115443503Y-119303541D01*
X115107657Y-118967695D01*
X115075358Y-118919356D01*
X115024536Y-118796661D01*
X114928282Y-118671220D01*
X114802841Y-118574966D01*
X114656762Y-118514458D01*
X114656760Y-118514457D01*
X114500000Y-118493819D01*
X114343239Y-118514457D01*
X114197158Y-118574966D01*
X114071718Y-118671220D01*
X113975464Y-118796660D01*
X113914955Y-118942741D01*
X113894317Y-119099501D01*
X113914955Y-119256262D01*
X113975463Y-119402343D01*
X113975464Y-119402343D01*
X114071718Y-119527784D01*
X114197159Y-119624038D01*
X114276316Y-119656826D01*
X114337505Y-119703777D01*
X114367021Y-119775034D01*
X114356954Y-119851502D01*
X114337507Y-119885186D01*
X114328962Y-119896322D01*
X114268452Y-120042405D01*
X114247814Y-120199166D01*
X114268452Y-120355926D01*
X114268453Y-120355928D01*
X114328961Y-120502007D01*
X114425215Y-120627448D01*
X114550656Y-120723702D01*
X114696735Y-120784210D01*
X114726966Y-120788190D01*
X114872945Y-120807409D01*
X114872919Y-120807604D01*
X114929204Y-120815011D01*
X114990396Y-120861961D01*
X115019915Y-120933217D01*
X115019916Y-120933223D01*
X115029253Y-121004144D01*
X115076793Y-121118914D01*
X115089762Y-121150225D01*
X115186016Y-121275666D01*
X115311457Y-121371920D01*
X115457536Y-121432428D01*
X115478835Y-121435232D01*
X115614297Y-121453066D01*
X115614297Y-121453065D01*
X115614298Y-121453066D01*
X115771060Y-121432428D01*
X115917139Y-121371920D01*
X116042580Y-121275666D01*
X116081280Y-121225229D01*
X116142469Y-121178277D01*
X116160916Y-121172014D01*
X116179062Y-121167151D01*
X116191734Y-121164341D01*
X116227862Y-121157972D01*
X116227863Y-121157971D01*
X116230882Y-121157439D01*
X116251988Y-121148696D01*
X116254497Y-121146938D01*
X116254501Y-121146938D01*
X116284551Y-121125895D01*
X116295486Y-121118928D01*
X116327272Y-121100578D01*
X116350861Y-121072464D01*
X116359621Y-121062904D01*
X124820142Y-112602383D01*
X124886935Y-112563821D01*
X124964063Y-112563821D01*
X125030858Y-112602385D01*
X125069422Y-112669180D01*
X125074499Y-112707744D01*
X125074499Y-121194372D01*
X125054537Y-121268872D01*
X125016207Y-121312579D01*
X124996277Y-121327872D01*
X124971716Y-121346719D01*
X124875464Y-121472158D01*
X124814955Y-121618239D01*
X124794317Y-121775000D01*
X124814955Y-121931760D01*
X124814956Y-121931762D01*
X124875464Y-122077841D01*
X124971718Y-122203282D01*
X125097159Y-122299536D01*
X125243238Y-122360044D01*
X125321619Y-122370362D01*
X125399999Y-122380682D01*
X125399999Y-122380681D01*
X125400000Y-122380682D01*
X125556762Y-122360044D01*
X125702841Y-122299536D01*
X125828282Y-122203282D01*
X125924536Y-122077841D01*
X125985044Y-121931762D01*
X126005682Y-121775000D01*
X125985044Y-121618238D01*
X125924536Y-121472159D01*
X125828282Y-121346718D01*
X125816507Y-121337683D01*
X125783793Y-121312580D01*
X125736841Y-121251390D01*
X125725499Y-121194375D01*
X125725499Y-112541682D01*
X125745461Y-112467183D01*
X125769136Y-112436328D01*
X129495142Y-108710322D01*
X129561935Y-108671760D01*
X129639063Y-108671760D01*
X129705858Y-108710324D01*
X129744422Y-108777119D01*
X129749499Y-108815683D01*
X129749499Y-125242147D01*
X129729537Y-125316647D01*
X129674999Y-125371185D01*
X129600499Y-125391147D01*
X129525999Y-125371185D01*
X129471461Y-125316647D01*
X129463375Y-125300439D01*
X129400130Y-125151610D01*
X129259018Y-124920390D01*
X129085745Y-124712180D01*
X128884002Y-124531418D01*
X128658090Y-124381956D01*
X128658086Y-124381954D01*
X128412826Y-124266980D01*
X128267372Y-124223220D01*
X128153431Y-124188940D01*
X128153427Y-124188939D01*
X128153426Y-124188939D01*
X127885439Y-124149500D01*
X127682369Y-124149500D01*
X127679665Y-124149697D01*
X127679635Y-124149699D01*
X127479844Y-124164322D01*
X127215444Y-124223220D01*
X126962445Y-124319983D01*
X126726219Y-124452561D01*
X126511827Y-124618108D01*
X126323812Y-124813121D01*
X126166200Y-125033420D01*
X126042343Y-125274325D01*
X125954882Y-125530691D01*
X125905681Y-125797066D01*
X125895788Y-126067768D01*
X125925414Y-126337017D01*
X125993928Y-126599090D01*
X126099869Y-126848389D01*
X126240979Y-127079606D01*
X126240981Y-127079608D01*
X126240982Y-127079610D01*
X126414255Y-127287820D01*
X126615998Y-127468582D01*
X126841910Y-127618044D01*
X126974104Y-127680014D01*
X127049990Y-127715588D01*
X127108973Y-127765285D01*
X127135205Y-127837815D01*
X127121658Y-127913744D01*
X127071961Y-127972727D01*
X126999431Y-127998959D01*
X126986746Y-127999500D01*
X93508903Y-127999500D01*
X93434403Y-127979538D01*
X93379865Y-127925000D01*
X93359903Y-127850500D01*
X93379865Y-127776000D01*
X93434403Y-127721462D01*
X93455676Y-127711332D01*
X93537554Y-127680016D01*
X93537558Y-127680014D01*
X93773777Y-127547441D01*
X93988177Y-127381888D01*
X94176186Y-127186881D01*
X94333799Y-126966579D01*
X94457656Y-126725675D01*
X94545118Y-126469305D01*
X94594319Y-126202933D01*
X94604212Y-125932235D01*
X94574586Y-125662982D01*
X94506072Y-125400912D01*
X94501922Y-125391147D01*
X94400130Y-125151610D01*
X94259020Y-124920393D01*
X94085745Y-124712180D01*
X94085745Y-124712179D01*
X93884002Y-124531418D01*
X93658090Y-124381956D01*
X93658086Y-124381954D01*
X93412826Y-124266980D01*
X93267372Y-124223220D01*
X93153431Y-124188940D01*
X93153427Y-124188939D01*
X93153426Y-124188939D01*
X92885439Y-124149500D01*
X92682369Y-124149500D01*
X92679665Y-124149697D01*
X92679635Y-124149699D01*
X92479844Y-124164322D01*
X92215444Y-124223220D01*
X91962445Y-124319983D01*
X91726219Y-124452561D01*
X91511827Y-124618108D01*
X91323812Y-124813121D01*
X91166200Y-125033420D01*
X91042343Y-125274326D01*
X91040519Y-125279674D01*
X90997571Y-125343738D01*
X90928345Y-125377745D01*
X90851390Y-125372583D01*
X90787326Y-125329635D01*
X90753319Y-125260409D01*
X90750500Y-125231564D01*
X90750500Y-122869748D01*
X91619500Y-122869748D01*
X91631132Y-122928229D01*
X91631132Y-122928230D01*
X91631133Y-122928231D01*
X91675448Y-122994552D01*
X91741769Y-123038867D01*
X91800252Y-123050500D01*
X93539748Y-123050500D01*
X93598231Y-123038867D01*
X93664552Y-122994552D01*
X93708867Y-122928231D01*
X93720500Y-122869748D01*
X93720500Y-122109500D01*
X93740462Y-122035000D01*
X93795000Y-121980462D01*
X93869500Y-121960500D01*
X94015481Y-121960500D01*
X94089981Y-121980462D01*
X94144519Y-122035000D01*
X94163763Y-122094895D01*
X94174699Y-122205932D01*
X94234767Y-122403952D01*
X94332316Y-122586451D01*
X94463589Y-122746410D01*
X94574901Y-122837760D01*
X94623550Y-122877685D01*
X94806046Y-122975232D01*
X95004066Y-123035300D01*
X95107032Y-123045441D01*
X95209999Y-123055583D01*
X95209999Y-123055582D01*
X95210000Y-123055583D01*
X95415934Y-123035300D01*
X95613954Y-122975232D01*
X95796450Y-122877685D01*
X95956410Y-122746410D01*
X96087685Y-122586450D01*
X96185232Y-122403954D01*
X96245300Y-122205934D01*
X96265583Y-122000000D01*
X96694416Y-122000000D01*
X96714699Y-122205932D01*
X96774767Y-122403952D01*
X96872316Y-122586451D01*
X97003589Y-122746410D01*
X97114901Y-122837760D01*
X97163550Y-122877685D01*
X97346046Y-122975232D01*
X97544066Y-123035300D01*
X97750000Y-123055583D01*
X97955934Y-123035300D01*
X98153954Y-122975232D01*
X98336450Y-122877685D01*
X98496410Y-122746410D01*
X98627685Y-122586450D01*
X98725232Y-122403954D01*
X98785300Y-122205934D01*
X98805583Y-122000000D01*
X99234416Y-122000000D01*
X99254699Y-122205932D01*
X99314767Y-122403952D01*
X99412316Y-122586451D01*
X99543589Y-122746410D01*
X99654901Y-122837760D01*
X99703550Y-122877685D01*
X99886046Y-122975232D01*
X100084066Y-123035300D01*
X100290000Y-123055583D01*
X100495934Y-123035300D01*
X100612304Y-123000000D01*
X102694416Y-123000000D01*
X102714699Y-123205932D01*
X102774767Y-123403952D01*
X102872316Y-123586451D01*
X103003589Y-123746410D01*
X103114901Y-123837760D01*
X103163550Y-123877685D01*
X103346046Y-123975232D01*
X103544066Y-124035300D01*
X103750000Y-124055583D01*
X103955934Y-124035300D01*
X104153954Y-123975232D01*
X104336450Y-123877685D01*
X104496410Y-123746410D01*
X104627685Y-123586450D01*
X104725232Y-123403954D01*
X104785300Y-123205934D01*
X104805583Y-123000000D01*
X104785300Y-122794066D01*
X104725232Y-122596046D01*
X104627685Y-122413550D01*
X104534116Y-122299535D01*
X104496410Y-122253589D01*
X104336451Y-122122316D01*
X104336450Y-122122315D01*
X104153954Y-122024768D01*
X104153953Y-122024767D01*
X104153952Y-122024767D01*
X103955932Y-121964699D01*
X103750000Y-121944416D01*
X103544067Y-121964699D01*
X103346047Y-122024767D01*
X103163548Y-122122316D01*
X103003589Y-122253589D01*
X102872316Y-122413548D01*
X102774767Y-122596047D01*
X102714699Y-122794067D01*
X102694416Y-123000000D01*
X100612304Y-123000000D01*
X100693954Y-122975232D01*
X100876450Y-122877685D01*
X101036410Y-122746410D01*
X101167685Y-122586450D01*
X101265232Y-122403954D01*
X101325300Y-122205934D01*
X101345583Y-122000000D01*
X101325300Y-121794066D01*
X101265232Y-121596046D01*
X101167685Y-121413550D01*
X101105423Y-121337683D01*
X101036410Y-121253589D01*
X100876451Y-121122316D01*
X100876450Y-121122315D01*
X100693954Y-121024768D01*
X100693953Y-121024767D01*
X100693952Y-121024767D01*
X100495932Y-120964699D01*
X100289999Y-120944416D01*
X100084067Y-120964699D01*
X99886047Y-121024767D01*
X99703548Y-121122316D01*
X99543589Y-121253589D01*
X99412316Y-121413548D01*
X99314767Y-121596047D01*
X99254699Y-121794067D01*
X99234416Y-122000000D01*
X98805583Y-122000000D01*
X98785300Y-121794066D01*
X98725232Y-121596046D01*
X98627685Y-121413550D01*
X98565423Y-121337683D01*
X98496410Y-121253589D01*
X98336451Y-121122316D01*
X98336450Y-121122315D01*
X98153954Y-121024768D01*
X98153953Y-121024767D01*
X98153952Y-121024767D01*
X97955932Y-120964699D01*
X97750000Y-120944416D01*
X97544067Y-120964699D01*
X97346047Y-121024767D01*
X97163548Y-121122316D01*
X97003589Y-121253589D01*
X96872316Y-121413548D01*
X96774767Y-121596047D01*
X96714699Y-121794067D01*
X96694416Y-122000000D01*
X96265583Y-122000000D01*
X96245300Y-121794066D01*
X96185232Y-121596046D01*
X96156893Y-121543028D01*
X96128094Y-121489148D01*
X96110500Y-121418910D01*
X96110500Y-120460000D01*
X102694416Y-120460000D01*
X102714699Y-120665932D01*
X102769742Y-120847384D01*
X102774768Y-120863954D01*
X102860725Y-121024767D01*
X102872316Y-121046451D01*
X103003589Y-121206410D01*
X103087978Y-121275665D01*
X103163550Y-121337685D01*
X103346046Y-121435232D01*
X103544066Y-121495300D01*
X103750000Y-121515583D01*
X103955934Y-121495300D01*
X104153954Y-121435232D01*
X104336450Y-121337685D01*
X104496410Y-121206410D01*
X104627685Y-121046450D01*
X104725232Y-120863954D01*
X104785300Y-120665934D01*
X104805583Y-120460000D01*
X104785300Y-120254066D01*
X104725232Y-120056046D01*
X104627685Y-119873550D01*
X104587760Y-119824901D01*
X104496410Y-119713589D01*
X104341490Y-119586451D01*
X104336450Y-119582315D01*
X104153954Y-119484768D01*
X104153953Y-119484767D01*
X104153952Y-119484767D01*
X103955932Y-119424699D01*
X103750000Y-119404416D01*
X103544067Y-119424699D01*
X103346047Y-119484767D01*
X103163548Y-119582316D01*
X103003589Y-119713589D01*
X102872316Y-119873548D01*
X102774767Y-120056047D01*
X102714699Y-120254067D01*
X102694416Y-120460000D01*
X96110500Y-120460000D01*
X96110500Y-119581089D01*
X96128094Y-119510850D01*
X96142036Y-119484767D01*
X96185232Y-119403954D01*
X96245300Y-119205934D01*
X96265583Y-119000000D01*
X96694416Y-119000000D01*
X96714699Y-119205932D01*
X96757547Y-119347182D01*
X96774768Y-119403954D01*
X96870105Y-119582316D01*
X96872316Y-119586451D01*
X97003589Y-119746410D01*
X97114901Y-119837760D01*
X97163550Y-119877685D01*
X97346046Y-119975232D01*
X97544066Y-120035300D01*
X97647032Y-120045441D01*
X97749999Y-120055583D01*
X97749999Y-120055582D01*
X97750000Y-120055583D01*
X97955934Y-120035300D01*
X98153954Y-119975232D01*
X98336450Y-119877685D01*
X98496410Y-119746410D01*
X98627685Y-119586450D01*
X98725232Y-119403954D01*
X98785300Y-119205934D01*
X98805583Y-119000000D01*
X99234416Y-119000000D01*
X99254699Y-119205932D01*
X99297547Y-119347182D01*
X99314768Y-119403954D01*
X99410105Y-119582316D01*
X99412316Y-119586451D01*
X99543589Y-119746410D01*
X99654901Y-119837760D01*
X99703550Y-119877685D01*
X99886046Y-119975232D01*
X100084066Y-120035300D01*
X100187032Y-120045441D01*
X100289999Y-120055583D01*
X100289999Y-120055582D01*
X100290000Y-120055583D01*
X100495934Y-120035300D01*
X100693954Y-119975232D01*
X100876450Y-119877685D01*
X101036410Y-119746410D01*
X101167685Y-119586450D01*
X101265232Y-119403954D01*
X101325300Y-119205934D01*
X101345583Y-119000000D01*
X101325300Y-118794066D01*
X101265232Y-118596046D01*
X101167685Y-118413550D01*
X101094156Y-118323954D01*
X101036410Y-118253589D01*
X100876451Y-118122316D01*
X100876450Y-118122315D01*
X100693954Y-118024768D01*
X100693953Y-118024767D01*
X100693952Y-118024767D01*
X100495932Y-117964699D01*
X100289999Y-117944416D01*
X100084067Y-117964699D01*
X99886047Y-118024767D01*
X99703548Y-118122316D01*
X99543589Y-118253589D01*
X99412316Y-118413548D01*
X99314767Y-118596047D01*
X99254699Y-118794067D01*
X99234416Y-119000000D01*
X98805583Y-119000000D01*
X98785300Y-118794066D01*
X98725232Y-118596046D01*
X98627685Y-118413550D01*
X98554156Y-118323954D01*
X98496410Y-118253589D01*
X98336451Y-118122316D01*
X98336450Y-118122315D01*
X98153954Y-118024768D01*
X98153953Y-118024767D01*
X98153952Y-118024767D01*
X97955932Y-117964699D01*
X97749999Y-117944416D01*
X97544067Y-117964699D01*
X97346047Y-118024767D01*
X97163548Y-118122316D01*
X97003589Y-118253589D01*
X96872316Y-118413548D01*
X96774767Y-118596047D01*
X96714699Y-118794067D01*
X96694416Y-119000000D01*
X96265583Y-119000000D01*
X96245300Y-118794066D01*
X96185232Y-118596046D01*
X96087685Y-118413550D01*
X96014156Y-118323954D01*
X95956410Y-118253589D01*
X95796451Y-118122316D01*
X95796450Y-118122315D01*
X95613954Y-118024768D01*
X95613953Y-118024767D01*
X95613952Y-118024767D01*
X95415932Y-117964699D01*
X95210276Y-117944443D01*
X95138091Y-117917275D01*
X95089162Y-117857654D01*
X95076599Y-117781556D01*
X95103767Y-117709371D01*
X95119516Y-117690808D01*
X96536483Y-116273841D01*
X102400000Y-116273841D01*
X102400426Y-116281797D01*
X102406401Y-116337373D01*
X102456647Y-116472088D01*
X102542811Y-116587188D01*
X102657911Y-116673352D01*
X102792626Y-116723598D01*
X102848202Y-116729573D01*
X102856159Y-116730000D01*
X103153009Y-116730000D01*
X103227509Y-116749962D01*
X103282047Y-116804500D01*
X103302009Y-116879000D01*
X103282047Y-116953500D01*
X103227509Y-117008038D01*
X103223247Y-117010406D01*
X103163550Y-117042314D01*
X103003589Y-117173589D01*
X102872316Y-117333548D01*
X102774767Y-117516047D01*
X102714699Y-117714067D01*
X102694416Y-117920000D01*
X102714699Y-118125932D01*
X102753424Y-118253590D01*
X102774768Y-118323954D01*
X102865564Y-118493820D01*
X102872316Y-118506451D01*
X103003589Y-118666410D01*
X103114901Y-118757760D01*
X103163550Y-118797685D01*
X103346046Y-118895232D01*
X103544066Y-118955300D01*
X103750000Y-118975583D01*
X103955934Y-118955300D01*
X104153954Y-118895232D01*
X104336450Y-118797685D01*
X104496410Y-118666410D01*
X104627685Y-118506450D01*
X104725232Y-118323954D01*
X104785300Y-118125934D01*
X104805583Y-117920000D01*
X104785300Y-117714066D01*
X104725232Y-117516046D01*
X104627685Y-117333550D01*
X104587760Y-117284901D01*
X104496410Y-117173589D01*
X104336449Y-117042314D01*
X104276753Y-117010406D01*
X104220460Y-116957682D01*
X104198071Y-116883875D01*
X104215585Y-116808762D01*
X104268309Y-116752469D01*
X104342116Y-116730080D01*
X104346991Y-116730000D01*
X104643841Y-116730000D01*
X104651797Y-116729573D01*
X104707373Y-116723598D01*
X104842088Y-116673352D01*
X104957188Y-116587188D01*
X105043352Y-116472088D01*
X105093598Y-116337373D01*
X105099573Y-116281797D01*
X105100000Y-116273841D01*
X105100000Y-115630000D01*
X104183686Y-115630000D01*
X104209493Y-115589844D01*
X104250000Y-115451889D01*
X104250000Y-115308111D01*
X104209493Y-115170156D01*
X104183686Y-115130000D01*
X105100000Y-115130000D01*
X105100000Y-114486158D01*
X105099573Y-114478202D01*
X105093598Y-114422626D01*
X105043352Y-114287911D01*
X104957188Y-114172811D01*
X104842088Y-114086647D01*
X104707373Y-114036401D01*
X104651797Y-114030426D01*
X104643841Y-114030000D01*
X104000000Y-114030000D01*
X104000000Y-114944498D01*
X103892315Y-114895320D01*
X103785763Y-114880000D01*
X103714237Y-114880000D01*
X103607685Y-114895320D01*
X103500000Y-114944498D01*
X103500000Y-114030000D01*
X102856159Y-114030000D01*
X102848202Y-114030426D01*
X102792626Y-114036401D01*
X102657911Y-114086647D01*
X102542811Y-114172811D01*
X102456647Y-114287911D01*
X102406401Y-114422626D01*
X102400426Y-114478202D01*
X102400000Y-114486158D01*
X102400000Y-115130000D01*
X103316314Y-115130000D01*
X103290507Y-115170156D01*
X103250000Y-115308111D01*
X103250000Y-115451889D01*
X103290507Y-115589844D01*
X103316314Y-115630000D01*
X102400000Y-115630000D01*
X102400000Y-116273841D01*
X96536483Y-116273841D01*
X104135824Y-108674500D01*
X106475219Y-108674500D01*
X106495857Y-108831260D01*
X106495858Y-108831262D01*
X106556366Y-108977341D01*
X106652620Y-109102782D01*
X106778061Y-109199036D01*
X106924140Y-109259544D01*
X106983547Y-109267365D01*
X107080901Y-109280182D01*
X107080901Y-109280181D01*
X107080902Y-109280182D01*
X107237664Y-109259544D01*
X107383743Y-109199036D01*
X107509184Y-109102782D01*
X107605438Y-108977341D01*
X107665946Y-108831262D01*
X107686584Y-108674500D01*
X107679264Y-108618903D01*
X107689330Y-108542437D01*
X107721627Y-108494099D01*
X109727300Y-106488426D01*
X116194317Y-106488426D01*
X116214955Y-106645186D01*
X116228664Y-106678282D01*
X116275464Y-106791267D01*
X116371718Y-106916708D01*
X116497159Y-107012962D01*
X116643238Y-107073470D01*
X116800000Y-107094108D01*
X116956762Y-107073470D01*
X117102841Y-107012962D01*
X117228282Y-106916708D01*
X117324536Y-106791267D01*
X117385044Y-106645188D01*
X117405682Y-106488426D01*
X117385044Y-106331664D01*
X117324536Y-106185585D01*
X117228282Y-106060144D01*
X117102841Y-105963890D01*
X117062449Y-105947159D01*
X116956760Y-105903381D01*
X116800000Y-105882743D01*
X116643239Y-105903381D01*
X116497158Y-105963890D01*
X116371718Y-106060144D01*
X116275464Y-106185584D01*
X116214955Y-106331665D01*
X116194317Y-106488426D01*
X109727300Y-106488426D01*
X113251664Y-102964063D01*
X113318460Y-102925499D01*
X113357024Y-102920422D01*
X119009358Y-102920422D01*
X119022344Y-102920988D01*
X119058885Y-102924186D01*
X119094331Y-102914687D01*
X119106995Y-102911879D01*
X119143123Y-102905510D01*
X119143124Y-102905509D01*
X119146143Y-102904977D01*
X119167249Y-102896234D01*
X119169758Y-102894476D01*
X119169762Y-102894476D01*
X119199812Y-102873433D01*
X119210747Y-102866466D01*
X119242533Y-102848116D01*
X119242535Y-102848112D01*
X119242918Y-102847892D01*
X119305615Y-102803990D01*
X119382449Y-102797266D01*
X119413591Y-102806342D01*
X119543238Y-102860044D01*
X119700000Y-102880682D01*
X119856762Y-102860044D01*
X120002841Y-102799536D01*
X120128282Y-102703282D01*
X120224536Y-102577841D01*
X120285044Y-102431762D01*
X120305682Y-102275000D01*
X120285044Y-102118238D01*
X120224536Y-101972159D01*
X120128282Y-101846718D01*
X120002841Y-101750464D01*
X119856760Y-101689955D01*
X119700000Y-101669317D01*
X119543239Y-101689955D01*
X119397158Y-101750464D01*
X119271718Y-101846718D01*
X119163523Y-101987721D01*
X119161244Y-101985972D01*
X119151240Y-101999006D01*
X119154430Y-102001683D01*
X119113960Y-102049910D01*
X119105183Y-102059489D01*
X118938894Y-102225780D01*
X118872099Y-102264345D01*
X118833534Y-102269422D01*
X113181201Y-102269422D01*
X113168214Y-102268855D01*
X113131671Y-102265657D01*
X113096241Y-102275151D01*
X113083556Y-102277964D01*
X113044424Y-102284864D01*
X113023301Y-102293614D01*
X112990755Y-102316402D01*
X112979799Y-102323382D01*
X112948024Y-102341728D01*
X112924441Y-102369832D01*
X112915662Y-102379412D01*
X107261304Y-108033770D01*
X107194509Y-108072334D01*
X107136498Y-108076136D01*
X107080903Y-108068817D01*
X106924141Y-108089455D01*
X106778060Y-108149964D01*
X106652620Y-108246218D01*
X106556366Y-108371658D01*
X106495857Y-108517739D01*
X106475219Y-108674500D01*
X104135824Y-108674500D01*
X112048026Y-100762299D01*
X115082518Y-100762299D01*
X115103156Y-100919059D01*
X115103157Y-100919061D01*
X115163665Y-101065140D01*
X115259919Y-101190581D01*
X115385360Y-101286835D01*
X115531439Y-101347343D01*
X115609819Y-101357661D01*
X115688200Y-101367981D01*
X115688200Y-101367980D01*
X115688201Y-101367981D01*
X115844963Y-101347343D01*
X115991042Y-101286835D01*
X116116483Y-101190581D01*
X116212737Y-101065140D01*
X116273245Y-100919061D01*
X116293883Y-100762299D01*
X116273245Y-100605537D01*
X116212737Y-100459458D01*
X116132480Y-100354865D01*
X116102967Y-100283612D01*
X116113034Y-100207143D01*
X116132478Y-100173464D01*
X116225036Y-100052841D01*
X116285544Y-99906762D01*
X116306182Y-99750000D01*
X116285544Y-99593238D01*
X116225036Y-99447159D01*
X116128782Y-99321718D01*
X116128781Y-99321717D01*
X116128194Y-99320952D01*
X116098679Y-99249695D01*
X116108746Y-99173227D01*
X116128194Y-99139542D01*
X116128782Y-99138776D01*
X116225036Y-99013335D01*
X116285544Y-98867256D01*
X116306182Y-98710494D01*
X116285544Y-98553732D01*
X116225036Y-98407653D01*
X116128782Y-98282212D01*
X116003341Y-98185958D01*
X116003341Y-98185957D01*
X115857260Y-98125449D01*
X115700499Y-98104811D01*
X115543739Y-98125449D01*
X115397658Y-98185958D01*
X115272218Y-98282212D01*
X115175964Y-98407652D01*
X115115455Y-98553733D01*
X115094817Y-98710493D01*
X115115455Y-98867254D01*
X115175964Y-99013335D01*
X115272805Y-99139542D01*
X115302320Y-99210799D01*
X115292253Y-99287268D01*
X115272805Y-99320952D01*
X115175964Y-99447158D01*
X115115455Y-99593239D01*
X115094817Y-99749999D01*
X115115455Y-99906760D01*
X115143514Y-99974500D01*
X115175964Y-100052841D01*
X115236138Y-100131262D01*
X115256218Y-100157430D01*
X115285733Y-100228687D01*
X115275666Y-100305155D01*
X115256218Y-100338840D01*
X115163665Y-100459457D01*
X115103156Y-100605538D01*
X115082518Y-100762299D01*
X112048026Y-100762299D01*
X116703433Y-96106892D01*
X116770229Y-96068328D01*
X116808793Y-96063251D01*
X117905289Y-96063251D01*
X117979789Y-96083213D01*
X118034327Y-96137751D01*
X118054289Y-96212251D01*
X118034327Y-96286751D01*
X118023499Y-96302956D01*
X117924964Y-96431369D01*
X117864455Y-96577450D01*
X117843817Y-96734211D01*
X117864455Y-96890971D01*
X117907985Y-96996062D01*
X117924964Y-97037052D01*
X118021218Y-97162493D01*
X118146659Y-97258747D01*
X118292738Y-97319255D01*
X118295321Y-97319595D01*
X118437046Y-97338254D01*
X118508303Y-97367769D01*
X118555256Y-97428959D01*
X118565323Y-97505427D01*
X118562680Y-97525499D01*
X118583318Y-97682260D01*
X118593270Y-97706287D01*
X118643827Y-97828341D01*
X118740081Y-97953782D01*
X118865522Y-98050036D01*
X119011601Y-98110544D01*
X119063854Y-98117423D01*
X119168361Y-98131182D01*
X119168361Y-98131181D01*
X119168363Y-98131182D01*
X119227366Y-98123414D01*
X119303834Y-98133481D01*
X119365024Y-98180433D01*
X119394540Y-98251689D01*
X119394540Y-98251691D01*
X119414955Y-98406760D01*
X119435013Y-98455184D01*
X119475464Y-98552841D01*
X119571718Y-98678282D01*
X119697159Y-98774536D01*
X119775351Y-98806924D01*
X119836541Y-98853876D01*
X119866057Y-98925133D01*
X119860514Y-98967248D01*
X119864507Y-98967774D01*
X119841308Y-99143983D01*
X119861946Y-99300743D01*
X119861947Y-99300745D01*
X119890143Y-99368817D01*
X119896363Y-99383832D01*
X119906430Y-99460300D01*
X119876915Y-99531557D01*
X119849410Y-99559062D01*
X119695561Y-99677114D01*
X119624304Y-99706629D01*
X119547836Y-99696562D01*
X119486646Y-99649609D01*
X119446445Y-99597218D01*
X119407312Y-99546218D01*
X119388205Y-99531557D01*
X119281871Y-99449964D01*
X119135790Y-99389455D01*
X118979029Y-99368817D01*
X118822269Y-99389455D01*
X118676188Y-99449964D01*
X118550748Y-99546218D01*
X118454494Y-99671658D01*
X118393985Y-99817739D01*
X118373347Y-99974500D01*
X118393985Y-100131260D01*
X118411464Y-100173457D01*
X118454494Y-100277341D01*
X118550748Y-100402782D01*
X118676189Y-100499036D01*
X118822268Y-100559544D01*
X118900649Y-100569863D01*
X118979029Y-100580182D01*
X118979029Y-100580181D01*
X118979030Y-100580182D01*
X119135792Y-100559544D01*
X119281871Y-100499036D01*
X119407312Y-100402782D01*
X119407314Y-100402778D01*
X119421475Y-100391913D01*
X119492732Y-100362398D01*
X119569201Y-100372465D01*
X119630388Y-100419415D01*
X119709726Y-100522810D01*
X119835167Y-100619064D01*
X119981246Y-100679572D01*
X120138008Y-100700210D01*
X120294770Y-100679572D01*
X120440849Y-100619064D01*
X120566290Y-100522810D01*
X120662544Y-100397369D01*
X120723052Y-100251290D01*
X120743690Y-100094528D01*
X120723052Y-99937766D01*
X120688634Y-99854674D01*
X120678568Y-99778211D01*
X120708083Y-99706954D01*
X120735588Y-99679448D01*
X120749829Y-99668519D01*
X120749832Y-99668519D01*
X120875273Y-99572265D01*
X120971527Y-99446824D01*
X121032035Y-99300745D01*
X121052673Y-99143983D01*
X121032035Y-98987221D01*
X120971527Y-98841142D01*
X120875273Y-98715701D01*
X120812552Y-98667574D01*
X120749833Y-98619447D01*
X120671638Y-98587058D01*
X120610449Y-98540105D01*
X120580934Y-98468848D01*
X120586477Y-98426736D01*
X120582484Y-98426211D01*
X120605682Y-98250000D01*
X120586568Y-98104812D01*
X120585044Y-98093238D01*
X120524536Y-97947159D01*
X120428282Y-97821718D01*
X120302841Y-97725464D01*
X120223841Y-97692741D01*
X120156760Y-97664955D01*
X119999998Y-97644317D01*
X119940994Y-97652085D01*
X119864526Y-97642018D01*
X119803337Y-97595065D01*
X119773822Y-97523808D01*
X119753407Y-97368738D01*
X119726131Y-97302888D01*
X119692899Y-97222659D01*
X119596645Y-97097218D01*
X119471204Y-97000964D01*
X119325125Y-96940456D01*
X119325123Y-96940455D01*
X119180815Y-96921456D01*
X119109558Y-96891940D01*
X119062606Y-96830750D01*
X119052539Y-96754284D01*
X119055182Y-96734211D01*
X119055181Y-96734208D01*
X119055182Y-96734206D01*
X119034544Y-96577450D01*
X119034544Y-96577449D01*
X118974036Y-96431370D01*
X118877782Y-96305929D01*
X118875501Y-96302956D01*
X118845986Y-96231699D01*
X118856053Y-96155231D01*
X118903006Y-96094041D01*
X118974263Y-96064526D01*
X118993711Y-96063251D01*
X122767987Y-96063251D01*
X122780973Y-96063817D01*
X122817514Y-96067015D01*
X122852960Y-96057516D01*
X122865624Y-96054708D01*
X122901752Y-96048339D01*
X122901753Y-96048338D01*
X122904772Y-96047806D01*
X122925878Y-96039063D01*
X122928387Y-96037305D01*
X122928391Y-96037305D01*
X122958441Y-96016262D01*
X122969376Y-96009295D01*
X123001162Y-95990945D01*
X123024751Y-95962831D01*
X123033511Y-95953271D01*
X123249878Y-95736904D01*
X125486140Y-95736904D01*
X125506778Y-95893665D01*
X125547072Y-95990943D01*
X125567287Y-96039746D01*
X125663541Y-96165187D01*
X125788982Y-96261441D01*
X125935061Y-96321949D01*
X125958236Y-96325000D01*
X126091821Y-96342587D01*
X126091822Y-96342586D01*
X126091823Y-96342587D01*
X126145417Y-96335531D01*
X126221886Y-96345598D01*
X126283076Y-96392550D01*
X126312592Y-96463806D01*
X126312592Y-96463808D01*
X126314955Y-96481761D01*
X126354591Y-96577449D01*
X126375464Y-96627841D01*
X126471718Y-96753282D01*
X126597159Y-96849536D01*
X126743238Y-96910044D01*
X126900000Y-96930682D01*
X127056762Y-96910044D01*
X127202841Y-96849536D01*
X127328282Y-96753282D01*
X127424536Y-96627841D01*
X127485044Y-96481762D01*
X127505682Y-96325000D01*
X127500646Y-96286751D01*
X127489291Y-96200500D01*
X127485044Y-96168238D01*
X127424536Y-96022159D01*
X127328282Y-95896718D01*
X127202841Y-95800464D01*
X127105556Y-95760167D01*
X127056760Y-95739955D01*
X126899999Y-95719317D01*
X126846404Y-95726373D01*
X126769935Y-95716306D01*
X126708746Y-95669353D01*
X126679231Y-95598096D01*
X126676867Y-95580144D01*
X126633507Y-95475464D01*
X126616359Y-95434064D01*
X126520105Y-95308623D01*
X126394664Y-95212369D01*
X126338712Y-95189193D01*
X126248583Y-95151860D01*
X126091822Y-95131222D01*
X125935062Y-95151860D01*
X125788981Y-95212369D01*
X125663541Y-95308623D01*
X125567287Y-95434063D01*
X125506778Y-95580144D01*
X125486140Y-95736904D01*
X123249878Y-95736904D01*
X123317241Y-95669541D01*
X123384034Y-95630979D01*
X123442046Y-95627177D01*
X123497643Y-95634497D01*
X123497644Y-95634496D01*
X123497645Y-95634497D01*
X123576023Y-95624178D01*
X123654405Y-95613859D01*
X123800484Y-95553351D01*
X123925925Y-95457097D01*
X124022179Y-95331656D01*
X124082687Y-95185577D01*
X124103325Y-95028815D01*
X124082687Y-94872053D01*
X124022179Y-94725974D01*
X123925925Y-94600533D01*
X123800484Y-94504279D01*
X123654405Y-94443771D01*
X123654403Y-94443770D01*
X123497642Y-94423132D01*
X123340882Y-94443770D01*
X123194801Y-94504279D01*
X123069361Y-94600533D01*
X122973107Y-94725973D01*
X122912598Y-94872054D01*
X122891960Y-95028815D01*
X122899279Y-95084411D01*
X122889212Y-95160879D01*
X122856914Y-95209216D01*
X122697523Y-95368609D01*
X122630728Y-95407174D01*
X122592163Y-95412251D01*
X122462493Y-95412251D01*
X122387993Y-95392289D01*
X122333455Y-95337751D01*
X122313493Y-95263251D01*
X122324835Y-95206231D01*
X122333390Y-95185577D01*
X122340044Y-95169513D01*
X122360682Y-95012751D01*
X122340044Y-94855989D01*
X122279536Y-94709910D01*
X122183282Y-94584469D01*
X122057841Y-94488215D01*
X121950544Y-94443771D01*
X121911760Y-94427706D01*
X121754999Y-94407068D01*
X121598239Y-94427706D01*
X121452158Y-94488215D01*
X121326717Y-94584469D01*
X121292582Y-94628956D01*
X121231392Y-94675909D01*
X121174372Y-94687251D01*
X116677970Y-94687251D01*
X116664983Y-94686684D01*
X116628440Y-94683486D01*
X116593010Y-94692980D01*
X116580325Y-94695793D01*
X116541193Y-94702693D01*
X116520070Y-94711443D01*
X116487524Y-94734231D01*
X116476568Y-94741211D01*
X116444793Y-94759557D01*
X116421210Y-94787661D01*
X116412431Y-94797241D01*
X93303815Y-117905859D01*
X93237020Y-117944423D01*
X93198456Y-117949500D01*
X91800252Y-117949500D01*
X91741770Y-117961132D01*
X91675448Y-118005448D01*
X91631132Y-118071770D01*
X91619500Y-118130251D01*
X91619500Y-119869748D01*
X91631132Y-119928229D01*
X91631132Y-119928230D01*
X91631133Y-119928231D01*
X91675448Y-119994552D01*
X91741769Y-120038867D01*
X91800252Y-120050500D01*
X93554423Y-120050500D01*
X93554423Y-120053661D01*
X93608390Y-120057197D01*
X93672521Y-120100045D01*
X93706636Y-120169218D01*
X93709500Y-120198291D01*
X93709500Y-120801708D01*
X93689538Y-120876208D01*
X93635000Y-120930746D01*
X93560500Y-120950708D01*
X93548226Y-120949500D01*
X93539748Y-120949500D01*
X91800252Y-120949500D01*
X91741770Y-120961132D01*
X91675448Y-121005448D01*
X91631132Y-121071770D01*
X91619500Y-121130251D01*
X91619500Y-122869748D01*
X90750500Y-122869748D01*
X90750500Y-114000000D01*
X91356934Y-114000000D01*
X91373417Y-114146287D01*
X91377132Y-114179255D01*
X91436711Y-114349522D01*
X91532684Y-114502262D01*
X91660238Y-114629816D01*
X91812978Y-114725789D01*
X91983245Y-114785368D01*
X92117546Y-114800500D01*
X92121735Y-114800500D01*
X92903265Y-114800500D01*
X92907454Y-114800500D01*
X93041755Y-114785368D01*
X93212022Y-114725789D01*
X93364762Y-114629816D01*
X93492316Y-114502262D01*
X93588289Y-114349522D01*
X93647868Y-114179255D01*
X93668065Y-114000000D01*
X93647868Y-113820745D01*
X93588289Y-113650478D01*
X93492316Y-113497738D01*
X93364762Y-113370184D01*
X93212022Y-113274211D01*
X93041755Y-113214632D01*
X92907454Y-113199500D01*
X92117546Y-113199500D01*
X92113384Y-113199968D01*
X92113382Y-113199969D01*
X92035603Y-113208732D01*
X91983245Y-113214632D01*
X91898111Y-113244421D01*
X91812977Y-113274211D01*
X91660237Y-113370184D01*
X91532684Y-113497737D01*
X91436711Y-113650477D01*
X91406921Y-113735611D01*
X91382320Y-113805920D01*
X91377132Y-113820746D01*
X91356934Y-114000000D01*
X90750500Y-114000000D01*
X90750500Y-113000000D01*
X94281902Y-113000000D01*
X94302238Y-113193485D01*
X94362354Y-113378504D01*
X94459630Y-113546992D01*
X94589808Y-113691569D01*
X94720584Y-113786584D01*
X94747201Y-113805922D01*
X94924929Y-113885051D01*
X95115226Y-113925500D01*
X95309774Y-113925500D01*
X95500071Y-113885051D01*
X95677799Y-113805922D01*
X95835192Y-113691569D01*
X95965370Y-113546992D01*
X96062644Y-113378508D01*
X96122762Y-113193482D01*
X96143098Y-113000000D01*
X96122762Y-112806518D01*
X96073975Y-112656367D01*
X96062645Y-112621495D01*
X96062644Y-112621494D01*
X96062644Y-112621492D01*
X95965370Y-112453008D01*
X95835192Y-112308431D01*
X95799124Y-112282226D01*
X95677801Y-112194079D01*
X95670840Y-112190980D01*
X95500071Y-112114949D01*
X95500069Y-112114948D01*
X95309774Y-112074500D01*
X95115226Y-112074500D01*
X94924930Y-112114948D01*
X94747198Y-112194079D01*
X94589808Y-112308430D01*
X94459630Y-112453007D01*
X94362354Y-112621495D01*
X94302238Y-112806514D01*
X94281902Y-113000000D01*
X90750500Y-113000000D01*
X90750500Y-108000000D01*
X94281902Y-108000000D01*
X94302238Y-108193485D01*
X94362354Y-108378504D01*
X94362355Y-108378506D01*
X94362356Y-108378508D01*
X94436884Y-108507595D01*
X94459630Y-108546992D01*
X94589808Y-108691569D01*
X94723166Y-108788460D01*
X94747201Y-108805922D01*
X94924929Y-108885051D01*
X95115226Y-108925500D01*
X95309774Y-108925500D01*
X95500071Y-108885051D01*
X95677799Y-108805922D01*
X95835192Y-108691569D01*
X95965370Y-108546992D01*
X95967420Y-108543440D01*
X96021957Y-108488901D01*
X96096457Y-108468937D01*
X96170957Y-108488898D01*
X96225496Y-108543434D01*
X96234118Y-108560918D01*
X96236539Y-108566764D01*
X96236540Y-108566765D01*
X96332794Y-108692206D01*
X96458235Y-108788460D01*
X96604314Y-108848968D01*
X96761076Y-108869606D01*
X96917838Y-108848968D01*
X97063917Y-108788460D01*
X97189358Y-108692206D01*
X97285612Y-108566765D01*
X97346120Y-108420686D01*
X97366758Y-108263924D01*
X97346120Y-108107162D01*
X97291376Y-107974999D01*
X98894817Y-107974999D01*
X98915455Y-108131760D01*
X98962865Y-108246218D01*
X98975964Y-108277841D01*
X99072218Y-108403282D01*
X99197659Y-108499536D01*
X99343738Y-108560044D01*
X99422119Y-108570363D01*
X99500499Y-108580682D01*
X99500499Y-108580681D01*
X99500500Y-108580682D01*
X99657262Y-108560044D01*
X99803341Y-108499536D01*
X99928782Y-108403282D01*
X100025036Y-108277841D01*
X100085544Y-108131762D01*
X100106182Y-107975000D01*
X100085544Y-107818238D01*
X100025036Y-107672159D01*
X99928782Y-107546718D01*
X99803341Y-107450464D01*
X99657262Y-107389956D01*
X99657260Y-107389955D01*
X99500499Y-107369317D01*
X99343739Y-107389955D01*
X99197658Y-107450464D01*
X99072218Y-107546718D01*
X98975964Y-107672158D01*
X98915455Y-107818239D01*
X98894817Y-107974999D01*
X97291376Y-107974999D01*
X97285612Y-107961083D01*
X97189358Y-107835642D01*
X97063917Y-107739388D01*
X96917838Y-107678880D01*
X96917836Y-107678879D01*
X96761076Y-107658241D01*
X96604315Y-107678879D01*
X96458232Y-107739389D01*
X96339512Y-107830485D01*
X96268255Y-107860000D01*
X96191787Y-107849933D01*
X96130598Y-107802979D01*
X96107102Y-107758323D01*
X96062644Y-107621492D01*
X95965370Y-107453008D01*
X95835192Y-107308431D01*
X95835191Y-107308430D01*
X95677801Y-107194079D01*
X95500069Y-107114948D01*
X95309774Y-107074500D01*
X95115226Y-107074500D01*
X94924930Y-107114948D01*
X94747198Y-107194079D01*
X94589808Y-107308430D01*
X94459630Y-107453007D01*
X94362354Y-107621495D01*
X94302238Y-107806514D01*
X94281902Y-108000000D01*
X90750500Y-108000000D01*
X90750500Y-106999999D01*
X91356934Y-106999999D01*
X91373041Y-107142949D01*
X91377132Y-107179255D01*
X91436711Y-107349522D01*
X91532684Y-107502262D01*
X91660238Y-107629816D01*
X91812978Y-107725789D01*
X91983245Y-107785368D01*
X92117546Y-107800500D01*
X92121735Y-107800500D01*
X92903265Y-107800500D01*
X92907454Y-107800500D01*
X93041755Y-107785368D01*
X93212022Y-107725789D01*
X93364762Y-107629816D01*
X93492316Y-107502262D01*
X93588289Y-107349522D01*
X93647868Y-107179255D01*
X93668065Y-107000000D01*
X93647868Y-106820745D01*
X93588289Y-106650478D01*
X93492316Y-106497738D01*
X93364762Y-106370184D01*
X93212022Y-106274211D01*
X93041755Y-106214632D01*
X92907454Y-106199500D01*
X92117546Y-106199500D01*
X92113384Y-106199968D01*
X92113382Y-106199969D01*
X92057531Y-106206262D01*
X91983245Y-106214632D01*
X91898111Y-106244421D01*
X91812977Y-106274211D01*
X91660237Y-106370184D01*
X91532684Y-106497737D01*
X91436711Y-106650477D01*
X91408686Y-106730569D01*
X91381318Y-106808784D01*
X91377132Y-106820746D01*
X91356934Y-106999999D01*
X90750500Y-106999999D01*
X90750500Y-100749999D01*
X97894317Y-100749999D01*
X97914955Y-100906760D01*
X97920050Y-100919061D01*
X97975464Y-101052841D01*
X98071718Y-101178282D01*
X98197159Y-101274536D01*
X98343238Y-101335044D01*
X98500000Y-101355682D01*
X98656762Y-101335044D01*
X98802841Y-101274536D01*
X98928282Y-101178282D01*
X99024536Y-101052841D01*
X99085044Y-100906762D01*
X99105682Y-100750000D01*
X99085044Y-100593238D01*
X99046423Y-100500000D01*
X104394317Y-100500000D01*
X104414955Y-100656760D01*
X104458671Y-100762299D01*
X104475464Y-100802841D01*
X104571718Y-100928282D01*
X104697159Y-101024536D01*
X104843238Y-101085044D01*
X105000000Y-101105682D01*
X105156762Y-101085044D01*
X105302841Y-101024536D01*
X105428282Y-100928282D01*
X105524536Y-100802841D01*
X105585044Y-100656762D01*
X105605682Y-100500000D01*
X105585044Y-100343238D01*
X105524536Y-100197159D01*
X105428282Y-100071718D01*
X105302841Y-99975464D01*
X105300514Y-99974500D01*
X105156760Y-99914955D01*
X105000000Y-99894317D01*
X104843239Y-99914955D01*
X104697158Y-99975464D01*
X104571718Y-100071718D01*
X104475464Y-100197158D01*
X104414955Y-100343239D01*
X104394317Y-100500000D01*
X99046423Y-100500000D01*
X99024536Y-100447159D01*
X98928282Y-100321718D01*
X98802841Y-100225464D01*
X98734507Y-100197159D01*
X98656760Y-100164955D01*
X98500000Y-100144317D01*
X98343239Y-100164955D01*
X98197158Y-100225464D01*
X98071718Y-100321718D01*
X97975464Y-100447158D01*
X97914955Y-100593239D01*
X97894317Y-100749999D01*
X90750500Y-100749999D01*
X90750500Y-96749999D01*
X94494866Y-96749999D01*
X94513301Y-96878224D01*
X94567117Y-96996062D01*
X94602634Y-97037052D01*
X94651951Y-97093967D01*
X94760931Y-97164004D01*
X94885228Y-97200500D01*
X94885229Y-97200500D01*
X95014771Y-97200500D01*
X95014772Y-97200500D01*
X95139069Y-97164004D01*
X95248049Y-97093967D01*
X95332882Y-96996063D01*
X95380876Y-96890973D01*
X95386698Y-96878224D01*
X95405133Y-96749999D01*
X95794866Y-96749999D01*
X95813301Y-96878224D01*
X95867117Y-96996062D01*
X95867118Y-96996063D01*
X95951951Y-97093967D01*
X96060931Y-97164004D01*
X96060932Y-97164004D01*
X96070965Y-97170452D01*
X96122846Y-97227523D01*
X96139241Y-97302888D01*
X96115757Y-97376354D01*
X96081117Y-97414007D01*
X96071719Y-97421218D01*
X95975464Y-97546660D01*
X95914955Y-97692741D01*
X95894317Y-97849502D01*
X95914955Y-98006262D01*
X95933087Y-98050036D01*
X95975464Y-98152343D01*
X96071718Y-98277784D01*
X96197159Y-98374038D01*
X96343238Y-98434546D01*
X96421619Y-98444865D01*
X96499999Y-98455184D01*
X96499999Y-98455183D01*
X96500000Y-98455184D01*
X96656762Y-98434546D01*
X96802841Y-98374038D01*
X96928282Y-98277784D01*
X97024536Y-98152343D01*
X97085044Y-98006264D01*
X97105682Y-97849502D01*
X97085044Y-97692740D01*
X97024536Y-97546661D01*
X96928282Y-97421220D01*
X96802841Y-97324966D01*
X96789874Y-97319595D01*
X96658948Y-97265363D01*
X96597758Y-97218410D01*
X96568243Y-97147153D01*
X96578310Y-97070685D01*
X96603360Y-97030133D01*
X96632882Y-96996063D01*
X96680876Y-96890973D01*
X96686698Y-96878224D01*
X96705133Y-96749999D01*
X96686698Y-96621775D01*
X96632882Y-96503937D01*
X96548049Y-96406033D01*
X96500299Y-96375346D01*
X96448419Y-96318276D01*
X96432024Y-96242910D01*
X96455508Y-96169445D01*
X96500299Y-96124653D01*
X96548049Y-96093967D01*
X96632882Y-95996063D01*
X96686697Y-95878226D01*
X96686696Y-95878226D01*
X96686698Y-95878224D01*
X96705133Y-95749999D01*
X96686698Y-95621775D01*
X96632882Y-95503937D01*
X96608210Y-95475464D01*
X96548049Y-95406033D01*
X96500299Y-95375346D01*
X96448419Y-95318276D01*
X96432024Y-95242910D01*
X96455508Y-95169445D01*
X96500299Y-95124653D01*
X96548049Y-95093967D01*
X96632882Y-94996063D01*
X96686697Y-94878226D01*
X96686696Y-94878226D01*
X96686698Y-94878224D01*
X96705133Y-94749999D01*
X96686698Y-94621775D01*
X96632882Y-94503937D01*
X96548050Y-94406034D01*
X96548049Y-94406033D01*
X96439069Y-94335996D01*
X96314772Y-94299500D01*
X96185228Y-94299500D01*
X96060930Y-94335996D01*
X96060931Y-94335996D01*
X95951949Y-94406034D01*
X95867117Y-94503937D01*
X95813301Y-94621775D01*
X95794866Y-94749999D01*
X95813301Y-94878224D01*
X95867117Y-94996062D01*
X95867118Y-94996063D01*
X95951951Y-95093967D01*
X95975405Y-95109040D01*
X95999700Y-95124654D01*
X96051581Y-95181725D01*
X96067975Y-95257091D01*
X96044490Y-95330556D01*
X95999700Y-95375346D01*
X95951952Y-95406032D01*
X95867117Y-95503937D01*
X95813301Y-95621775D01*
X95794866Y-95749999D01*
X95813301Y-95878224D01*
X95867117Y-95996062D01*
X95867118Y-95996063D01*
X95951951Y-96093967D01*
X95972063Y-96106892D01*
X95999700Y-96124654D01*
X96051581Y-96181725D01*
X96067975Y-96257091D01*
X96044490Y-96330556D01*
X95999700Y-96375346D01*
X95951952Y-96406032D01*
X95867117Y-96503937D01*
X95813301Y-96621775D01*
X95794866Y-96749999D01*
X95405133Y-96749999D01*
X95386698Y-96621775D01*
X95332882Y-96503937D01*
X95248049Y-96406033D01*
X95200299Y-96375346D01*
X95148419Y-96318276D01*
X95132024Y-96242910D01*
X95155508Y-96169445D01*
X95200299Y-96124653D01*
X95248049Y-96093967D01*
X95332882Y-95996063D01*
X95386697Y-95878226D01*
X95386696Y-95878226D01*
X95386698Y-95878224D01*
X95405133Y-95749999D01*
X95386698Y-95621775D01*
X95332882Y-95503937D01*
X95308210Y-95475464D01*
X95248049Y-95406033D01*
X95218051Y-95386755D01*
X95200298Y-95375345D01*
X95148418Y-95318273D01*
X95132024Y-95242908D01*
X95155509Y-95169442D01*
X95200296Y-95124655D01*
X95248049Y-95093967D01*
X95332882Y-94996063D01*
X95386697Y-94878226D01*
X95386696Y-94878226D01*
X95386698Y-94878224D01*
X95405133Y-94749999D01*
X95386698Y-94621775D01*
X95332882Y-94503937D01*
X95248050Y-94406034D01*
X95248049Y-94406033D01*
X95139069Y-94335996D01*
X95014772Y-94299500D01*
X94885228Y-94299500D01*
X94760930Y-94335996D01*
X94760931Y-94335996D01*
X94651949Y-94406034D01*
X94567117Y-94503937D01*
X94513301Y-94621775D01*
X94494866Y-94749999D01*
X94513301Y-94878224D01*
X94567117Y-94996062D01*
X94567118Y-94996063D01*
X94651951Y-95093967D01*
X94675405Y-95109040D01*
X94699700Y-95124654D01*
X94751581Y-95181725D01*
X94767975Y-95257091D01*
X94744490Y-95330556D01*
X94699700Y-95375346D01*
X94651952Y-95406032D01*
X94567117Y-95503937D01*
X94513301Y-95621775D01*
X94494866Y-95749999D01*
X94513301Y-95878224D01*
X94567117Y-95996062D01*
X94567118Y-95996063D01*
X94651951Y-96093967D01*
X94672063Y-96106892D01*
X94699700Y-96124654D01*
X94751581Y-96181725D01*
X94767975Y-96257091D01*
X94744490Y-96330556D01*
X94699700Y-96375346D01*
X94651952Y-96406032D01*
X94567117Y-96503937D01*
X94513301Y-96621775D01*
X94494866Y-96749999D01*
X90750500Y-96749999D01*
X90750500Y-96000000D01*
X91118817Y-96000000D01*
X91139455Y-96156760D01*
X91193299Y-96286751D01*
X91199964Y-96302841D01*
X91296218Y-96428282D01*
X91421659Y-96524536D01*
X91567738Y-96585044D01*
X91646119Y-96595362D01*
X91724499Y-96605682D01*
X91724499Y-96605681D01*
X91724500Y-96605682D01*
X91881262Y-96585044D01*
X92027341Y-96524536D01*
X92152782Y-96428282D01*
X92249036Y-96302841D01*
X92309544Y-96156762D01*
X92330182Y-96000000D01*
X92309544Y-95843238D01*
X92249036Y-95697159D01*
X92152782Y-95571718D01*
X92027341Y-95475464D01*
X91927393Y-95434064D01*
X91910962Y-95427258D01*
X91849772Y-95380305D01*
X91820257Y-95309048D01*
X91830324Y-95232580D01*
X91877277Y-95171390D01*
X91910960Y-95151943D01*
X92050760Y-95094036D01*
X92176201Y-94997782D01*
X92272455Y-94872341D01*
X92332963Y-94726262D01*
X92353601Y-94569500D01*
X92332963Y-94412738D01*
X92272455Y-94266659D01*
X92183323Y-94150499D01*
X112573709Y-94150499D01*
X112594347Y-94307260D01*
X112594348Y-94307262D01*
X112654856Y-94453341D01*
X112751110Y-94578782D01*
X112876551Y-94675036D01*
X113022630Y-94735544D01*
X113179392Y-94756182D01*
X113336154Y-94735544D01*
X113482233Y-94675036D01*
X113607674Y-94578782D01*
X113703928Y-94453341D01*
X113764436Y-94307262D01*
X113785074Y-94150500D01*
X113764436Y-93993738D01*
X113703928Y-93847659D01*
X113607674Y-93722218D01*
X113482233Y-93625964D01*
X113336154Y-93565456D01*
X113336152Y-93565455D01*
X113179392Y-93544817D01*
X113022631Y-93565455D01*
X112876550Y-93625964D01*
X112751110Y-93722218D01*
X112654856Y-93847658D01*
X112594347Y-93993739D01*
X112573709Y-94150499D01*
X92183323Y-94150499D01*
X92176201Y-94141218D01*
X92050760Y-94044964D01*
X91904681Y-93984456D01*
X91904679Y-93984455D01*
X91747919Y-93963817D01*
X91591158Y-93984455D01*
X91445077Y-94044964D01*
X91319637Y-94141218D01*
X91223383Y-94266658D01*
X91162874Y-94412739D01*
X91142236Y-94569500D01*
X91162874Y-94726260D01*
X91216610Y-94855989D01*
X91223383Y-94872341D01*
X91319637Y-94997782D01*
X91445078Y-95094036D01*
X91561457Y-95142241D01*
X91622646Y-95189193D01*
X91652161Y-95260450D01*
X91642094Y-95336919D01*
X91595142Y-95398109D01*
X91561457Y-95417557D01*
X91421658Y-95475464D01*
X91296218Y-95571718D01*
X91199964Y-95697158D01*
X91139455Y-95843239D01*
X91118817Y-96000000D01*
X90750500Y-96000000D01*
X90750500Y-94406033D01*
X90750500Y-93500000D01*
X94894317Y-93500000D01*
X94914955Y-93656760D01*
X94914956Y-93656762D01*
X94975464Y-93802841D01*
X95071718Y-93928282D01*
X95197159Y-94024536D01*
X95343238Y-94085044D01*
X95421619Y-94095363D01*
X95499999Y-94105682D01*
X95499999Y-94105681D01*
X95500000Y-94105682D01*
X95656762Y-94085044D01*
X95802841Y-94024536D01*
X95928282Y-93928282D01*
X96024536Y-93802841D01*
X96085044Y-93656762D01*
X96105682Y-93500000D01*
X96085044Y-93343238D01*
X96024536Y-93197159D01*
X95928282Y-93071718D01*
X95802841Y-92975464D01*
X95802840Y-92975464D01*
X95656760Y-92914955D01*
X95499999Y-92894317D01*
X95343239Y-92914955D01*
X95197158Y-92975464D01*
X95071718Y-93071718D01*
X94975464Y-93197158D01*
X94914955Y-93343239D01*
X94894317Y-93500000D01*
X90750500Y-93500000D01*
X90750500Y-92891076D01*
X115061142Y-92891076D01*
X115081780Y-93047837D01*
X115081781Y-93047839D01*
X115142289Y-93193918D01*
X115238543Y-93319359D01*
X115363984Y-93415613D01*
X115510063Y-93476121D01*
X115666825Y-93496759D01*
X115823587Y-93476121D01*
X115969666Y-93415613D01*
X116095107Y-93319359D01*
X116191361Y-93193918D01*
X116251869Y-93047839D01*
X116272507Y-92891077D01*
X116251869Y-92734315D01*
X116191361Y-92588236D01*
X116095107Y-92462795D01*
X115969666Y-92366541D01*
X115898138Y-92336913D01*
X115823585Y-92306032D01*
X115666825Y-92285394D01*
X115510064Y-92306032D01*
X115363983Y-92366541D01*
X115238543Y-92462795D01*
X115142289Y-92588235D01*
X115081780Y-92734316D01*
X115061142Y-92891076D01*
X90750500Y-92891076D01*
X90750500Y-90250000D01*
X94394317Y-90250000D01*
X94414955Y-90406760D01*
X94414956Y-90406762D01*
X94475464Y-90552841D01*
X94571718Y-90678282D01*
X94697159Y-90774536D01*
X94843238Y-90835044D01*
X95000000Y-90855682D01*
X95156762Y-90835044D01*
X95302841Y-90774536D01*
X95428282Y-90678282D01*
X95524536Y-90552841D01*
X95585044Y-90406762D01*
X95605682Y-90250000D01*
X95585044Y-90093238D01*
X95524536Y-89947159D01*
X95428282Y-89821718D01*
X95302841Y-89725464D01*
X95156762Y-89664956D01*
X95156760Y-89664955D01*
X95000000Y-89644317D01*
X94843239Y-89664955D01*
X94697158Y-89725464D01*
X94571718Y-89821718D01*
X94475464Y-89947158D01*
X94414955Y-90093239D01*
X94394317Y-90250000D01*
X90750500Y-90250000D01*
X90750500Y-87250000D01*
X101394317Y-87250000D01*
X101414955Y-87406760D01*
X101414956Y-87406762D01*
X101475464Y-87552841D01*
X101571718Y-87678282D01*
X101697159Y-87774536D01*
X101843238Y-87835044D01*
X101921619Y-87845363D01*
X101999999Y-87855682D01*
X101999999Y-87855681D01*
X102000000Y-87855682D01*
X102156762Y-87835044D01*
X102302841Y-87774536D01*
X102428282Y-87678282D01*
X102524536Y-87552841D01*
X102529855Y-87540000D01*
X124229819Y-87540000D01*
X124248507Y-87753618D01*
X124304008Y-87960747D01*
X124394631Y-88155090D01*
X124394632Y-88155091D01*
X124517627Y-88330745D01*
X124669255Y-88482373D01*
X124844909Y-88605368D01*
X125039253Y-88695992D01*
X125246381Y-88751492D01*
X125460000Y-88770181D01*
X125673619Y-88751492D01*
X125880747Y-88695992D01*
X126075091Y-88605368D01*
X126250745Y-88482373D01*
X126402373Y-88330745D01*
X126525368Y-88155091D01*
X126615992Y-87960747D01*
X126671492Y-87753619D01*
X126690181Y-87540000D01*
X126671492Y-87326381D01*
X126615992Y-87119253D01*
X126603861Y-87093239D01*
X126525368Y-86924911D01*
X126525368Y-86924910D01*
X126402373Y-86749255D01*
X126250745Y-86597627D01*
X126075091Y-86474632D01*
X126075092Y-86474632D01*
X126075090Y-86474631D01*
X125880747Y-86384008D01*
X125673618Y-86328507D01*
X125460000Y-86309819D01*
X125246381Y-86328507D01*
X125039252Y-86384007D01*
X124844911Y-86474631D01*
X124669254Y-86597627D01*
X124517627Y-86749254D01*
X124394631Y-86924911D01*
X124304007Y-87119252D01*
X124248507Y-87326381D01*
X124229819Y-87540000D01*
X102529855Y-87540000D01*
X102585044Y-87406762D01*
X102605682Y-87250000D01*
X102585044Y-87093238D01*
X102524536Y-86947159D01*
X102428282Y-86821718D01*
X102302841Y-86725464D01*
X102156762Y-86664956D01*
X102156760Y-86664955D01*
X101999999Y-86644317D01*
X101843239Y-86664955D01*
X101697158Y-86725464D01*
X101571718Y-86821718D01*
X101475464Y-86947158D01*
X101414955Y-87093239D01*
X101394317Y-87250000D01*
X90750500Y-87250000D01*
X90750500Y-86149999D01*
X108494317Y-86149999D01*
X108514955Y-86306760D01*
X108524814Y-86330562D01*
X108575464Y-86452841D01*
X108671718Y-86578282D01*
X108797159Y-86674536D01*
X108943238Y-86735044D01*
X109021619Y-86745363D01*
X109099999Y-86755682D01*
X109099999Y-86755681D01*
X109100000Y-86755682D01*
X109256762Y-86735044D01*
X109402841Y-86674536D01*
X109528282Y-86578282D01*
X109624536Y-86452841D01*
X109685044Y-86306762D01*
X109705682Y-86150000D01*
X109685044Y-85993238D01*
X109624536Y-85847159D01*
X109528282Y-85721718D01*
X109402841Y-85625464D01*
X109256762Y-85564956D01*
X109256760Y-85564955D01*
X109099999Y-85544317D01*
X108943239Y-85564955D01*
X108797158Y-85625464D01*
X108671718Y-85721718D01*
X108575464Y-85847158D01*
X108514955Y-85993239D01*
X108494317Y-86149999D01*
X90750500Y-86149999D01*
X90750500Y-84654952D01*
X102889367Y-84654952D01*
X102910005Y-84811712D01*
X102910006Y-84811714D01*
X102970514Y-84957793D01*
X103066768Y-85083234D01*
X103192209Y-85179488D01*
X103338288Y-85239996D01*
X103416669Y-85250314D01*
X103495049Y-85260634D01*
X103495049Y-85260633D01*
X103495050Y-85260634D01*
X103651812Y-85239996D01*
X103797891Y-85179488D01*
X103923332Y-85083234D01*
X103987200Y-84999999D01*
X105394317Y-84999999D01*
X105414955Y-85156760D01*
X105414956Y-85156762D01*
X105475464Y-85302841D01*
X105571718Y-85428282D01*
X105697159Y-85524536D01*
X105843238Y-85585044D01*
X105921619Y-85595363D01*
X105999999Y-85605682D01*
X105999999Y-85605681D01*
X106000000Y-85605682D01*
X106156762Y-85585044D01*
X106302841Y-85524536D01*
X106428282Y-85428282D01*
X106524536Y-85302841D01*
X106585044Y-85156762D01*
X106605682Y-85000000D01*
X106605682Y-84999999D01*
X121589437Y-84999999D01*
X121609650Y-85231050D01*
X121669679Y-85455079D01*
X121767698Y-85665281D01*
X121767699Y-85665282D01*
X121900730Y-85855269D01*
X122064731Y-86019270D01*
X122251430Y-86149999D01*
X122254718Y-86152301D01*
X122464920Y-86250320D01*
X122688949Y-86310349D01*
X122709162Y-86312117D01*
X122920000Y-86330563D01*
X123151050Y-86310349D01*
X123375079Y-86250320D01*
X123585282Y-86152301D01*
X123775269Y-86019270D01*
X123939270Y-85855269D01*
X124072301Y-85665282D01*
X124170320Y-85455079D01*
X124230349Y-85231050D01*
X124250563Y-85000000D01*
X124250563Y-84999999D01*
X126669437Y-84999999D01*
X126689650Y-85231050D01*
X126749679Y-85455079D01*
X126847698Y-85665281D01*
X126847699Y-85665282D01*
X126980730Y-85855269D01*
X127144731Y-86019270D01*
X127331430Y-86149999D01*
X127334718Y-86152301D01*
X127544920Y-86250320D01*
X127768949Y-86310349D01*
X127787536Y-86311975D01*
X128000000Y-86330563D01*
X128231050Y-86310349D01*
X128455079Y-86250320D01*
X128665282Y-86152301D01*
X128855269Y-86019270D01*
X129019270Y-85855269D01*
X129152301Y-85665282D01*
X129250320Y-85455079D01*
X129310349Y-85231050D01*
X129330563Y-85000000D01*
X129310349Y-84768950D01*
X129291112Y-84697159D01*
X129250320Y-84544921D01*
X129228529Y-84498190D01*
X129152301Y-84334719D01*
X129019270Y-84144731D01*
X128855269Y-83980730D01*
X128665282Y-83847699D01*
X128665283Y-83847699D01*
X128665281Y-83847698D01*
X128455079Y-83749679D01*
X128231050Y-83689650D01*
X128000000Y-83669437D01*
X127768949Y-83689650D01*
X127544921Y-83749679D01*
X127334720Y-83847698D01*
X127144730Y-83980730D01*
X126980730Y-84144730D01*
X126847698Y-84334720D01*
X126749679Y-84544921D01*
X126689650Y-84768949D01*
X126669437Y-84999999D01*
X124250563Y-84999999D01*
X124230349Y-84768950D01*
X124211112Y-84697159D01*
X124170320Y-84544921D01*
X124148529Y-84498190D01*
X124072301Y-84334719D01*
X123939270Y-84144731D01*
X123775269Y-83980730D01*
X123585282Y-83847699D01*
X123585283Y-83847699D01*
X123585281Y-83847698D01*
X123375079Y-83749679D01*
X123151050Y-83689650D01*
X122920000Y-83669437D01*
X122688949Y-83689650D01*
X122464921Y-83749679D01*
X122254720Y-83847698D01*
X122064730Y-83980730D01*
X121900730Y-84144730D01*
X121767698Y-84334720D01*
X121669679Y-84544921D01*
X121609650Y-84768949D01*
X121589437Y-84999999D01*
X106605682Y-84999999D01*
X106585044Y-84843238D01*
X106524536Y-84697159D01*
X106428282Y-84571718D01*
X106302841Y-84475464D01*
X106156762Y-84414956D01*
X106156760Y-84414955D01*
X105999999Y-84394317D01*
X105843239Y-84414955D01*
X105697158Y-84475464D01*
X105571718Y-84571718D01*
X105475464Y-84697158D01*
X105414955Y-84843239D01*
X105394317Y-84999999D01*
X103987200Y-84999999D01*
X104019586Y-84957793D01*
X104080094Y-84811714D01*
X104100732Y-84654952D01*
X104080094Y-84498190D01*
X104019586Y-84352111D01*
X103923332Y-84226670D01*
X103797891Y-84130416D01*
X103651812Y-84069908D01*
X103651810Y-84069907D01*
X103495049Y-84049269D01*
X103338289Y-84069907D01*
X103192208Y-84130416D01*
X103066768Y-84226670D01*
X102970514Y-84352110D01*
X102910005Y-84498191D01*
X102889367Y-84654952D01*
X90750500Y-84654952D01*
X90750500Y-80999999D01*
X96144317Y-80999999D01*
X96164955Y-81156760D01*
X96175311Y-81181762D01*
X96225464Y-81302841D01*
X96321718Y-81428282D01*
X96447159Y-81524536D01*
X96593238Y-81585044D01*
X96671619Y-81595363D01*
X96749999Y-81605682D01*
X96749999Y-81605681D01*
X96750000Y-81605682D01*
X96906762Y-81585044D01*
X97052841Y-81524536D01*
X97178282Y-81428282D01*
X97274536Y-81302841D01*
X97335044Y-81156762D01*
X97355682Y-81000000D01*
X97355682Y-80999999D01*
X106144317Y-80999999D01*
X106164955Y-81156760D01*
X106175311Y-81181762D01*
X106225464Y-81302841D01*
X106321718Y-81428282D01*
X106447159Y-81524536D01*
X106593238Y-81585044D01*
X106750000Y-81605682D01*
X106906762Y-81585044D01*
X107052841Y-81524536D01*
X107178282Y-81428282D01*
X107274536Y-81302841D01*
X107335044Y-81156762D01*
X107352391Y-81025000D01*
X113444317Y-81025000D01*
X113464955Y-81181760D01*
X113464956Y-81181762D01*
X113525464Y-81327841D01*
X113621718Y-81453282D01*
X113747159Y-81549536D01*
X113893238Y-81610044D01*
X114050000Y-81630682D01*
X114206762Y-81610044D01*
X114352841Y-81549536D01*
X114478282Y-81453282D01*
X114574536Y-81327841D01*
X114635044Y-81181762D01*
X114655682Y-81025000D01*
X114635044Y-80868238D01*
X114574536Y-80722159D01*
X114478282Y-80596718D01*
X114352841Y-80500464D01*
X114206762Y-80439956D01*
X114206760Y-80439955D01*
X114050000Y-80419317D01*
X113893239Y-80439955D01*
X113747158Y-80500464D01*
X113621718Y-80596718D01*
X113525464Y-80722158D01*
X113464955Y-80868239D01*
X113444317Y-81025000D01*
X107352391Y-81025000D01*
X107355682Y-81000000D01*
X107335044Y-80843238D01*
X107274536Y-80697159D01*
X107178282Y-80571718D01*
X107052841Y-80475464D01*
X106917293Y-80419318D01*
X106906760Y-80414955D01*
X106750000Y-80394317D01*
X106593239Y-80414955D01*
X106447158Y-80475464D01*
X106321718Y-80571718D01*
X106225464Y-80697158D01*
X106164955Y-80843239D01*
X106144317Y-80999999D01*
X97355682Y-80999999D01*
X97335044Y-80843238D01*
X97274536Y-80697159D01*
X97178282Y-80571718D01*
X97052841Y-80475464D01*
X96917293Y-80419318D01*
X96906760Y-80414955D01*
X96749999Y-80394317D01*
X96593239Y-80414955D01*
X96447158Y-80475464D01*
X96321718Y-80571718D01*
X96225464Y-80697158D01*
X96164955Y-80843239D01*
X96144317Y-80999999D01*
X90750500Y-80999999D01*
X90750500Y-78468936D01*
X124645668Y-78468936D01*
X124676134Y-78641711D01*
X124711751Y-78724279D01*
X124745623Y-78802804D01*
X124850390Y-78943530D01*
X124984786Y-79056302D01*
X125141567Y-79135040D01*
X125312279Y-79175500D01*
X125312280Y-79175500D01*
X125439365Y-79175500D01*
X125443709Y-79175500D01*
X125574255Y-79160241D01*
X125739117Y-79100237D01*
X125885696Y-79003830D01*
X126006092Y-78876218D01*
X126093812Y-78724281D01*
X126144130Y-78556210D01*
X126154331Y-78381065D01*
X126138941Y-78293788D01*
X126123865Y-78208288D01*
X126102923Y-78159741D01*
X126054377Y-78047196D01*
X125949610Y-77906470D01*
X125815214Y-77793698D01*
X125815213Y-77793697D01*
X125658435Y-77714961D01*
X125658434Y-77714960D01*
X125658433Y-77714960D01*
X125487721Y-77674500D01*
X125356291Y-77674500D01*
X125351988Y-77675002D01*
X125351987Y-77675003D01*
X125225741Y-77689759D01*
X125060885Y-77749761D01*
X124914304Y-77846170D01*
X124793908Y-77973782D01*
X124706186Y-78125720D01*
X124655870Y-78293788D01*
X124645668Y-78468936D01*
X90750500Y-78468936D01*
X90750500Y-75499999D01*
X112144317Y-75499999D01*
X112164955Y-75656760D01*
X112164956Y-75656762D01*
X112225464Y-75802841D01*
X112321718Y-75928282D01*
X112447159Y-76024536D01*
X112593238Y-76085044D01*
X112750000Y-76105682D01*
X112906762Y-76085044D01*
X113052841Y-76024536D01*
X113178282Y-75928282D01*
X113274536Y-75802841D01*
X113335044Y-75656762D01*
X113355682Y-75500000D01*
X113335044Y-75343238D01*
X113274536Y-75197159D01*
X113178282Y-75071718D01*
X113052841Y-74975464D01*
X112906762Y-74914956D01*
X112906760Y-74914955D01*
X112750000Y-74894317D01*
X112593239Y-74914955D01*
X112447158Y-74975464D01*
X112321718Y-75071718D01*
X112225464Y-75197158D01*
X112164955Y-75343239D01*
X112144317Y-75499999D01*
X90750500Y-75499999D01*
X90750500Y-73912000D01*
X97269442Y-73912000D01*
X97289635Y-74155688D01*
X97349665Y-74392739D01*
X97447888Y-74616666D01*
X97581631Y-74821376D01*
X97747245Y-75001280D01*
X97940215Y-75151475D01*
X98155262Y-75267853D01*
X98155265Y-75267854D01*
X98155267Y-75267855D01*
X98386545Y-75347252D01*
X98627737Y-75387500D01*
X98627738Y-75387500D01*
X98872262Y-75387500D01*
X98872263Y-75387500D01*
X99113455Y-75347252D01*
X99344733Y-75267855D01*
X99559788Y-75151473D01*
X99752754Y-75001281D01*
X99918368Y-74821377D01*
X100052111Y-74616667D01*
X100150336Y-74392736D01*
X100210364Y-74155692D01*
X100230557Y-73912000D01*
X102269442Y-73912000D01*
X102289635Y-74155688D01*
X102349665Y-74392739D01*
X102447888Y-74616666D01*
X102581631Y-74821376D01*
X102747245Y-75001280D01*
X102940215Y-75151475D01*
X103155262Y-75267853D01*
X103155265Y-75267854D01*
X103155267Y-75267855D01*
X103386545Y-75347252D01*
X103627737Y-75387500D01*
X103627738Y-75387500D01*
X103872262Y-75387500D01*
X103872263Y-75387500D01*
X104113455Y-75347252D01*
X104344733Y-75267855D01*
X104559788Y-75151473D01*
X104752754Y-75001281D01*
X104918368Y-74821377D01*
X105052111Y-74616667D01*
X105150336Y-74392736D01*
X105210364Y-74155692D01*
X105230557Y-73912000D01*
X105210364Y-73668308D01*
X105150336Y-73431264D01*
X105147588Y-73425000D01*
X115694317Y-73425000D01*
X115714955Y-73581760D01*
X115714956Y-73581762D01*
X115775464Y-73727841D01*
X115871718Y-73853282D01*
X115997159Y-73949536D01*
X116143238Y-74010044D01*
X116221619Y-74020363D01*
X116299999Y-74030682D01*
X116299999Y-74030681D01*
X116300000Y-74030682D01*
X116456762Y-74010044D01*
X116602841Y-73949536D01*
X116728282Y-73853282D01*
X116824536Y-73727841D01*
X116885044Y-73581762D01*
X116905682Y-73425000D01*
X116885044Y-73268238D01*
X116824536Y-73122159D01*
X116728282Y-72996718D01*
X116602841Y-72900464D01*
X116456762Y-72839956D01*
X116456760Y-72839955D01*
X116299999Y-72819317D01*
X116143239Y-72839955D01*
X115997158Y-72900464D01*
X115871718Y-72996718D01*
X115775464Y-73122158D01*
X115714955Y-73268239D01*
X115694317Y-73425000D01*
X105147588Y-73425000D01*
X105052111Y-73207333D01*
X104918368Y-73002623D01*
X104752754Y-72822719D01*
X104559788Y-72672527D01*
X104559787Y-72672526D01*
X104559784Y-72672524D01*
X104344737Y-72556146D01*
X104113455Y-72476748D01*
X103872263Y-72436500D01*
X103627737Y-72436500D01*
X103507140Y-72456624D01*
X103386544Y-72476748D01*
X103155262Y-72556146D01*
X102940215Y-72672524D01*
X102747245Y-72822719D01*
X102581631Y-73002623D01*
X102447888Y-73207333D01*
X102349665Y-73431260D01*
X102289635Y-73668311D01*
X102269442Y-73912000D01*
X100230557Y-73912000D01*
X100210364Y-73668308D01*
X100150336Y-73431264D01*
X100052111Y-73207333D01*
X99918368Y-73002623D01*
X99752754Y-72822719D01*
X99559788Y-72672527D01*
X99559787Y-72672526D01*
X99559784Y-72672524D01*
X99344737Y-72556146D01*
X99113455Y-72476748D01*
X98872263Y-72436500D01*
X98627737Y-72436500D01*
X98507140Y-72456624D01*
X98386544Y-72476748D01*
X98155262Y-72556146D01*
X97940215Y-72672524D01*
X97747245Y-72822719D01*
X97581631Y-73002623D01*
X97447888Y-73207333D01*
X97349665Y-73431260D01*
X97289635Y-73668311D01*
X97269442Y-73912000D01*
X90750500Y-73912000D01*
X90750500Y-70468936D01*
X124645668Y-70468936D01*
X124676134Y-70641711D01*
X124711751Y-70724279D01*
X124745623Y-70802804D01*
X124850390Y-70943530D01*
X124984786Y-71056302D01*
X125141567Y-71135040D01*
X125312279Y-71175500D01*
X125312280Y-71175500D01*
X125439365Y-71175500D01*
X125443709Y-71175500D01*
X125574255Y-71160241D01*
X125739117Y-71100237D01*
X125885696Y-71003830D01*
X126006092Y-70876218D01*
X126093812Y-70724281D01*
X126144130Y-70556210D01*
X126154331Y-70381065D01*
X126138941Y-70293788D01*
X126123865Y-70208288D01*
X126102923Y-70159741D01*
X126054377Y-70047196D01*
X125949610Y-69906470D01*
X125815214Y-69793698D01*
X125815213Y-69793697D01*
X125658435Y-69714961D01*
X125658434Y-69714960D01*
X125658433Y-69714960D01*
X125487721Y-69674500D01*
X125356291Y-69674500D01*
X125351988Y-69675002D01*
X125351987Y-69675003D01*
X125225741Y-69689759D01*
X125060885Y-69749761D01*
X124914304Y-69846170D01*
X124793908Y-69973782D01*
X124706186Y-70125720D01*
X124655870Y-70293788D01*
X124645668Y-70468936D01*
X90750500Y-70468936D01*
X90750500Y-63507848D01*
X90770461Y-63433352D01*
X90824999Y-63378814D01*
X90899499Y-63358852D01*
X90973999Y-63378814D01*
X91028537Y-63433352D01*
X91036630Y-63449576D01*
X91061395Y-63507852D01*
X91099870Y-63598390D01*
X91099871Y-63598391D01*
X91240979Y-63829606D01*
X91240981Y-63829608D01*
X91240982Y-63829610D01*
X91414255Y-64037820D01*
X91615998Y-64218582D01*
X91841910Y-64368044D01*
X91964542Y-64425531D01*
X92087173Y-64483019D01*
X92087175Y-64483019D01*
X92087176Y-64483020D01*
X92346569Y-64561060D01*
X92614561Y-64600500D01*
X92814908Y-64600500D01*
X92817631Y-64600500D01*
X93020156Y-64585677D01*
X93284553Y-64526780D01*
X93398971Y-64483019D01*
X93537554Y-64430016D01*
X93537558Y-64430014D01*
X93773777Y-64297441D01*
X93988177Y-64131888D01*
X94176186Y-63936881D01*
X94193988Y-63911999D01*
X94794901Y-63911999D01*
X94813253Y-64098332D01*
X94867604Y-64277502D01*
X94878260Y-64297438D01*
X94955864Y-64442625D01*
X95002275Y-64499177D01*
X95074642Y-64587357D01*
X95147009Y-64646746D01*
X95219375Y-64706136D01*
X95384499Y-64794396D01*
X95563669Y-64848747D01*
X95750000Y-64867099D01*
X95936331Y-64848747D01*
X96115501Y-64794396D01*
X96280625Y-64706136D01*
X96425357Y-64587357D01*
X96544136Y-64442625D01*
X96632396Y-64277501D01*
X96686747Y-64098331D01*
X96705099Y-63912000D01*
X96705099Y-63911999D01*
X105794901Y-63911999D01*
X105813253Y-64098332D01*
X105867604Y-64277502D01*
X105878260Y-64297438D01*
X105955864Y-64442625D01*
X106002275Y-64499177D01*
X106074642Y-64587357D01*
X106147009Y-64646746D01*
X106219375Y-64706136D01*
X106384499Y-64794396D01*
X106563669Y-64848747D01*
X106750000Y-64867099D01*
X106936331Y-64848747D01*
X107115501Y-64794396D01*
X107280625Y-64706136D01*
X107425357Y-64587357D01*
X107544136Y-64442625D01*
X107632396Y-64277501D01*
X107686747Y-64098331D01*
X107705099Y-63912000D01*
X107686747Y-63725669D01*
X107632396Y-63546499D01*
X107544136Y-63381375D01*
X107484746Y-63309009D01*
X107425357Y-63236642D01*
X107337177Y-63164276D01*
X107280625Y-63117864D01*
X107222914Y-63087017D01*
X107115502Y-63029604D01*
X106936332Y-62975253D01*
X106750000Y-62956901D01*
X106563667Y-62975253D01*
X106384497Y-63029604D01*
X106219376Y-63117863D01*
X106074642Y-63236642D01*
X105955863Y-63381376D01*
X105867604Y-63546497D01*
X105813253Y-63725667D01*
X105794901Y-63911999D01*
X96705099Y-63911999D01*
X96686747Y-63725669D01*
X96632396Y-63546499D01*
X96544136Y-63381375D01*
X96484746Y-63309008D01*
X96425357Y-63236642D01*
X96337177Y-63164275D01*
X96280625Y-63117864D01*
X96222914Y-63087017D01*
X96115502Y-63029604D01*
X95936332Y-62975253D01*
X95750000Y-62956901D01*
X95563667Y-62975253D01*
X95384497Y-63029604D01*
X95219376Y-63117863D01*
X95074642Y-63236642D01*
X94955863Y-63381376D01*
X94867604Y-63546497D01*
X94813253Y-63725667D01*
X94794901Y-63911999D01*
X94193988Y-63911999D01*
X94333799Y-63716579D01*
X94457656Y-63475675D01*
X94545118Y-63219305D01*
X94594319Y-62952933D01*
X94604212Y-62682235D01*
X94574586Y-62412982D01*
X94506072Y-62150912D01*
X94486808Y-62105581D01*
X94400130Y-61901610D01*
X94259020Y-61670393D01*
X94085745Y-61462180D01*
X94047764Y-61428149D01*
X93884002Y-61281418D01*
X93658090Y-61131956D01*
X93450010Y-61034412D01*
X93391027Y-60984715D01*
X93364795Y-60912185D01*
X93378342Y-60836256D01*
X93428039Y-60777273D01*
X93500569Y-60751041D01*
X93513254Y-60750500D01*
X126991097Y-60750500D01*
X127065597Y-60770462D01*
G37*
%TD.AperFunction*%
%TA.AperFunction,Conductor*%
G36*
X126679295Y-103423597D02*
G01*
X126717860Y-103490391D01*
X126717860Y-103490393D01*
X126731211Y-103540221D01*
X126734024Y-103552907D01*
X126740925Y-103592042D01*
X126749672Y-103613159D01*
X126751428Y-103615666D01*
X126772469Y-103645716D01*
X126779442Y-103656663D01*
X126797788Y-103688437D01*
X126823742Y-103710215D01*
X126825887Y-103712015D01*
X126835470Y-103720796D01*
X128180858Y-105066184D01*
X128219422Y-105132979D01*
X128224499Y-105171543D01*
X128224499Y-105631772D01*
X128204537Y-105706272D01*
X128149999Y-105760810D01*
X128075499Y-105780772D01*
X128000999Y-105760810D01*
X127984794Y-105749982D01*
X127952841Y-105725464D01*
X127806760Y-105664955D01*
X127650000Y-105644317D01*
X127493239Y-105664955D01*
X127347158Y-105725464D01*
X127221718Y-105821718D01*
X127125464Y-105947158D01*
X127064955Y-106093239D01*
X127044317Y-106250000D01*
X127064955Y-106406760D01*
X127110087Y-106515718D01*
X127125464Y-106552841D01*
X127221718Y-106678282D01*
X127347159Y-106774536D01*
X127493238Y-106835044D01*
X127650000Y-106855682D01*
X127806762Y-106835044D01*
X127952841Y-106774536D01*
X127984794Y-106750017D01*
X128056050Y-106720502D01*
X128132518Y-106730569D01*
X128193708Y-106777521D01*
X128223224Y-106848778D01*
X128224499Y-106868227D01*
X128224499Y-107579262D01*
X128204537Y-107653762D01*
X128180858Y-107684621D01*
X126879859Y-108985621D01*
X126813064Y-109024185D01*
X126735936Y-109024185D01*
X126669141Y-108985621D01*
X126630577Y-108918826D01*
X126625500Y-108880262D01*
X126625500Y-107450464D01*
X126625500Y-105993989D01*
X126626064Y-105981050D01*
X126629264Y-105944486D01*
X126619765Y-105909039D01*
X126616956Y-105896361D01*
X126610057Y-105857233D01*
X126601309Y-105836115D01*
X126578517Y-105803564D01*
X126571534Y-105792603D01*
X126553194Y-105760838D01*
X126525094Y-105737259D01*
X126515511Y-105728478D01*
X126369141Y-105582107D01*
X126330577Y-105515312D01*
X126325500Y-105476748D01*
X126325500Y-103628394D01*
X126345462Y-103553894D01*
X126369141Y-103523036D01*
X126468578Y-103423598D01*
X126535372Y-103385033D01*
X126612500Y-103385033D01*
X126679295Y-103423597D01*
G37*
%TD.AperFunction*%
%TD*%
M02*
