%TF.GenerationSoftware,KiCad,Pcbnew,7.0.2*%
%TF.CreationDate,2023-04-27T13:19:39+10:00*%
%TF.ProjectId,neptune,6e657074-756e-4652-9e6b-696361645f70,rev?*%
%TF.SameCoordinates,Original*%
%TF.FileFunction,Copper,L2,Inr*%
%TF.FilePolarity,Positive*%
%FSLAX46Y46*%
G04 Gerber Fmt 4.6, Leading zero omitted, Abs format (unit mm)*
G04 Created by KiCad (PCBNEW 7.0.2) date 2023-04-27 13:19:39*
%MOMM*%
%LPD*%
G01*
G04 APERTURE LIST*
%TA.AperFunction,ComponentPad*%
%ADD10R,1.700000X1.700000*%
%TD*%
%TA.AperFunction,ComponentPad*%
%ADD11O,1.700000X1.700000*%
%TD*%
%TA.AperFunction,ComponentPad*%
%ADD12C,2.550000*%
%TD*%
%TA.AperFunction,ComponentPad*%
%ADD13C,1.500000*%
%TD*%
%TA.AperFunction,ComponentPad*%
%ADD14C,0.500000*%
%TD*%
%TA.AperFunction,ComponentPad*%
%ADD15C,2.050000*%
%TD*%
%TA.AperFunction,ComponentPad*%
%ADD16C,2.250000*%
%TD*%
%TA.AperFunction,ComponentPad*%
%ADD17O,1.900000X1.200000*%
%TD*%
%TA.AperFunction,ComponentPad*%
%ADD18C,1.450000*%
%TD*%
%TA.AperFunction,ViaPad*%
%ADD19C,0.800000*%
%TD*%
%TA.AperFunction,Conductor*%
%ADD20C,0.250000*%
%TD*%
%TA.AperFunction,Conductor*%
%ADD21C,0.200000*%
%TD*%
G04 APERTURE END LIST*
D10*
%TO.N,/STM32/S2_control*%
%TO.C,J7*%
X92670000Y-119000000D03*
D11*
%TO.N,+5V*%
X95210000Y-119000000D03*
%TO.N,GND*%
X97750000Y-119000000D03*
%TO.N,/STM32/S2_feedback*%
X100290000Y-119000000D03*
%TD*%
D10*
%TO.N,+3.3V*%
%TO.C,J5*%
X103750000Y-115380000D03*
D11*
%TO.N,GND*%
X103750000Y-117920000D03*
%TO.N,/STM32/SWDIO*%
X103750000Y-120460000D03*
%TO.N,/STM32/SWCLK*%
X103750000Y-123000000D03*
%TD*%
D12*
%TO.N,Net-(J2-Pin_1)*%
%TO.C,J2*%
X98750000Y-73912000D03*
%TO.N,GND*%
X103750000Y-73912000D03*
D13*
%TO.N,N/C*%
X106750000Y-63912000D03*
X95750000Y-63912000D03*
%TD*%
D14*
%TO.N,N/C*%
%TO.C,U3*%
X96250000Y-96750000D03*
X96250000Y-95750000D03*
X96250000Y-94750000D03*
X94950000Y-96750000D03*
X94950000Y-95750000D03*
X94950000Y-94750000D03*
%TD*%
D15*
%TO.N,Net-(J3-In)*%
%TO.C,J3*%
X125460000Y-87540000D03*
D16*
%TO.N,GND*%
X122920000Y-85000000D03*
X122920000Y-90080000D03*
X128000000Y-85000000D03*
X128000000Y-90080000D03*
%TD*%
D17*
%TO.N,GND*%
%TO.C,J4*%
X92512500Y-107000000D03*
D18*
X95212500Y-108000000D03*
X95212500Y-113000000D03*
D17*
X92512500Y-114000000D03*
%TD*%
D10*
%TO.N,/STM32/S1_control*%
%TO.C,J6*%
X92670000Y-122000000D03*
D11*
%TO.N,+5V*%
X95210000Y-122000000D03*
%TO.N,GND*%
X97750000Y-122000000D03*
%TO.N,/STM32/S1_feedback*%
X100290000Y-122000000D03*
%TD*%
D19*
%TO.N,GND*%
X119850000Y-114600000D03*
X113179392Y-94150500D03*
X127650000Y-106250000D03*
X109100000Y-86150000D03*
X91724500Y-96000000D03*
X112750000Y-75500000D03*
X105000000Y-100500000D03*
X106000000Y-85000000D03*
X95500000Y-93500000D03*
X126091823Y-95736905D03*
X115666825Y-92891077D03*
X115437451Y-113262049D03*
%TO.N,/STM32/OSC_OUT*%
X119500000Y-106049500D03*
X119168363Y-97525500D03*
%TO.N,+3.3V*%
X127001000Y-104521728D03*
X120011397Y-103224756D03*
X113200000Y-74525000D03*
X110250000Y-108000000D03*
X126250000Y-94750000D03*
X112750000Y-96000000D03*
X129086655Y-113710128D03*
X127024500Y-107515500D03*
X123250000Y-116750000D03*
X118303559Y-93374121D03*
%TO.N,VDC*%
X96750000Y-81000000D03*
X106750000Y-81000000D03*
%TO.N,Net-(U3-BOOT)*%
X96500000Y-97849502D03*
X98500000Y-100750000D03*
%TO.N,Net-(U7-VDDA)*%
X115688201Y-100762299D03*
%TO.N,Net-(U3-COMP)*%
X91747919Y-94569500D03*
X95000000Y-90250000D03*
%TO.N,/STM32/NRST*%
X125550500Y-106249098D03*
X120000000Y-98250000D03*
%TO.N,/STM32/OSC_IN*%
X115700500Y-98710494D03*
X118449500Y-96734211D03*
%TO.N,/CS_SD*%
X114050000Y-81025000D03*
X115700500Y-99750000D03*
%TO.N,/MOSI_SD*%
X116300000Y-73425000D03*
X124275500Y-91750500D03*
%TO.N,/STM32/SWDIO*%
X126900000Y-96325000D03*
%TO.N,/STM32/SWCLK*%
X129200000Y-91750500D03*
%TO.N,/STM32/S1_control*%
X123497643Y-95028815D03*
%TO.N,/STM32/S1_feedback*%
X116800000Y-106488426D03*
%TO.N,/STM32/S2_control*%
X121755000Y-95012751D03*
%TO.N,/STM32/S2_feedback*%
X118482443Y-106056542D03*
%TO.N,Net-(Q2-G)*%
X103495050Y-84654952D03*
X102000000Y-87250000D03*
%TO.N,/STM32/BOOT0*%
X120800000Y-91275000D03*
X125400000Y-121775000D03*
%TO.N,/MISO_RF*%
X127050982Y-102850500D03*
X114853497Y-120199166D03*
%TO.N,/MOSI_RF*%
X126345291Y-102119317D03*
X114500000Y-119099502D03*
%TO.N,/SCK_RF*%
X115614298Y-120847384D03*
X128450500Y-103650902D03*
%TO.N,/CS_RF*%
X118979030Y-99974500D03*
%TO.N,/RESET_RF*%
X120138008Y-100094528D03*
%TO.N,/RF_1O0*%
X120446991Y-99143983D03*
%TO.N,/STM32/USB_D-*%
X99500500Y-107975000D03*
X126039075Y-101162861D03*
%TO.N,/STM32/USB_D+*%
X96761076Y-108263924D03*
X126600500Y-100025500D03*
%TO.N,/IMU_SCK*%
X121579482Y-106104482D03*
X107647038Y-115099500D03*
%TO.N,/IMU_MISO*%
X119700000Y-102275000D03*
X107080902Y-108674500D03*
%TO.N,/IMU_MOSI*%
X121775500Y-102325000D03*
X106900000Y-114375000D03*
%TO.N,/CE_ACC*%
X108050500Y-111725000D03*
X125341467Y-101878646D03*
%TO.N,/CE_GYR*%
X125550500Y-102856046D03*
X110166521Y-116261830D03*
%TO.N,/CE_MAG*%
X110227570Y-111435478D03*
X123306032Y-106038926D03*
%TD*%
D20*
%TO.N,/CS_SD*%
X115700500Y-99750000D02*
X114050000Y-98099500D01*
X114050000Y-98099500D02*
X114050000Y-81025000D01*
%TO.N,/STM32/SWDIO*%
X127725500Y-105149500D02*
X127725500Y-103201287D01*
X127725500Y-103201287D02*
X127775982Y-103150805D01*
X125300902Y-106974098D02*
X125900902Y-106974098D01*
X125900902Y-106974098D02*
X127725500Y-105149500D01*
X111815000Y-120460000D02*
X125300902Y-106974098D01*
X103750000Y-120460000D02*
X111815000Y-120460000D01*
X127775982Y-97200982D02*
X126900000Y-96325000D01*
X127775982Y-103150805D02*
X127775982Y-97200982D01*
%TO.N,/STM32/SWCLK*%
X129450000Y-93875000D02*
X129450000Y-92000500D01*
X129450000Y-92000500D02*
X129200000Y-91750500D01*
X103750000Y-123000000D02*
X114486987Y-123000000D01*
X114486987Y-123000000D02*
X129450000Y-108036987D01*
X129450000Y-108036987D02*
X129450000Y-93875000D01*
%TO.N,/STM32/S1_feedback*%
X113550000Y-106975000D02*
X113601451Y-107026451D01*
X105120698Y-112295698D02*
X108241396Y-109175000D01*
X110736701Y-109175000D02*
X112936701Y-106975000D01*
X105120698Y-116359302D02*
X105120698Y-112295698D01*
X113601451Y-107026451D02*
X116261975Y-107026451D01*
X108241396Y-109175000D02*
X110736701Y-109175000D01*
X100290000Y-122000000D02*
X102000000Y-122000000D01*
X116261975Y-107026451D02*
X116800000Y-106488426D01*
X102575000Y-121425000D02*
X102575000Y-116700000D01*
X112936701Y-106975000D02*
X113550000Y-106975000D01*
X102000000Y-122000000D02*
X102575000Y-121425000D01*
X102575000Y-116700000D02*
X104780000Y-116700000D01*
X104780000Y-116700000D02*
X105120698Y-116359302D01*
%TO.N,/STM32/S2_feedback*%
X100290000Y-116490000D02*
X108055000Y-108725000D01*
X118189827Y-105763926D02*
X118482443Y-106056542D01*
X108055000Y-108725000D02*
X110550305Y-108725000D01*
X112300000Y-106975305D02*
X112300000Y-105763926D01*
X110550305Y-108725000D02*
X112300000Y-106975305D01*
X100290000Y-119000000D02*
X100290000Y-116490000D01*
X112300000Y-105763926D02*
X118189827Y-105763926D01*
D21*
%TO.N,/STM32/USB_D-*%
X99500500Y-107975000D02*
X109050000Y-107975000D01*
X109050000Y-107975000D02*
X110800000Y-106225000D01*
X120891237Y-105338926D02*
X125067302Y-101162861D01*
X110800000Y-106225000D02*
X111686074Y-105338926D01*
X111686074Y-105338926D02*
X120891237Y-105338926D01*
X125067302Y-101162861D02*
X126039075Y-101162861D01*
%TO.N,/STM32/USB_D+*%
X108800000Y-107575000D02*
X111436074Y-104938926D01*
X96761076Y-108263924D02*
X97750000Y-107275000D01*
X125638977Y-100025500D02*
X126600500Y-100025500D01*
X111436074Y-104938926D02*
X111800000Y-104938926D01*
X97750000Y-107275000D02*
X100250000Y-107275000D01*
X111800000Y-104938926D02*
X120725551Y-104938926D01*
X120725551Y-104938926D02*
X120744739Y-104919738D01*
X100550000Y-107575000D02*
X108800000Y-107575000D01*
X100250000Y-107275000D02*
X100550000Y-107575000D01*
X120744739Y-104919738D02*
X125638977Y-100025500D01*
%TD*%
%TA.AperFunction,Conductor*%
%TO.N,GND*%
G36*
X127065597Y-60770462D02*
G01*
X127120135Y-60825000D01*
X127140097Y-60899500D01*
X127120135Y-60974000D01*
X127065597Y-61028538D01*
X127044324Y-61038668D01*
X126962445Y-61069983D01*
X126726219Y-61202561D01*
X126511827Y-61368108D01*
X126511823Y-61368111D01*
X126511823Y-61368112D01*
X126421131Y-61462180D01*
X126323812Y-61563121D01*
X126166200Y-61783420D01*
X126042343Y-62024325D01*
X125954882Y-62280691D01*
X125905681Y-62547066D01*
X125895788Y-62817768D01*
X125925414Y-63087017D01*
X125993928Y-63349090D01*
X126099869Y-63598389D01*
X126240979Y-63829606D01*
X126240981Y-63829608D01*
X126240982Y-63829610D01*
X126414255Y-64037820D01*
X126615998Y-64218582D01*
X126841910Y-64368044D01*
X126964542Y-64425532D01*
X127087173Y-64483019D01*
X127087175Y-64483019D01*
X127087176Y-64483020D01*
X127346569Y-64561060D01*
X127614561Y-64600500D01*
X127814908Y-64600500D01*
X127817631Y-64600500D01*
X128020156Y-64585677D01*
X128284553Y-64526780D01*
X128398971Y-64483019D01*
X128537554Y-64430016D01*
X128537558Y-64430014D01*
X128773777Y-64297441D01*
X128988177Y-64131888D01*
X129176186Y-63936881D01*
X129333799Y-63716579D01*
X129457656Y-63475675D01*
X129459481Y-63470325D01*
X129502427Y-63406263D01*
X129571652Y-63372254D01*
X129648608Y-63377415D01*
X129712672Y-63420362D01*
X129746681Y-63489587D01*
X129749500Y-63518435D01*
X129749499Y-84228261D01*
X129729537Y-84302761D01*
X129674999Y-84357299D01*
X129600499Y-84377261D01*
X129525999Y-84357299D01*
X129471461Y-84302761D01*
X129462840Y-84285278D01*
X129452363Y-84259983D01*
X129318717Y-84041895D01*
X129315464Y-84038087D01*
X128751232Y-84602319D01*
X128707684Y-84520178D01*
X128587991Y-84379265D01*
X128440805Y-84267377D01*
X128398595Y-84247848D01*
X128961911Y-83684533D01*
X128958103Y-83681281D01*
X128740016Y-83547636D01*
X128503705Y-83449753D01*
X128254993Y-83390043D01*
X128000000Y-83369975D01*
X127745006Y-83390043D01*
X127496294Y-83449753D01*
X127259980Y-83547637D01*
X127041899Y-83681278D01*
X127038087Y-83684533D01*
X127601391Y-84247837D01*
X127482569Y-84319331D01*
X127348342Y-84446477D01*
X127245138Y-84598691D01*
X126684533Y-84038087D01*
X126681278Y-84041899D01*
X126547637Y-84259980D01*
X126449753Y-84496294D01*
X126390043Y-84745006D01*
X126369975Y-84999999D01*
X126390043Y-85254993D01*
X126449753Y-85503705D01*
X126547636Y-85740016D01*
X126681281Y-85958103D01*
X126684533Y-85961911D01*
X127248766Y-85397678D01*
X127292316Y-85479822D01*
X127412009Y-85620735D01*
X127559195Y-85732623D01*
X127601402Y-85752150D01*
X127038087Y-86315464D01*
X127041895Y-86318717D01*
X127259984Y-86452363D01*
X127496294Y-86550246D01*
X127745006Y-86609956D01*
X128000000Y-86630024D01*
X128254993Y-86609956D01*
X128503705Y-86550246D01*
X128740015Y-86452363D01*
X128958104Y-86318717D01*
X128961911Y-86315464D01*
X128398609Y-85752162D01*
X128517431Y-85680669D01*
X128651658Y-85553523D01*
X128754861Y-85401308D01*
X129315464Y-85961911D01*
X129318717Y-85958104D01*
X129452362Y-85740017D01*
X129462839Y-85714723D01*
X129509790Y-85653531D01*
X129581046Y-85624013D01*
X129657514Y-85634078D01*
X129718706Y-85681029D01*
X129748224Y-85752285D01*
X129749499Y-85771738D01*
X129749499Y-89308261D01*
X129729537Y-89382761D01*
X129674999Y-89437299D01*
X129600499Y-89457261D01*
X129525999Y-89437299D01*
X129471461Y-89382761D01*
X129462840Y-89365278D01*
X129452363Y-89339983D01*
X129318717Y-89121895D01*
X129315464Y-89118087D01*
X128751232Y-89682319D01*
X128707684Y-89600178D01*
X128587991Y-89459265D01*
X128440805Y-89347377D01*
X128398595Y-89327848D01*
X128961911Y-88764533D01*
X128958103Y-88761281D01*
X128740016Y-88627636D01*
X128503705Y-88529753D01*
X128254993Y-88470043D01*
X128000000Y-88449975D01*
X127745006Y-88470043D01*
X127496294Y-88529753D01*
X127259980Y-88627637D01*
X127041895Y-88761281D01*
X127038087Y-88764533D01*
X127601391Y-89327837D01*
X127482569Y-89399331D01*
X127348342Y-89526477D01*
X127245138Y-89678692D01*
X126684533Y-89118087D01*
X126681281Y-89121895D01*
X126547637Y-89339980D01*
X126449753Y-89576294D01*
X126390043Y-89825006D01*
X126369975Y-90080000D01*
X126390043Y-90334993D01*
X126449753Y-90583705D01*
X126547636Y-90820016D01*
X126681281Y-91038103D01*
X126684533Y-91041911D01*
X127248766Y-90477677D01*
X127292316Y-90559822D01*
X127412009Y-90700735D01*
X127559195Y-90812623D01*
X127601402Y-90832150D01*
X127038087Y-91395464D01*
X127041895Y-91398717D01*
X127259984Y-91532363D01*
X127496294Y-91630246D01*
X127745006Y-91689956D01*
X128000000Y-91710024D01*
X128254991Y-91689957D01*
X128415284Y-91651473D01*
X128492386Y-91653492D01*
X128558149Y-91693790D01*
X128594952Y-91761571D01*
X128597794Y-91776908D01*
X128614955Y-91907260D01*
X128614956Y-91907262D01*
X128675464Y-92053341D01*
X128771718Y-92178782D01*
X128897159Y-92275036D01*
X129032519Y-92331104D01*
X129093709Y-92378057D01*
X129123224Y-92449314D01*
X129124499Y-92468762D01*
X129124500Y-93846524D01*
X129124500Y-103109024D01*
X129104538Y-103183524D01*
X129050000Y-103238062D01*
X128975500Y-103258024D01*
X128901000Y-103238062D01*
X128884795Y-103227234D01*
X128753341Y-103126366D01*
X128607260Y-103065857D01*
X128450500Y-103045219D01*
X128274289Y-103068418D01*
X128273785Y-103064595D01*
X128231017Y-103070221D01*
X128159764Y-103040698D01*
X128112818Y-102979503D01*
X128101482Y-102922498D01*
X128101482Y-97221701D01*
X128102049Y-97208714D01*
X128105246Y-97172175D01*
X128095747Y-97136728D01*
X128092938Y-97124050D01*
X128086039Y-97084922D01*
X128077291Y-97063804D01*
X128054499Y-97031253D01*
X128047516Y-97020292D01*
X128029176Y-96988527D01*
X128001076Y-96964948D01*
X127991493Y-96956167D01*
X127540728Y-96505402D01*
X127502164Y-96438607D01*
X127498362Y-96380595D01*
X127505682Y-96325000D01*
X127503171Y-96305929D01*
X127485044Y-96168239D01*
X127480290Y-96156762D01*
X127424536Y-96022159D01*
X127328282Y-95896718D01*
X127202841Y-95800464D01*
X127202840Y-95800464D01*
X127056760Y-95739955D01*
X126900000Y-95719317D01*
X126743239Y-95739955D01*
X126597158Y-95800464D01*
X126471718Y-95896718D01*
X126375464Y-96022158D01*
X126314955Y-96168239D01*
X126294317Y-96325000D01*
X126314955Y-96481760D01*
X126354591Y-96577449D01*
X126375464Y-96627841D01*
X126471718Y-96753282D01*
X126597159Y-96849536D01*
X126743238Y-96910044D01*
X126771548Y-96913771D01*
X126899997Y-96930682D01*
X126899998Y-96930681D01*
X126900000Y-96930682D01*
X126955594Y-96923362D01*
X127032060Y-96933428D01*
X127080402Y-96965728D01*
X127406841Y-97292167D01*
X127445405Y-97358962D01*
X127450482Y-97397526D01*
X127450482Y-99759281D01*
X127430520Y-99833781D01*
X127375982Y-99888319D01*
X127301482Y-99908281D01*
X127226982Y-99888319D01*
X127172444Y-99833781D01*
X127163824Y-99816301D01*
X127140205Y-99759281D01*
X127125036Y-99722659D01*
X127028782Y-99597218D01*
X126903341Y-99500964D01*
X126805170Y-99460300D01*
X126757260Y-99440455D01*
X126600499Y-99419817D01*
X126443739Y-99440455D01*
X126297658Y-99500964D01*
X126172218Y-99597218D01*
X126118899Y-99666705D01*
X126057709Y-99713658D01*
X126000689Y-99725000D01*
X125712299Y-99725000D01*
X125694576Y-99722109D01*
X125635482Y-99724841D01*
X125628602Y-99725000D01*
X125609120Y-99725000D01*
X125593934Y-99726761D01*
X125568986Y-99727914D01*
X125565298Y-99729543D01*
X125532501Y-99739699D01*
X125528542Y-99740439D01*
X125507308Y-99753586D01*
X125489063Y-99763203D01*
X125466213Y-99773293D01*
X125463363Y-99776143D01*
X125436454Y-99797457D01*
X125433024Y-99799580D01*
X125417976Y-99819507D01*
X125404433Y-99835071D01*
X122609357Y-102630148D01*
X122542562Y-102668712D01*
X122465434Y-102668712D01*
X122398639Y-102630148D01*
X122360075Y-102563353D01*
X122360075Y-102501486D01*
X122357984Y-102501211D01*
X122381182Y-102325000D01*
X122360544Y-102168239D01*
X122360544Y-102168238D01*
X122300036Y-102022159D01*
X122203782Y-101896718D01*
X122078341Y-101800464D01*
X121932262Y-101739956D01*
X121932260Y-101739955D01*
X121775499Y-101719317D01*
X121618739Y-101739955D01*
X121472658Y-101800464D01*
X121347218Y-101896718D01*
X121250964Y-102022158D01*
X121190455Y-102168239D01*
X121169817Y-102324999D01*
X121190455Y-102481760D01*
X121220049Y-102553205D01*
X121250964Y-102627841D01*
X121347218Y-102753282D01*
X121472659Y-102849536D01*
X121618738Y-102910044D01*
X121697119Y-102920362D01*
X121775499Y-102930682D01*
X121775499Y-102930681D01*
X121775500Y-102930682D01*
X121812464Y-102925815D01*
X121951711Y-102907484D01*
X121952222Y-102911370D01*
X121994698Y-102905767D01*
X122065963Y-102935263D01*
X122112932Y-102996440D01*
X122123019Y-103072906D01*
X122093523Y-103144171D01*
X122080648Y-103158856D01*
X120644721Y-104594785D01*
X120577926Y-104633349D01*
X120539362Y-104638426D01*
X111509399Y-104638426D01*
X111491671Y-104635534D01*
X111432566Y-104638267D01*
X111425685Y-104638426D01*
X111406221Y-104638426D01*
X111391045Y-104640186D01*
X111366082Y-104641340D01*
X111362395Y-104642969D01*
X111329598Y-104653125D01*
X111325639Y-104653865D01*
X111304405Y-104667012D01*
X111286160Y-104676629D01*
X111263310Y-104686719D01*
X111260460Y-104689569D01*
X111233551Y-104710883D01*
X111230121Y-104713006D01*
X111215073Y-104732933D01*
X111201530Y-104748497D01*
X108719170Y-107230859D01*
X108652375Y-107269423D01*
X108613811Y-107274500D01*
X100736189Y-107274500D01*
X100661689Y-107254538D01*
X100630830Y-107230859D01*
X100514335Y-107114364D01*
X100503847Y-107099786D01*
X100460123Y-107059927D01*
X100455144Y-107055173D01*
X100441373Y-107041402D01*
X100429393Y-107031912D01*
X100410933Y-107015083D01*
X100407173Y-107013627D01*
X100376801Y-106997618D01*
X100373480Y-106995343D01*
X100349167Y-106989624D01*
X100329462Y-106983522D01*
X100306173Y-106974500D01*
X100302149Y-106974500D01*
X100268035Y-106970542D01*
X100264119Y-106969621D01*
X100239387Y-106973071D01*
X100218802Y-106974500D01*
X97823322Y-106974500D01*
X97805599Y-106971609D01*
X97746505Y-106974341D01*
X97739625Y-106974500D01*
X97720143Y-106974500D01*
X97704957Y-106976261D01*
X97680009Y-106977414D01*
X97676321Y-106979043D01*
X97643524Y-106989199D01*
X97639565Y-106989939D01*
X97618331Y-107003086D01*
X97600086Y-107012703D01*
X97577236Y-107022793D01*
X97574386Y-107025643D01*
X97547477Y-107046957D01*
X97544047Y-107049080D01*
X97528999Y-107069007D01*
X97515456Y-107084571D01*
X96972720Y-107627307D01*
X96905925Y-107665871D01*
X96847914Y-107669673D01*
X96761076Y-107658241D01*
X96604312Y-107678879D01*
X96572578Y-107692024D01*
X96496110Y-107702090D01*
X96424853Y-107672573D01*
X96377902Y-107611382D01*
X96371637Y-107592927D01*
X96368018Y-107579421D01*
X96277433Y-107385162D01*
X96237673Y-107328379D01*
X95632304Y-107933747D01*
X95621738Y-107867031D01*
X95560618Y-107747077D01*
X95465423Y-107651882D01*
X95345469Y-107590762D01*
X95278749Y-107580194D01*
X95884120Y-106974824D01*
X95827340Y-106935066D01*
X95633075Y-106844480D01*
X95426032Y-106789002D01*
X95212500Y-106770321D01*
X94998967Y-106789002D01*
X94791925Y-106844479D01*
X94597660Y-106935067D01*
X94540879Y-106974825D01*
X95146248Y-107580194D01*
X95079531Y-107590762D01*
X94959577Y-107651882D01*
X94864382Y-107747077D01*
X94803262Y-107867031D01*
X94792695Y-107933749D01*
X94187324Y-107328379D01*
X94165039Y-107330328D01*
X94156668Y-107337353D01*
X94080711Y-107350745D01*
X94008235Y-107324363D01*
X93981094Y-107299885D01*
X93937869Y-107250000D01*
X93028611Y-107250000D01*
X93068110Y-107225543D01*
X93135701Y-107136038D01*
X93166395Y-107028160D01*
X93156046Y-106916479D01*
X93106052Y-106816078D01*
X93033569Y-106750000D01*
X93933758Y-106750000D01*
X93906730Y-106638587D01*
X93819463Y-106447500D01*
X93697604Y-106276373D01*
X93545568Y-106131407D01*
X93368843Y-106017833D01*
X93173817Y-105939756D01*
X92967534Y-105900000D01*
X92762500Y-105900000D01*
X92762500Y-106700000D01*
X92262500Y-106700000D01*
X92262500Y-105900000D01*
X92113643Y-105900000D01*
X92106561Y-105900337D01*
X91953375Y-105914964D01*
X91751814Y-105974148D01*
X91565090Y-106070410D01*
X91399959Y-106200272D01*
X91262390Y-106359033D01*
X91157351Y-106540966D01*
X91088644Y-106739484D01*
X91087132Y-106750000D01*
X91996389Y-106750000D01*
X91956890Y-106774457D01*
X91889299Y-106863962D01*
X91858605Y-106971840D01*
X91868954Y-107083521D01*
X91918948Y-107183922D01*
X91991431Y-107250000D01*
X91091242Y-107250000D01*
X91118269Y-107361412D01*
X91205536Y-107552499D01*
X91327395Y-107723626D01*
X91479431Y-107868592D01*
X91656156Y-107982166D01*
X91851182Y-108060243D01*
X92057466Y-108100000D01*
X92262500Y-108100000D01*
X92262500Y-107300000D01*
X92762500Y-107300000D01*
X92762500Y-108100000D01*
X92911357Y-108100000D01*
X92918438Y-108099662D01*
X93071624Y-108085035D01*
X93273185Y-108025851D01*
X93459909Y-107929589D01*
X93625039Y-107799728D01*
X93741375Y-107665470D01*
X93805249Y-107622239D01*
X93882180Y-107616737D01*
X93951556Y-107650437D01*
X93994787Y-107714311D01*
X94002415Y-107776030D01*
X93982821Y-107999999D01*
X94001502Y-108213532D01*
X94056980Y-108420575D01*
X94147566Y-108614840D01*
X94187324Y-108671619D01*
X94792694Y-108066249D01*
X94803262Y-108132969D01*
X94864382Y-108252923D01*
X94959577Y-108348118D01*
X95079531Y-108409238D01*
X95146248Y-108419804D01*
X94540878Y-109025174D01*
X94597660Y-109064933D01*
X94791924Y-109155519D01*
X94998967Y-109210997D01*
X95212499Y-109229678D01*
X95426032Y-109210997D01*
X95633074Y-109155520D01*
X95827339Y-109064932D01*
X95884120Y-109025173D01*
X95278751Y-108419804D01*
X95345469Y-108409238D01*
X95465423Y-108348118D01*
X95560618Y-108252923D01*
X95621738Y-108132969D01*
X95632304Y-108066250D01*
X96237674Y-108671619D01*
X96241253Y-108671306D01*
X96317210Y-108684699D01*
X96344942Y-108701527D01*
X96458235Y-108788460D01*
X96604314Y-108848968D01*
X96761076Y-108869606D01*
X96917838Y-108848968D01*
X97063917Y-108788460D01*
X97189358Y-108692206D01*
X97285612Y-108566765D01*
X97346120Y-108420686D01*
X97366758Y-108263924D01*
X97355325Y-108177084D01*
X97365391Y-108100619D01*
X97397688Y-108052281D01*
X97830829Y-107619141D01*
X97897625Y-107580577D01*
X97936189Y-107575500D01*
X98793007Y-107575500D01*
X98867507Y-107595462D01*
X98922045Y-107650000D01*
X98942007Y-107724500D01*
X98930665Y-107781520D01*
X98915455Y-107818239D01*
X98894817Y-107974999D01*
X98915455Y-108131760D01*
X98915456Y-108131762D01*
X98975964Y-108277841D01*
X99072218Y-108403282D01*
X99197659Y-108499536D01*
X99343738Y-108560044D01*
X99422119Y-108570363D01*
X99500499Y-108580682D01*
X99500499Y-108580681D01*
X99500500Y-108580682D01*
X99657262Y-108560044D01*
X99803341Y-108499536D01*
X99928782Y-108403282D01*
X99982101Y-108333794D01*
X100043291Y-108286842D01*
X100100311Y-108275500D01*
X106373202Y-108275500D01*
X106447702Y-108295462D01*
X106502240Y-108350000D01*
X106522202Y-108424500D01*
X106510860Y-108481520D01*
X106495857Y-108517739D01*
X106475219Y-108674500D01*
X106495857Y-108831260D01*
X106495858Y-108831262D01*
X106556366Y-108977341D01*
X106652620Y-109102782D01*
X106778061Y-109199036D01*
X106806937Y-109210997D01*
X106814277Y-109214037D01*
X106875467Y-109260989D01*
X106904983Y-109332246D01*
X106894916Y-109408714D01*
X106862617Y-109457054D01*
X100074484Y-116245188D01*
X100064903Y-116253968D01*
X100036805Y-116277545D01*
X100018460Y-116309319D01*
X100011480Y-116320275D01*
X99988692Y-116352821D01*
X99979942Y-116373944D01*
X99973042Y-116413076D01*
X99970229Y-116425761D01*
X99960735Y-116461191D01*
X99963933Y-116497732D01*
X99964500Y-116510719D01*
X99964500Y-117893526D01*
X99944538Y-117968026D01*
X99890000Y-118022564D01*
X99885739Y-118024932D01*
X99703548Y-118122316D01*
X99543589Y-118253589D01*
X99412316Y-118413548D01*
X99309078Y-118606691D01*
X99256353Y-118662984D01*
X99182546Y-118685372D01*
X99107433Y-118667858D01*
X99051140Y-118615133D01*
X99033749Y-118575016D01*
X99023431Y-118536509D01*
X98923600Y-118322423D01*
X98788109Y-118128921D01*
X98621075Y-117961887D01*
X98427582Y-117826401D01*
X98213491Y-117726568D01*
X98000000Y-117669363D01*
X98000000Y-118564498D01*
X97892315Y-118515320D01*
X97785763Y-118500000D01*
X97714237Y-118500000D01*
X97607685Y-118515320D01*
X97500000Y-118564498D01*
X97500000Y-117669364D01*
X97499999Y-117669363D01*
X97286509Y-117726568D01*
X97072423Y-117826399D01*
X96878921Y-117961890D01*
X96711890Y-118128921D01*
X96576399Y-118322423D01*
X96476567Y-118536511D01*
X96466249Y-118575019D01*
X96427684Y-118641813D01*
X96360888Y-118680376D01*
X96283760Y-118680374D01*
X96216966Y-118641809D01*
X96190921Y-118606690D01*
X96173992Y-118575019D01*
X96087685Y-118413550D01*
X96080406Y-118404680D01*
X95956410Y-118253589D01*
X95796451Y-118122316D01*
X95796450Y-118122315D01*
X95613954Y-118024768D01*
X95613953Y-118024767D01*
X95613952Y-118024767D01*
X95415932Y-117964699D01*
X95210000Y-117944416D01*
X95004067Y-117964699D01*
X94806047Y-118024767D01*
X94623548Y-118122316D01*
X94463589Y-118253589D01*
X94332316Y-118413548D01*
X94234767Y-118596047D01*
X94174699Y-118794067D01*
X94154416Y-118999999D01*
X94174699Y-119205932D01*
X94231539Y-119393308D01*
X94234768Y-119403954D01*
X94332315Y-119586450D01*
X94339501Y-119595206D01*
X94463589Y-119746410D01*
X94574901Y-119837760D01*
X94623550Y-119877685D01*
X94806046Y-119975232D01*
X95004066Y-120035300D01*
X95210000Y-120055583D01*
X95415934Y-120035300D01*
X95613954Y-119975232D01*
X95796450Y-119877685D01*
X95956410Y-119746410D01*
X96087685Y-119586450D01*
X96185232Y-119403954D01*
X96185233Y-119403950D01*
X96190921Y-119393309D01*
X96243645Y-119337016D01*
X96317452Y-119314627D01*
X96392565Y-119332141D01*
X96448858Y-119384865D01*
X96466249Y-119424981D01*
X96476567Y-119463487D01*
X96576401Y-119677582D01*
X96711887Y-119871075D01*
X96878924Y-120038112D01*
X97072417Y-120173598D01*
X97286509Y-120273430D01*
X97500000Y-120330634D01*
X97500000Y-119435501D01*
X97607685Y-119484680D01*
X97714237Y-119500000D01*
X97785763Y-119500000D01*
X97892315Y-119484680D01*
X98000000Y-119435501D01*
X98000000Y-120330633D01*
X98213490Y-120273430D01*
X98427582Y-120173598D01*
X98621075Y-120038112D01*
X98788112Y-119871075D01*
X98923598Y-119677582D01*
X99023430Y-119463491D01*
X99033749Y-119424983D01*
X99072313Y-119358188D01*
X99139107Y-119319624D01*
X99216236Y-119319624D01*
X99283031Y-119358188D01*
X99309078Y-119393308D01*
X99314767Y-119403952D01*
X99314768Y-119403954D01*
X99412315Y-119586450D01*
X99419501Y-119595206D01*
X99543589Y-119746410D01*
X99654901Y-119837760D01*
X99703550Y-119877685D01*
X99886046Y-119975232D01*
X100084066Y-120035300D01*
X100187032Y-120045441D01*
X100289999Y-120055583D01*
X100289999Y-120055582D01*
X100290000Y-120055583D01*
X100495934Y-120035300D01*
X100693954Y-119975232D01*
X100876450Y-119877685D01*
X101036410Y-119746410D01*
X101167685Y-119586450D01*
X101265232Y-119403954D01*
X101325300Y-119205934D01*
X101345583Y-119000000D01*
X101325300Y-118794066D01*
X101265232Y-118596046D01*
X101167685Y-118413550D01*
X101127760Y-118364901D01*
X101036410Y-118253589D01*
X100876451Y-118122316D01*
X100876450Y-118122315D01*
X100694261Y-118024932D01*
X100637968Y-117972207D01*
X100615580Y-117898400D01*
X100615500Y-117893526D01*
X100615500Y-116686544D01*
X100635462Y-116612044D01*
X100659141Y-116581185D01*
X101535144Y-115705182D01*
X102445142Y-114795183D01*
X102511935Y-114756621D01*
X102589063Y-114756621D01*
X102655858Y-114795185D01*
X102694422Y-114861980D01*
X102699499Y-114900544D01*
X102699500Y-116225500D01*
X102679538Y-116300000D01*
X102625000Y-116354538D01*
X102550500Y-116374500D01*
X102517605Y-116374500D01*
X102502673Y-116379934D01*
X102477597Y-116386653D01*
X102461955Y-116389411D01*
X102448197Y-116397354D01*
X102424671Y-116408324D01*
X102409740Y-116413759D01*
X102397573Y-116423968D01*
X102376305Y-116438860D01*
X102362546Y-116446804D01*
X102352331Y-116458977D01*
X102333975Y-116477332D01*
X102321806Y-116487543D01*
X102313863Y-116501301D01*
X102298972Y-116522567D01*
X102288760Y-116534738D01*
X102283325Y-116549669D01*
X102272354Y-116573198D01*
X102264410Y-116586957D01*
X102261654Y-116602591D01*
X102254934Y-116627671D01*
X102249499Y-116642602D01*
X102249500Y-116671525D01*
X102249499Y-121228455D01*
X102229537Y-121302955D01*
X102205858Y-121333814D01*
X101908815Y-121630859D01*
X101842021Y-121669423D01*
X101803456Y-121674500D01*
X101396473Y-121674500D01*
X101321973Y-121654538D01*
X101267435Y-121600000D01*
X101265067Y-121595738D01*
X101253992Y-121575019D01*
X101167685Y-121413550D01*
X101137187Y-121376388D01*
X101036410Y-121253589D01*
X100876451Y-121122316D01*
X100876450Y-121122315D01*
X100693954Y-121024768D01*
X100693953Y-121024767D01*
X100693952Y-121024767D01*
X100495932Y-120964699D01*
X100289999Y-120944416D01*
X100084067Y-120964699D01*
X99886047Y-121024767D01*
X99703548Y-121122316D01*
X99543589Y-121253589D01*
X99412316Y-121413548D01*
X99309078Y-121606691D01*
X99256353Y-121662984D01*
X99182546Y-121685372D01*
X99107433Y-121667858D01*
X99051140Y-121615133D01*
X99033749Y-121575016D01*
X99023431Y-121536509D01*
X98923600Y-121322423D01*
X98788109Y-121128921D01*
X98621075Y-120961887D01*
X98427582Y-120826401D01*
X98213491Y-120726568D01*
X98000000Y-120669363D01*
X98000000Y-121564498D01*
X97892315Y-121515320D01*
X97785763Y-121500000D01*
X97714237Y-121500000D01*
X97607685Y-121515320D01*
X97500000Y-121564498D01*
X97500000Y-120669364D01*
X97499999Y-120669363D01*
X97286509Y-120726568D01*
X97072423Y-120826399D01*
X96878921Y-120961890D01*
X96711890Y-121128921D01*
X96576399Y-121322423D01*
X96476567Y-121536511D01*
X96466249Y-121575019D01*
X96427684Y-121641813D01*
X96360888Y-121680376D01*
X96283760Y-121680374D01*
X96216966Y-121641809D01*
X96190921Y-121606690D01*
X96173992Y-121575019D01*
X96087685Y-121413550D01*
X96057187Y-121376388D01*
X95956410Y-121253589D01*
X95796451Y-121122316D01*
X95796450Y-121122315D01*
X95613954Y-121024768D01*
X95613953Y-121024767D01*
X95613952Y-121024767D01*
X95415932Y-120964699D01*
X95209999Y-120944416D01*
X95004067Y-120964699D01*
X94806047Y-121024767D01*
X94623548Y-121122316D01*
X94463589Y-121253589D01*
X94332316Y-121413548D01*
X94234767Y-121596047D01*
X94174699Y-121794067D01*
X94154416Y-122000000D01*
X94174699Y-122205932D01*
X94231539Y-122393308D01*
X94234768Y-122403954D01*
X94332315Y-122586450D01*
X94340190Y-122596046D01*
X94463589Y-122746410D01*
X94574901Y-122837760D01*
X94623550Y-122877685D01*
X94806046Y-122975232D01*
X95004066Y-123035300D01*
X95107032Y-123045441D01*
X95209999Y-123055583D01*
X95209999Y-123055582D01*
X95210000Y-123055583D01*
X95415934Y-123035300D01*
X95613954Y-122975232D01*
X95796450Y-122877685D01*
X95956410Y-122746410D01*
X96087685Y-122586450D01*
X96185232Y-122403954D01*
X96185233Y-122403950D01*
X96190921Y-122393309D01*
X96243645Y-122337016D01*
X96317452Y-122314627D01*
X96392565Y-122332141D01*
X96448858Y-122384865D01*
X96466249Y-122424981D01*
X96476567Y-122463487D01*
X96576401Y-122677582D01*
X96711887Y-122871075D01*
X96878924Y-123038112D01*
X97072417Y-123173598D01*
X97286509Y-123273430D01*
X97500000Y-123330634D01*
X97500000Y-122435501D01*
X97607685Y-122484680D01*
X97714237Y-122500000D01*
X97785763Y-122500000D01*
X97892315Y-122484680D01*
X98000000Y-122435501D01*
X98000000Y-123330633D01*
X98213490Y-123273430D01*
X98427582Y-123173598D01*
X98621075Y-123038112D01*
X98788112Y-122871075D01*
X98923598Y-122677582D01*
X99023430Y-122463491D01*
X99033749Y-122424983D01*
X99072313Y-122358188D01*
X99139107Y-122319624D01*
X99216236Y-122319624D01*
X99283031Y-122358188D01*
X99309078Y-122393308D01*
X99314767Y-122403952D01*
X99314768Y-122403954D01*
X99412315Y-122586450D01*
X99420190Y-122596046D01*
X99543589Y-122746410D01*
X99654901Y-122837760D01*
X99703550Y-122877685D01*
X99886046Y-122975232D01*
X100084066Y-123035300D01*
X100290000Y-123055583D01*
X100495934Y-123035300D01*
X100693954Y-122975232D01*
X100876450Y-122877685D01*
X101036410Y-122746410D01*
X101167685Y-122586450D01*
X101265067Y-122404261D01*
X101317791Y-122347969D01*
X101391598Y-122325580D01*
X101396473Y-122325500D01*
X101979280Y-122325500D01*
X101992266Y-122326066D01*
X102028807Y-122329264D01*
X102064253Y-122319765D01*
X102076917Y-122316957D01*
X102113045Y-122310588D01*
X102113046Y-122310587D01*
X102116065Y-122310055D01*
X102137171Y-122301312D01*
X102139680Y-122299554D01*
X102139684Y-122299554D01*
X102169734Y-122278511D01*
X102180669Y-122271544D01*
X102212455Y-122253194D01*
X102236044Y-122225080D01*
X102244804Y-122215520D01*
X102790526Y-121669798D01*
X102800087Y-121661038D01*
X102828194Y-121637455D01*
X102846542Y-121605674D01*
X102853501Y-121594748D01*
X102874554Y-121564684D01*
X102874555Y-121564679D01*
X102876313Y-121562169D01*
X102885055Y-121541065D01*
X102885587Y-121538046D01*
X102885588Y-121538045D01*
X102891957Y-121501917D01*
X102894764Y-121489257D01*
X102904264Y-121453807D01*
X102904136Y-121452344D01*
X102917529Y-121376388D01*
X102967106Y-121317305D01*
X103039582Y-121290925D01*
X103115539Y-121304318D01*
X103147094Y-121324180D01*
X103163550Y-121337685D01*
X103346046Y-121435232D01*
X103544066Y-121495300D01*
X103750000Y-121515583D01*
X103955934Y-121495300D01*
X104153954Y-121435232D01*
X104336450Y-121337685D01*
X104496410Y-121206410D01*
X104627685Y-121046450D01*
X104725067Y-120864261D01*
X104777791Y-120807969D01*
X104851598Y-120785580D01*
X104856473Y-120785500D01*
X111794280Y-120785500D01*
X111807266Y-120786066D01*
X111843807Y-120789264D01*
X111879253Y-120779765D01*
X111891917Y-120776957D01*
X111928045Y-120770588D01*
X111928046Y-120770587D01*
X111931065Y-120770055D01*
X111952171Y-120761312D01*
X111954680Y-120759554D01*
X111954684Y-120759554D01*
X111984734Y-120738511D01*
X111995669Y-120731544D01*
X112027455Y-120713194D01*
X112051044Y-120685080D01*
X112059804Y-120675520D01*
X113650600Y-119084724D01*
X113717393Y-119046162D01*
X113794521Y-119046162D01*
X113861316Y-119084726D01*
X113899880Y-119151521D01*
X113903682Y-119170636D01*
X113914955Y-119256262D01*
X113936845Y-119309108D01*
X113975464Y-119402343D01*
X114071718Y-119527784D01*
X114197159Y-119624038D01*
X114276316Y-119656826D01*
X114337505Y-119703777D01*
X114367021Y-119775034D01*
X114356954Y-119851502D01*
X114337507Y-119885186D01*
X114328962Y-119896322D01*
X114268452Y-120042405D01*
X114247814Y-120199166D01*
X114268452Y-120355926D01*
X114328960Y-120502007D01*
X114328961Y-120502007D01*
X114425215Y-120627448D01*
X114550656Y-120723702D01*
X114696735Y-120784210D01*
X114726966Y-120788190D01*
X114872945Y-120807409D01*
X114872919Y-120807604D01*
X114929204Y-120815011D01*
X114990396Y-120861961D01*
X115019915Y-120933217D01*
X115019916Y-120933223D01*
X115029253Y-121004144D01*
X115046777Y-121046450D01*
X115089762Y-121150225D01*
X115186016Y-121275666D01*
X115311457Y-121371920D01*
X115348176Y-121387129D01*
X115409363Y-121434079D01*
X115438880Y-121505336D01*
X115428814Y-121581804D01*
X115396514Y-121630145D01*
X114395802Y-122630859D01*
X114329007Y-122669423D01*
X114290443Y-122674500D01*
X104856473Y-122674500D01*
X104781973Y-122654538D01*
X104727435Y-122600000D01*
X104725067Y-122595738D01*
X104720102Y-122586450D01*
X104627685Y-122413550D01*
X104582251Y-122358188D01*
X104496410Y-122253589D01*
X104336451Y-122122316D01*
X104336450Y-122122315D01*
X104153954Y-122024768D01*
X104153953Y-122024767D01*
X104153952Y-122024767D01*
X103955932Y-121964699D01*
X103750000Y-121944416D01*
X103544067Y-121964699D01*
X103346047Y-122024767D01*
X103163548Y-122122316D01*
X103003589Y-122253589D01*
X102872316Y-122413548D01*
X102774767Y-122596047D01*
X102714699Y-122794067D01*
X102694416Y-123000000D01*
X102714699Y-123205932D01*
X102752527Y-123330634D01*
X102774768Y-123403954D01*
X102872314Y-123586449D01*
X102872316Y-123586451D01*
X103003589Y-123746410D01*
X103114901Y-123837760D01*
X103163550Y-123877685D01*
X103346046Y-123975232D01*
X103544066Y-124035300D01*
X103750000Y-124055583D01*
X103955934Y-124035300D01*
X104153954Y-123975232D01*
X104336450Y-123877685D01*
X104496410Y-123746410D01*
X104627685Y-123586450D01*
X104725067Y-123404261D01*
X104777791Y-123347969D01*
X104851598Y-123325580D01*
X104856473Y-123325500D01*
X114466267Y-123325500D01*
X114479253Y-123326066D01*
X114515794Y-123329264D01*
X114551240Y-123319765D01*
X114563904Y-123316957D01*
X114600032Y-123310588D01*
X114600033Y-123310587D01*
X114603052Y-123310055D01*
X114624158Y-123301312D01*
X114626667Y-123299554D01*
X114626671Y-123299554D01*
X114656721Y-123278511D01*
X114667656Y-123271544D01*
X114699442Y-123253194D01*
X114723031Y-123225080D01*
X114731791Y-123215520D01*
X116172311Y-121775000D01*
X124794317Y-121775000D01*
X124814955Y-121931760D01*
X124814956Y-121931762D01*
X124875464Y-122077841D01*
X124971718Y-122203282D01*
X125097159Y-122299536D01*
X125243238Y-122360044D01*
X125321619Y-122370362D01*
X125399999Y-122380682D01*
X125399999Y-122380681D01*
X125400000Y-122380682D01*
X125556762Y-122360044D01*
X125702841Y-122299536D01*
X125828282Y-122203282D01*
X125924536Y-122077841D01*
X125985044Y-121931762D01*
X126005682Y-121775000D01*
X125985044Y-121618238D01*
X125924536Y-121472159D01*
X125828282Y-121346718D01*
X125702841Y-121250464D01*
X125649707Y-121228455D01*
X125556760Y-121189955D01*
X125400000Y-121169317D01*
X125243239Y-121189955D01*
X125097158Y-121250464D01*
X124971718Y-121346718D01*
X124875464Y-121472158D01*
X124814955Y-121618239D01*
X124794317Y-121775000D01*
X116172311Y-121775000D01*
X121197312Y-116749999D01*
X122644317Y-116749999D01*
X122664955Y-116906760D01*
X122664956Y-116906762D01*
X122725464Y-117052841D01*
X122821718Y-117178282D01*
X122947159Y-117274536D01*
X123093238Y-117335044D01*
X123250000Y-117355682D01*
X123406762Y-117335044D01*
X123552841Y-117274536D01*
X123678282Y-117178282D01*
X123774536Y-117052841D01*
X123835044Y-116906762D01*
X123855682Y-116750000D01*
X123835044Y-116593238D01*
X123774536Y-116447159D01*
X123678282Y-116321718D01*
X123552841Y-116225464D01*
X123406762Y-116164956D01*
X123406760Y-116164955D01*
X123249999Y-116144317D01*
X123093239Y-116164955D01*
X122947158Y-116225464D01*
X122821718Y-116321718D01*
X122725464Y-116447158D01*
X122664955Y-116593239D01*
X122644317Y-116749999D01*
X121197312Y-116749999D01*
X129495142Y-108452169D01*
X129561935Y-108413607D01*
X129639063Y-108413607D01*
X129705858Y-108452171D01*
X129744422Y-108518966D01*
X129749499Y-108557530D01*
X129749499Y-113159689D01*
X129729537Y-113234189D01*
X129674999Y-113288727D01*
X129600499Y-113308689D01*
X129525999Y-113288727D01*
X129509794Y-113277899D01*
X129389496Y-113185592D01*
X129243415Y-113125083D01*
X129086654Y-113104445D01*
X128929894Y-113125083D01*
X128783813Y-113185592D01*
X128658373Y-113281846D01*
X128562119Y-113407286D01*
X128501610Y-113553367D01*
X128480972Y-113710127D01*
X128501610Y-113866888D01*
X128501611Y-113866890D01*
X128562119Y-114012969D01*
X128658373Y-114138410D01*
X128783814Y-114234664D01*
X128929893Y-114295172D01*
X129086655Y-114315810D01*
X129243417Y-114295172D01*
X129389496Y-114234664D01*
X129509796Y-114142354D01*
X129581050Y-114112840D01*
X129657518Y-114122907D01*
X129718708Y-114169859D01*
X129748224Y-114241116D01*
X129749499Y-114260565D01*
X129749499Y-125242147D01*
X129729537Y-125316647D01*
X129674999Y-125371185D01*
X129600499Y-125391147D01*
X129525999Y-125371185D01*
X129471461Y-125316647D01*
X129463375Y-125300439D01*
X129400130Y-125151610D01*
X129259018Y-124920390D01*
X129085745Y-124712180D01*
X128884002Y-124531418D01*
X128658090Y-124381956D01*
X128658086Y-124381954D01*
X128412826Y-124266980D01*
X128267372Y-124223220D01*
X128153431Y-124188940D01*
X128153427Y-124188939D01*
X128153426Y-124188939D01*
X127885439Y-124149500D01*
X127682369Y-124149500D01*
X127679665Y-124149697D01*
X127679635Y-124149699D01*
X127479844Y-124164322D01*
X127215444Y-124223220D01*
X126962445Y-124319983D01*
X126726219Y-124452561D01*
X126511827Y-124618108D01*
X126323812Y-124813121D01*
X126166200Y-125033420D01*
X126042343Y-125274325D01*
X125954882Y-125530691D01*
X125905681Y-125797066D01*
X125895788Y-126067768D01*
X125925414Y-126337017D01*
X125993928Y-126599090D01*
X126099869Y-126848389D01*
X126240979Y-127079606D01*
X126240981Y-127079608D01*
X126240982Y-127079610D01*
X126414255Y-127287820D01*
X126615998Y-127468582D01*
X126841910Y-127618044D01*
X126974104Y-127680014D01*
X127049990Y-127715588D01*
X127108973Y-127765285D01*
X127135205Y-127837815D01*
X127121658Y-127913744D01*
X127071961Y-127972727D01*
X126999431Y-127998959D01*
X126986746Y-127999500D01*
X93508903Y-127999500D01*
X93434403Y-127979538D01*
X93379865Y-127925000D01*
X93359903Y-127850500D01*
X93379865Y-127776000D01*
X93434403Y-127721462D01*
X93455676Y-127711332D01*
X93537554Y-127680016D01*
X93537558Y-127680014D01*
X93773777Y-127547441D01*
X93988177Y-127381888D01*
X94176186Y-127186881D01*
X94333799Y-126966579D01*
X94457656Y-126725675D01*
X94545118Y-126469305D01*
X94594319Y-126202933D01*
X94604212Y-125932235D01*
X94574586Y-125662982D01*
X94506072Y-125400912D01*
X94501922Y-125391147D01*
X94400130Y-125151610D01*
X94259020Y-124920393D01*
X94085745Y-124712180D01*
X94085745Y-124712179D01*
X93884002Y-124531418D01*
X93658090Y-124381956D01*
X93658086Y-124381954D01*
X93412826Y-124266980D01*
X93267372Y-124223220D01*
X93153431Y-124188940D01*
X93153427Y-124188939D01*
X93153426Y-124188939D01*
X92885439Y-124149500D01*
X92682369Y-124149500D01*
X92679665Y-124149697D01*
X92679635Y-124149699D01*
X92479844Y-124164322D01*
X92215444Y-124223220D01*
X91962445Y-124319983D01*
X91726219Y-124452561D01*
X91511827Y-124618108D01*
X91323812Y-124813121D01*
X91166200Y-125033420D01*
X91042343Y-125274326D01*
X91040519Y-125279674D01*
X90997571Y-125343738D01*
X90928345Y-125377745D01*
X90851390Y-125372583D01*
X90787326Y-125329635D01*
X90753319Y-125260409D01*
X90750500Y-125231564D01*
X90750500Y-122869748D01*
X91619500Y-122869748D01*
X91631132Y-122928229D01*
X91631132Y-122928230D01*
X91631133Y-122928231D01*
X91675448Y-122994552D01*
X91741769Y-123038867D01*
X91800252Y-123050500D01*
X93539748Y-123050500D01*
X93598231Y-123038867D01*
X93664552Y-122994552D01*
X93708867Y-122928231D01*
X93720500Y-122869748D01*
X93720500Y-121130252D01*
X93718921Y-121122316D01*
X93708867Y-121071770D01*
X93708867Y-121071769D01*
X93664552Y-121005448D01*
X93598231Y-120961133D01*
X93598230Y-120961132D01*
X93598229Y-120961132D01*
X93539748Y-120949500D01*
X91800252Y-120949500D01*
X91741770Y-120961132D01*
X91675448Y-121005448D01*
X91631132Y-121071770D01*
X91619500Y-121130251D01*
X91619500Y-122869748D01*
X90750500Y-122869748D01*
X90750500Y-119869748D01*
X91619500Y-119869748D01*
X91631132Y-119928229D01*
X91631132Y-119928230D01*
X91631133Y-119928231D01*
X91675448Y-119994552D01*
X91741769Y-120038867D01*
X91800252Y-120050500D01*
X93539748Y-120050500D01*
X93598231Y-120038867D01*
X93664552Y-119994552D01*
X93708867Y-119928231D01*
X93720500Y-119869748D01*
X93720500Y-118130252D01*
X93718921Y-118122316D01*
X93708867Y-118071770D01*
X93708867Y-118071769D01*
X93664552Y-118005448D01*
X93598231Y-117961133D01*
X93598230Y-117961132D01*
X93598229Y-117961132D01*
X93539748Y-117949500D01*
X91800252Y-117949500D01*
X91741770Y-117961132D01*
X91675448Y-118005448D01*
X91631132Y-118071770D01*
X91619500Y-118130251D01*
X91619500Y-119869748D01*
X90750500Y-119869748D01*
X90750500Y-113750000D01*
X91087132Y-113750000D01*
X91996389Y-113750000D01*
X91956890Y-113774457D01*
X91889299Y-113863962D01*
X91858605Y-113971840D01*
X91868954Y-114083521D01*
X91918948Y-114183922D01*
X91991431Y-114250000D01*
X91091242Y-114250000D01*
X91118269Y-114361412D01*
X91205536Y-114552499D01*
X91327395Y-114723626D01*
X91479431Y-114868592D01*
X91656156Y-114982166D01*
X91851182Y-115060243D01*
X92057466Y-115100000D01*
X92262500Y-115100000D01*
X92262500Y-114300000D01*
X92762500Y-114300000D01*
X92762500Y-115100000D01*
X92911357Y-115100000D01*
X92918438Y-115099662D01*
X93071624Y-115085035D01*
X93273185Y-115025851D01*
X93459909Y-114929589D01*
X93625040Y-114799727D01*
X93762609Y-114640966D01*
X93867648Y-114459033D01*
X93936355Y-114260515D01*
X93937868Y-114250000D01*
X93028611Y-114250000D01*
X93068110Y-114225543D01*
X93135701Y-114136038D01*
X93166395Y-114028160D01*
X93156046Y-113916479D01*
X93106052Y-113816078D01*
X93033569Y-113750000D01*
X93933757Y-113750000D01*
X93972862Y-113700273D01*
X94034606Y-113654052D01*
X94111189Y-113644894D01*
X94170078Y-113670111D01*
X94187324Y-113671620D01*
X94792694Y-113066249D01*
X94803262Y-113132969D01*
X94864382Y-113252923D01*
X94959577Y-113348118D01*
X95079531Y-113409238D01*
X95146248Y-113419804D01*
X94540878Y-114025174D01*
X94597660Y-114064933D01*
X94791924Y-114155519D01*
X94998967Y-114210997D01*
X95212499Y-114229678D01*
X95426032Y-114210997D01*
X95633074Y-114155520D01*
X95827339Y-114064932D01*
X95884120Y-114025173D01*
X95278751Y-113419804D01*
X95345469Y-113409238D01*
X95465423Y-113348118D01*
X95560618Y-113252923D01*
X95621738Y-113132969D01*
X95632304Y-113066250D01*
X96237673Y-113671619D01*
X96277432Y-113614839D01*
X96368020Y-113420574D01*
X96423497Y-113213532D01*
X96442178Y-112999999D01*
X96423497Y-112786467D01*
X96368020Y-112579425D01*
X96277433Y-112385162D01*
X96237673Y-112328379D01*
X95632304Y-112933747D01*
X95621738Y-112867031D01*
X95560618Y-112747077D01*
X95465423Y-112651882D01*
X95345469Y-112590762D01*
X95278749Y-112580194D01*
X95884120Y-111974824D01*
X95827340Y-111935066D01*
X95633075Y-111844480D01*
X95426032Y-111789002D01*
X95212500Y-111770321D01*
X94998967Y-111789002D01*
X94791925Y-111844479D01*
X94597660Y-111935067D01*
X94540879Y-111974825D01*
X95146248Y-112580194D01*
X95079531Y-112590762D01*
X94959577Y-112651882D01*
X94864382Y-112747077D01*
X94803262Y-112867031D01*
X94792695Y-112933749D01*
X94187325Y-112328379D01*
X94147567Y-112385160D01*
X94056979Y-112579425D01*
X94001502Y-112786467D01*
X93982821Y-113000000D01*
X94002630Y-113226419D01*
X93989237Y-113302375D01*
X93939660Y-113361459D01*
X93867183Y-113387838D01*
X93791227Y-113374445D01*
X93732826Y-113325834D01*
X93697607Y-113276377D01*
X93545568Y-113131407D01*
X93368843Y-113017833D01*
X93173817Y-112939756D01*
X92967534Y-112900000D01*
X92762500Y-112900000D01*
X92762500Y-113700000D01*
X92262500Y-113700000D01*
X92262500Y-112900000D01*
X92113643Y-112900000D01*
X92106561Y-112900337D01*
X91953375Y-112914964D01*
X91751814Y-112974148D01*
X91565090Y-113070410D01*
X91399959Y-113200272D01*
X91262390Y-113359033D01*
X91157351Y-113540966D01*
X91088644Y-113739484D01*
X91087132Y-113750000D01*
X90750500Y-113750000D01*
X90750500Y-102275000D01*
X119094317Y-102275000D01*
X119114955Y-102431760D01*
X119114956Y-102431762D01*
X119175464Y-102577841D01*
X119271718Y-102703282D01*
X119393169Y-102796474D01*
X119412721Y-102811477D01*
X119409681Y-102815438D01*
X119440410Y-102838957D01*
X119470015Y-102910177D01*
X119460043Y-102986658D01*
X119459972Y-102986830D01*
X119426352Y-103067995D01*
X119405714Y-103224756D01*
X119426352Y-103381516D01*
X119457280Y-103456182D01*
X119486861Y-103527597D01*
X119583115Y-103653038D01*
X119708556Y-103749292D01*
X119854635Y-103809800D01*
X119933016Y-103820119D01*
X120011396Y-103830438D01*
X120011396Y-103830437D01*
X120011397Y-103830438D01*
X120168159Y-103809800D01*
X120314238Y-103749292D01*
X120439679Y-103653038D01*
X120535933Y-103527597D01*
X120596441Y-103381518D01*
X120617079Y-103224756D01*
X120596441Y-103067994D01*
X120535933Y-102921915D01*
X120439679Y-102796474D01*
X120314238Y-102700220D01*
X120314237Y-102700219D01*
X120298676Y-102688279D01*
X120301715Y-102684317D01*
X120270727Y-102660459D01*
X120241326Y-102589155D01*
X120251425Y-102512925D01*
X120256277Y-102501211D01*
X120285044Y-102431762D01*
X120305682Y-102275000D01*
X120285044Y-102118238D01*
X120224536Y-101972159D01*
X120128282Y-101846718D01*
X120002841Y-101750464D01*
X119856760Y-101689955D01*
X119700000Y-101669317D01*
X119543239Y-101689955D01*
X119397158Y-101750464D01*
X119271718Y-101846718D01*
X119175464Y-101972158D01*
X119114955Y-102118239D01*
X119094317Y-102275000D01*
X90750500Y-102275000D01*
X90750500Y-100749999D01*
X97894317Y-100749999D01*
X97914955Y-100906760D01*
X97920050Y-100919061D01*
X97975464Y-101052841D01*
X98071718Y-101178282D01*
X98197159Y-101274536D01*
X98343238Y-101335044D01*
X98500000Y-101355682D01*
X98656762Y-101335044D01*
X98802841Y-101274536D01*
X98928282Y-101178282D01*
X99024536Y-101052841D01*
X99085044Y-100906762D01*
X99105682Y-100750000D01*
X99085044Y-100593238D01*
X99024536Y-100447159D01*
X98928282Y-100321718D01*
X98802841Y-100225464D01*
X98743811Y-100201013D01*
X98656760Y-100164955D01*
X98500000Y-100144317D01*
X98343239Y-100164955D01*
X98197158Y-100225464D01*
X98071718Y-100321718D01*
X97975464Y-100447158D01*
X97914955Y-100593239D01*
X97894317Y-100749999D01*
X90750500Y-100749999D01*
X90750500Y-96749999D01*
X94494866Y-96749999D01*
X94513301Y-96878224D01*
X94567117Y-96996062D01*
X94644113Y-97084922D01*
X94651951Y-97093967D01*
X94760931Y-97164004D01*
X94885228Y-97200500D01*
X94885229Y-97200500D01*
X95014771Y-97200500D01*
X95014772Y-97200500D01*
X95139069Y-97164004D01*
X95248049Y-97093967D01*
X95332882Y-96996063D01*
X95380876Y-96890973D01*
X95386698Y-96878224D01*
X95405133Y-96749999D01*
X95794866Y-96749999D01*
X95813301Y-96878224D01*
X95867117Y-96996062D01*
X95867118Y-96996063D01*
X95951951Y-97093967D01*
X96060931Y-97164004D01*
X96060932Y-97164004D01*
X96070965Y-97170452D01*
X96122846Y-97227523D01*
X96139241Y-97302888D01*
X96115757Y-97376354D01*
X96081117Y-97414007D01*
X96071719Y-97421218D01*
X95975464Y-97546660D01*
X95914955Y-97692741D01*
X95894317Y-97849502D01*
X95914955Y-98006262D01*
X95933087Y-98050036D01*
X95975464Y-98152343D01*
X96071718Y-98277784D01*
X96197159Y-98374038D01*
X96343238Y-98434546D01*
X96421619Y-98444865D01*
X96499999Y-98455184D01*
X96499999Y-98455183D01*
X96500000Y-98455184D01*
X96656762Y-98434546D01*
X96802841Y-98374038D01*
X96928282Y-98277784D01*
X97024536Y-98152343D01*
X97085044Y-98006264D01*
X97105682Y-97849502D01*
X97085044Y-97692740D01*
X97024536Y-97546661D01*
X96928282Y-97421220D01*
X96802841Y-97324966D01*
X96789874Y-97319595D01*
X96658948Y-97265363D01*
X96597758Y-97218410D01*
X96568243Y-97147153D01*
X96578310Y-97070685D01*
X96603360Y-97030133D01*
X96632882Y-96996063D01*
X96680876Y-96890973D01*
X96686698Y-96878224D01*
X96705133Y-96749999D01*
X96686698Y-96621775D01*
X96632882Y-96503937D01*
X96548049Y-96406033D01*
X96500299Y-96375346D01*
X96448419Y-96318276D01*
X96432024Y-96242910D01*
X96455508Y-96169445D01*
X96500299Y-96124653D01*
X96548049Y-96093967D01*
X96629471Y-95999999D01*
X112144317Y-95999999D01*
X112164955Y-96156760D01*
X112169710Y-96168239D01*
X112225464Y-96302841D01*
X112321718Y-96428282D01*
X112447159Y-96524536D01*
X112593238Y-96585044D01*
X112671619Y-96595363D01*
X112749999Y-96605682D01*
X112749999Y-96605681D01*
X112750000Y-96605682D01*
X112906762Y-96585044D01*
X113052841Y-96524536D01*
X113178282Y-96428282D01*
X113274536Y-96302841D01*
X113335044Y-96156762D01*
X113355682Y-96000000D01*
X113335044Y-95843238D01*
X113274536Y-95697159D01*
X113178282Y-95571718D01*
X113052841Y-95475464D01*
X113008497Y-95457096D01*
X112906760Y-95414955D01*
X112749999Y-95394317D01*
X112593239Y-95414955D01*
X112447158Y-95475464D01*
X112321718Y-95571718D01*
X112225464Y-95697158D01*
X112164955Y-95843239D01*
X112144317Y-95999999D01*
X96629471Y-95999999D01*
X96632882Y-95996063D01*
X96686697Y-95878226D01*
X96686696Y-95878226D01*
X96686698Y-95878224D01*
X96705133Y-95749999D01*
X96686698Y-95621775D01*
X96632882Y-95503937D01*
X96608210Y-95475464D01*
X96548049Y-95406033D01*
X96500299Y-95375346D01*
X96448419Y-95318276D01*
X96432024Y-95242910D01*
X96455508Y-95169445D01*
X96500299Y-95124653D01*
X96548049Y-95093967D01*
X96632882Y-94996063D01*
X96686697Y-94878226D01*
X96686696Y-94878226D01*
X96686698Y-94878224D01*
X96705133Y-94749999D01*
X96686698Y-94621775D01*
X96632882Y-94503937D01*
X96548050Y-94406034D01*
X96548049Y-94406033D01*
X96439069Y-94335996D01*
X96314772Y-94299500D01*
X96185228Y-94299500D01*
X96109559Y-94321718D01*
X96060931Y-94335996D01*
X95951949Y-94406034D01*
X95867117Y-94503937D01*
X95813301Y-94621775D01*
X95794866Y-94749999D01*
X95813301Y-94878224D01*
X95867117Y-94996062D01*
X95867118Y-94996063D01*
X95951951Y-95093967D01*
X95975405Y-95109040D01*
X95999700Y-95124654D01*
X96051581Y-95181725D01*
X96067975Y-95257091D01*
X96044490Y-95330556D01*
X95999700Y-95375346D01*
X95951952Y-95406032D01*
X95867117Y-95503937D01*
X95813301Y-95621775D01*
X95794866Y-95749999D01*
X95813301Y-95878224D01*
X95867117Y-95996062D01*
X95870529Y-96000000D01*
X95951951Y-96093967D01*
X95975405Y-96109040D01*
X95999700Y-96124654D01*
X96051581Y-96181725D01*
X96067975Y-96257091D01*
X96044490Y-96330556D01*
X95999700Y-96375346D01*
X95951952Y-96406032D01*
X95867117Y-96503937D01*
X95813301Y-96621775D01*
X95794866Y-96749999D01*
X95405133Y-96749999D01*
X95386698Y-96621775D01*
X95332882Y-96503937D01*
X95248049Y-96406033D01*
X95200299Y-96375346D01*
X95148419Y-96318276D01*
X95132024Y-96242910D01*
X95155508Y-96169445D01*
X95200299Y-96124653D01*
X95248049Y-96093967D01*
X95332882Y-95996063D01*
X95386697Y-95878226D01*
X95386696Y-95878226D01*
X95386698Y-95878224D01*
X95405133Y-95749999D01*
X95386698Y-95621775D01*
X95332882Y-95503937D01*
X95308210Y-95475464D01*
X95248049Y-95406033D01*
X95200301Y-95375347D01*
X95200298Y-95375345D01*
X95148418Y-95318273D01*
X95132024Y-95242908D01*
X95155509Y-95169442D01*
X95200296Y-95124655D01*
X95248049Y-95093967D01*
X95332882Y-94996063D01*
X95386697Y-94878226D01*
X95386696Y-94878226D01*
X95386698Y-94878224D01*
X95405133Y-94749999D01*
X95386698Y-94621775D01*
X95332882Y-94503937D01*
X95248050Y-94406034D01*
X95248049Y-94406033D01*
X95139069Y-94335996D01*
X95014772Y-94299500D01*
X94885228Y-94299500D01*
X94809559Y-94321718D01*
X94760931Y-94335996D01*
X94651949Y-94406034D01*
X94567117Y-94503937D01*
X94513301Y-94621775D01*
X94494866Y-94749999D01*
X94513301Y-94878224D01*
X94567117Y-94996062D01*
X94567118Y-94996063D01*
X94651951Y-95093967D01*
X94675405Y-95109040D01*
X94699700Y-95124654D01*
X94751581Y-95181725D01*
X94767975Y-95257091D01*
X94744490Y-95330556D01*
X94699700Y-95375346D01*
X94651952Y-95406032D01*
X94567117Y-95503937D01*
X94513301Y-95621775D01*
X94494866Y-95749999D01*
X94513301Y-95878224D01*
X94567117Y-95996062D01*
X94570529Y-96000000D01*
X94651951Y-96093967D01*
X94675405Y-96109040D01*
X94699700Y-96124654D01*
X94751581Y-96181725D01*
X94767975Y-96257091D01*
X94744490Y-96330556D01*
X94699700Y-96375346D01*
X94651952Y-96406032D01*
X94567117Y-96503937D01*
X94513301Y-96621775D01*
X94494866Y-96749999D01*
X90750500Y-96749999D01*
X90750500Y-94569500D01*
X91142236Y-94569500D01*
X91162874Y-94726260D01*
X91216610Y-94855989D01*
X91223383Y-94872341D01*
X91319637Y-94997782D01*
X91445078Y-95094036D01*
X91591157Y-95154544D01*
X91747919Y-95175182D01*
X91904681Y-95154544D01*
X92050760Y-95094036D01*
X92176201Y-94997782D01*
X92272455Y-94872341D01*
X92332963Y-94726262D01*
X92353601Y-94569500D01*
X92332963Y-94412738D01*
X92272455Y-94266659D01*
X92176201Y-94141218D01*
X92050760Y-94044964D01*
X91904681Y-93984456D01*
X91904679Y-93984455D01*
X91747919Y-93963817D01*
X91591158Y-93984455D01*
X91445077Y-94044964D01*
X91319637Y-94141218D01*
X91223383Y-94266658D01*
X91162874Y-94412739D01*
X91142236Y-94569500D01*
X90750500Y-94569500D01*
X90750500Y-94406033D01*
X90750500Y-90250000D01*
X94394317Y-90250000D01*
X94414955Y-90406760D01*
X94414956Y-90406762D01*
X94475464Y-90552841D01*
X94571718Y-90678282D01*
X94697159Y-90774536D01*
X94843238Y-90835044D01*
X95000000Y-90855682D01*
X95156762Y-90835044D01*
X95302841Y-90774536D01*
X95428282Y-90678282D01*
X95524536Y-90552841D01*
X95585044Y-90406762D01*
X95605682Y-90250000D01*
X95585044Y-90093238D01*
X95524536Y-89947159D01*
X95428282Y-89821718D01*
X95302841Y-89725464D01*
X95156760Y-89664955D01*
X95000000Y-89644317D01*
X94843239Y-89664955D01*
X94697158Y-89725464D01*
X94571718Y-89821718D01*
X94475464Y-89947158D01*
X94414955Y-90093239D01*
X94394317Y-90250000D01*
X90750500Y-90250000D01*
X90750500Y-87250000D01*
X101394317Y-87250000D01*
X101414955Y-87406760D01*
X101414956Y-87406762D01*
X101475464Y-87552841D01*
X101571718Y-87678282D01*
X101697159Y-87774536D01*
X101843238Y-87835044D01*
X101921619Y-87845363D01*
X101999999Y-87855682D01*
X101999999Y-87855681D01*
X102000000Y-87855682D01*
X102156762Y-87835044D01*
X102302841Y-87774536D01*
X102428282Y-87678282D01*
X102524536Y-87552841D01*
X102585044Y-87406762D01*
X102605682Y-87250000D01*
X102585044Y-87093238D01*
X102524536Y-86947159D01*
X102428282Y-86821718D01*
X102302841Y-86725464D01*
X102156762Y-86664956D01*
X102156760Y-86664955D01*
X101999999Y-86644317D01*
X101843239Y-86664955D01*
X101697158Y-86725464D01*
X101571718Y-86821718D01*
X101475464Y-86947158D01*
X101414955Y-87093239D01*
X101394317Y-87250000D01*
X90750500Y-87250000D01*
X90750500Y-84654952D01*
X102889367Y-84654952D01*
X102910005Y-84811712D01*
X102910006Y-84811714D01*
X102970514Y-84957793D01*
X103066768Y-85083234D01*
X103192209Y-85179488D01*
X103338288Y-85239996D01*
X103416669Y-85250314D01*
X103495049Y-85260634D01*
X103495049Y-85260633D01*
X103495050Y-85260634D01*
X103651812Y-85239996D01*
X103797891Y-85179488D01*
X103923332Y-85083234D01*
X104019586Y-84957793D01*
X104080094Y-84811714D01*
X104100732Y-84654952D01*
X104080094Y-84498190D01*
X104019586Y-84352111D01*
X103923332Y-84226670D01*
X103797891Y-84130416D01*
X103651812Y-84069908D01*
X103651810Y-84069907D01*
X103495049Y-84049269D01*
X103338289Y-84069907D01*
X103192208Y-84130416D01*
X103066768Y-84226670D01*
X102970514Y-84352110D01*
X102910005Y-84498191D01*
X102889367Y-84654952D01*
X90750500Y-84654952D01*
X90750500Y-80999999D01*
X96144317Y-80999999D01*
X96164955Y-81156760D01*
X96175311Y-81181762D01*
X96225464Y-81302841D01*
X96321718Y-81428282D01*
X96447159Y-81524536D01*
X96593238Y-81585044D01*
X96671619Y-81595363D01*
X96749999Y-81605682D01*
X96749999Y-81605681D01*
X96750000Y-81605682D01*
X96906762Y-81585044D01*
X97052841Y-81524536D01*
X97178282Y-81428282D01*
X97274536Y-81302841D01*
X97335044Y-81156762D01*
X97355682Y-81000000D01*
X97355682Y-80999999D01*
X106144317Y-80999999D01*
X106164955Y-81156760D01*
X106175311Y-81181762D01*
X106225464Y-81302841D01*
X106321718Y-81428282D01*
X106447159Y-81524536D01*
X106593238Y-81585044D01*
X106750000Y-81605682D01*
X106906762Y-81585044D01*
X107052841Y-81524536D01*
X107178282Y-81428282D01*
X107274536Y-81302841D01*
X107335044Y-81156762D01*
X107352391Y-81025000D01*
X113444317Y-81025000D01*
X113464955Y-81181760D01*
X113464956Y-81181762D01*
X113525464Y-81327841D01*
X113621718Y-81453282D01*
X113666206Y-81487418D01*
X113713157Y-81548606D01*
X113724500Y-81605627D01*
X113724500Y-98078779D01*
X113723933Y-98091766D01*
X113720735Y-98128309D01*
X113730229Y-98163740D01*
X113733042Y-98176425D01*
X113739943Y-98215560D01*
X113748690Y-98236677D01*
X113750446Y-98239184D01*
X113771487Y-98269234D01*
X113778460Y-98280181D01*
X113796806Y-98311955D01*
X113822760Y-98333733D01*
X113824905Y-98335533D01*
X113834488Y-98344314D01*
X115059770Y-99569596D01*
X115098334Y-99636391D01*
X115102137Y-99694402D01*
X115094817Y-99750002D01*
X115115455Y-99906760D01*
X115143514Y-99974500D01*
X115175964Y-100052841D01*
X115236138Y-100131262D01*
X115256218Y-100157430D01*
X115285733Y-100228687D01*
X115275666Y-100305155D01*
X115256218Y-100338840D01*
X115163665Y-100459457D01*
X115103156Y-100605538D01*
X115082518Y-100762299D01*
X115103156Y-100919059D01*
X115103157Y-100919061D01*
X115163665Y-101065140D01*
X115259919Y-101190581D01*
X115385360Y-101286835D01*
X115531439Y-101347343D01*
X115609819Y-101357661D01*
X115688200Y-101367981D01*
X115688200Y-101367980D01*
X115688201Y-101367981D01*
X115844963Y-101347343D01*
X115991042Y-101286835D01*
X116116483Y-101190581D01*
X116212737Y-101065140D01*
X116273245Y-100919061D01*
X116293883Y-100762299D01*
X116273245Y-100605537D01*
X116212737Y-100459458D01*
X116132480Y-100354865D01*
X116102967Y-100283612D01*
X116113034Y-100207143D01*
X116132478Y-100173464D01*
X116225036Y-100052841D01*
X116285544Y-99906762D01*
X116306182Y-99750000D01*
X116285544Y-99593238D01*
X116225036Y-99447159D01*
X116128782Y-99321718D01*
X116128781Y-99321717D01*
X116128194Y-99320952D01*
X116098679Y-99249695D01*
X116108746Y-99173227D01*
X116128194Y-99139542D01*
X116128782Y-99138776D01*
X116225036Y-99013335D01*
X116285544Y-98867256D01*
X116306182Y-98710494D01*
X116285544Y-98553732D01*
X116225036Y-98407653D01*
X116128782Y-98282212D01*
X116003341Y-98185958D01*
X116003341Y-98185957D01*
X115857260Y-98125449D01*
X115700499Y-98104811D01*
X115543739Y-98125449D01*
X115397658Y-98185958D01*
X115272218Y-98282212D01*
X115175963Y-98407654D01*
X115156594Y-98454414D01*
X115109641Y-98515603D01*
X115038383Y-98545118D01*
X114961915Y-98535049D01*
X114913578Y-98502751D01*
X114419140Y-98008313D01*
X114380576Y-97941518D01*
X114375500Y-97902961D01*
X114375500Y-96734211D01*
X117843817Y-96734211D01*
X117864455Y-96890971D01*
X117891460Y-96956167D01*
X117924964Y-97037052D01*
X118021218Y-97162493D01*
X118146659Y-97258747D01*
X118292738Y-97319255D01*
X118295321Y-97319595D01*
X118437046Y-97338254D01*
X118508303Y-97367769D01*
X118555256Y-97428959D01*
X118565323Y-97505427D01*
X118562680Y-97525499D01*
X118583318Y-97682260D01*
X118593270Y-97706287D01*
X118643827Y-97828341D01*
X118740081Y-97953782D01*
X118865522Y-98050036D01*
X119011601Y-98110544D01*
X119063854Y-98117423D01*
X119168361Y-98131182D01*
X119168361Y-98131181D01*
X119168363Y-98131182D01*
X119227366Y-98123414D01*
X119303834Y-98133481D01*
X119365024Y-98180433D01*
X119394540Y-98251689D01*
X119394540Y-98251691D01*
X119414955Y-98406760D01*
X119434694Y-98454414D01*
X119475464Y-98552841D01*
X119571718Y-98678282D01*
X119697159Y-98774536D01*
X119775351Y-98806924D01*
X119836541Y-98853876D01*
X119866057Y-98925133D01*
X119860514Y-98967248D01*
X119864507Y-98967774D01*
X119841308Y-99143983D01*
X119861946Y-99300743D01*
X119861947Y-99300745D01*
X119890143Y-99368817D01*
X119896363Y-99383832D01*
X119906430Y-99460300D01*
X119876915Y-99531557D01*
X119849410Y-99559062D01*
X119695561Y-99677114D01*
X119624304Y-99706629D01*
X119547836Y-99696562D01*
X119486646Y-99649609D01*
X119446445Y-99597218D01*
X119407312Y-99546218D01*
X119388205Y-99531557D01*
X119281871Y-99449964D01*
X119135790Y-99389455D01*
X118979029Y-99368817D01*
X118822269Y-99389455D01*
X118676188Y-99449964D01*
X118550748Y-99546218D01*
X118454494Y-99671658D01*
X118393985Y-99817739D01*
X118373347Y-99974500D01*
X118393985Y-100131260D01*
X118411464Y-100173457D01*
X118454494Y-100277341D01*
X118550748Y-100402782D01*
X118676189Y-100499036D01*
X118822268Y-100559544D01*
X118900649Y-100569863D01*
X118979029Y-100580182D01*
X118979029Y-100580181D01*
X118979030Y-100580182D01*
X119135792Y-100559544D01*
X119281871Y-100499036D01*
X119407312Y-100402782D01*
X119407314Y-100402778D01*
X119421475Y-100391913D01*
X119492732Y-100362398D01*
X119569201Y-100372465D01*
X119630388Y-100419415D01*
X119709726Y-100522810D01*
X119835167Y-100619064D01*
X119981246Y-100679572D01*
X120138008Y-100700210D01*
X120294770Y-100679572D01*
X120440849Y-100619064D01*
X120566290Y-100522810D01*
X120662544Y-100397369D01*
X120723052Y-100251290D01*
X120743690Y-100094528D01*
X120723052Y-99937766D01*
X120688634Y-99854674D01*
X120678568Y-99778211D01*
X120708083Y-99706954D01*
X120735588Y-99679448D01*
X120749829Y-99668519D01*
X120749832Y-99668519D01*
X120875273Y-99572265D01*
X120971527Y-99446824D01*
X121032035Y-99300745D01*
X121052673Y-99143983D01*
X121032035Y-98987221D01*
X120971527Y-98841142D01*
X120875273Y-98715701D01*
X120812552Y-98667574D01*
X120749833Y-98619447D01*
X120671638Y-98587058D01*
X120610449Y-98540105D01*
X120580934Y-98468848D01*
X120586477Y-98426736D01*
X120582484Y-98426211D01*
X120605682Y-98250000D01*
X120586568Y-98104812D01*
X120585044Y-98093238D01*
X120524536Y-97947159D01*
X120428282Y-97821718D01*
X120302841Y-97725464D01*
X120223841Y-97692741D01*
X120156760Y-97664955D01*
X119999998Y-97644317D01*
X119940994Y-97652085D01*
X119864526Y-97642018D01*
X119803337Y-97595065D01*
X119773822Y-97523808D01*
X119753407Y-97368738D01*
X119721690Y-97292167D01*
X119692899Y-97222659D01*
X119596645Y-97097218D01*
X119471204Y-97000964D01*
X119459370Y-96996062D01*
X119325123Y-96940455D01*
X119180815Y-96921456D01*
X119109558Y-96891940D01*
X119062606Y-96830750D01*
X119052539Y-96754284D01*
X119055182Y-96734211D01*
X119055181Y-96734208D01*
X119055182Y-96734206D01*
X119034544Y-96577450D01*
X119034544Y-96577449D01*
X118974036Y-96431370D01*
X118877782Y-96305929D01*
X118752341Y-96209675D01*
X118684864Y-96181725D01*
X118606260Y-96149166D01*
X118449500Y-96128528D01*
X118292739Y-96149166D01*
X118146658Y-96209675D01*
X118021218Y-96305929D01*
X117924964Y-96431369D01*
X117864455Y-96577450D01*
X117843817Y-96734211D01*
X114375500Y-96734211D01*
X114375500Y-95012751D01*
X121149317Y-95012751D01*
X121169955Y-95169511D01*
X121169956Y-95169513D01*
X121230464Y-95315592D01*
X121326718Y-95441033D01*
X121452159Y-95537287D01*
X121598238Y-95597795D01*
X121676618Y-95608113D01*
X121754999Y-95618433D01*
X121754999Y-95618432D01*
X121755000Y-95618433D01*
X121911762Y-95597795D01*
X122057841Y-95537287D01*
X122183282Y-95441033D01*
X122279536Y-95315592D01*
X122340044Y-95169513D01*
X122358567Y-95028815D01*
X122891960Y-95028815D01*
X122912598Y-95185575D01*
X122966453Y-95315592D01*
X122973107Y-95331656D01*
X123069361Y-95457097D01*
X123194802Y-95553351D01*
X123340881Y-95613859D01*
X123419262Y-95624178D01*
X123497642Y-95634497D01*
X123497642Y-95634496D01*
X123497643Y-95634497D01*
X123654405Y-95613859D01*
X123800484Y-95553351D01*
X123925925Y-95457097D01*
X124022179Y-95331656D01*
X124082687Y-95185577D01*
X124103325Y-95028815D01*
X124082687Y-94872053D01*
X124032130Y-94749999D01*
X125644317Y-94749999D01*
X125664955Y-94906760D01*
X125664956Y-94906762D01*
X125725464Y-95052841D01*
X125821718Y-95178282D01*
X125947159Y-95274536D01*
X126093238Y-95335044D01*
X126171618Y-95345363D01*
X126249999Y-95355682D01*
X126249999Y-95355681D01*
X126250000Y-95355682D01*
X126406762Y-95335044D01*
X126552841Y-95274536D01*
X126678282Y-95178282D01*
X126774536Y-95052841D01*
X126835044Y-94906762D01*
X126855682Y-94750000D01*
X126835044Y-94593238D01*
X126774536Y-94447159D01*
X126678282Y-94321718D01*
X126552841Y-94225464D01*
X126406762Y-94164956D01*
X126406760Y-94164955D01*
X126249999Y-94144317D01*
X126093239Y-94164955D01*
X125947158Y-94225464D01*
X125821718Y-94321718D01*
X125725464Y-94447158D01*
X125664955Y-94593239D01*
X125644317Y-94749999D01*
X124032130Y-94749999D01*
X124022179Y-94725974D01*
X123925925Y-94600533D01*
X123800484Y-94504279D01*
X123761702Y-94488215D01*
X123654403Y-94443770D01*
X123497642Y-94423132D01*
X123340882Y-94443770D01*
X123194801Y-94504279D01*
X123069361Y-94600533D01*
X122973107Y-94725973D01*
X122912598Y-94872054D01*
X122891960Y-95028815D01*
X122358567Y-95028815D01*
X122360682Y-95012751D01*
X122340044Y-94855989D01*
X122279536Y-94709910D01*
X122183282Y-94584469D01*
X122057841Y-94488215D01*
X121950544Y-94443771D01*
X121911760Y-94427706D01*
X121754999Y-94407068D01*
X121598239Y-94427706D01*
X121452158Y-94488215D01*
X121326718Y-94584469D01*
X121230464Y-94709909D01*
X121169955Y-94855990D01*
X121149317Y-95012751D01*
X114375500Y-95012751D01*
X114375500Y-93374121D01*
X117697876Y-93374121D01*
X117718514Y-93530881D01*
X117718515Y-93530883D01*
X117779023Y-93676962D01*
X117875277Y-93802403D01*
X118000718Y-93898657D01*
X118146797Y-93959165D01*
X118225177Y-93969483D01*
X118303558Y-93979803D01*
X118303558Y-93979802D01*
X118303559Y-93979803D01*
X118460321Y-93959165D01*
X118606400Y-93898657D01*
X118731841Y-93802403D01*
X118828095Y-93676962D01*
X118888603Y-93530883D01*
X118909241Y-93374121D01*
X118888603Y-93217359D01*
X118828095Y-93071280D01*
X118731841Y-92945839D01*
X118606400Y-92849585D01*
X118460321Y-92789077D01*
X118460319Y-92789076D01*
X118303558Y-92768438D01*
X118146798Y-92789076D01*
X118000717Y-92849585D01*
X117875277Y-92945839D01*
X117779023Y-93071279D01*
X117718514Y-93217360D01*
X117697876Y-93374121D01*
X114375500Y-93374121D01*
X114375500Y-91275000D01*
X120194317Y-91275000D01*
X120214955Y-91431760D01*
X120256626Y-91532363D01*
X120275464Y-91577841D01*
X120371718Y-91703282D01*
X120497159Y-91799536D01*
X120643238Y-91860044D01*
X120800000Y-91880682D01*
X120956762Y-91860044D01*
X121102841Y-91799536D01*
X121228282Y-91703282D01*
X121324536Y-91577841D01*
X121385044Y-91431762D01*
X121405682Y-91275000D01*
X121396877Y-91208121D01*
X121406943Y-91131656D01*
X121453895Y-91070465D01*
X121525152Y-91040949D01*
X121550446Y-91039789D01*
X121604533Y-91041911D01*
X122168766Y-90477678D01*
X122212316Y-90559822D01*
X122332009Y-90700735D01*
X122479195Y-90812623D01*
X122521402Y-90832150D01*
X121958087Y-91395464D01*
X121961895Y-91398717D01*
X122179984Y-91532363D01*
X122416294Y-91630246D01*
X122665006Y-91689956D01*
X122919999Y-91710024D01*
X123174993Y-91689956D01*
X123423704Y-91630246D01*
X123462678Y-91614103D01*
X123539146Y-91604036D01*
X123610403Y-91633551D01*
X123657356Y-91694741D01*
X123667423Y-91732313D01*
X123690455Y-91907260D01*
X123690456Y-91907262D01*
X123750964Y-92053341D01*
X123847218Y-92178782D01*
X123972659Y-92275036D01*
X124118738Y-92335544D01*
X124197119Y-92345862D01*
X124275499Y-92356182D01*
X124275499Y-92356181D01*
X124275500Y-92356182D01*
X124432262Y-92335544D01*
X124578341Y-92275036D01*
X124703782Y-92178782D01*
X124800036Y-92053341D01*
X124860544Y-91907262D01*
X124881182Y-91750500D01*
X124860544Y-91593738D01*
X124800036Y-91447659D01*
X124703782Y-91322218D01*
X124578341Y-91225964D01*
X124432260Y-91165455D01*
X124408426Y-91162317D01*
X124337169Y-91132800D01*
X124290218Y-91071609D01*
X124280152Y-90995141D01*
X124300834Y-90936739D01*
X124372363Y-90820015D01*
X124470246Y-90583705D01*
X124529956Y-90334993D01*
X124550024Y-90080000D01*
X124529956Y-89825006D01*
X124470246Y-89576294D01*
X124372363Y-89339984D01*
X124238717Y-89121895D01*
X124235464Y-89118087D01*
X123671232Y-89682319D01*
X123627684Y-89600178D01*
X123507991Y-89459265D01*
X123360805Y-89347377D01*
X123318595Y-89327848D01*
X123881911Y-88764533D01*
X123878103Y-88761281D01*
X123660016Y-88627636D01*
X123423705Y-88529753D01*
X123174993Y-88470043D01*
X122920000Y-88449975D01*
X122665006Y-88470043D01*
X122416294Y-88529753D01*
X122179980Y-88627637D01*
X121961899Y-88761278D01*
X121958087Y-88764533D01*
X122521391Y-89327837D01*
X122402569Y-89399331D01*
X122268342Y-89526477D01*
X122165138Y-89678691D01*
X121604533Y-89118087D01*
X121601278Y-89121899D01*
X121467637Y-89339980D01*
X121369753Y-89576294D01*
X121310043Y-89825006D01*
X121289975Y-90080000D01*
X121310043Y-90334993D01*
X121369753Y-90583705D01*
X121382571Y-90614649D01*
X121392638Y-90691117D01*
X121363123Y-90762374D01*
X121301933Y-90809327D01*
X121225465Y-90819394D01*
X121154208Y-90789879D01*
X121102841Y-90750464D01*
X120956760Y-90689955D01*
X120800000Y-90669317D01*
X120643239Y-90689955D01*
X120497158Y-90750464D01*
X120371718Y-90846718D01*
X120275464Y-90972158D01*
X120214955Y-91118239D01*
X120194317Y-91275000D01*
X114375500Y-91275000D01*
X114375500Y-87540000D01*
X124229819Y-87540000D01*
X124248507Y-87753618D01*
X124304008Y-87960747D01*
X124394631Y-88155090D01*
X124394632Y-88155091D01*
X124517627Y-88330745D01*
X124669255Y-88482373D01*
X124844909Y-88605368D01*
X125039253Y-88695992D01*
X125246381Y-88751492D01*
X125460000Y-88770181D01*
X125673619Y-88751492D01*
X125880747Y-88695992D01*
X126075091Y-88605368D01*
X126250745Y-88482373D01*
X126402373Y-88330745D01*
X126525368Y-88155091D01*
X126615992Y-87960747D01*
X126671492Y-87753619D01*
X126690181Y-87540000D01*
X126671492Y-87326381D01*
X126615992Y-87119253D01*
X126603861Y-87093239D01*
X126525368Y-86924911D01*
X126525368Y-86924910D01*
X126402373Y-86749255D01*
X126250745Y-86597627D01*
X126075091Y-86474632D01*
X126075092Y-86474632D01*
X126075090Y-86474631D01*
X125880747Y-86384008D01*
X125673618Y-86328507D01*
X125460000Y-86309819D01*
X125246381Y-86328507D01*
X125039252Y-86384007D01*
X124844911Y-86474631D01*
X124669254Y-86597627D01*
X124517627Y-86749254D01*
X124394631Y-86924911D01*
X124304007Y-87119252D01*
X124248507Y-87326381D01*
X124229819Y-87540000D01*
X114375500Y-87540000D01*
X114375500Y-85000000D01*
X121289975Y-85000000D01*
X121310043Y-85254993D01*
X121369753Y-85503705D01*
X121467636Y-85740016D01*
X121601281Y-85958103D01*
X121604533Y-85961911D01*
X122168766Y-85397678D01*
X122212316Y-85479822D01*
X122332009Y-85620735D01*
X122479195Y-85732623D01*
X122521402Y-85752150D01*
X121958087Y-86315464D01*
X121961895Y-86318717D01*
X122179984Y-86452363D01*
X122416294Y-86550246D01*
X122665006Y-86609956D01*
X122920000Y-86630024D01*
X123174993Y-86609956D01*
X123423705Y-86550246D01*
X123660015Y-86452363D01*
X123878104Y-86318717D01*
X123881911Y-86315464D01*
X123318609Y-85752162D01*
X123437431Y-85680669D01*
X123571658Y-85553523D01*
X123674861Y-85401308D01*
X124235464Y-85961911D01*
X124238717Y-85958104D01*
X124372363Y-85740015D01*
X124470246Y-85503705D01*
X124529956Y-85254993D01*
X124550024Y-84999999D01*
X124529956Y-84745006D01*
X124470246Y-84496294D01*
X124372363Y-84259984D01*
X124238717Y-84041895D01*
X124235464Y-84038087D01*
X123671232Y-84602319D01*
X123627684Y-84520178D01*
X123507991Y-84379265D01*
X123360805Y-84267377D01*
X123318595Y-84247848D01*
X123881911Y-83684533D01*
X123878103Y-83681281D01*
X123660016Y-83547636D01*
X123423705Y-83449753D01*
X123174993Y-83390043D01*
X122919999Y-83369975D01*
X122665006Y-83390043D01*
X122416294Y-83449753D01*
X122179980Y-83547637D01*
X121961899Y-83681278D01*
X121958087Y-83684533D01*
X122521391Y-84247837D01*
X122402569Y-84319331D01*
X122268342Y-84446477D01*
X122165138Y-84598691D01*
X121604533Y-84038087D01*
X121601278Y-84041899D01*
X121467637Y-84259980D01*
X121369753Y-84496294D01*
X121310043Y-84745006D01*
X121289975Y-85000000D01*
X114375500Y-85000000D01*
X114375500Y-81605626D01*
X114395462Y-81531127D01*
X114433792Y-81487419D01*
X114478282Y-81453282D01*
X114574536Y-81327841D01*
X114635044Y-81181762D01*
X114655682Y-81025000D01*
X114635044Y-80868238D01*
X114574536Y-80722159D01*
X114478282Y-80596718D01*
X114352841Y-80500464D01*
X114206762Y-80439956D01*
X114206760Y-80439955D01*
X114050000Y-80419317D01*
X113893239Y-80439955D01*
X113747158Y-80500464D01*
X113621718Y-80596718D01*
X113525464Y-80722158D01*
X113464955Y-80868239D01*
X113444317Y-81025000D01*
X107352391Y-81025000D01*
X107355682Y-81000000D01*
X107335044Y-80843238D01*
X107274536Y-80697159D01*
X107178282Y-80571718D01*
X107052841Y-80475464D01*
X106917293Y-80419318D01*
X106906760Y-80414955D01*
X106750000Y-80394317D01*
X106593239Y-80414955D01*
X106447158Y-80475464D01*
X106321718Y-80571718D01*
X106225464Y-80697158D01*
X106164955Y-80843239D01*
X106144317Y-80999999D01*
X97355682Y-80999999D01*
X97335044Y-80843238D01*
X97274536Y-80697159D01*
X97178282Y-80571718D01*
X97052841Y-80475464D01*
X96917293Y-80419318D01*
X96906760Y-80414955D01*
X96749999Y-80394317D01*
X96593239Y-80414955D01*
X96447158Y-80475464D01*
X96321718Y-80571718D01*
X96225464Y-80697158D01*
X96164955Y-80843239D01*
X96144317Y-80999999D01*
X90750500Y-80999999D01*
X90750500Y-78468936D01*
X124645668Y-78468936D01*
X124676134Y-78641711D01*
X124711751Y-78724279D01*
X124745623Y-78802804D01*
X124850390Y-78943530D01*
X124984786Y-79056302D01*
X125141567Y-79135040D01*
X125312279Y-79175500D01*
X125312280Y-79175500D01*
X125439365Y-79175500D01*
X125443709Y-79175500D01*
X125574255Y-79160241D01*
X125739117Y-79100237D01*
X125885696Y-79003830D01*
X126006092Y-78876218D01*
X126093812Y-78724281D01*
X126144130Y-78556210D01*
X126154331Y-78381065D01*
X126138941Y-78293788D01*
X126123865Y-78208288D01*
X126102923Y-78159741D01*
X126054377Y-78047196D01*
X125949610Y-77906470D01*
X125815214Y-77793698D01*
X125815213Y-77793697D01*
X125658435Y-77714961D01*
X125658434Y-77714960D01*
X125658433Y-77714960D01*
X125487721Y-77674500D01*
X125356291Y-77674500D01*
X125351988Y-77675002D01*
X125351987Y-77675003D01*
X125225741Y-77689759D01*
X125060885Y-77749761D01*
X124914304Y-77846170D01*
X124793908Y-77973782D01*
X124706186Y-78125720D01*
X124655870Y-78293788D01*
X124645668Y-78468936D01*
X90750500Y-78468936D01*
X90750500Y-73912000D01*
X97269442Y-73912000D01*
X97289635Y-74155688D01*
X97289635Y-74155691D01*
X97289636Y-74155692D01*
X97343460Y-74368239D01*
X97349665Y-74392739D01*
X97447888Y-74616666D01*
X97581631Y-74821376D01*
X97587583Y-74827841D01*
X97747246Y-75001281D01*
X97886984Y-75110044D01*
X97940215Y-75151475D01*
X98155262Y-75267853D01*
X98155265Y-75267854D01*
X98155267Y-75267855D01*
X98386545Y-75347252D01*
X98627737Y-75387500D01*
X98627738Y-75387500D01*
X98872262Y-75387500D01*
X98872263Y-75387500D01*
X99113455Y-75347252D01*
X99344733Y-75267855D01*
X99559788Y-75151473D01*
X99752754Y-75001281D01*
X99918368Y-74821377D01*
X100052111Y-74616667D01*
X100150336Y-74392736D01*
X100210364Y-74155692D01*
X100230557Y-73912000D01*
X101970022Y-73912000D01*
X101989903Y-74177291D01*
X102049100Y-74436655D01*
X102146294Y-74684301D01*
X102279314Y-74914697D01*
X102330084Y-74978360D01*
X102998766Y-74309677D01*
X103042316Y-74391822D01*
X103162009Y-74532735D01*
X103309195Y-74644623D01*
X103351402Y-74664150D01*
X102682841Y-75332711D01*
X102682841Y-75332712D01*
X102860011Y-75453505D01*
X103099702Y-75568934D01*
X103353913Y-75647348D01*
X103616983Y-75687000D01*
X103883017Y-75687000D01*
X104146084Y-75647348D01*
X104400298Y-75568934D01*
X104639989Y-75453504D01*
X104817158Y-75332712D01*
X104148608Y-74664162D01*
X104267431Y-74592669D01*
X104401658Y-74465523D01*
X104504861Y-74313307D01*
X105169914Y-74978360D01*
X105169915Y-74978360D01*
X105220685Y-74914697D01*
X105353705Y-74684301D01*
X105416226Y-74525000D01*
X112594317Y-74525000D01*
X112614955Y-74681760D01*
X112614956Y-74681762D01*
X112675464Y-74827841D01*
X112771718Y-74953282D01*
X112897159Y-75049536D01*
X113043238Y-75110044D01*
X113200000Y-75130682D01*
X113356762Y-75110044D01*
X113502841Y-75049536D01*
X113628282Y-74953282D01*
X113724536Y-74827841D01*
X113785044Y-74681762D01*
X113805682Y-74525000D01*
X113785044Y-74368238D01*
X113724536Y-74222159D01*
X113628282Y-74096718D01*
X113502841Y-74000464D01*
X113356762Y-73939956D01*
X113356760Y-73939955D01*
X113200000Y-73919317D01*
X113043239Y-73939955D01*
X112897158Y-74000464D01*
X112771718Y-74096718D01*
X112675464Y-74222158D01*
X112614955Y-74368239D01*
X112594317Y-74525000D01*
X105416226Y-74525000D01*
X105450899Y-74436655D01*
X105510096Y-74177291D01*
X105529977Y-73911999D01*
X105510096Y-73646708D01*
X105459494Y-73425000D01*
X115694317Y-73425000D01*
X115714955Y-73581760D01*
X115750805Y-73668308D01*
X115775464Y-73727841D01*
X115871718Y-73853282D01*
X115997159Y-73949536D01*
X116143238Y-74010044D01*
X116221619Y-74020363D01*
X116299999Y-74030682D01*
X116299999Y-74030681D01*
X116300000Y-74030682D01*
X116456762Y-74010044D01*
X116602841Y-73949536D01*
X116728282Y-73853282D01*
X116824536Y-73727841D01*
X116885044Y-73581762D01*
X116905682Y-73425000D01*
X116885044Y-73268238D01*
X116824536Y-73122159D01*
X116728282Y-72996718D01*
X116602841Y-72900464D01*
X116456762Y-72839956D01*
X116456760Y-72839955D01*
X116299999Y-72819317D01*
X116143239Y-72839955D01*
X115997158Y-72900464D01*
X115871718Y-72996718D01*
X115775464Y-73122158D01*
X115714955Y-73268239D01*
X115694317Y-73425000D01*
X105459494Y-73425000D01*
X105450899Y-73387344D01*
X105353705Y-73139698D01*
X105220685Y-72909302D01*
X105169914Y-72845638D01*
X104501232Y-73514319D01*
X104457684Y-73432178D01*
X104337991Y-73291265D01*
X104190805Y-73179377D01*
X104148595Y-73159848D01*
X104817157Y-72491287D01*
X104817157Y-72491286D01*
X104639989Y-72370494D01*
X104400298Y-72255065D01*
X104146084Y-72176651D01*
X103883017Y-72137000D01*
X103616983Y-72137000D01*
X103353913Y-72176651D01*
X103099702Y-72255065D01*
X102860012Y-72370494D01*
X102682841Y-72491286D01*
X102682841Y-72491287D01*
X103351391Y-73159837D01*
X103232569Y-73231331D01*
X103098342Y-73358477D01*
X102995137Y-73510692D01*
X102330083Y-72845638D01*
X102279316Y-72909300D01*
X102146294Y-73139698D01*
X102049100Y-73387344D01*
X101989903Y-73646708D01*
X101970022Y-73912000D01*
X100230557Y-73912000D01*
X100210364Y-73668308D01*
X100150336Y-73431264D01*
X100052111Y-73207333D01*
X99918368Y-73002623D01*
X99752754Y-72822719D01*
X99559788Y-72672527D01*
X99559787Y-72672526D01*
X99559784Y-72672524D01*
X99344737Y-72556146D01*
X99113455Y-72476748D01*
X98872263Y-72436500D01*
X98627737Y-72436500D01*
X98507140Y-72456624D01*
X98386544Y-72476748D01*
X98155262Y-72556146D01*
X97940215Y-72672524D01*
X97747245Y-72822719D01*
X97581631Y-73002623D01*
X97447888Y-73207333D01*
X97349665Y-73431260D01*
X97289635Y-73668311D01*
X97269442Y-73912000D01*
X90750500Y-73912000D01*
X90750500Y-70468936D01*
X124645668Y-70468936D01*
X124676134Y-70641711D01*
X124711751Y-70724279D01*
X124745623Y-70802804D01*
X124850390Y-70943530D01*
X124984786Y-71056302D01*
X125141567Y-71135040D01*
X125312279Y-71175500D01*
X125312280Y-71175500D01*
X125439365Y-71175500D01*
X125443709Y-71175500D01*
X125574255Y-71160241D01*
X125739117Y-71100237D01*
X125885696Y-71003830D01*
X126006092Y-70876218D01*
X126093812Y-70724281D01*
X126144130Y-70556210D01*
X126154331Y-70381065D01*
X126138941Y-70293788D01*
X126123865Y-70208288D01*
X126102923Y-70159741D01*
X126054377Y-70047196D01*
X125949610Y-69906470D01*
X125815214Y-69793698D01*
X125815213Y-69793697D01*
X125658435Y-69714961D01*
X125658434Y-69714960D01*
X125658433Y-69714960D01*
X125487721Y-69674500D01*
X125356291Y-69674500D01*
X125351988Y-69675002D01*
X125351987Y-69675003D01*
X125225741Y-69689759D01*
X125060885Y-69749761D01*
X124914304Y-69846170D01*
X124793908Y-69973782D01*
X124706186Y-70125720D01*
X124655870Y-70293788D01*
X124645668Y-70468936D01*
X90750500Y-70468936D01*
X90750500Y-63507848D01*
X90770461Y-63433352D01*
X90824999Y-63378814D01*
X90899499Y-63358852D01*
X90973999Y-63378814D01*
X91028537Y-63433352D01*
X91036630Y-63449576D01*
X91061395Y-63507852D01*
X91099870Y-63598390D01*
X91099871Y-63598391D01*
X91240979Y-63829606D01*
X91240981Y-63829608D01*
X91240982Y-63829610D01*
X91414255Y-64037820D01*
X91615998Y-64218582D01*
X91841910Y-64368044D01*
X91964542Y-64425531D01*
X92087173Y-64483019D01*
X92087175Y-64483019D01*
X92087176Y-64483020D01*
X92346569Y-64561060D01*
X92614561Y-64600500D01*
X92814908Y-64600500D01*
X92817631Y-64600500D01*
X93020156Y-64585677D01*
X93284553Y-64526780D01*
X93398971Y-64483019D01*
X93537554Y-64430016D01*
X93537558Y-64430014D01*
X93773777Y-64297441D01*
X93988177Y-64131888D01*
X94176186Y-63936881D01*
X94193988Y-63911999D01*
X94794901Y-63911999D01*
X94813253Y-64098332D01*
X94867604Y-64277502D01*
X94878260Y-64297438D01*
X94955864Y-64442625D01*
X95002275Y-64499177D01*
X95074642Y-64587357D01*
X95147009Y-64646746D01*
X95219375Y-64706136D01*
X95384499Y-64794396D01*
X95563669Y-64848747D01*
X95750000Y-64867099D01*
X95936331Y-64848747D01*
X96115501Y-64794396D01*
X96280625Y-64706136D01*
X96425357Y-64587357D01*
X96544136Y-64442625D01*
X96632396Y-64277501D01*
X96686747Y-64098331D01*
X96705099Y-63912000D01*
X96705099Y-63911999D01*
X105794901Y-63911999D01*
X105813253Y-64098332D01*
X105867604Y-64277502D01*
X105878260Y-64297438D01*
X105955864Y-64442625D01*
X106002275Y-64499177D01*
X106074642Y-64587357D01*
X106147009Y-64646746D01*
X106219375Y-64706136D01*
X106384499Y-64794396D01*
X106563669Y-64848747D01*
X106750000Y-64867099D01*
X106936331Y-64848747D01*
X107115501Y-64794396D01*
X107280625Y-64706136D01*
X107425357Y-64587357D01*
X107544136Y-64442625D01*
X107632396Y-64277501D01*
X107686747Y-64098331D01*
X107705099Y-63912000D01*
X107686747Y-63725669D01*
X107632396Y-63546499D01*
X107544136Y-63381375D01*
X107484746Y-63309009D01*
X107425357Y-63236642D01*
X107337177Y-63164276D01*
X107280625Y-63117864D01*
X107222914Y-63087017D01*
X107115502Y-63029604D01*
X106936332Y-62975253D01*
X106750000Y-62956901D01*
X106563667Y-62975253D01*
X106384497Y-63029604D01*
X106219376Y-63117863D01*
X106074642Y-63236642D01*
X105955863Y-63381376D01*
X105867604Y-63546497D01*
X105813253Y-63725667D01*
X105794901Y-63911999D01*
X96705099Y-63911999D01*
X96686747Y-63725669D01*
X96632396Y-63546499D01*
X96544136Y-63381375D01*
X96484746Y-63309008D01*
X96425357Y-63236642D01*
X96337177Y-63164275D01*
X96280625Y-63117864D01*
X96222914Y-63087017D01*
X96115502Y-63029604D01*
X95936332Y-62975253D01*
X95750000Y-62956901D01*
X95563667Y-62975253D01*
X95384497Y-63029604D01*
X95219376Y-63117863D01*
X95074642Y-63236642D01*
X94955863Y-63381376D01*
X94867604Y-63546497D01*
X94813253Y-63725667D01*
X94794901Y-63911999D01*
X94193988Y-63911999D01*
X94333799Y-63716579D01*
X94457656Y-63475675D01*
X94545118Y-63219305D01*
X94594319Y-62952933D01*
X94604212Y-62682235D01*
X94574586Y-62412982D01*
X94506072Y-62150912D01*
X94486808Y-62105581D01*
X94400130Y-61901610D01*
X94259020Y-61670393D01*
X94085745Y-61462180D01*
X94047764Y-61428149D01*
X93884002Y-61281418D01*
X93658090Y-61131956D01*
X93450010Y-61034412D01*
X93391027Y-60984715D01*
X93364795Y-60912185D01*
X93378342Y-60836256D01*
X93428039Y-60777273D01*
X93500569Y-60751041D01*
X93513254Y-60750500D01*
X126991097Y-60750500D01*
X127065597Y-60770462D01*
G37*
%TD.AperFunction*%
%TA.AperFunction,Conductor*%
G36*
X124769422Y-102096428D02*
G01*
X124801721Y-102144767D01*
X124816931Y-102181487D01*
X124913185Y-102306928D01*
X124985466Y-102362391D01*
X125032419Y-102423581D01*
X125042486Y-102500049D01*
X125032419Y-102537621D01*
X124965455Y-102699285D01*
X124944817Y-102856046D01*
X124965455Y-103012806D01*
X124986907Y-103064595D01*
X125025964Y-103158887D01*
X125122218Y-103284328D01*
X125247659Y-103380582D01*
X125393738Y-103441090D01*
X125550500Y-103461728D01*
X125707262Y-103441090D01*
X125853341Y-103380582D01*
X125978782Y-103284328D01*
X126075036Y-103158887D01*
X126135544Y-103012808D01*
X126146356Y-102930682D01*
X126153381Y-102877325D01*
X126182896Y-102806068D01*
X126244086Y-102759115D01*
X126320554Y-102749048D01*
X126391811Y-102778563D01*
X126438764Y-102839753D01*
X126448831Y-102877325D01*
X126465937Y-103007260D01*
X126493129Y-103072906D01*
X126526446Y-103153341D01*
X126622700Y-103278782D01*
X126748141Y-103375036D01*
X126894220Y-103435544D01*
X127050982Y-103456182D01*
X127227193Y-103432984D01*
X127227696Y-103436806D01*
X127270436Y-103431176D01*
X127341695Y-103460685D01*
X127388653Y-103521871D01*
X127400000Y-103578903D01*
X127400000Y-103814027D01*
X127380038Y-103888527D01*
X127325500Y-103943065D01*
X127251000Y-103963027D01*
X127193982Y-103951686D01*
X127157761Y-103936683D01*
X127001000Y-103916045D01*
X126844239Y-103936683D01*
X126698158Y-103997192D01*
X126572718Y-104093446D01*
X126476464Y-104218886D01*
X126415955Y-104364967D01*
X126395317Y-104521727D01*
X126415955Y-104678488D01*
X126419365Y-104686720D01*
X126476464Y-104824569D01*
X126572718Y-104950010D01*
X126698159Y-105046264D01*
X126844238Y-105106772D01*
X126954401Y-105121275D01*
X127025658Y-105150790D01*
X127072611Y-105211979D01*
X127082678Y-105288448D01*
X127053163Y-105359705D01*
X127040312Y-105374359D01*
X126347934Y-106066737D01*
X126281139Y-106105301D01*
X126204011Y-106105301D01*
X126137216Y-106066737D01*
X126104917Y-106018397D01*
X126104683Y-106017833D01*
X126075036Y-105946257D01*
X125978782Y-105820816D01*
X125853341Y-105724562D01*
X125772955Y-105691265D01*
X125707260Y-105664053D01*
X125550500Y-105643415D01*
X125393739Y-105664053D01*
X125247658Y-105724562D01*
X125122218Y-105820816D01*
X125025964Y-105946256D01*
X124965455Y-106092337D01*
X124944817Y-106249098D01*
X124965455Y-106405858D01*
X124990867Y-106467207D01*
X125025964Y-106551939D01*
X125049216Y-106582242D01*
X125078732Y-106653497D01*
X125068665Y-106729966D01*
X125036366Y-106778306D01*
X111723815Y-120090859D01*
X111657020Y-120129423D01*
X111618456Y-120134500D01*
X104856473Y-120134500D01*
X104781973Y-120114538D01*
X104727435Y-120060000D01*
X104725067Y-120055738D01*
X104724984Y-120055583D01*
X104627685Y-119873550D01*
X104599500Y-119839206D01*
X104496410Y-119713589D01*
X104351773Y-119594890D01*
X104336450Y-119582315D01*
X104153954Y-119484768D01*
X104153952Y-119484767D01*
X104143308Y-119479078D01*
X104087016Y-119426354D01*
X104064627Y-119352547D01*
X104082141Y-119277433D01*
X104134865Y-119221141D01*
X104174983Y-119203749D01*
X104213491Y-119193430D01*
X104427582Y-119093598D01*
X104621075Y-118958112D01*
X104788112Y-118791075D01*
X104923598Y-118597582D01*
X105023431Y-118383491D01*
X105080636Y-118170000D01*
X104183686Y-118170000D01*
X104209493Y-118129844D01*
X104250000Y-117991889D01*
X104250000Y-117848111D01*
X104209493Y-117710156D01*
X104183686Y-117670000D01*
X105080636Y-117670000D01*
X105080636Y-117669999D01*
X105023431Y-117456509D01*
X104923600Y-117242422D01*
X104893664Y-117199669D01*
X104867284Y-117127192D01*
X104880677Y-117051236D01*
X104930250Y-116992155D01*
X104949735Y-116978510D01*
X104960669Y-116971544D01*
X104992455Y-116953194D01*
X105016044Y-116925080D01*
X105024804Y-116915520D01*
X105336224Y-116604100D01*
X105345785Y-116595340D01*
X105373892Y-116571757D01*
X105392240Y-116539976D01*
X105399199Y-116529050D01*
X105420252Y-116498986D01*
X105420253Y-116498981D01*
X105422011Y-116496471D01*
X105430753Y-116475367D01*
X105431285Y-116472348D01*
X105431286Y-116472347D01*
X105437655Y-116436219D01*
X105440462Y-116423559D01*
X105449962Y-116388109D01*
X105446762Y-116351541D01*
X105446198Y-116338600D01*
X105446198Y-116261830D01*
X109560838Y-116261830D01*
X109581476Y-116418590D01*
X109588782Y-116436228D01*
X109641985Y-116564671D01*
X109738239Y-116690112D01*
X109863680Y-116786366D01*
X110009759Y-116846874D01*
X110166521Y-116867512D01*
X110323283Y-116846874D01*
X110469362Y-116786366D01*
X110594803Y-116690112D01*
X110691057Y-116564671D01*
X110751565Y-116418592D01*
X110772203Y-116261830D01*
X110751565Y-116105068D01*
X110691057Y-115958989D01*
X110594803Y-115833548D01*
X110469362Y-115737294D01*
X110391837Y-115705182D01*
X110323281Y-115676785D01*
X110166521Y-115656147D01*
X110009760Y-115676785D01*
X109863679Y-115737294D01*
X109738239Y-115833548D01*
X109641985Y-115958988D01*
X109581476Y-116105069D01*
X109560838Y-116261830D01*
X105446198Y-116261830D01*
X105446198Y-114375000D01*
X106294317Y-114375000D01*
X106314955Y-114531760D01*
X106332851Y-114574964D01*
X106375464Y-114677841D01*
X106471718Y-114803282D01*
X106597159Y-114899536D01*
X106743238Y-114960044D01*
X106900000Y-114980682D01*
X106914576Y-114982601D01*
X106985833Y-115012116D01*
X107032786Y-115073306D01*
X107042853Y-115110877D01*
X107061993Y-115256261D01*
X107122501Y-115402341D01*
X107122502Y-115402341D01*
X107218756Y-115527782D01*
X107344197Y-115624036D01*
X107490276Y-115684544D01*
X107647038Y-115705182D01*
X107803800Y-115684544D01*
X107949879Y-115624036D01*
X108075320Y-115527782D01*
X108171574Y-115402341D01*
X108232082Y-115256262D01*
X108252720Y-115099500D01*
X108232082Y-114942738D01*
X108171574Y-114796659D01*
X108075320Y-114671218D01*
X107949879Y-114574964D01*
X107895644Y-114552499D01*
X107803799Y-114514455D01*
X107632460Y-114491898D01*
X107561203Y-114462383D01*
X107514251Y-114401193D01*
X107504184Y-114363621D01*
X107489884Y-114255000D01*
X107485044Y-114218238D01*
X107424536Y-114072159D01*
X107328282Y-113946718D01*
X107202841Y-113850464D01*
X107056762Y-113789956D01*
X107056760Y-113789955D01*
X106900000Y-113769317D01*
X106743239Y-113789955D01*
X106597158Y-113850464D01*
X106471718Y-113946718D01*
X106375464Y-114072158D01*
X106314955Y-114218239D01*
X106294317Y-114375000D01*
X105446198Y-114375000D01*
X105446198Y-112492242D01*
X105466160Y-112417742D01*
X105489839Y-112386883D01*
X106151723Y-111724999D01*
X107444817Y-111724999D01*
X107465455Y-111881760D01*
X107465456Y-111881762D01*
X107525964Y-112027841D01*
X107622218Y-112153282D01*
X107747659Y-112249536D01*
X107893738Y-112310044D01*
X108050500Y-112330682D01*
X108207262Y-112310044D01*
X108353341Y-112249536D01*
X108478782Y-112153282D01*
X108575036Y-112027841D01*
X108635544Y-111881762D01*
X108656182Y-111725000D01*
X108635544Y-111568238D01*
X108580553Y-111435477D01*
X109621887Y-111435477D01*
X109642525Y-111592238D01*
X109642526Y-111592240D01*
X109703034Y-111738319D01*
X109799288Y-111863760D01*
X109924729Y-111960014D01*
X110070808Y-112020522D01*
X110126402Y-112027841D01*
X110227569Y-112041160D01*
X110227569Y-112041159D01*
X110227570Y-112041160D01*
X110384332Y-112020522D01*
X110530411Y-111960014D01*
X110655852Y-111863760D01*
X110752106Y-111738319D01*
X110812614Y-111592240D01*
X110833252Y-111435478D01*
X110812614Y-111278716D01*
X110752106Y-111132637D01*
X110655852Y-111007196D01*
X110530411Y-110910942D01*
X110384332Y-110850434D01*
X110384330Y-110850433D01*
X110227570Y-110829795D01*
X110070809Y-110850433D01*
X109924728Y-110910942D01*
X109799288Y-111007196D01*
X109703034Y-111132636D01*
X109642525Y-111278717D01*
X109621887Y-111435477D01*
X108580553Y-111435477D01*
X108575036Y-111422159D01*
X108478782Y-111296718D01*
X108353341Y-111200464D01*
X108207262Y-111139956D01*
X108207260Y-111139955D01*
X108050500Y-111119317D01*
X107893739Y-111139955D01*
X107747658Y-111200464D01*
X107622218Y-111296718D01*
X107525964Y-111422158D01*
X107465455Y-111568239D01*
X107444817Y-111724999D01*
X106151723Y-111724999D01*
X108332582Y-109544141D01*
X108399377Y-109505577D01*
X108437941Y-109500500D01*
X110715981Y-109500500D01*
X110728967Y-109501066D01*
X110765508Y-109504264D01*
X110800954Y-109494765D01*
X110813618Y-109491957D01*
X110849746Y-109485588D01*
X110849747Y-109485587D01*
X110852766Y-109485055D01*
X110873872Y-109476312D01*
X110876381Y-109474554D01*
X110876385Y-109474554D01*
X110906435Y-109453511D01*
X110917370Y-109446544D01*
X110949156Y-109428194D01*
X110972745Y-109400080D01*
X110981505Y-109390520D01*
X113027885Y-107344141D01*
X113094681Y-107305577D01*
X113133245Y-107300500D01*
X113378362Y-107300500D01*
X113452862Y-107320462D01*
X113463824Y-107327446D01*
X113464273Y-107327760D01*
X113485391Y-107336508D01*
X113524519Y-107343407D01*
X113537212Y-107346221D01*
X113572642Y-107355715D01*
X113572643Y-107355714D01*
X113572644Y-107355715D01*
X113609187Y-107352518D01*
X113622174Y-107351951D01*
X116241255Y-107351951D01*
X116254241Y-107352517D01*
X116290782Y-107355715D01*
X116326228Y-107346216D01*
X116338892Y-107343408D01*
X116375020Y-107337039D01*
X116375021Y-107337038D01*
X116378040Y-107336506D01*
X116399146Y-107327763D01*
X116401655Y-107326005D01*
X116401659Y-107326005D01*
X116431709Y-107304962D01*
X116442644Y-107297995D01*
X116474430Y-107279645D01*
X116498019Y-107251531D01*
X116506779Y-107241971D01*
X116619598Y-107129152D01*
X116686391Y-107090590D01*
X116744403Y-107086788D01*
X116800000Y-107094108D01*
X116800001Y-107094107D01*
X116800002Y-107094108D01*
X116880417Y-107083521D01*
X116956762Y-107073470D01*
X117102841Y-107012962D01*
X117228282Y-106916708D01*
X117324536Y-106791267D01*
X117385044Y-106645188D01*
X117405682Y-106488426D01*
X117402888Y-106467207D01*
X117385044Y-106331665D01*
X117370042Y-106295446D01*
X117359975Y-106218978D01*
X117389490Y-106147721D01*
X117450680Y-106100768D01*
X117507700Y-106089426D01*
X117750421Y-106089426D01*
X117824921Y-106109388D01*
X117879459Y-106163926D01*
X117890866Y-106197532D01*
X117897399Y-106213304D01*
X117957907Y-106359383D01*
X118054161Y-106484824D01*
X118179602Y-106581078D01*
X118325681Y-106641586D01*
X118385794Y-106649500D01*
X118482442Y-106662224D01*
X118482442Y-106662223D01*
X118482443Y-106662224D01*
X118639205Y-106641586D01*
X118785284Y-106581078D01*
X118905106Y-106489135D01*
X118976362Y-106459621D01*
X119052830Y-106469688D01*
X119086514Y-106489135D01*
X119197159Y-106574036D01*
X119343238Y-106634544D01*
X119500000Y-106655182D01*
X119656762Y-106634544D01*
X119802841Y-106574036D01*
X119928282Y-106477782D01*
X120024536Y-106352341D01*
X120085044Y-106206262D01*
X120105682Y-106049500D01*
X120085044Y-105892738D01*
X120065455Y-105845446D01*
X120055388Y-105768978D01*
X120084903Y-105697721D01*
X120146093Y-105650768D01*
X120203113Y-105639426D01*
X120817916Y-105639426D01*
X120835637Y-105642316D01*
X120849000Y-105641698D01*
X120849002Y-105641699D01*
X120892215Y-105639701D01*
X120967556Y-105656201D01*
X121024555Y-105708162D01*
X121047936Y-105781661D01*
X121036753Y-105845562D01*
X120994437Y-105947721D01*
X120973799Y-106104482D01*
X120994437Y-106261242D01*
X121008605Y-106295446D01*
X121054946Y-106407323D01*
X121151200Y-106532764D01*
X121276641Y-106629018D01*
X121422720Y-106689526D01*
X121579482Y-106710164D01*
X121736244Y-106689526D01*
X121882323Y-106629018D01*
X122007764Y-106532764D01*
X122104018Y-106407323D01*
X122164526Y-106261244D01*
X122185164Y-106104482D01*
X122176533Y-106038925D01*
X122700349Y-106038925D01*
X122720987Y-106195686D01*
X122720988Y-106195688D01*
X122781496Y-106341767D01*
X122877750Y-106467208D01*
X123003191Y-106563462D01*
X123149270Y-106623970D01*
X123187606Y-106629017D01*
X123306031Y-106644608D01*
X123306031Y-106644607D01*
X123306032Y-106644608D01*
X123462794Y-106623970D01*
X123608873Y-106563462D01*
X123734314Y-106467208D01*
X123830568Y-106341767D01*
X123891076Y-106195688D01*
X123911714Y-106038926D01*
X123891076Y-105882164D01*
X123830568Y-105736085D01*
X123734314Y-105610644D01*
X123608873Y-105514390D01*
X123587799Y-105505661D01*
X123462792Y-105453881D01*
X123306032Y-105433243D01*
X123149271Y-105453881D01*
X123003190Y-105514390D01*
X122877750Y-105610644D01*
X122781496Y-105736084D01*
X122720987Y-105882165D01*
X122700349Y-106038925D01*
X122176533Y-106038925D01*
X122164526Y-105947720D01*
X122104018Y-105801641D01*
X122007764Y-105676200D01*
X121882323Y-105579946D01*
X121736244Y-105519438D01*
X121736242Y-105519437D01*
X121579483Y-105498799D01*
X121527361Y-105505661D01*
X121450893Y-105495592D01*
X121389704Y-105448639D01*
X121360189Y-105377381D01*
X121370258Y-105300913D01*
X121402553Y-105252579D01*
X124558706Y-102096426D01*
X124625499Y-102057864D01*
X124702627Y-102057864D01*
X124769422Y-102096428D01*
G37*
%TD.AperFunction*%
%TA.AperFunction,Conductor*%
G36*
X129032519Y-104055121D02*
G01*
X129093709Y-104102073D01*
X129123225Y-104173330D01*
X129124500Y-104192779D01*
X129124500Y-107840442D01*
X129104538Y-107914942D01*
X129080859Y-107945801D01*
X116397059Y-120629600D01*
X116330264Y-120668164D01*
X116253136Y-120668164D01*
X116186341Y-120629600D01*
X116154044Y-120581264D01*
X116138834Y-120544543D01*
X116042580Y-120419102D01*
X115917139Y-120322848D01*
X115771060Y-120262340D01*
X115771058Y-120262339D01*
X115594850Y-120239141D01*
X115594875Y-120238946D01*
X115538581Y-120231534D01*
X115477392Y-120184581D01*
X115447878Y-120113325D01*
X115438541Y-120042404D01*
X115418720Y-119994552D01*
X115378033Y-119896325D01*
X115281779Y-119770884D01*
X115156338Y-119674630D01*
X115077178Y-119641841D01*
X115015990Y-119594890D01*
X114986475Y-119523633D01*
X114996542Y-119447164D01*
X115015987Y-119413483D01*
X115024536Y-119402343D01*
X115085044Y-119256264D01*
X115105682Y-119099502D01*
X115085044Y-118942740D01*
X115024536Y-118796661D01*
X114928282Y-118671220D01*
X114802841Y-118574966D01*
X114656762Y-118514458D01*
X114656760Y-118514457D01*
X114571134Y-118503184D01*
X114499877Y-118473668D01*
X114452925Y-118412478D01*
X114442858Y-118336010D01*
X114472374Y-118264753D01*
X114485215Y-118250109D01*
X125392086Y-107343239D01*
X125458882Y-107304675D01*
X125497446Y-107299598D01*
X125880182Y-107299598D01*
X125893168Y-107300164D01*
X125929709Y-107303362D01*
X125965155Y-107293863D01*
X125977819Y-107291055D01*
X126013947Y-107284686D01*
X126013948Y-107284685D01*
X126016967Y-107284153D01*
X126038073Y-107275410D01*
X126040582Y-107273652D01*
X126040586Y-107273652D01*
X126070636Y-107252609D01*
X126081571Y-107245642D01*
X126113357Y-107227292D01*
X126136946Y-107199178D01*
X126145706Y-107189618D01*
X126237080Y-107098244D01*
X126303873Y-107059682D01*
X126381001Y-107059682D01*
X126447796Y-107098246D01*
X126486360Y-107165041D01*
X126486360Y-107242169D01*
X126480095Y-107260624D01*
X126439455Y-107358737D01*
X126418817Y-107515500D01*
X126439455Y-107672260D01*
X126469107Y-107743845D01*
X126499964Y-107818341D01*
X126596218Y-107943782D01*
X126721659Y-108040036D01*
X126867738Y-108100544D01*
X127024500Y-108121182D01*
X127181262Y-108100544D01*
X127327341Y-108040036D01*
X127452782Y-107943782D01*
X127549036Y-107818341D01*
X127609544Y-107672262D01*
X127630182Y-107515500D01*
X127609544Y-107358738D01*
X127549036Y-107212659D01*
X127452782Y-107087218D01*
X127327341Y-106990964D01*
X127315412Y-106986023D01*
X127181260Y-106930455D01*
X127024499Y-106909817D01*
X126867737Y-106930455D01*
X126769624Y-106971095D01*
X126693156Y-106981162D01*
X126621899Y-106951646D01*
X126574947Y-106890456D01*
X126564880Y-106813988D01*
X126594396Y-106742731D01*
X126607237Y-106728088D01*
X127941032Y-105394293D01*
X127950593Y-105385533D01*
X127978694Y-105361955D01*
X127997036Y-105330184D01*
X128004012Y-105319234D01*
X128025054Y-105289184D01*
X128025054Y-105289181D01*
X128026812Y-105286672D01*
X128035555Y-105265565D01*
X128036087Y-105262546D01*
X128036088Y-105262545D01*
X128042457Y-105226419D01*
X128045272Y-105213725D01*
X128054763Y-105178306D01*
X128051567Y-105141774D01*
X128051000Y-105128788D01*
X128051000Y-104358394D01*
X128070962Y-104283894D01*
X128125500Y-104229356D01*
X128200000Y-104209394D01*
X128257018Y-104220736D01*
X128293738Y-104235946D01*
X128450500Y-104256584D01*
X128607262Y-104235946D01*
X128753341Y-104175438D01*
X128878782Y-104079184D01*
X128878783Y-104079181D01*
X128884794Y-104074570D01*
X128956051Y-104045054D01*
X129032519Y-104055121D01*
G37*
%TD.AperFunction*%
%TD*%
M02*
