M48
; DRILL file {KiCad 7.0.2} date Thu Apr 27 13:29:02 2023
; FORMAT={-:-/ absolute / metric / decimal}
; #@! TF.CreationDate,2023-04-27T13:29:02+10:00
; #@! TF.GenerationSoftware,Kicad,Pcbnew,7.0.2
; #@! TF.FileFunction,Plated,1,4,PTH
FMAT,2
METRIC
; #@! TA.AperFunction,Plated,PTH,ComponentDrill
T1C0.200
; #@! TA.AperFunction,Plated,PTH,ViaDrill
T2C0.400
; #@! TA.AperFunction,Plated,PTH,ComponentDrill
T3C0.600
; #@! TA.AperFunction,Plated,PTH,ComponentDrill
T4C0.850
; #@! TA.AperFunction,Plated,PTH,ComponentDrill
T5C1.000
; #@! TA.AperFunction,Plated,PTH,ComponentDrill
T6C1.500
; #@! TA.AperFunction,Plated,PTH,ComponentDrill
T7C1.700
%
G90
G05
T1
X94.95Y-94.75
X94.95Y-95.75
X94.95Y-96.75
X96.25Y-94.75
X96.25Y-95.75
X96.25Y-96.75
T2
X91.724Y-96.0
X91.748Y-94.569
X95.0Y-90.25
X95.5Y-93.5
X96.5Y-97.85
X96.75Y-81.0
X96.761Y-108.264
X98.5Y-100.75
X99.501Y-107.975
X102.0Y-87.25
X103.495Y-84.655
X105.0Y-100.5
X106.0Y-85.0
X106.75Y-81.0
X106.9Y-114.375
X107.081Y-108.674
X107.647Y-115.099
X108.05Y-111.725
X109.1Y-86.15
X110.167Y-116.262
X110.228Y-111.435
X110.25Y-108.0
X112.75Y-75.5
X112.75Y-96.0
X113.179Y-94.15
X113.2Y-74.525
X114.05Y-81.025
X114.5Y-119.1
X114.853Y-120.199
X115.437Y-113.262
X115.614Y-120.847
X115.667Y-92.891
X115.688Y-100.762
X115.7Y-98.71
X115.7Y-99.75
X116.3Y-73.425
X116.8Y-106.488
X118.304Y-93.374
X118.45Y-96.734
X118.482Y-106.057
X118.979Y-99.974
X119.168Y-97.525
X119.5Y-106.049
X119.7Y-102.275
X119.85Y-114.6
X120.0Y-98.25
X120.011Y-103.225
X120.138Y-100.095
X120.447Y-99.144
X120.8Y-91.275
X121.579Y-106.104
X121.755Y-95.013
X121.775Y-102.325
X123.25Y-116.75
X123.306Y-106.039
X123.498Y-95.029
X124.275Y-91.751
X125.341Y-101.879
X125.4Y-121.775
X125.55Y-102.856
X125.55Y-106.249
X126.039Y-101.163
X126.092Y-95.737
X126.25Y-94.75
X126.345Y-102.119
X126.6Y-100.025
X126.9Y-96.325
X127.001Y-104.522
X127.024Y-107.515
X127.051Y-102.85
X127.65Y-106.25
X128.451Y-103.651
X129.087Y-113.71
X129.2Y-91.751
T4
X95.212Y-108.0
X95.212Y-113.0
T5
X92.67Y-119.0
X92.67Y-122.0
X95.21Y-119.0
X95.21Y-122.0
X95.75Y-63.912
X97.75Y-119.0
X97.75Y-122.0
X100.29Y-119.0
X100.29Y-122.0
X103.75Y-115.38
X103.75Y-117.92
X103.75Y-120.46
X103.75Y-123.0
X106.75Y-63.912
T6
X125.46Y-87.54
T7
X98.75Y-73.912
X103.75Y-73.912
X122.92Y-85.0
X122.92Y-90.08
X128.0Y-85.0
X128.0Y-90.08
T3
G00X92.162Y-107.0
M15
G01X92.862Y-107.0
M16
G05
G00X92.862Y-114.0
M15
G01X92.162Y-114.0
M16
G05
T0
M30
