%TF.GenerationSoftware,KiCad,Pcbnew,7.0.2*%
%TF.CreationDate,2023-04-27T13:19:39+10:00*%
%TF.ProjectId,neptune,6e657074-756e-4652-9e6b-696361645f70,rev?*%
%TF.SameCoordinates,Original*%
%TF.FileFunction,Copper,L4,Bot*%
%TF.FilePolarity,Positive*%
%FSLAX46Y46*%
G04 Gerber Fmt 4.6, Leading zero omitted, Abs format (unit mm)*
G04 Created by KiCad (PCBNEW 7.0.2) date 2023-04-27 13:19:39*
%MOMM*%
%LPD*%
G01*
G04 APERTURE LIST*
G04 Aperture macros list*
%AMRoundRect*
0 Rectangle with rounded corners*
0 $1 Rounding radius*
0 $2 $3 $4 $5 $6 $7 $8 $9 X,Y pos of 4 corners*
0 Add a 4 corners polygon primitive as box body*
4,1,4,$2,$3,$4,$5,$6,$7,$8,$9,$2,$3,0*
0 Add four circle primitives for the rounded corners*
1,1,$1+$1,$2,$3*
1,1,$1+$1,$4,$5*
1,1,$1+$1,$6,$7*
1,1,$1+$1,$8,$9*
0 Add four rect primitives between the rounded corners*
20,1,$1+$1,$2,$3,$4,$5,0*
20,1,$1+$1,$4,$5,$6,$7,0*
20,1,$1+$1,$6,$7,$8,$9,0*
20,1,$1+$1,$8,$9,$2,$3,0*%
G04 Aperture macros list end*
%TA.AperFunction,ComponentPad*%
%ADD10R,1.700000X1.700000*%
%TD*%
%TA.AperFunction,ComponentPad*%
%ADD11O,1.700000X1.700000*%
%TD*%
%TA.AperFunction,ComponentPad*%
%ADD12C,2.550000*%
%TD*%
%TA.AperFunction,ComponentPad*%
%ADD13C,1.500000*%
%TD*%
%TA.AperFunction,ComponentPad*%
%ADD14C,0.500000*%
%TD*%
%TA.AperFunction,SMDPad,CuDef*%
%ADD15R,1.800000X2.500000*%
%TD*%
%TA.AperFunction,ComponentPad*%
%ADD16C,2.050000*%
%TD*%
%TA.AperFunction,ComponentPad*%
%ADD17C,2.250000*%
%TD*%
%TA.AperFunction,ComponentPad*%
%ADD18O,1.900000X1.200000*%
%TD*%
%TA.AperFunction,ComponentPad*%
%ADD19C,1.450000*%
%TD*%
%TA.AperFunction,SMDPad,CuDef*%
%ADD20RoundRect,0.225000X-0.250000X0.225000X-0.250000X-0.225000X0.250000X-0.225000X0.250000X0.225000X0*%
%TD*%
%TA.AperFunction,SMDPad,CuDef*%
%ADD21RoundRect,0.317500X-1.157500X-0.317500X1.157500X-0.317500X1.157500X0.317500X-1.157500X0.317500X0*%
%TD*%
%TA.AperFunction,SMDPad,CuDef*%
%ADD22RoundRect,0.218750X0.381250X-0.218750X0.381250X0.218750X-0.381250X0.218750X-0.381250X-0.218750X0*%
%TD*%
%TA.AperFunction,SMDPad,CuDef*%
%ADD23RoundRect,0.225000X-0.225000X-0.250000X0.225000X-0.250000X0.225000X0.250000X-0.225000X0.250000X0*%
%TD*%
%TA.AperFunction,ViaPad*%
%ADD24C,0.800000*%
%TD*%
%TA.AperFunction,Conductor*%
%ADD25C,0.250000*%
%TD*%
%TA.AperFunction,Conductor*%
%ADD26C,1.400000*%
%TD*%
%TA.AperFunction,Conductor*%
%ADD27C,0.700000*%
%TD*%
G04 APERTURE END LIST*
D10*
%TO.P,J7,1,Pin_1*%
%TO.N,/STM32/S2_control*%
X92670000Y-119000000D03*
D11*
%TO.P,J7,2,Pin_2*%
%TO.N,+5V*%
X95210000Y-119000000D03*
%TO.P,J7,3,Pin_3*%
%TO.N,GND*%
X97750000Y-119000000D03*
%TO.P,J7,4,Pin_4*%
%TO.N,/STM32/S2_feedback*%
X100290000Y-119000000D03*
%TD*%
D10*
%TO.P,J5,1,Pin_1*%
%TO.N,+3.3V*%
X103750000Y-115380000D03*
D11*
%TO.P,J5,2,Pin_2*%
%TO.N,GND*%
X103750000Y-117920000D03*
%TO.P,J5,3,Pin_3*%
%TO.N,/STM32/SWDIO*%
X103750000Y-120460000D03*
%TO.P,J5,4,Pin_4*%
%TO.N,/STM32/SWCLK*%
X103750000Y-123000000D03*
%TD*%
D12*
%TO.P,J2,1,Pin_1*%
%TO.N,Net-(J2-Pin_1)*%
X98750000Y-73912000D03*
%TO.P,J2,2,Pin_2*%
%TO.N,GND*%
X103750000Y-73912000D03*
D13*
%TO.P,J2,3*%
%TO.N,N/C*%
X106750000Y-63912000D03*
%TO.P,J2,4*%
X95750000Y-63912000D03*
%TD*%
D14*
%TO.P,U3,9*%
%TO.N,N/C*%
X96250000Y-96750000D03*
X96250000Y-95750000D03*
X96250000Y-94750000D03*
D15*
X95600000Y-95750000D03*
D14*
X94950000Y-96750000D03*
X94950000Y-95750000D03*
X94950000Y-94750000D03*
%TD*%
D16*
%TO.P,J3,1,In*%
%TO.N,Net-(J3-In)*%
X125460000Y-87540000D03*
D17*
%TO.P,J3,2,Ext*%
%TO.N,GND*%
X122920000Y-85000000D03*
X122920000Y-90080000D03*
X128000000Y-85000000D03*
X128000000Y-90080000D03*
%TD*%
D18*
%TO.P,J4,6,Shield*%
%TO.N,GND*%
X92512500Y-107000000D03*
D19*
X95212500Y-108000000D03*
X95212500Y-113000000D03*
D18*
X92512500Y-114000000D03*
%TD*%
D10*
%TO.P,J6,1,Pin_1*%
%TO.N,/STM32/S1_control*%
X92670000Y-122000000D03*
D11*
%TO.P,J6,2,Pin_2*%
%TO.N,+5V*%
X95210000Y-122000000D03*
%TO.P,J6,3,Pin_3*%
%TO.N,GND*%
X97750000Y-122000000D03*
%TO.P,J6,4,Pin_4*%
%TO.N,/STM32/S1_feedback*%
X100290000Y-122000000D03*
%TD*%
D20*
%TO.P,C23,1*%
%TO.N,+3.3V*%
X124380000Y-94250000D03*
%TO.P,C23,2*%
%TO.N,GND*%
X124380000Y-95800000D03*
%TD*%
%TO.P,C10,1*%
%TO.N,+3.3V*%
X120880000Y-94250000D03*
%TO.P,C10,2*%
%TO.N,GND*%
X120880000Y-95800000D03*
%TD*%
D21*
%TO.P,U5,1,GND*%
%TO.N,GND*%
X112225000Y-122750000D03*
%TO.P,U5,2,MISO*%
%TO.N,/MISO_RF*%
X112225000Y-120750000D03*
%TO.P,U5,3,MOSI*%
%TO.N,/MOSI_RF*%
X112225000Y-118750000D03*
%TO.P,U5,4,SCK*%
%TO.N,/SCK_RF*%
X112225000Y-116750000D03*
%TO.P,U5,5,NSS*%
%TO.N,/CS_RF*%
X112225000Y-114750000D03*
%TO.P,U5,6,RESET*%
%TO.N,/RESET_RF*%
X112225000Y-112750000D03*
%TO.P,U5,7,DIO5*%
%TO.N,unconnected-(U5-DIO5-Pad7)*%
X112225000Y-110750000D03*
%TO.P,U5,8,GND*%
%TO.N,GND*%
X112225000Y-108750000D03*
%TO.P,U5,9,ANT*%
%TO.N,Net-(J3-In)*%
X127275000Y-108750000D03*
%TO.P,U5,10,GND*%
%TO.N,GND*%
X127275000Y-110750000D03*
%TO.P,U5,11,DIO3*%
%TO.N,unconnected-(U5-DIO3-Pad11)*%
X127275000Y-112750000D03*
%TO.P,U5,12,DIO4*%
%TO.N,unconnected-(U5-DIO4-Pad12)*%
X127275000Y-114750000D03*
%TO.P,U5,13,3.3V*%
%TO.N,+3.3V*%
X127275000Y-116750000D03*
%TO.P,U5,14,DIO0*%
%TO.N,/RF_1O0*%
X127275000Y-118750000D03*
%TO.P,U5,15,DIO1*%
%TO.N,unconnected-(U5-DIO1-Pad15)*%
X127275000Y-120750000D03*
%TO.P,U5,16,DIO2*%
%TO.N,unconnected-(U5-DIO2-Pad16)*%
X127275000Y-122750000D03*
%TD*%
D22*
%TO.P,L2,1*%
%TO.N,+3.3V*%
X117120000Y-94587500D03*
%TO.P,L2,2*%
%TO.N,Net-(U7-VDDA)*%
X117120000Y-92462500D03*
%TD*%
D20*
%TO.P,C9,1*%
%TO.N,+3.3V*%
X119120000Y-94250000D03*
%TO.P,C9,2*%
%TO.N,GND*%
X119120000Y-95800000D03*
%TD*%
%TO.P,C22,1*%
%TO.N,+3.3V*%
X122630000Y-94250000D03*
%TO.P,C22,2*%
%TO.N,GND*%
X122630000Y-95800000D03*
%TD*%
D23*
%TO.P,C11,1*%
%TO.N,Net-(U7-VDDA)*%
X119095000Y-92525000D03*
%TO.P,C11,2*%
%TO.N,GND*%
X120645000Y-92525000D03*
%TD*%
D24*
%TO.N,GND*%
X119850000Y-114600000D03*
X113179392Y-94150500D03*
X127650000Y-106250000D03*
X109100000Y-86150000D03*
X91724500Y-96000000D03*
X112750000Y-75500000D03*
X105000000Y-100500000D03*
X106000000Y-85000000D03*
X95500000Y-93500000D03*
X126091823Y-95736905D03*
X115666825Y-92891077D03*
X115437451Y-113262049D03*
%TO.N,/STM32/OSC_OUT*%
X119500000Y-106049500D03*
X119168363Y-97525500D03*
%TO.N,+3.3V*%
X127001000Y-104521728D03*
X120011397Y-103224756D03*
X113200000Y-74525000D03*
X110250000Y-108000000D03*
X126250000Y-94750000D03*
X112750000Y-96000000D03*
X129086655Y-113710128D03*
X127024500Y-107515500D03*
X123250000Y-116750000D03*
X118303559Y-93374121D03*
%TO.N,VDC*%
X96750000Y-81000000D03*
X106750000Y-81000000D03*
%TO.N,Net-(U3-BOOT)*%
X96500000Y-97849502D03*
X98500000Y-100750000D03*
%TO.N,Net-(U7-VDDA)*%
X115688201Y-100762299D03*
%TO.N,Net-(U3-COMP)*%
X91747919Y-94569500D03*
X95000000Y-90250000D03*
%TO.N,/STM32/NRST*%
X125550500Y-106249098D03*
X120000000Y-98250000D03*
%TO.N,/STM32/OSC_IN*%
X115700500Y-98710494D03*
X118449500Y-96734211D03*
%TO.N,/CS_SD*%
X114050000Y-81025000D03*
X115700500Y-99750000D03*
%TO.N,/MOSI_SD*%
X116300000Y-73425000D03*
X124275500Y-91750500D03*
%TO.N,/STM32/SWDIO*%
X126900000Y-96325000D03*
%TO.N,/STM32/SWCLK*%
X129200000Y-91750500D03*
%TO.N,/STM32/S1_control*%
X123497643Y-95028815D03*
%TO.N,/STM32/S1_feedback*%
X116800000Y-106488426D03*
%TO.N,/STM32/S2_control*%
X121755000Y-95012751D03*
%TO.N,/STM32/S2_feedback*%
X118482443Y-106056542D03*
%TO.N,Net-(Q2-G)*%
X103495050Y-84654952D03*
X102000000Y-87250000D03*
%TO.N,/STM32/BOOT0*%
X120800000Y-91275000D03*
X125400000Y-121775000D03*
%TO.N,/MISO_RF*%
X127050982Y-102850500D03*
X114853497Y-120199166D03*
%TO.N,/MOSI_RF*%
X126345291Y-102119317D03*
X114500000Y-119099502D03*
%TO.N,/SCK_RF*%
X115614298Y-120847384D03*
X128450500Y-103650902D03*
%TO.N,/CS_RF*%
X118979030Y-99974500D03*
%TO.N,/RESET_RF*%
X120138008Y-100094528D03*
%TO.N,/RF_1O0*%
X120446991Y-99143983D03*
%TO.N,/STM32/USB_D-*%
X99500500Y-107975000D03*
X126039075Y-101162861D03*
%TO.N,/STM32/USB_D+*%
X96761076Y-108263924D03*
X126600500Y-100025500D03*
%TO.N,/IMU_SCK*%
X121579482Y-106104482D03*
X107647038Y-115099500D03*
%TO.N,/IMU_MISO*%
X119700000Y-102275000D03*
X107080902Y-108674500D03*
%TO.N,/IMU_MOSI*%
X121775500Y-102325000D03*
X106900000Y-114375000D03*
%TO.N,/CE_ACC*%
X108050500Y-111725000D03*
X125341467Y-101878646D03*
%TO.N,/CE_GYR*%
X125550500Y-102856046D03*
X110166521Y-116261830D03*
%TO.N,/CE_MAG*%
X110227570Y-111435478D03*
X123306032Y-106038926D03*
%TD*%
D25*
%TO.N,GND*%
X91724500Y-96000000D02*
X93750000Y-96000000D01*
X94825000Y-94175000D02*
X95500000Y-93500000D01*
X109100000Y-86150000D02*
X107150000Y-86150000D01*
X94375000Y-95375000D02*
X94375000Y-94175000D01*
X107150000Y-86150000D02*
X106000000Y-85000000D01*
X94375000Y-94175000D02*
X94825000Y-94175000D01*
X93750000Y-96000000D02*
X94375000Y-95375000D01*
%TO.N,/STM32/OSC_OUT*%
X118254030Y-98439833D02*
X118254030Y-103254030D01*
X118254030Y-103254030D02*
X118254030Y-104803530D01*
X119168363Y-97525500D02*
X118254030Y-98439833D01*
X118254030Y-104803530D02*
X119500000Y-106049500D01*
%TO.N,+3.3V*%
X127024500Y-107515500D02*
X126925000Y-107416000D01*
X126925000Y-107416000D02*
X126925000Y-104597728D01*
X126925000Y-104597728D02*
X127001000Y-104521728D01*
X123250000Y-116750000D02*
X127275000Y-116750000D01*
D26*
%TO.N,VDC*%
X106750000Y-81000000D02*
X96750000Y-81000000D01*
D25*
%TO.N,Net-(U3-BOOT)*%
X96500000Y-98750000D02*
X96500000Y-97849502D01*
X98500000Y-100750000D02*
X96500000Y-98750000D01*
%TO.N,Net-(U7-VDDA)*%
X114975500Y-94607000D02*
X117120000Y-92462500D01*
X117120000Y-92462500D02*
X119032500Y-92462500D01*
X115688201Y-100762299D02*
X114975500Y-100049598D01*
X119032500Y-92462500D02*
X119095000Y-92525000D01*
X114975500Y-100049598D02*
X114975500Y-94607000D01*
%TO.N,Net-(U3-COMP)*%
X91747919Y-94569500D02*
X95000000Y-91317419D01*
X95000000Y-91317419D02*
X95000000Y-90250000D01*
%TO.N,/STM32/NRST*%
X121532202Y-99203889D02*
X120578313Y-98250000D01*
X125550500Y-106249098D02*
X122950000Y-103648598D01*
X122950000Y-103648598D02*
X122950000Y-101010596D01*
X121532202Y-99592798D02*
X121532202Y-99203889D01*
X120578313Y-98250000D02*
X120000000Y-98250000D01*
X122950000Y-101010596D02*
X121532202Y-99592798D01*
%TO.N,/STM32/OSC_IN*%
X115700500Y-98710494D02*
X116473217Y-98710494D01*
X116473217Y-98710494D02*
X118449500Y-96734211D01*
%TO.N,/MOSI_SD*%
X124275500Y-91750500D02*
X122300805Y-91750500D01*
X122300805Y-91750500D02*
X116300000Y-85749695D01*
X116300000Y-85749695D02*
X116300000Y-73425000D01*
D27*
%TO.N,Net-(J3-In)*%
X129400000Y-93848808D02*
X125460000Y-89908808D01*
X127275000Y-108750000D02*
X129400000Y-106625000D01*
X129400000Y-106625000D02*
X129400000Y-93848808D01*
X125460000Y-89908808D02*
X125460000Y-87540000D01*
D25*
%TO.N,Net-(Q2-G)*%
X103495050Y-85754950D02*
X103495050Y-84654952D01*
X102000000Y-87250000D02*
X103495050Y-85754950D01*
%TO.N,/MISO_RF*%
X114302663Y-120750000D02*
X114853497Y-120199166D01*
X112225000Y-120750000D02*
X114302663Y-120750000D01*
%TO.N,/MOSI_RF*%
X112225000Y-118750000D02*
X114150498Y-118750000D01*
X114150498Y-118750000D02*
X114500000Y-119099502D01*
%TO.N,/SCK_RF*%
X115614298Y-118088993D02*
X114275305Y-116750000D01*
X114275305Y-116750000D02*
X112225000Y-116750000D01*
X115614298Y-120847384D02*
X115614298Y-118088993D01*
%TO.N,/CS_RF*%
X120225000Y-106400000D02*
X116835000Y-109790000D01*
X110801368Y-109790000D02*
X109502570Y-111088798D01*
X116835000Y-109790000D02*
X110801368Y-109790000D01*
X118979030Y-99974500D02*
X118975000Y-99978530D01*
X111800000Y-114325000D02*
X112225000Y-114750000D01*
X118975000Y-104499195D02*
X120225000Y-105749195D01*
X109502570Y-113749458D02*
X110078112Y-114325000D01*
X110078112Y-114325000D02*
X111800000Y-114325000D01*
X118975000Y-99978530D02*
X118975000Y-104499195D01*
X109502570Y-111088798D02*
X109502570Y-113749458D01*
X120225000Y-105749195D02*
X120225000Y-106400000D01*
%TO.N,/RESET_RF*%
X120735897Y-100692417D02*
X120735897Y-106757802D01*
X112575000Y-113100000D02*
X112225000Y-112750000D01*
X120138008Y-100094528D02*
X120735897Y-100692417D01*
X114393699Y-113100000D02*
X112575000Y-113100000D01*
X120735897Y-106757802D02*
X114393699Y-113100000D01*
%TO.N,/RF_1O0*%
X122500000Y-101196992D02*
X122500000Y-117500000D01*
X123750000Y-118750000D02*
X127275000Y-118750000D01*
X122500000Y-117500000D02*
X123750000Y-118750000D01*
X120446991Y-99143983D02*
X122500000Y-101196992D01*
%TO.N,+3.3V*%
X124380000Y-94250000D02*
X125750000Y-94250000D01*
X119120000Y-94250000D02*
X120880000Y-94250000D01*
X122630000Y-94250000D02*
X124380000Y-94250000D01*
X118782500Y-94587500D02*
X119120000Y-94250000D01*
X117120000Y-94587500D02*
X118782500Y-94587500D01*
X125750000Y-94250000D02*
X126250000Y-94750000D01*
X120880000Y-94250000D02*
X122630000Y-94250000D01*
%TD*%
%TA.AperFunction,Conductor*%
%TO.N,GND*%
G36*
X127065597Y-60770462D02*
G01*
X127120135Y-60825000D01*
X127140097Y-60899500D01*
X127120135Y-60974000D01*
X127065597Y-61028538D01*
X127044324Y-61038668D01*
X126962445Y-61069983D01*
X126726219Y-61202561D01*
X126511827Y-61368108D01*
X126511823Y-61368111D01*
X126511823Y-61368112D01*
X126421131Y-61462180D01*
X126323812Y-61563121D01*
X126166200Y-61783420D01*
X126042343Y-62024325D01*
X125954882Y-62280691D01*
X125905681Y-62547066D01*
X125895788Y-62817768D01*
X125925414Y-63087017D01*
X125993928Y-63349090D01*
X126099869Y-63598389D01*
X126240979Y-63829606D01*
X126240981Y-63829608D01*
X126240982Y-63829610D01*
X126414255Y-64037820D01*
X126615998Y-64218582D01*
X126841910Y-64368044D01*
X126964542Y-64425532D01*
X127087173Y-64483019D01*
X127087175Y-64483019D01*
X127087176Y-64483020D01*
X127346569Y-64561060D01*
X127614561Y-64600500D01*
X127814908Y-64600500D01*
X127817631Y-64600500D01*
X128020156Y-64585677D01*
X128284553Y-64526780D01*
X128398971Y-64483019D01*
X128537554Y-64430016D01*
X128537558Y-64430014D01*
X128773777Y-64297441D01*
X128988177Y-64131888D01*
X129176186Y-63936881D01*
X129333799Y-63716579D01*
X129457656Y-63475675D01*
X129459481Y-63470325D01*
X129502427Y-63406263D01*
X129571652Y-63372254D01*
X129648608Y-63377415D01*
X129712672Y-63420362D01*
X129746681Y-63489587D01*
X129749500Y-63518435D01*
X129749499Y-84228261D01*
X129729537Y-84302761D01*
X129674999Y-84357299D01*
X129600499Y-84377261D01*
X129525999Y-84357299D01*
X129471461Y-84302761D01*
X129462840Y-84285278D01*
X129452363Y-84259983D01*
X129318717Y-84041895D01*
X129315464Y-84038087D01*
X128751232Y-84602319D01*
X128707684Y-84520178D01*
X128587991Y-84379265D01*
X128440805Y-84267377D01*
X128398595Y-84247848D01*
X128961911Y-83684533D01*
X128958103Y-83681281D01*
X128740016Y-83547636D01*
X128503705Y-83449753D01*
X128254993Y-83390043D01*
X128000000Y-83369975D01*
X127745006Y-83390043D01*
X127496294Y-83449753D01*
X127259980Y-83547637D01*
X127041899Y-83681278D01*
X127038087Y-83684533D01*
X127601391Y-84247837D01*
X127482569Y-84319331D01*
X127348342Y-84446477D01*
X127245138Y-84598691D01*
X126684533Y-84038087D01*
X126681278Y-84041899D01*
X126547637Y-84259980D01*
X126449753Y-84496294D01*
X126390043Y-84745006D01*
X126369975Y-84999999D01*
X126390043Y-85254993D01*
X126449753Y-85503705D01*
X126547636Y-85740016D01*
X126681281Y-85958103D01*
X126684533Y-85961911D01*
X127248766Y-85397678D01*
X127292316Y-85479822D01*
X127412009Y-85620735D01*
X127559195Y-85732623D01*
X127601402Y-85752150D01*
X127038087Y-86315464D01*
X127041895Y-86318717D01*
X127259984Y-86452363D01*
X127496294Y-86550246D01*
X127745006Y-86609956D01*
X128000000Y-86630024D01*
X128254993Y-86609956D01*
X128503705Y-86550246D01*
X128740015Y-86452363D01*
X128958104Y-86318717D01*
X128961911Y-86315464D01*
X128398609Y-85752162D01*
X128517431Y-85680669D01*
X128651658Y-85553523D01*
X128754861Y-85401308D01*
X129315464Y-85961911D01*
X129318717Y-85958104D01*
X129452362Y-85740017D01*
X129462839Y-85714723D01*
X129509790Y-85653531D01*
X129581046Y-85624013D01*
X129657514Y-85634078D01*
X129718706Y-85681029D01*
X129748224Y-85752285D01*
X129749499Y-85771738D01*
X129749499Y-89308261D01*
X129729537Y-89382761D01*
X129674999Y-89437299D01*
X129600499Y-89457261D01*
X129525999Y-89437299D01*
X129471461Y-89382761D01*
X129462840Y-89365278D01*
X129452363Y-89339983D01*
X129318717Y-89121895D01*
X129315464Y-89118087D01*
X128751232Y-89682318D01*
X128707684Y-89600178D01*
X128587991Y-89459265D01*
X128440805Y-89347377D01*
X128398595Y-89327848D01*
X128961911Y-88764533D01*
X128958103Y-88761281D01*
X128740016Y-88627636D01*
X128503705Y-88529753D01*
X128254993Y-88470043D01*
X128000000Y-88449975D01*
X127745006Y-88470043D01*
X127496294Y-88529753D01*
X127259980Y-88627637D01*
X127041895Y-88761281D01*
X127038087Y-88764533D01*
X127601391Y-89327837D01*
X127482569Y-89399331D01*
X127348342Y-89526477D01*
X127245138Y-89678691D01*
X126684533Y-89118087D01*
X126681278Y-89121899D01*
X126547637Y-89339980D01*
X126449753Y-89576294D01*
X126406595Y-89756061D01*
X126369792Y-89823842D01*
X126304030Y-89864141D01*
X126226928Y-89866160D01*
X126159147Y-89829357D01*
X126156353Y-89826636D01*
X126054141Y-89724424D01*
X126015577Y-89657629D01*
X126010500Y-89619065D01*
X126010500Y-88728160D01*
X126030462Y-88653660D01*
X126074036Y-88606107D01*
X126098759Y-88588795D01*
X126250745Y-88482373D01*
X126402373Y-88330745D01*
X126525368Y-88155091D01*
X126615992Y-87960747D01*
X126671492Y-87753619D01*
X126690181Y-87540000D01*
X126671492Y-87326381D01*
X126615992Y-87119253D01*
X126615378Y-87117937D01*
X126525368Y-86924911D01*
X126525368Y-86924910D01*
X126402373Y-86749255D01*
X126250745Y-86597627D01*
X126075091Y-86474632D01*
X126075092Y-86474632D01*
X126075090Y-86474631D01*
X125880747Y-86384008D01*
X125673618Y-86328507D01*
X125460000Y-86309819D01*
X125246381Y-86328507D01*
X125039252Y-86384007D01*
X124844911Y-86474631D01*
X124669254Y-86597627D01*
X124517627Y-86749254D01*
X124394631Y-86924911D01*
X124304007Y-87119252D01*
X124248507Y-87326381D01*
X124229819Y-87540000D01*
X124248507Y-87753618D01*
X124304008Y-87960747D01*
X124394631Y-88155090D01*
X124394632Y-88155091D01*
X124517627Y-88330745D01*
X124669255Y-88482373D01*
X124807679Y-88579299D01*
X124845964Y-88606107D01*
X124895540Y-88665191D01*
X124909500Y-88728160D01*
X124909499Y-89896871D01*
X124909412Y-89901955D01*
X124907237Y-89965632D01*
X124916662Y-90004307D01*
X124919510Y-90019294D01*
X124924930Y-90058731D01*
X124931226Y-90073225D01*
X124939324Y-90097303D01*
X124943066Y-90112657D01*
X124943067Y-90112660D01*
X124962578Y-90147362D01*
X124969358Y-90161012D01*
X124985219Y-90197528D01*
X124995189Y-90209782D01*
X125009486Y-90230788D01*
X125017233Y-90244566D01*
X125045382Y-90272715D01*
X125055604Y-90284042D01*
X125080721Y-90314915D01*
X125093632Y-90324029D01*
X125113065Y-90340398D01*
X128805859Y-94033191D01*
X128844423Y-94099986D01*
X128849500Y-94138550D01*
X128849500Y-102943201D01*
X128829538Y-103017701D01*
X128775000Y-103072239D01*
X128700500Y-103092201D01*
X128643482Y-103080860D01*
X128607261Y-103065857D01*
X128450500Y-103045219D01*
X128293739Y-103065857D01*
X128147658Y-103126366D01*
X128022218Y-103222620D01*
X127925964Y-103348060D01*
X127865455Y-103494141D01*
X127844817Y-103650902D01*
X127865455Y-103807662D01*
X127918898Y-103936684D01*
X127925964Y-103953743D01*
X128022218Y-104079184D01*
X128147659Y-104175438D01*
X128293738Y-104235946D01*
X128450500Y-104256584D01*
X128607262Y-104235946D01*
X128643479Y-104220944D01*
X128719948Y-104210877D01*
X128791205Y-104240392D01*
X128838158Y-104301582D01*
X128849500Y-104358602D01*
X128849500Y-106335256D01*
X128829538Y-106409756D01*
X128805859Y-106440615D01*
X127848705Y-107397768D01*
X127781910Y-107436332D01*
X127704782Y-107436332D01*
X127637987Y-107397768D01*
X127605688Y-107349429D01*
X127572712Y-107269819D01*
X127549036Y-107212659D01*
X127452782Y-107087218D01*
X127327341Y-106990964D01*
X127327340Y-106990963D01*
X127311779Y-106979023D01*
X127314360Y-106975658D01*
X127281275Y-106950262D01*
X127251771Y-106879000D01*
X127250500Y-106859591D01*
X127250500Y-105160671D01*
X127270462Y-105086172D01*
X127308793Y-105042464D01*
X127429282Y-104950010D01*
X127525536Y-104824569D01*
X127586044Y-104678490D01*
X127606682Y-104521728D01*
X127586044Y-104364966D01*
X127525536Y-104218887D01*
X127429282Y-104093446D01*
X127303841Y-103997192D01*
X127157762Y-103936684D01*
X127157760Y-103936683D01*
X127001000Y-103916045D01*
X126844239Y-103936683D01*
X126698158Y-103997192D01*
X126572718Y-104093446D01*
X126476464Y-104218886D01*
X126415955Y-104364967D01*
X126395317Y-104521727D01*
X126415955Y-104678488D01*
X126476464Y-104824569D01*
X126568710Y-104944787D01*
X126598225Y-105016044D01*
X126599500Y-105035492D01*
X126599500Y-107032361D01*
X126579538Y-107106861D01*
X126568710Y-107123066D01*
X126499964Y-107212658D01*
X126439455Y-107358739D01*
X126418817Y-107515500D01*
X126439455Y-107672260D01*
X126454458Y-107708480D01*
X126464525Y-107784948D01*
X126435010Y-107856205D01*
X126373820Y-107903158D01*
X126316800Y-107914500D01*
X126076948Y-107914500D01*
X126072529Y-107915030D01*
X126072523Y-107915031D01*
X125993704Y-107924496D01*
X125861236Y-107976734D01*
X125747775Y-108062775D01*
X125661734Y-108176236D01*
X125609496Y-108308704D01*
X125600031Y-108387523D01*
X125599500Y-108391948D01*
X125599500Y-109108052D01*
X125600030Y-109112471D01*
X125600031Y-109112476D01*
X125609496Y-109191295D01*
X125661734Y-109323763D01*
X125661735Y-109323764D01*
X125747775Y-109437225D01*
X125765068Y-109450338D01*
X125812366Y-109511258D01*
X125822867Y-109587668D01*
X125793758Y-109659092D01*
X125754308Y-109695221D01*
X125604572Y-109789307D01*
X125474308Y-109919571D01*
X125376297Y-110075555D01*
X125315453Y-110249439D01*
X125300469Y-110382424D01*
X125300000Y-110390776D01*
X125299999Y-110499999D01*
X125300000Y-110500000D01*
X129250000Y-110500000D01*
X129250000Y-110390776D01*
X129249530Y-110382424D01*
X129234546Y-110249439D01*
X129173702Y-110075555D01*
X129075691Y-109919571D01*
X128945428Y-109789308D01*
X128795692Y-109695222D01*
X128743232Y-109638683D01*
X128726069Y-109563488D01*
X128748803Y-109489787D01*
X128784930Y-109450339D01*
X128802225Y-109437225D01*
X128888265Y-109323764D01*
X128940503Y-109191297D01*
X128950500Y-109108052D01*
X128950500Y-108391948D01*
X128940503Y-108308703D01*
X128888265Y-108176236D01*
X128888264Y-108176235D01*
X128888264Y-108176234D01*
X128854215Y-108131333D01*
X128825105Y-108059909D01*
X128835608Y-107983499D01*
X128867577Y-107935946D01*
X129495144Y-107308380D01*
X129561935Y-107269819D01*
X129639063Y-107269819D01*
X129705858Y-107308383D01*
X129744422Y-107375178D01*
X129749499Y-107413742D01*
X129749500Y-113159690D01*
X129729538Y-113234190D01*
X129675000Y-113288728D01*
X129600500Y-113308690D01*
X129526000Y-113288728D01*
X129509795Y-113277900D01*
X129389496Y-113185592D01*
X129243415Y-113125083D01*
X129080052Y-113103576D01*
X129008794Y-113074061D01*
X128961842Y-113012871D01*
X128950500Y-112955851D01*
X128950500Y-112396401D01*
X128950500Y-112391948D01*
X128940503Y-112308703D01*
X128888265Y-112176236D01*
X128802225Y-112062775D01*
X128784932Y-112049661D01*
X128737633Y-111988740D01*
X128727132Y-111912330D01*
X128756242Y-111840907D01*
X128795692Y-111804777D01*
X128945428Y-111710691D01*
X129075691Y-111580428D01*
X129173702Y-111424444D01*
X129234546Y-111250560D01*
X129249530Y-111117575D01*
X129250000Y-111109223D01*
X129250000Y-111000000D01*
X125300000Y-111000000D01*
X125300000Y-111109223D01*
X125300469Y-111117575D01*
X125315453Y-111250560D01*
X125376297Y-111424444D01*
X125474308Y-111580428D01*
X125604571Y-111710691D01*
X125754307Y-111804777D01*
X125806767Y-111861316D01*
X125823930Y-111936511D01*
X125801196Y-112010212D01*
X125765068Y-112049661D01*
X125747777Y-112062773D01*
X125747776Y-112062774D01*
X125747775Y-112062775D01*
X125725177Y-112092575D01*
X125661734Y-112176236D01*
X125609496Y-112308704D01*
X125600315Y-112385160D01*
X125599500Y-112391948D01*
X125599500Y-113108052D01*
X125600030Y-113112471D01*
X125600031Y-113112476D01*
X125609496Y-113191295D01*
X125661734Y-113323763D01*
X125663305Y-113325834D01*
X125747775Y-113437225D01*
X125861236Y-113523265D01*
X125993703Y-113575503D01*
X126076948Y-113585500D01*
X126081401Y-113585500D01*
X128333896Y-113585500D01*
X128408396Y-113605462D01*
X128462934Y-113660000D01*
X128481621Y-113715053D01*
X128485702Y-113746053D01*
X128475635Y-113822521D01*
X128428682Y-113883710D01*
X128357424Y-113913225D01*
X128337977Y-113914500D01*
X126076948Y-113914500D01*
X126072529Y-113915030D01*
X126072523Y-113915031D01*
X125993704Y-113924496D01*
X125861236Y-113976734D01*
X125747775Y-114062775D01*
X125661734Y-114176236D01*
X125609496Y-114308704D01*
X125600031Y-114387523D01*
X125599500Y-114391948D01*
X125599500Y-115108052D01*
X125600030Y-115112471D01*
X125600031Y-115112476D01*
X125609496Y-115191295D01*
X125661734Y-115323763D01*
X125661735Y-115323764D01*
X125747775Y-115437225D01*
X125861236Y-115523265D01*
X125993703Y-115575503D01*
X126076948Y-115585500D01*
X126081401Y-115585500D01*
X128468599Y-115585500D01*
X128473052Y-115585500D01*
X128556297Y-115575503D01*
X128688764Y-115523265D01*
X128802225Y-115437225D01*
X128888265Y-115323764D01*
X128940503Y-115191297D01*
X128950500Y-115108052D01*
X128950500Y-114464404D01*
X128970462Y-114389904D01*
X129025000Y-114335366D01*
X129080052Y-114316679D01*
X129086653Y-114315809D01*
X129086655Y-114315810D01*
X129243417Y-114295172D01*
X129389496Y-114234664D01*
X129509797Y-114142353D01*
X129581051Y-114112840D01*
X129657520Y-114122907D01*
X129718710Y-114169859D01*
X129748225Y-114241116D01*
X129749500Y-114260565D01*
X129749500Y-125242147D01*
X129729538Y-125316647D01*
X129675000Y-125371185D01*
X129600500Y-125391147D01*
X129526000Y-125371185D01*
X129471462Y-125316647D01*
X129463369Y-125300422D01*
X129400130Y-125151610D01*
X129259020Y-124920393D01*
X129085745Y-124712180D01*
X129085745Y-124712179D01*
X128884002Y-124531418D01*
X128658090Y-124381956D01*
X128658086Y-124381954D01*
X128412826Y-124266980D01*
X128267372Y-124223220D01*
X128153431Y-124188940D01*
X128153427Y-124188939D01*
X128153426Y-124188939D01*
X127885439Y-124149500D01*
X127682369Y-124149500D01*
X127679665Y-124149697D01*
X127679635Y-124149699D01*
X127479844Y-124164322D01*
X127215444Y-124223220D01*
X126962445Y-124319983D01*
X126726219Y-124452561D01*
X126511827Y-124618108D01*
X126323812Y-124813121D01*
X126166200Y-125033420D01*
X126042343Y-125274325D01*
X125954882Y-125530691D01*
X125905681Y-125797066D01*
X125895788Y-126067768D01*
X125925414Y-126337017D01*
X125993928Y-126599090D01*
X126099869Y-126848389D01*
X126240979Y-127079606D01*
X126240981Y-127079608D01*
X126240982Y-127079610D01*
X126414255Y-127287820D01*
X126615998Y-127468582D01*
X126841910Y-127618044D01*
X126974104Y-127680014D01*
X127049990Y-127715588D01*
X127108973Y-127765285D01*
X127135205Y-127837815D01*
X127121658Y-127913744D01*
X127071961Y-127972727D01*
X126999431Y-127998959D01*
X126986746Y-127999500D01*
X93508903Y-127999500D01*
X93434403Y-127979538D01*
X93379865Y-127925000D01*
X93359903Y-127850500D01*
X93379865Y-127776000D01*
X93434403Y-127721462D01*
X93455676Y-127711332D01*
X93537554Y-127680016D01*
X93537558Y-127680014D01*
X93773777Y-127547441D01*
X93988177Y-127381888D01*
X94176186Y-127186881D01*
X94333799Y-126966579D01*
X94457656Y-126725675D01*
X94545118Y-126469305D01*
X94594319Y-126202933D01*
X94604212Y-125932235D01*
X94574586Y-125662982D01*
X94506072Y-125400912D01*
X94501922Y-125391147D01*
X94400130Y-125151610D01*
X94259020Y-124920393D01*
X94085745Y-124712180D01*
X94085745Y-124712179D01*
X93884002Y-124531418D01*
X93658090Y-124381956D01*
X93658086Y-124381954D01*
X93412826Y-124266980D01*
X93267372Y-124223220D01*
X93153431Y-124188940D01*
X93153427Y-124188939D01*
X93153426Y-124188939D01*
X92885439Y-124149500D01*
X92682369Y-124149500D01*
X92679665Y-124149697D01*
X92679635Y-124149699D01*
X92479844Y-124164322D01*
X92215444Y-124223220D01*
X91962445Y-124319983D01*
X91726219Y-124452561D01*
X91511827Y-124618108D01*
X91323812Y-124813121D01*
X91166200Y-125033420D01*
X91042343Y-125274326D01*
X91040519Y-125279674D01*
X90997571Y-125343738D01*
X90928345Y-125377745D01*
X90851390Y-125372583D01*
X90787326Y-125329635D01*
X90753319Y-125260409D01*
X90750500Y-125231564D01*
X90750500Y-122869748D01*
X91619500Y-122869748D01*
X91631132Y-122928229D01*
X91631132Y-122928230D01*
X91631133Y-122928231D01*
X91675448Y-122994552D01*
X91741769Y-123038867D01*
X91800252Y-123050500D01*
X93539748Y-123050500D01*
X93598231Y-123038867D01*
X93664552Y-122994552D01*
X93708867Y-122928231D01*
X93720500Y-122869748D01*
X93720500Y-122000000D01*
X94154416Y-122000000D01*
X94174699Y-122205932D01*
X94232477Y-122396401D01*
X94234768Y-122403954D01*
X94332314Y-122586449D01*
X94332316Y-122586451D01*
X94463589Y-122746410D01*
X94574901Y-122837760D01*
X94623550Y-122877685D01*
X94806046Y-122975232D01*
X95004066Y-123035300D01*
X95107032Y-123045441D01*
X95209999Y-123055583D01*
X95209999Y-123055582D01*
X95210000Y-123055583D01*
X95415934Y-123035300D01*
X95613954Y-122975232D01*
X95796450Y-122877685D01*
X95956410Y-122746410D01*
X96087685Y-122586450D01*
X96185232Y-122403954D01*
X96185233Y-122403950D01*
X96190921Y-122393309D01*
X96243645Y-122337016D01*
X96317452Y-122314627D01*
X96392565Y-122332141D01*
X96448858Y-122384865D01*
X96466249Y-122424981D01*
X96476567Y-122463487D01*
X96576401Y-122677582D01*
X96711887Y-122871075D01*
X96878924Y-123038112D01*
X97072417Y-123173598D01*
X97286509Y-123273430D01*
X97500000Y-123330634D01*
X97500000Y-122435501D01*
X97607685Y-122484680D01*
X97714237Y-122500000D01*
X97785763Y-122500000D01*
X97892315Y-122484680D01*
X98000000Y-122435501D01*
X98000000Y-123330633D01*
X98213490Y-123273430D01*
X98427582Y-123173598D01*
X98621075Y-123038112D01*
X98788112Y-122871075D01*
X98923598Y-122677582D01*
X99023430Y-122463491D01*
X99033749Y-122424983D01*
X99072313Y-122358188D01*
X99139107Y-122319624D01*
X99216236Y-122319624D01*
X99283031Y-122358188D01*
X99309078Y-122393308D01*
X99314767Y-122403952D01*
X99314768Y-122403954D01*
X99412314Y-122586449D01*
X99412316Y-122586451D01*
X99543589Y-122746410D01*
X99654901Y-122837760D01*
X99703550Y-122877685D01*
X99886046Y-122975232D01*
X100084066Y-123035300D01*
X100290000Y-123055583D01*
X100495934Y-123035300D01*
X100612304Y-123000000D01*
X102694416Y-123000000D01*
X102714699Y-123205932D01*
X102752527Y-123330634D01*
X102774768Y-123403954D01*
X102871807Y-123585500D01*
X102872316Y-123586451D01*
X103003589Y-123746410D01*
X103079493Y-123808702D01*
X103163550Y-123877685D01*
X103346046Y-123975232D01*
X103544066Y-124035300D01*
X103750000Y-124055583D01*
X103955934Y-124035300D01*
X104153954Y-123975232D01*
X104336450Y-123877685D01*
X104496410Y-123746410D01*
X104627685Y-123586450D01*
X104725232Y-123403954D01*
X104785300Y-123205934D01*
X104805583Y-123000000D01*
X110250000Y-123000000D01*
X110250000Y-123109223D01*
X110250469Y-123117575D01*
X110265453Y-123250560D01*
X110326297Y-123424444D01*
X110424308Y-123580428D01*
X110554571Y-123710691D01*
X110710555Y-123808702D01*
X110884439Y-123869546D01*
X111017424Y-123884530D01*
X111025777Y-123885000D01*
X111975000Y-123885000D01*
X112474999Y-123885000D01*
X113424223Y-123885000D01*
X113432575Y-123884530D01*
X113565560Y-123869546D01*
X113739444Y-123808702D01*
X113895428Y-123710691D01*
X114025691Y-123580428D01*
X114123702Y-123424444D01*
X114184546Y-123250560D01*
X114199530Y-123117575D01*
X114200000Y-123109223D01*
X114200000Y-123000000D01*
X112475000Y-123000000D01*
X112474999Y-123885000D01*
X111975000Y-123885000D01*
X111975000Y-123000000D01*
X110250000Y-123000000D01*
X104805583Y-123000000D01*
X104785300Y-122794066D01*
X104725232Y-122596046D01*
X104627685Y-122413550D01*
X104582251Y-122358188D01*
X104496410Y-122253589D01*
X104336451Y-122122316D01*
X104336450Y-122122315D01*
X104153954Y-122024768D01*
X104153953Y-122024767D01*
X104153952Y-122024767D01*
X103955932Y-121964699D01*
X103750000Y-121944416D01*
X103544067Y-121964699D01*
X103346047Y-122024767D01*
X103163548Y-122122316D01*
X103003589Y-122253589D01*
X102872316Y-122413548D01*
X102774767Y-122596047D01*
X102714699Y-122794067D01*
X102694416Y-123000000D01*
X100612304Y-123000000D01*
X100693954Y-122975232D01*
X100876450Y-122877685D01*
X101036410Y-122746410D01*
X101167685Y-122586450D01*
X101265232Y-122403954D01*
X101325300Y-122205934D01*
X101345583Y-122000000D01*
X101325300Y-121794066D01*
X101265232Y-121596046D01*
X101167685Y-121413550D01*
X101093999Y-121323763D01*
X101036410Y-121253589D01*
X100876451Y-121122316D01*
X100876450Y-121122315D01*
X100693954Y-121024768D01*
X100693953Y-121024767D01*
X100693952Y-121024767D01*
X100495932Y-120964699D01*
X100289999Y-120944416D01*
X100084067Y-120964699D01*
X99886047Y-121024767D01*
X99703548Y-121122316D01*
X99543589Y-121253589D01*
X99412316Y-121413548D01*
X99309078Y-121606691D01*
X99256353Y-121662984D01*
X99182546Y-121685372D01*
X99107433Y-121667858D01*
X99051140Y-121615133D01*
X99033749Y-121575016D01*
X99023431Y-121536509D01*
X98923600Y-121322423D01*
X98788109Y-121128921D01*
X98621075Y-120961887D01*
X98427582Y-120826401D01*
X98213491Y-120726568D01*
X98000000Y-120669363D01*
X98000000Y-121564498D01*
X97892315Y-121515320D01*
X97785763Y-121500000D01*
X97714237Y-121500000D01*
X97607685Y-121515320D01*
X97500000Y-121564498D01*
X97500000Y-120669364D01*
X97499999Y-120669363D01*
X97286509Y-120726568D01*
X97072423Y-120826399D01*
X96878921Y-120961890D01*
X96711890Y-121128921D01*
X96576399Y-121322423D01*
X96476567Y-121536511D01*
X96466249Y-121575019D01*
X96427684Y-121641813D01*
X96360888Y-121680376D01*
X96283760Y-121680374D01*
X96216966Y-121641809D01*
X96190921Y-121606690D01*
X96180753Y-121587668D01*
X96087685Y-121413550D01*
X96087683Y-121413548D01*
X95956410Y-121253589D01*
X95796451Y-121122316D01*
X95796450Y-121122315D01*
X95613954Y-121024768D01*
X95613953Y-121024767D01*
X95613952Y-121024767D01*
X95415932Y-120964699D01*
X95209999Y-120944416D01*
X95004067Y-120964699D01*
X94806047Y-121024767D01*
X94623548Y-121122316D01*
X94463589Y-121253589D01*
X94332316Y-121413548D01*
X94234767Y-121596047D01*
X94174699Y-121794067D01*
X94154416Y-122000000D01*
X93720500Y-122000000D01*
X93720500Y-121130252D01*
X93718921Y-121122316D01*
X93708867Y-121071770D01*
X93708867Y-121071769D01*
X93664552Y-121005448D01*
X93598231Y-120961133D01*
X93598230Y-120961132D01*
X93598229Y-120961132D01*
X93539748Y-120949500D01*
X91800252Y-120949500D01*
X91741770Y-120961132D01*
X91675448Y-121005448D01*
X91631132Y-121071770D01*
X91619500Y-121130251D01*
X91619500Y-122869748D01*
X90750500Y-122869748D01*
X90750500Y-119869748D01*
X91619500Y-119869748D01*
X91631132Y-119928229D01*
X91631132Y-119928230D01*
X91631133Y-119928231D01*
X91675448Y-119994552D01*
X91741769Y-120038867D01*
X91800252Y-120050500D01*
X93539748Y-120050500D01*
X93598231Y-120038867D01*
X93664552Y-119994552D01*
X93708867Y-119928231D01*
X93720500Y-119869748D01*
X93720500Y-118999999D01*
X94154416Y-118999999D01*
X94174699Y-119205932D01*
X94231539Y-119393308D01*
X94234768Y-119403954D01*
X94332314Y-119586449D01*
X94332316Y-119586451D01*
X94463589Y-119746410D01*
X94574901Y-119837760D01*
X94623550Y-119877685D01*
X94806046Y-119975232D01*
X95004066Y-120035300D01*
X95210000Y-120055583D01*
X95415934Y-120035300D01*
X95613954Y-119975232D01*
X95796450Y-119877685D01*
X95956410Y-119746410D01*
X96087685Y-119586450D01*
X96185232Y-119403954D01*
X96185233Y-119403950D01*
X96190921Y-119393309D01*
X96243645Y-119337016D01*
X96317452Y-119314627D01*
X96392565Y-119332141D01*
X96448858Y-119384865D01*
X96466249Y-119424981D01*
X96476567Y-119463487D01*
X96576401Y-119677582D01*
X96711887Y-119871075D01*
X96878924Y-120038112D01*
X97072417Y-120173598D01*
X97286509Y-120273430D01*
X97500000Y-120330634D01*
X97500000Y-119435501D01*
X97607685Y-119484680D01*
X97714237Y-119500000D01*
X97785763Y-119500000D01*
X97892315Y-119484680D01*
X98000000Y-119435501D01*
X98000000Y-120330633D01*
X98213490Y-120273430D01*
X98427582Y-120173598D01*
X98621075Y-120038112D01*
X98788112Y-119871075D01*
X98923598Y-119677582D01*
X99023430Y-119463491D01*
X99033749Y-119424983D01*
X99072313Y-119358188D01*
X99139107Y-119319624D01*
X99216236Y-119319624D01*
X99283031Y-119358188D01*
X99309078Y-119393308D01*
X99314767Y-119403952D01*
X99314768Y-119403954D01*
X99412314Y-119586449D01*
X99412316Y-119586451D01*
X99543589Y-119746410D01*
X99654901Y-119837760D01*
X99703550Y-119877685D01*
X99886046Y-119975232D01*
X100084066Y-120035300D01*
X100187032Y-120045441D01*
X100289999Y-120055583D01*
X100289999Y-120055582D01*
X100290000Y-120055583D01*
X100495934Y-120035300D01*
X100693954Y-119975232D01*
X100876450Y-119877685D01*
X101036410Y-119746410D01*
X101167685Y-119586450D01*
X101265232Y-119403954D01*
X101325300Y-119205934D01*
X101345583Y-119000000D01*
X101325300Y-118794066D01*
X101265232Y-118596046D01*
X101167685Y-118413550D01*
X101115531Y-118350000D01*
X101036410Y-118253589D01*
X100876451Y-118122316D01*
X100876450Y-118122315D01*
X100693954Y-118024768D01*
X100693953Y-118024767D01*
X100693952Y-118024767D01*
X100495932Y-117964699D01*
X100289999Y-117944416D01*
X100084067Y-117964699D01*
X99886047Y-118024767D01*
X99703548Y-118122316D01*
X99543589Y-118253589D01*
X99412316Y-118413548D01*
X99309078Y-118606691D01*
X99256353Y-118662984D01*
X99182546Y-118685372D01*
X99107433Y-118667858D01*
X99051140Y-118615133D01*
X99033749Y-118575016D01*
X99023431Y-118536509D01*
X98923600Y-118322423D01*
X98788109Y-118128921D01*
X98621075Y-117961887D01*
X98427582Y-117826401D01*
X98213491Y-117726568D01*
X98002374Y-117669999D01*
X102419363Y-117669999D01*
X102419364Y-117670000D01*
X103316314Y-117670000D01*
X103290507Y-117710156D01*
X103250000Y-117848111D01*
X103250000Y-117991889D01*
X103290507Y-118129844D01*
X103316314Y-118170000D01*
X102419364Y-118170000D01*
X102476568Y-118383491D01*
X102576401Y-118597582D01*
X102711887Y-118791075D01*
X102878924Y-118958112D01*
X103072417Y-119093598D01*
X103286508Y-119193431D01*
X103325016Y-119203749D01*
X103391811Y-119242313D01*
X103430375Y-119309108D01*
X103430375Y-119386236D01*
X103391811Y-119453031D01*
X103356691Y-119479078D01*
X103163548Y-119582316D01*
X103003589Y-119713589D01*
X102872316Y-119873548D01*
X102774767Y-120056047D01*
X102714699Y-120254067D01*
X102694416Y-120460000D01*
X102714699Y-120665932D01*
X102769742Y-120847384D01*
X102774768Y-120863954D01*
X102872315Y-121046450D01*
X102876305Y-121051312D01*
X103003589Y-121206410D01*
X103057270Y-121250464D01*
X103163550Y-121337685D01*
X103346046Y-121435232D01*
X103544066Y-121495300D01*
X103750000Y-121515583D01*
X103955934Y-121495300D01*
X104153954Y-121435232D01*
X104336450Y-121337685D01*
X104496410Y-121206410D01*
X104627685Y-121046450D01*
X104725232Y-120863954D01*
X104785300Y-120665934D01*
X104805583Y-120460000D01*
X104785300Y-120254066D01*
X104725232Y-120056046D01*
X104627685Y-119873550D01*
X104587760Y-119824901D01*
X104496410Y-119713589D01*
X104352158Y-119595206D01*
X104336450Y-119582315D01*
X104153954Y-119484768D01*
X104153952Y-119484767D01*
X104143308Y-119479078D01*
X104087016Y-119426354D01*
X104064627Y-119352547D01*
X104082141Y-119277433D01*
X104134865Y-119221141D01*
X104174983Y-119203749D01*
X104213491Y-119193430D01*
X104427582Y-119093598D01*
X104621075Y-118958112D01*
X104788112Y-118791075D01*
X104923598Y-118597582D01*
X105023431Y-118383491D01*
X105080636Y-118170000D01*
X104183686Y-118170000D01*
X104209493Y-118129844D01*
X104250000Y-117991889D01*
X104250000Y-117848111D01*
X104209493Y-117710156D01*
X104183686Y-117670000D01*
X105080636Y-117670000D01*
X105080636Y-117669999D01*
X105023431Y-117456509D01*
X104923600Y-117242423D01*
X104788109Y-117048921D01*
X104621075Y-116881887D01*
X104427582Y-116746400D01*
X104359256Y-116714540D01*
X104300172Y-116664963D01*
X104273793Y-116592486D01*
X104287186Y-116516530D01*
X104336763Y-116457446D01*
X104409240Y-116431067D01*
X104422226Y-116430500D01*
X104619748Y-116430500D01*
X104678231Y-116418867D01*
X104744552Y-116374552D01*
X104788867Y-116308231D01*
X104798097Y-116261830D01*
X109560838Y-116261830D01*
X109581476Y-116418590D01*
X109613874Y-116496806D01*
X109641985Y-116564671D01*
X109738239Y-116690112D01*
X109863680Y-116786366D01*
X110009759Y-116846874D01*
X110166521Y-116867512D01*
X110323283Y-116846874D01*
X110343478Y-116838508D01*
X110419945Y-116828440D01*
X110491202Y-116857955D01*
X110538156Y-116919144D01*
X110549499Y-116976165D01*
X110549499Y-117103598D01*
X110549499Y-117103614D01*
X110549500Y-117108052D01*
X110550030Y-117112471D01*
X110550031Y-117112476D01*
X110559496Y-117191295D01*
X110611734Y-117323763D01*
X110611735Y-117323764D01*
X110697775Y-117437225D01*
X110811236Y-117523265D01*
X110943703Y-117575503D01*
X111026948Y-117585500D01*
X111031401Y-117585500D01*
X113418599Y-117585500D01*
X113423052Y-117585500D01*
X113506297Y-117575503D01*
X113638764Y-117523265D01*
X113752225Y-117437225D01*
X113838265Y-117323764D01*
X113890503Y-117191297D01*
X113890502Y-117191297D01*
X113897541Y-117173450D01*
X113901386Y-117174966D01*
X113917361Y-117135134D01*
X113978017Y-117087494D01*
X114036587Y-117075500D01*
X114078761Y-117075500D01*
X114153261Y-117095462D01*
X114184120Y-117119141D01*
X115245157Y-118180178D01*
X115283721Y-118246973D01*
X115288798Y-118285537D01*
X115288797Y-118702114D01*
X115268835Y-118776614D01*
X115214297Y-118831152D01*
X115139797Y-118851114D01*
X115065297Y-118831152D01*
X115021589Y-118792821D01*
X114928282Y-118671220D01*
X114802841Y-118574966D01*
X114656762Y-118514458D01*
X114656760Y-118514457D01*
X114499999Y-118493819D01*
X114434334Y-118502464D01*
X114357865Y-118492397D01*
X114340388Y-118483778D01*
X114331177Y-118478460D01*
X114320232Y-118471487D01*
X114302137Y-118458817D01*
X114287675Y-118448690D01*
X114266558Y-118439943D01*
X114227423Y-118433042D01*
X114214738Y-118430229D01*
X114179307Y-118420735D01*
X114142765Y-118423933D01*
X114129778Y-118424500D01*
X114036587Y-118424500D01*
X113962087Y-118404538D01*
X113907549Y-118350000D01*
X113899481Y-118325784D01*
X113897541Y-118326550D01*
X113838265Y-118176236D01*
X113803394Y-118130252D01*
X113752225Y-118062775D01*
X113638764Y-117976735D01*
X113638763Y-117976734D01*
X113506295Y-117924496D01*
X113427476Y-117915031D01*
X113427471Y-117915030D01*
X113423052Y-117914500D01*
X111026948Y-117914500D01*
X111022529Y-117915030D01*
X111022523Y-117915031D01*
X110943704Y-117924496D01*
X110811236Y-117976734D01*
X110697775Y-118062775D01*
X110611734Y-118176236D01*
X110559496Y-118308704D01*
X110550031Y-118387523D01*
X110549500Y-118391948D01*
X110549500Y-119108052D01*
X110550030Y-119112471D01*
X110550031Y-119112476D01*
X110559496Y-119191295D01*
X110611734Y-119323763D01*
X110611735Y-119323764D01*
X110697775Y-119437225D01*
X110811236Y-119523265D01*
X110943703Y-119575503D01*
X111026948Y-119585500D01*
X111031401Y-119585500D01*
X113418599Y-119585500D01*
X113423052Y-119585500D01*
X113506297Y-119575503D01*
X113638764Y-119523265D01*
X113752225Y-119437225D01*
X113758464Y-119428996D01*
X113819384Y-119381697D01*
X113895793Y-119371193D01*
X113967217Y-119400302D01*
X113995396Y-119428319D01*
X114071718Y-119527784D01*
X114071719Y-119527785D01*
X114157340Y-119593484D01*
X114197159Y-119624038D01*
X114276316Y-119656826D01*
X114337505Y-119703777D01*
X114367021Y-119775034D01*
X114356954Y-119851502D01*
X114337507Y-119885186D01*
X114328962Y-119896322D01*
X114268452Y-120042405D01*
X114247814Y-120199165D01*
X114255134Y-120254761D01*
X114245067Y-120331229D01*
X114212809Y-120379526D01*
X114211516Y-120380819D01*
X114144740Y-120419408D01*
X114106120Y-120424500D01*
X114036587Y-120424500D01*
X113962087Y-120404538D01*
X113907549Y-120350000D01*
X113899481Y-120325784D01*
X113897541Y-120326550D01*
X113838265Y-120176236D01*
X113836265Y-120173598D01*
X113752225Y-120062775D01*
X113638764Y-119976735D01*
X113638763Y-119976734D01*
X113506295Y-119924496D01*
X113427476Y-119915031D01*
X113427471Y-119915030D01*
X113423052Y-119914500D01*
X111026948Y-119914500D01*
X111022529Y-119915030D01*
X111022523Y-119915031D01*
X110943704Y-119924496D01*
X110811236Y-119976734D01*
X110697775Y-120062775D01*
X110611734Y-120176236D01*
X110559496Y-120308704D01*
X110550031Y-120387523D01*
X110549500Y-120391948D01*
X110549500Y-121108052D01*
X110550030Y-121112471D01*
X110550031Y-121112476D01*
X110559496Y-121191295D01*
X110611734Y-121323763D01*
X110632528Y-121351184D01*
X110697775Y-121437225D01*
X110715068Y-121450338D01*
X110762366Y-121511258D01*
X110772867Y-121587668D01*
X110743758Y-121659092D01*
X110704308Y-121695221D01*
X110554572Y-121789307D01*
X110424308Y-121919571D01*
X110326297Y-122075555D01*
X110265453Y-122249439D01*
X110250469Y-122382424D01*
X110250000Y-122390776D01*
X110250000Y-122500000D01*
X114200000Y-122500000D01*
X114200000Y-122390776D01*
X114199530Y-122382424D01*
X114184546Y-122249439D01*
X114123702Y-122075555D01*
X114025691Y-121919571D01*
X113895428Y-121789308D01*
X113872657Y-121775000D01*
X124794317Y-121775000D01*
X124814955Y-121931760D01*
X124814956Y-121931762D01*
X124875464Y-122077841D01*
X124971718Y-122203282D01*
X125097159Y-122299536D01*
X125243238Y-122360044D01*
X125295492Y-122366923D01*
X125399998Y-122380682D01*
X125399999Y-122380681D01*
X125400000Y-122380682D01*
X125431050Y-122376594D01*
X125507518Y-122386660D01*
X125568709Y-122433612D01*
X125598225Y-122504869D01*
X125599500Y-122524319D01*
X125599500Y-123108052D01*
X125600030Y-123112471D01*
X125600031Y-123112476D01*
X125609496Y-123191295D01*
X125661734Y-123323763D01*
X125682528Y-123351183D01*
X125747775Y-123437225D01*
X125861236Y-123523265D01*
X125993703Y-123575503D01*
X126076948Y-123585500D01*
X126081401Y-123585500D01*
X128468599Y-123585500D01*
X128473052Y-123585500D01*
X128556297Y-123575503D01*
X128688764Y-123523265D01*
X128802225Y-123437225D01*
X128888265Y-123323764D01*
X128940503Y-123191297D01*
X128950500Y-123108052D01*
X128950500Y-122391948D01*
X128940503Y-122308703D01*
X128888265Y-122176236D01*
X128802225Y-122062775D01*
X128688764Y-121976735D01*
X128688763Y-121976734D01*
X128556295Y-121924496D01*
X128477476Y-121915031D01*
X128477471Y-121915030D01*
X128473052Y-121914500D01*
X126154717Y-121914500D01*
X126080217Y-121894538D01*
X126025679Y-121840000D01*
X126006992Y-121784947D01*
X126002911Y-121753947D01*
X126012978Y-121677479D01*
X126059931Y-121616290D01*
X126131189Y-121586775D01*
X126150636Y-121585500D01*
X128468599Y-121585500D01*
X128473052Y-121585500D01*
X128556297Y-121575503D01*
X128688764Y-121523265D01*
X128802225Y-121437225D01*
X128888265Y-121323764D01*
X128940503Y-121191297D01*
X128950500Y-121108052D01*
X128950500Y-120391948D01*
X128940503Y-120308703D01*
X128888265Y-120176236D01*
X128802225Y-120062775D01*
X128688764Y-119976735D01*
X128688763Y-119976734D01*
X128556295Y-119924496D01*
X128477476Y-119915031D01*
X128477471Y-119915030D01*
X128473052Y-119914500D01*
X126076948Y-119914500D01*
X126072529Y-119915030D01*
X126072523Y-119915031D01*
X125993704Y-119924496D01*
X125861236Y-119976734D01*
X125747775Y-120062775D01*
X125661734Y-120176236D01*
X125609496Y-120308704D01*
X125600031Y-120387523D01*
X125599500Y-120391948D01*
X125599500Y-120396401D01*
X125599500Y-121025680D01*
X125579538Y-121100180D01*
X125525000Y-121154718D01*
X125450500Y-121174680D01*
X125431053Y-121173405D01*
X125400001Y-121169317D01*
X125243239Y-121189955D01*
X125097158Y-121250464D01*
X124971718Y-121346718D01*
X124875464Y-121472158D01*
X124814955Y-121618239D01*
X124794317Y-121775000D01*
X113872657Y-121775000D01*
X113745692Y-121695222D01*
X113693232Y-121638683D01*
X113676069Y-121563488D01*
X113698803Y-121489787D01*
X113734930Y-121450339D01*
X113752225Y-121437225D01*
X113838265Y-121323764D01*
X113890503Y-121191297D01*
X113890502Y-121191297D01*
X113897541Y-121173450D01*
X113901386Y-121174966D01*
X113917361Y-121135134D01*
X113978017Y-121087494D01*
X114036587Y-121075500D01*
X114281943Y-121075500D01*
X114294929Y-121076066D01*
X114331470Y-121079264D01*
X114366916Y-121069765D01*
X114379580Y-121066957D01*
X114415708Y-121060588D01*
X114415709Y-121060587D01*
X114418728Y-121060055D01*
X114439834Y-121051312D01*
X114442343Y-121049554D01*
X114442347Y-121049554D01*
X114472397Y-121028511D01*
X114483332Y-121021544D01*
X114515118Y-121003194D01*
X114538707Y-120975080D01*
X114547467Y-120965520D01*
X114673095Y-120839892D01*
X114739888Y-120801330D01*
X114797900Y-120797528D01*
X114853497Y-120804848D01*
X114853497Y-120804847D01*
X114872948Y-120807409D01*
X114872922Y-120807604D01*
X114929204Y-120815011D01*
X114990396Y-120861961D01*
X115019915Y-120933217D01*
X115019916Y-120933223D01*
X115029253Y-121004144D01*
X115060369Y-121079264D01*
X115089762Y-121150225D01*
X115186016Y-121275666D01*
X115311457Y-121371920D01*
X115457536Y-121432428D01*
X115535917Y-121442746D01*
X115614297Y-121453066D01*
X115614297Y-121453065D01*
X115614298Y-121453066D01*
X115771060Y-121432428D01*
X115917139Y-121371920D01*
X116042580Y-121275666D01*
X116138834Y-121150225D01*
X116199342Y-121004146D01*
X116219980Y-120847384D01*
X116199342Y-120690622D01*
X116138834Y-120544543D01*
X116042580Y-120419102D01*
X116012996Y-120396401D01*
X115998091Y-120384964D01*
X115951139Y-120323773D01*
X115939798Y-120266755D01*
X115939798Y-118109712D01*
X115940365Y-118096725D01*
X115942548Y-118071770D01*
X115943562Y-118060186D01*
X115934063Y-118024739D01*
X115931254Y-118012061D01*
X115924355Y-117972933D01*
X115915607Y-117951815D01*
X115892815Y-117919264D01*
X115885832Y-117908303D01*
X115867492Y-117876538D01*
X115839392Y-117852959D01*
X115829809Y-117844178D01*
X114520118Y-116534487D01*
X114511335Y-116524902D01*
X114487759Y-116496804D01*
X114455991Y-116478463D01*
X114445030Y-116471480D01*
X114412484Y-116448691D01*
X114391365Y-116439943D01*
X114352230Y-116433042D01*
X114339545Y-116430229D01*
X114304114Y-116420735D01*
X114267572Y-116423933D01*
X114254585Y-116424500D01*
X114036587Y-116424500D01*
X113962087Y-116404538D01*
X113907549Y-116350000D01*
X113899481Y-116325784D01*
X113897541Y-116326550D01*
X113838265Y-116176236D01*
X113784297Y-116105069D01*
X113752225Y-116062775D01*
X113638764Y-115976735D01*
X113638763Y-115976734D01*
X113506295Y-115924496D01*
X113427476Y-115915031D01*
X113427471Y-115915030D01*
X113423052Y-115914500D01*
X111026948Y-115914500D01*
X111022529Y-115915030D01*
X111022523Y-115915031D01*
X110943704Y-115924496D01*
X110833920Y-115967789D01*
X110757291Y-115976549D01*
X110686548Y-115945820D01*
X110661049Y-115919882D01*
X110656919Y-115914500D01*
X110594803Y-115833548D01*
X110469362Y-115737294D01*
X110391837Y-115705182D01*
X110323281Y-115676785D01*
X110166521Y-115656147D01*
X110009760Y-115676785D01*
X109863679Y-115737294D01*
X109738239Y-115833548D01*
X109641985Y-115958988D01*
X109581476Y-116105069D01*
X109560838Y-116261830D01*
X104798097Y-116261830D01*
X104800500Y-116249748D01*
X104800500Y-114510252D01*
X104788867Y-114451769D01*
X104744552Y-114385448D01*
X104728916Y-114375000D01*
X106294317Y-114375000D01*
X106314955Y-114531760D01*
X106364139Y-114650500D01*
X106375464Y-114677841D01*
X106471718Y-114803282D01*
X106597159Y-114899536D01*
X106743238Y-114960044D01*
X106900000Y-114980682D01*
X106914576Y-114982601D01*
X106985833Y-115012116D01*
X107032786Y-115073306D01*
X107042853Y-115110877D01*
X107061993Y-115256261D01*
X107089954Y-115323763D01*
X107122502Y-115402341D01*
X107218756Y-115527782D01*
X107344197Y-115624036D01*
X107490276Y-115684544D01*
X107647038Y-115705182D01*
X107803800Y-115684544D01*
X107949879Y-115624036D01*
X108075320Y-115527782D01*
X108171574Y-115402341D01*
X108232082Y-115256262D01*
X108252720Y-115099500D01*
X108232082Y-114942738D01*
X108171574Y-114796659D01*
X108075320Y-114671218D01*
X107949879Y-114574964D01*
X107889857Y-114550102D01*
X107803799Y-114514455D01*
X107632460Y-114491898D01*
X107561203Y-114462383D01*
X107514251Y-114401193D01*
X107504184Y-114363621D01*
X107490474Y-114259484D01*
X107485044Y-114218238D01*
X107424536Y-114072159D01*
X107328282Y-113946718D01*
X107202841Y-113850464D01*
X107202840Y-113850463D01*
X107056760Y-113789955D01*
X106967966Y-113778265D01*
X109173306Y-113778265D01*
X109176439Y-113789956D01*
X109182800Y-113813698D01*
X109185612Y-113826383D01*
X109192513Y-113865517D01*
X109201260Y-113886635D01*
X109203016Y-113889142D01*
X109224057Y-113919192D01*
X109231030Y-113930139D01*
X109249376Y-113961913D01*
X109270381Y-113979538D01*
X109277475Y-113985491D01*
X109287058Y-113994272D01*
X109833303Y-114540518D01*
X109842085Y-114550102D01*
X109865657Y-114578194D01*
X109897425Y-114596535D01*
X109908382Y-114603516D01*
X109940935Y-114626310D01*
X109962053Y-114635056D01*
X109965065Y-114635587D01*
X109965067Y-114635588D01*
X109980515Y-114638311D01*
X110001186Y-114641957D01*
X110013875Y-114644769D01*
X110049305Y-114654263D01*
X110085837Y-114651067D01*
X110098823Y-114650500D01*
X110400500Y-114650500D01*
X110475000Y-114670462D01*
X110529538Y-114725000D01*
X110549500Y-114799500D01*
X110549500Y-115108052D01*
X110550030Y-115112471D01*
X110550031Y-115112476D01*
X110559496Y-115191295D01*
X110611734Y-115323763D01*
X110611735Y-115323764D01*
X110697775Y-115437225D01*
X110811236Y-115523265D01*
X110943703Y-115575503D01*
X111026948Y-115585500D01*
X111031401Y-115585500D01*
X113418599Y-115585500D01*
X113423052Y-115585500D01*
X113506297Y-115575503D01*
X113638764Y-115523265D01*
X113752225Y-115437225D01*
X113838265Y-115323764D01*
X113890503Y-115191297D01*
X113900500Y-115108052D01*
X113900500Y-114391948D01*
X113890503Y-114308703D01*
X113838265Y-114176236D01*
X113752225Y-114062775D01*
X113650311Y-113985491D01*
X113638763Y-113976734D01*
X113506295Y-113924496D01*
X113427476Y-113915031D01*
X113427471Y-113915030D01*
X113423052Y-113914500D01*
X111026948Y-113914500D01*
X111022529Y-113915030D01*
X111022523Y-113915031D01*
X110943702Y-113924496D01*
X110792185Y-113984248D01*
X110791090Y-113981471D01*
X110749715Y-113998334D01*
X110731110Y-113999500D01*
X110274657Y-113999500D01*
X110200157Y-113979538D01*
X110169298Y-113955859D01*
X109871711Y-113658272D01*
X109833147Y-113591477D01*
X109828070Y-113552913D01*
X109828070Y-112142970D01*
X109848032Y-112068470D01*
X109902570Y-112013932D01*
X109977070Y-111993970D01*
X110034088Y-112005312D01*
X110070808Y-112020522D01*
X110126402Y-112027841D01*
X110227569Y-112041160D01*
X110227569Y-112041159D01*
X110227570Y-112041160D01*
X110384332Y-112020522D01*
X110405051Y-112011939D01*
X110481518Y-112001871D01*
X110552776Y-112031386D01*
X110599729Y-112092575D01*
X110609798Y-112169043D01*
X110600684Y-112204258D01*
X110559496Y-112308704D01*
X110550315Y-112385160D01*
X110549500Y-112391948D01*
X110549500Y-113108052D01*
X110550030Y-113112471D01*
X110550031Y-113112476D01*
X110559496Y-113191295D01*
X110611734Y-113323763D01*
X110613305Y-113325834D01*
X110697775Y-113437225D01*
X110811236Y-113523265D01*
X110943703Y-113575503D01*
X111026948Y-113585500D01*
X111031401Y-113585500D01*
X113418599Y-113585500D01*
X113423052Y-113585500D01*
X113506297Y-113575503D01*
X113638764Y-113523265D01*
X113657259Y-113509239D01*
X113727763Y-113455776D01*
X113799187Y-113426666D01*
X113817794Y-113425500D01*
X114372979Y-113425500D01*
X114385965Y-113426066D01*
X114422506Y-113429264D01*
X114457952Y-113419765D01*
X114470616Y-113416957D01*
X114506744Y-113410588D01*
X114506745Y-113410587D01*
X114509764Y-113410055D01*
X114530870Y-113401312D01*
X114533379Y-113399554D01*
X114533383Y-113399554D01*
X114563433Y-113378511D01*
X114574368Y-113371544D01*
X114606154Y-113353194D01*
X114629743Y-113325080D01*
X114638503Y-113315520D01*
X120951429Y-107002595D01*
X120960990Y-106993835D01*
X120989091Y-106970257D01*
X121007443Y-106938467D01*
X121014406Y-106927539D01*
X121035450Y-106897486D01*
X121035450Y-106897483D01*
X121037207Y-106894975D01*
X121045954Y-106873860D01*
X121052856Y-106834716D01*
X121055665Y-106822039D01*
X121065160Y-106786609D01*
X121064302Y-106776808D01*
X121077694Y-106700855D01*
X121127270Y-106641771D01*
X121199746Y-106615390D01*
X121269756Y-106626165D01*
X121276637Y-106629015D01*
X121276641Y-106629018D01*
X121422720Y-106689526D01*
X121579482Y-106710164D01*
X121736244Y-106689526D01*
X121882323Y-106629018D01*
X121934795Y-106588754D01*
X122006051Y-106559239D01*
X122082519Y-106569306D01*
X122143709Y-106616258D01*
X122173225Y-106687515D01*
X122174500Y-106706964D01*
X122174500Y-117479279D01*
X122173933Y-117492266D01*
X122170735Y-117528809D01*
X122180229Y-117564240D01*
X122183042Y-117576925D01*
X122189943Y-117616060D01*
X122198690Y-117637177D01*
X122200446Y-117639684D01*
X122221487Y-117669734D01*
X122228460Y-117680681D01*
X122246806Y-117712455D01*
X122272760Y-117734233D01*
X122274905Y-117736033D01*
X122284488Y-117744814D01*
X123505186Y-118965512D01*
X123513967Y-118975095D01*
X123537545Y-119003194D01*
X123569310Y-119021534D01*
X123580271Y-119028517D01*
X123612822Y-119051309D01*
X123633940Y-119060057D01*
X123673068Y-119066956D01*
X123685746Y-119069765D01*
X123721193Y-119079264D01*
X123757733Y-119076066D01*
X123770720Y-119075500D01*
X125463413Y-119075500D01*
X125537913Y-119095462D01*
X125592451Y-119150000D01*
X125600518Y-119174215D01*
X125602459Y-119173450D01*
X125661734Y-119323763D01*
X125661735Y-119323764D01*
X125747775Y-119437225D01*
X125861236Y-119523265D01*
X125993703Y-119575503D01*
X126076948Y-119585500D01*
X126081401Y-119585500D01*
X128468599Y-119585500D01*
X128473052Y-119585500D01*
X128556297Y-119575503D01*
X128688764Y-119523265D01*
X128802225Y-119437225D01*
X128888265Y-119323764D01*
X128940503Y-119191297D01*
X128950500Y-119108052D01*
X128950500Y-118391948D01*
X128940503Y-118308703D01*
X128888265Y-118176236D01*
X128802225Y-118062775D01*
X128688764Y-117976735D01*
X128688763Y-117976734D01*
X128556295Y-117924496D01*
X128477476Y-117915031D01*
X128477471Y-117915030D01*
X128473052Y-117914500D01*
X126076948Y-117914500D01*
X126072529Y-117915030D01*
X126072523Y-117915031D01*
X125993704Y-117924496D01*
X125861236Y-117976734D01*
X125747775Y-118062775D01*
X125661734Y-118176236D01*
X125602459Y-118326550D01*
X125598613Y-118325033D01*
X125582639Y-118364866D01*
X125521983Y-118412506D01*
X125463413Y-118424500D01*
X123946544Y-118424500D01*
X123872044Y-118404538D01*
X123841185Y-118380859D01*
X123060587Y-117600261D01*
X123022023Y-117533466D01*
X123022023Y-117456338D01*
X123060587Y-117389543D01*
X123127382Y-117350979D01*
X123185395Y-117347177D01*
X123250000Y-117355682D01*
X123406762Y-117335044D01*
X123552841Y-117274536D01*
X123678282Y-117178282D01*
X123708534Y-117138855D01*
X123712418Y-117133795D01*
X123773608Y-117086842D01*
X123830628Y-117075500D01*
X125463413Y-117075500D01*
X125537913Y-117095462D01*
X125592451Y-117150000D01*
X125600518Y-117174215D01*
X125602459Y-117173450D01*
X125661734Y-117323763D01*
X125661735Y-117323764D01*
X125747775Y-117437225D01*
X125861236Y-117523265D01*
X125993703Y-117575503D01*
X126076948Y-117585500D01*
X126081401Y-117585500D01*
X128468599Y-117585500D01*
X128473052Y-117585500D01*
X128556297Y-117575503D01*
X128688764Y-117523265D01*
X128802225Y-117437225D01*
X128888265Y-117323764D01*
X128940503Y-117191297D01*
X128950500Y-117108052D01*
X128950500Y-116391948D01*
X128940503Y-116308703D01*
X128888265Y-116176236D01*
X128802225Y-116062775D01*
X128688764Y-115976735D01*
X128688763Y-115976734D01*
X128556295Y-115924496D01*
X128477476Y-115915031D01*
X128477471Y-115915030D01*
X128473052Y-115914500D01*
X126076948Y-115914500D01*
X126072529Y-115915030D01*
X126072523Y-115915031D01*
X125993704Y-115924496D01*
X125861236Y-115976734D01*
X125747775Y-116062775D01*
X125661734Y-116176236D01*
X125602459Y-116326550D01*
X125598613Y-116325033D01*
X125582639Y-116364866D01*
X125521983Y-116412506D01*
X125463413Y-116424500D01*
X123830628Y-116424500D01*
X123756128Y-116404538D01*
X123712418Y-116366205D01*
X123678282Y-116321718D01*
X123552841Y-116225464D01*
X123406760Y-116164955D01*
X123249999Y-116144317D01*
X123093238Y-116164955D01*
X123031520Y-116190520D01*
X122955051Y-116200587D01*
X122883794Y-116171071D01*
X122836842Y-116109882D01*
X122825500Y-116052862D01*
X122825500Y-106712854D01*
X122845462Y-106638354D01*
X122900000Y-106583816D01*
X122974500Y-106563854D01*
X123031518Y-106575195D01*
X123149270Y-106623970D01*
X123187606Y-106629017D01*
X123306031Y-106644608D01*
X123306031Y-106644607D01*
X123306032Y-106644608D01*
X123462794Y-106623970D01*
X123608873Y-106563462D01*
X123734314Y-106467208D01*
X123830568Y-106341767D01*
X123891076Y-106195688D01*
X123911714Y-106038926D01*
X123891076Y-105882164D01*
X123830568Y-105736085D01*
X123734314Y-105610644D01*
X123608873Y-105514390D01*
X123578959Y-105501999D01*
X123462792Y-105453881D01*
X123306032Y-105433243D01*
X123149269Y-105453881D01*
X123031519Y-105502655D01*
X122955051Y-105512722D01*
X122883794Y-105483206D01*
X122836842Y-105422016D01*
X122825500Y-105364997D01*
X122825500Y-104867770D01*
X122825500Y-104344137D01*
X122845461Y-104269641D01*
X122899999Y-104215103D01*
X122974499Y-104195141D01*
X123048999Y-104215103D01*
X123079858Y-104238782D01*
X124909770Y-106068694D01*
X124948334Y-106135489D01*
X124952137Y-106193500D01*
X124944817Y-106249100D01*
X124965455Y-106405858D01*
X124990867Y-106467207D01*
X125025964Y-106551939D01*
X125122218Y-106677380D01*
X125247659Y-106773634D01*
X125393738Y-106834142D01*
X125472119Y-106844460D01*
X125550499Y-106854780D01*
X125550499Y-106854779D01*
X125550500Y-106854780D01*
X125707262Y-106834142D01*
X125853341Y-106773634D01*
X125978782Y-106677380D01*
X126075036Y-106551939D01*
X126135544Y-106405860D01*
X126156182Y-106249098D01*
X126149150Y-106195688D01*
X126135544Y-106092337D01*
X126135544Y-106092336D01*
X126075036Y-105946257D01*
X125978782Y-105820816D01*
X125853341Y-105724562D01*
X125707262Y-105664054D01*
X125707260Y-105664053D01*
X125550502Y-105643415D01*
X125494902Y-105650735D01*
X125418434Y-105640666D01*
X125370096Y-105608368D01*
X123319141Y-103557412D01*
X123280577Y-103490617D01*
X123275500Y-103452053D01*
X123275500Y-101878645D01*
X124735784Y-101878645D01*
X124756422Y-102035406D01*
X124756423Y-102035408D01*
X124816931Y-102181487D01*
X124913185Y-102306928D01*
X124985466Y-102362391D01*
X125032419Y-102423581D01*
X125042486Y-102500049D01*
X125032419Y-102537621D01*
X124965455Y-102699285D01*
X124944817Y-102856046D01*
X124965455Y-103012806D01*
X124987430Y-103065857D01*
X125025964Y-103158887D01*
X125122218Y-103284328D01*
X125247659Y-103380582D01*
X125393738Y-103441090D01*
X125550500Y-103461728D01*
X125707262Y-103441090D01*
X125853341Y-103380582D01*
X125978782Y-103284328D01*
X126075036Y-103158887D01*
X126135544Y-103012808D01*
X126151048Y-102895043D01*
X126153381Y-102877325D01*
X126182896Y-102806068D01*
X126244086Y-102759115D01*
X126320554Y-102749048D01*
X126391811Y-102778563D01*
X126438764Y-102839753D01*
X126448831Y-102877325D01*
X126465937Y-103007260D01*
X126465938Y-103007262D01*
X126526446Y-103153341D01*
X126622700Y-103278782D01*
X126748141Y-103375036D01*
X126894220Y-103435544D01*
X127050982Y-103456182D01*
X127207744Y-103435544D01*
X127353823Y-103375036D01*
X127479264Y-103278782D01*
X127575518Y-103153341D01*
X127636026Y-103007262D01*
X127656664Y-102850500D01*
X127650814Y-102806068D01*
X127640190Y-102725367D01*
X127636026Y-102693738D01*
X127575518Y-102547659D01*
X127479264Y-102422218D01*
X127353823Y-102325964D01*
X127307864Y-102306927D01*
X127207742Y-102265455D01*
X127079376Y-102248555D01*
X127008119Y-102219039D01*
X126961167Y-102157849D01*
X126951100Y-102120278D01*
X126930335Y-101962556D01*
X126903064Y-101896718D01*
X126869827Y-101816476D01*
X126773573Y-101691035D01*
X126648132Y-101594781D01*
X126648131Y-101594780D01*
X126634130Y-101584037D01*
X126587177Y-101522847D01*
X126577110Y-101446379D01*
X126587174Y-101408813D01*
X126624119Y-101319623D01*
X126644757Y-101162861D01*
X126624119Y-101006099D01*
X126563611Y-100860020D01*
X126563610Y-100860019D01*
X126556104Y-100841897D01*
X126556500Y-100841732D01*
X126535104Y-100790078D01*
X126545171Y-100713610D01*
X126592123Y-100652420D01*
X126663380Y-100622904D01*
X126663381Y-100622904D01*
X126719827Y-100615472D01*
X126757262Y-100610544D01*
X126903341Y-100550036D01*
X127028782Y-100453782D01*
X127125036Y-100328341D01*
X127185544Y-100182262D01*
X127206182Y-100025500D01*
X127185544Y-99868738D01*
X127125036Y-99722659D01*
X127028782Y-99597218D01*
X126903341Y-99500964D01*
X126799547Y-99457971D01*
X126757260Y-99440455D01*
X126600499Y-99419817D01*
X126443739Y-99440455D01*
X126297658Y-99500964D01*
X126172218Y-99597218D01*
X126075964Y-99722658D01*
X126015455Y-99868739D01*
X125994817Y-100025500D01*
X126015455Y-100182260D01*
X126083471Y-100346464D01*
X126083074Y-100346628D01*
X126104470Y-100398283D01*
X126094403Y-100474751D01*
X126047450Y-100535941D01*
X125976195Y-100565456D01*
X125882313Y-100577816D01*
X125736233Y-100638325D01*
X125610793Y-100734579D01*
X125514539Y-100860019D01*
X125454030Y-101006099D01*
X125435186Y-101149237D01*
X125405671Y-101220494D01*
X125344481Y-101267446D01*
X125306909Y-101277513D01*
X125184706Y-101293601D01*
X125038625Y-101354110D01*
X124913185Y-101450364D01*
X124816931Y-101575804D01*
X124756422Y-101721885D01*
X124735784Y-101878645D01*
X123275500Y-101878645D01*
X123275500Y-101031307D01*
X123276067Y-101018321D01*
X123279263Y-100981789D01*
X123269770Y-100946362D01*
X123266957Y-100933670D01*
X123262212Y-100906762D01*
X123260588Y-100897551D01*
X123260587Y-100897549D01*
X123260056Y-100894537D01*
X123251310Y-100873419D01*
X123228515Y-100840864D01*
X123221531Y-100829902D01*
X123203193Y-100798140D01*
X123175100Y-100774567D01*
X123165517Y-100765786D01*
X122541299Y-100141568D01*
X121901340Y-99501609D01*
X121862778Y-99434817D01*
X121857702Y-99396259D01*
X121857702Y-99224606D01*
X121858269Y-99211621D01*
X121861466Y-99175082D01*
X121851967Y-99139635D01*
X121849158Y-99126957D01*
X121842259Y-99087829D01*
X121833511Y-99066711D01*
X121810719Y-99034160D01*
X121803736Y-99023199D01*
X121785396Y-98991434D01*
X121757296Y-98967855D01*
X121747713Y-98959074D01*
X120823126Y-98034487D01*
X120814343Y-98024902D01*
X120790767Y-97996804D01*
X120758999Y-97978463D01*
X120748038Y-97971480D01*
X120715492Y-97948691D01*
X120694373Y-97939943D01*
X120655238Y-97933042D01*
X120642553Y-97930229D01*
X120607120Y-97920735D01*
X120592163Y-97922044D01*
X120516207Y-97908651D01*
X120460968Y-97864316D01*
X120428281Y-97821717D01*
X120302841Y-97725464D01*
X120156760Y-97664955D01*
X119999998Y-97644317D01*
X119940994Y-97652085D01*
X119864526Y-97642018D01*
X119803337Y-97595065D01*
X119773822Y-97523808D01*
X119753407Y-97368738D01*
X119733051Y-97319595D01*
X119692899Y-97222659D01*
X119596645Y-97097218D01*
X119571898Y-97078229D01*
X119470646Y-97000535D01*
X119423694Y-96939346D01*
X119413627Y-96862877D01*
X119443143Y-96791620D01*
X119504332Y-96744668D01*
X119514486Y-96740889D01*
X119678482Y-96686547D01*
X119822730Y-96597573D01*
X119894641Y-96525663D01*
X119961436Y-96487099D01*
X120038564Y-96487099D01*
X120105359Y-96525663D01*
X120177269Y-96597573D01*
X120321516Y-96686547D01*
X120482395Y-96739856D01*
X120577899Y-96749613D01*
X120585483Y-96749999D01*
X120630000Y-96749999D01*
X120630000Y-96050000D01*
X121130000Y-96050000D01*
X121130000Y-96749999D01*
X121174527Y-96749999D01*
X121182074Y-96749614D01*
X121277608Y-96739855D01*
X121438483Y-96686547D01*
X121582730Y-96597573D01*
X121649639Y-96530664D01*
X121716434Y-96492099D01*
X121793562Y-96492099D01*
X121860357Y-96530662D01*
X121927268Y-96597572D01*
X122071516Y-96686547D01*
X122232395Y-96739856D01*
X122327899Y-96749613D01*
X122335483Y-96749999D01*
X122380000Y-96749999D01*
X122380000Y-96050000D01*
X122880000Y-96050000D01*
X122880000Y-96749999D01*
X122924527Y-96749999D01*
X122932074Y-96749614D01*
X123027608Y-96739855D01*
X123188483Y-96686547D01*
X123332730Y-96597573D01*
X123399639Y-96530664D01*
X123466434Y-96492099D01*
X123543562Y-96492099D01*
X123610357Y-96530662D01*
X123677268Y-96597572D01*
X123821516Y-96686547D01*
X123982395Y-96739856D01*
X124077899Y-96749613D01*
X124085483Y-96749999D01*
X124130000Y-96749999D01*
X124130000Y-96050000D01*
X124630000Y-96050000D01*
X124630000Y-96749999D01*
X124674527Y-96749999D01*
X124682074Y-96749614D01*
X124777608Y-96739855D01*
X124938483Y-96686547D01*
X125082730Y-96597573D01*
X125202573Y-96477730D01*
X125291547Y-96333483D01*
X125294358Y-96325000D01*
X126294317Y-96325000D01*
X126314955Y-96481760D01*
X126333140Y-96525663D01*
X126375464Y-96627841D01*
X126471718Y-96753282D01*
X126597159Y-96849536D01*
X126743238Y-96910044D01*
X126900000Y-96930682D01*
X127056762Y-96910044D01*
X127202841Y-96849536D01*
X127328282Y-96753282D01*
X127424536Y-96627841D01*
X127485044Y-96481762D01*
X127505682Y-96325000D01*
X127485044Y-96168238D01*
X127424536Y-96022159D01*
X127328282Y-95896718D01*
X127202841Y-95800464D01*
X127184524Y-95792877D01*
X127056760Y-95739955D01*
X126900000Y-95719317D01*
X126743239Y-95739955D01*
X126597158Y-95800464D01*
X126471718Y-95896718D01*
X126375464Y-96022158D01*
X126314955Y-96168239D01*
X126294317Y-96325000D01*
X125294358Y-96325000D01*
X125344856Y-96172604D01*
X125354613Y-96077101D01*
X125355000Y-96069514D01*
X125355000Y-96050000D01*
X124630000Y-96050000D01*
X124130000Y-96050000D01*
X122880000Y-96050000D01*
X122380000Y-96050000D01*
X121130000Y-96050000D01*
X120630000Y-96050000D01*
X118145001Y-96050000D01*
X118145001Y-96069527D01*
X118145386Y-96077094D01*
X118149587Y-96118213D01*
X118137300Y-96194356D01*
X118092065Y-96251565D01*
X118021218Y-96305927D01*
X117924964Y-96431369D01*
X117864455Y-96577450D01*
X117843817Y-96734211D01*
X117851136Y-96789807D01*
X117841069Y-96866275D01*
X117808770Y-96914613D01*
X116384552Y-98338832D01*
X116317757Y-98377396D01*
X116240629Y-98377396D01*
X116173834Y-98338832D01*
X116160983Y-98324178D01*
X116160675Y-98323777D01*
X116128782Y-98282212D01*
X116123011Y-98277784D01*
X116003341Y-98185958D01*
X115857260Y-98125449D01*
X115700499Y-98104811D01*
X115543739Y-98125449D01*
X115507020Y-98140659D01*
X115430552Y-98150726D01*
X115359295Y-98121211D01*
X115312342Y-98060021D01*
X115301000Y-98003001D01*
X115301000Y-94803543D01*
X115320962Y-94729043D01*
X115344641Y-94698184D01*
X116898685Y-93144141D01*
X116965480Y-93105577D01*
X117004044Y-93100500D01*
X117534246Y-93100500D01*
X117541070Y-93099419D01*
X117617776Y-93107480D01*
X117680174Y-93152813D01*
X117711546Y-93223273D01*
X117712106Y-93266032D01*
X117697876Y-93374120D01*
X117718514Y-93530881D01*
X117779023Y-93676962D01*
X117835243Y-93750230D01*
X117864758Y-93821487D01*
X117854691Y-93897955D01*
X117807738Y-93959145D01*
X117736481Y-93988660D01*
X117660013Y-93978593D01*
X117649394Y-93973698D01*
X117632420Y-93965049D01*
X117534246Y-93949500D01*
X116705754Y-93949500D01*
X116607580Y-93965048D01*
X116607580Y-93965049D01*
X116489248Y-94025342D01*
X116395342Y-94119248D01*
X116372053Y-94164955D01*
X116335049Y-94237580D01*
X116319500Y-94335754D01*
X116319500Y-94839246D01*
X116335049Y-94937420D01*
X116395342Y-95055751D01*
X116489249Y-95149658D01*
X116607580Y-95209951D01*
X116705754Y-95225500D01*
X116705756Y-95225500D01*
X117534244Y-95225500D01*
X117534246Y-95225500D01*
X117632420Y-95209951D01*
X117750751Y-95149658D01*
X117844658Y-95055751D01*
X117875941Y-94994354D01*
X117927548Y-94937039D01*
X118000901Y-94913204D01*
X118008700Y-94913000D01*
X118159537Y-94913000D01*
X118234037Y-94932962D01*
X118288575Y-94987500D01*
X118308537Y-95062000D01*
X118288575Y-95136500D01*
X118286353Y-95140222D01*
X118208452Y-95266516D01*
X118155143Y-95427395D01*
X118145386Y-95522898D01*
X118145000Y-95530485D01*
X118145000Y-95550000D01*
X121453213Y-95550000D01*
X121510232Y-95561341D01*
X121598238Y-95597795D01*
X121676618Y-95608113D01*
X121754999Y-95618433D01*
X121754999Y-95618432D01*
X121755000Y-95618433D01*
X121911762Y-95597795D01*
X121999767Y-95561341D01*
X122056787Y-95550000D01*
X123157073Y-95550000D01*
X123214093Y-95561342D01*
X123275850Y-95586922D01*
X123340881Y-95613859D01*
X123419262Y-95624178D01*
X123497642Y-95634497D01*
X123497642Y-95634496D01*
X123497643Y-95634497D01*
X123654405Y-95613859D01*
X123740372Y-95578249D01*
X123781193Y-95561342D01*
X123838213Y-95550000D01*
X125354999Y-95550000D01*
X125354999Y-95530472D01*
X125354614Y-95522925D01*
X125344855Y-95427391D01*
X125291547Y-95266516D01*
X125202573Y-95122269D01*
X125082732Y-95002428D01*
X125009067Y-94956990D01*
X124956139Y-94900888D01*
X124938353Y-94825839D01*
X124960474Y-94751951D01*
X124977238Y-94730750D01*
X124978526Y-94728221D01*
X124978528Y-94728220D01*
X125014889Y-94656856D01*
X125066499Y-94599538D01*
X125139852Y-94575704D01*
X125147650Y-94575500D01*
X125497389Y-94575500D01*
X125571889Y-94595462D01*
X125626427Y-94650000D01*
X125646389Y-94724500D01*
X125645114Y-94743948D01*
X125644317Y-94749999D01*
X125664955Y-94906760D01*
X125698399Y-94987500D01*
X125725464Y-95052841D01*
X125821718Y-95178282D01*
X125947159Y-95274536D01*
X126093238Y-95335044D01*
X126171618Y-95345363D01*
X126249999Y-95355682D01*
X126249999Y-95355681D01*
X126250000Y-95355682D01*
X126406762Y-95335044D01*
X126552841Y-95274536D01*
X126678282Y-95178282D01*
X126774536Y-95052841D01*
X126835044Y-94906762D01*
X126855682Y-94750000D01*
X126835044Y-94593238D01*
X126774536Y-94447159D01*
X126678282Y-94321718D01*
X126552841Y-94225464D01*
X126406762Y-94164956D01*
X126406760Y-94164955D01*
X126250002Y-94144317D01*
X126194402Y-94151637D01*
X126117934Y-94141568D01*
X126069596Y-94109270D01*
X125994813Y-94034487D01*
X125986030Y-94024902D01*
X125962454Y-93996804D01*
X125930686Y-93978463D01*
X125919725Y-93971480D01*
X125887179Y-93948691D01*
X125866060Y-93939943D01*
X125826925Y-93933042D01*
X125814240Y-93930229D01*
X125778809Y-93920735D01*
X125742267Y-93923933D01*
X125729280Y-93924500D01*
X125147650Y-93924500D01*
X125073150Y-93904538D01*
X125018612Y-93850000D01*
X125014890Y-93843144D01*
X124978528Y-93771780D01*
X124883220Y-93676472D01*
X124794339Y-93631185D01*
X124763126Y-93615281D01*
X124663488Y-93599500D01*
X124096512Y-93599500D01*
X123996874Y-93615281D01*
X123876779Y-93676472D01*
X123781471Y-93771780D01*
X123745110Y-93843144D01*
X123693501Y-93900462D01*
X123620148Y-93924296D01*
X123612350Y-93924500D01*
X123397650Y-93924500D01*
X123323150Y-93904538D01*
X123268612Y-93850000D01*
X123264890Y-93843144D01*
X123228528Y-93771780D01*
X123133220Y-93676472D01*
X123044339Y-93631185D01*
X123013126Y-93615281D01*
X122913488Y-93599500D01*
X122346512Y-93599500D01*
X122246873Y-93615280D01*
X122246874Y-93615281D01*
X122126779Y-93676472D01*
X122031471Y-93771780D01*
X121995110Y-93843144D01*
X121943501Y-93900462D01*
X121870148Y-93924296D01*
X121862350Y-93924500D01*
X121647650Y-93924500D01*
X121573150Y-93904538D01*
X121518612Y-93850000D01*
X121514890Y-93843144D01*
X121478528Y-93771780D01*
X121383220Y-93676472D01*
X121294339Y-93631185D01*
X121237022Y-93579576D01*
X121213188Y-93506223D01*
X121229224Y-93430780D01*
X121280833Y-93373463D01*
X121283763Y-93371608D01*
X121322732Y-93347571D01*
X121442573Y-93227730D01*
X121531547Y-93083483D01*
X121584856Y-92922604D01*
X121594613Y-92827101D01*
X121595000Y-92819514D01*
X121595000Y-92775000D01*
X120544000Y-92775000D01*
X120469500Y-92755038D01*
X120414962Y-92700500D01*
X120395000Y-92626000D01*
X120395000Y-92424000D01*
X120414962Y-92349500D01*
X120469500Y-92294962D01*
X120544000Y-92275000D01*
X121594998Y-92275000D01*
X121594999Y-92230472D01*
X121594614Y-92222925D01*
X121584855Y-92127391D01*
X121531547Y-91966516D01*
X121442571Y-91822266D01*
X121357915Y-91737609D01*
X121319351Y-91670814D01*
X121319351Y-91593686D01*
X121325612Y-91575241D01*
X121339746Y-91541118D01*
X121386699Y-91479931D01*
X121457957Y-91450416D01*
X121534425Y-91460485D01*
X121582762Y-91492783D01*
X122055991Y-91966012D01*
X122064772Y-91975595D01*
X122088350Y-92003694D01*
X122120115Y-92022034D01*
X122131076Y-92029017D01*
X122163627Y-92051809D01*
X122184745Y-92060557D01*
X122223873Y-92067456D01*
X122236566Y-92070270D01*
X122271996Y-92079764D01*
X122271997Y-92079763D01*
X122271998Y-92079764D01*
X122308541Y-92076567D01*
X122321528Y-92076000D01*
X123694872Y-92076000D01*
X123769372Y-92095962D01*
X123813082Y-92134295D01*
X123847218Y-92178782D01*
X123972659Y-92275036D01*
X124118738Y-92335544D01*
X124197119Y-92345862D01*
X124275499Y-92356182D01*
X124275499Y-92356181D01*
X124275500Y-92356182D01*
X124432262Y-92335544D01*
X124578341Y-92275036D01*
X124703782Y-92178782D01*
X124800036Y-92053341D01*
X124860544Y-91907262D01*
X124881182Y-91750500D01*
X124860544Y-91593738D01*
X124800036Y-91447659D01*
X124703782Y-91322218D01*
X124578341Y-91225964D01*
X124432262Y-91165456D01*
X124432260Y-91165455D01*
X124408426Y-91162317D01*
X124337169Y-91132800D01*
X124290218Y-91071609D01*
X124280152Y-90995141D01*
X124300834Y-90936739D01*
X124372363Y-90820015D01*
X124470246Y-90583705D01*
X124529956Y-90334993D01*
X124550024Y-90080000D01*
X124529956Y-89825006D01*
X124470246Y-89576294D01*
X124372363Y-89339984D01*
X124238717Y-89121895D01*
X124235464Y-89118087D01*
X123671232Y-89682318D01*
X123627684Y-89600178D01*
X123507991Y-89459265D01*
X123360805Y-89347377D01*
X123318595Y-89327848D01*
X123881911Y-88764533D01*
X123878103Y-88761281D01*
X123660016Y-88627636D01*
X123423705Y-88529753D01*
X123174993Y-88470043D01*
X122920000Y-88449975D01*
X122665006Y-88470043D01*
X122416294Y-88529753D01*
X122179980Y-88627637D01*
X121961899Y-88761278D01*
X121958087Y-88764533D01*
X122521391Y-89327837D01*
X122402569Y-89399331D01*
X122268342Y-89526477D01*
X122165138Y-89678691D01*
X121604533Y-89118087D01*
X121601278Y-89121899D01*
X121467637Y-89339980D01*
X121369753Y-89576294D01*
X121310043Y-89825006D01*
X121300789Y-89942589D01*
X121275043Y-90015294D01*
X121216394Y-90065384D01*
X121140558Y-90079440D01*
X121067853Y-90053694D01*
X121046889Y-90036258D01*
X116669141Y-85658510D01*
X116630577Y-85591715D01*
X116625500Y-85553151D01*
X116625500Y-85000000D01*
X121289975Y-85000000D01*
X121310043Y-85254993D01*
X121369753Y-85503705D01*
X121467636Y-85740016D01*
X121601281Y-85958103D01*
X121604533Y-85961911D01*
X122168766Y-85397678D01*
X122212316Y-85479822D01*
X122332009Y-85620735D01*
X122479195Y-85732623D01*
X122521402Y-85752150D01*
X121958087Y-86315464D01*
X121961895Y-86318717D01*
X122179984Y-86452363D01*
X122416294Y-86550246D01*
X122665006Y-86609956D01*
X122920000Y-86630024D01*
X123174993Y-86609956D01*
X123423705Y-86550246D01*
X123660015Y-86452363D01*
X123878104Y-86318717D01*
X123881911Y-86315464D01*
X123318609Y-85752162D01*
X123437431Y-85680669D01*
X123571658Y-85553523D01*
X123674861Y-85401308D01*
X124235464Y-85961911D01*
X124238717Y-85958104D01*
X124372363Y-85740015D01*
X124470246Y-85503705D01*
X124529956Y-85254993D01*
X124550024Y-84999999D01*
X124529956Y-84745006D01*
X124470246Y-84496294D01*
X124372363Y-84259984D01*
X124238717Y-84041895D01*
X124235464Y-84038087D01*
X123671232Y-84602319D01*
X123627684Y-84520178D01*
X123507991Y-84379265D01*
X123360805Y-84267377D01*
X123318595Y-84247848D01*
X123881911Y-83684533D01*
X123878103Y-83681281D01*
X123660016Y-83547636D01*
X123423705Y-83449753D01*
X123174993Y-83390043D01*
X122919999Y-83369975D01*
X122665006Y-83390043D01*
X122416294Y-83449753D01*
X122179980Y-83547637D01*
X121961899Y-83681278D01*
X121958087Y-83684533D01*
X122521391Y-84247837D01*
X122402569Y-84319331D01*
X122268342Y-84446477D01*
X122165138Y-84598691D01*
X121604533Y-84038087D01*
X121601278Y-84041899D01*
X121467637Y-84259980D01*
X121369753Y-84496294D01*
X121310043Y-84745006D01*
X121289975Y-85000000D01*
X116625500Y-85000000D01*
X116625500Y-78468936D01*
X124645668Y-78468936D01*
X124676134Y-78641711D01*
X124711751Y-78724279D01*
X124745623Y-78802804D01*
X124850390Y-78943530D01*
X124984786Y-79056302D01*
X125141567Y-79135040D01*
X125312279Y-79175500D01*
X125312280Y-79175500D01*
X125439365Y-79175500D01*
X125443709Y-79175500D01*
X125574255Y-79160241D01*
X125739117Y-79100237D01*
X125885696Y-79003830D01*
X126006092Y-78876218D01*
X126093812Y-78724281D01*
X126144130Y-78556210D01*
X126154331Y-78381065D01*
X126138941Y-78293788D01*
X126123865Y-78208288D01*
X126102923Y-78159741D01*
X126054377Y-78047196D01*
X125949610Y-77906470D01*
X125815214Y-77793698D01*
X125815213Y-77793697D01*
X125658435Y-77714961D01*
X125658434Y-77714960D01*
X125658433Y-77714960D01*
X125487721Y-77674500D01*
X125356291Y-77674500D01*
X125351988Y-77675002D01*
X125351987Y-77675003D01*
X125225741Y-77689759D01*
X125060885Y-77749761D01*
X124914304Y-77846170D01*
X124793908Y-77973782D01*
X124706186Y-78125720D01*
X124655870Y-78293788D01*
X124645668Y-78468936D01*
X116625500Y-78468936D01*
X116625500Y-74005627D01*
X116645462Y-73931127D01*
X116683792Y-73887419D01*
X116728282Y-73853282D01*
X116824536Y-73727841D01*
X116885044Y-73581762D01*
X116905682Y-73425000D01*
X116885044Y-73268238D01*
X116824536Y-73122159D01*
X116728282Y-72996718D01*
X116602841Y-72900464D01*
X116456762Y-72839956D01*
X116456760Y-72839955D01*
X116299999Y-72819317D01*
X116143239Y-72839955D01*
X115997158Y-72900464D01*
X115871718Y-72996718D01*
X115775464Y-73122158D01*
X115714955Y-73268239D01*
X115694317Y-73425000D01*
X115714955Y-73581760D01*
X115750805Y-73668308D01*
X115775464Y-73727841D01*
X115871718Y-73853282D01*
X115916206Y-73887418D01*
X115963157Y-73948606D01*
X115974500Y-74005627D01*
X115974500Y-85728974D01*
X115973933Y-85741961D01*
X115970735Y-85778504D01*
X115980229Y-85813935D01*
X115983042Y-85826620D01*
X115989943Y-85865755D01*
X115998690Y-85886872D01*
X116008817Y-85901334D01*
X116021487Y-85919429D01*
X116028460Y-85930376D01*
X116046806Y-85962150D01*
X116072760Y-85983928D01*
X116074905Y-85985728D01*
X116084488Y-85994509D01*
X120582216Y-90492237D01*
X120620780Y-90559032D01*
X120620780Y-90636160D01*
X120582216Y-90702955D01*
X120533879Y-90735253D01*
X120497160Y-90750463D01*
X120371718Y-90846718D01*
X120275464Y-90972158D01*
X120214955Y-91118239D01*
X120194317Y-91275000D01*
X120217472Y-91450878D01*
X120207405Y-91527346D01*
X120160452Y-91588536D01*
X120116618Y-91611762D01*
X120111517Y-91613452D01*
X119967269Y-91702426D01*
X119847426Y-91822269D01*
X119801991Y-91895931D01*
X119745890Y-91948859D01*
X119670841Y-91966646D01*
X119596953Y-91944525D01*
X119575754Y-91927763D01*
X119513280Y-91895931D01*
X119453126Y-91865281D01*
X119353488Y-91849500D01*
X118836512Y-91849500D01*
X118736874Y-91865281D01*
X118616779Y-91926472D01*
X118521472Y-92021779D01*
X118509416Y-92045440D01*
X118504218Y-92055644D01*
X118504217Y-92055645D01*
X118452608Y-92112962D01*
X118379255Y-92136796D01*
X118371457Y-92137000D01*
X118008700Y-92137000D01*
X117934200Y-92117038D01*
X117879662Y-92062500D01*
X117875940Y-92055644D01*
X117875009Y-92053817D01*
X117844658Y-91994249D01*
X117750751Y-91900342D01*
X117632420Y-91840049D01*
X117534246Y-91824500D01*
X116705754Y-91824500D01*
X116607580Y-91840049D01*
X116489248Y-91900342D01*
X116395342Y-91994248D01*
X116335049Y-92112580D01*
X116319500Y-92210756D01*
X116319500Y-92714245D01*
X116319715Y-92715603D01*
X116319500Y-92717647D01*
X116319500Y-92725972D01*
X116318625Y-92725972D01*
X116311649Y-92792309D01*
X116277907Y-92844265D01*
X114759984Y-94362188D01*
X114750403Y-94370968D01*
X114722305Y-94394545D01*
X114703960Y-94426319D01*
X114696980Y-94437275D01*
X114674192Y-94469821D01*
X114665442Y-94490944D01*
X114658542Y-94530076D01*
X114655729Y-94542761D01*
X114646235Y-94578191D01*
X114649433Y-94614732D01*
X114650000Y-94627719D01*
X114650000Y-100028877D01*
X114649433Y-100041864D01*
X114646235Y-100078407D01*
X114655729Y-100113838D01*
X114658542Y-100126523D01*
X114665443Y-100165658D01*
X114674190Y-100186775D01*
X114675946Y-100189282D01*
X114696987Y-100219332D01*
X114703960Y-100230279D01*
X114722306Y-100262053D01*
X114747999Y-100283612D01*
X114750405Y-100285631D01*
X114759988Y-100294412D01*
X115047471Y-100581895D01*
X115086035Y-100648690D01*
X115089838Y-100706701D01*
X115082518Y-100762301D01*
X115103156Y-100919059D01*
X115103157Y-100919061D01*
X115163665Y-101065140D01*
X115259919Y-101190581D01*
X115385360Y-101286835D01*
X115531439Y-101347343D01*
X115609819Y-101357661D01*
X115688200Y-101367981D01*
X115688200Y-101367980D01*
X115688201Y-101367981D01*
X115844963Y-101347343D01*
X115991042Y-101286835D01*
X116116483Y-101190581D01*
X116212737Y-101065140D01*
X116273245Y-100919061D01*
X116293883Y-100762299D01*
X116273245Y-100605537D01*
X116212737Y-100459458D01*
X116132480Y-100354865D01*
X116102967Y-100283612D01*
X116113034Y-100207143D01*
X116132478Y-100173464D01*
X116225036Y-100052841D01*
X116285544Y-99906762D01*
X116306182Y-99750000D01*
X116285544Y-99593238D01*
X116225036Y-99447159D01*
X116180758Y-99389455D01*
X116128194Y-99320951D01*
X116098679Y-99249694D01*
X116108746Y-99173226D01*
X116128196Y-99139539D01*
X116128780Y-99138776D01*
X116128782Y-99138776D01*
X116145061Y-99117559D01*
X116162920Y-99094287D01*
X116224110Y-99047335D01*
X116281128Y-99035994D01*
X116452497Y-99035994D01*
X116465483Y-99036560D01*
X116502024Y-99039758D01*
X116537470Y-99030259D01*
X116550134Y-99027451D01*
X116586262Y-99021082D01*
X116586263Y-99021081D01*
X116589282Y-99020549D01*
X116610388Y-99011806D01*
X116612897Y-99010048D01*
X116612901Y-99010048D01*
X116642951Y-98989005D01*
X116653886Y-98982038D01*
X116685672Y-98963688D01*
X116709261Y-98935574D01*
X116718021Y-98926014D01*
X118269098Y-97374937D01*
X118335891Y-97336375D01*
X118393902Y-97332573D01*
X118437048Y-97338253D01*
X118508304Y-97367769D01*
X118555256Y-97428959D01*
X118565323Y-97505426D01*
X118562680Y-97525500D01*
X118569999Y-97581096D01*
X118559932Y-97657564D01*
X118527633Y-97705902D01*
X118038514Y-98195021D01*
X118028933Y-98203801D01*
X118000835Y-98227378D01*
X117982490Y-98259152D01*
X117975510Y-98270108D01*
X117952722Y-98302654D01*
X117943972Y-98323777D01*
X117937072Y-98362909D01*
X117934259Y-98375594D01*
X117924765Y-98411024D01*
X117927963Y-98447565D01*
X117928530Y-98460552D01*
X117928530Y-104782809D01*
X117927963Y-104795796D01*
X117924765Y-104832339D01*
X117934259Y-104867770D01*
X117937072Y-104880455D01*
X117943973Y-104919590D01*
X117952720Y-104940707D01*
X117962847Y-104955169D01*
X117975517Y-104973264D01*
X117982490Y-104984211D01*
X118000836Y-105015985D01*
X118026790Y-105037763D01*
X118028935Y-105039563D01*
X118038518Y-105048344D01*
X118264160Y-105273986D01*
X118302724Y-105340781D01*
X118302724Y-105417909D01*
X118264160Y-105484704D01*
X118215823Y-105517002D01*
X118179602Y-105532005D01*
X118054161Y-105628260D01*
X117957907Y-105753700D01*
X117897398Y-105899781D01*
X117876760Y-106056542D01*
X117897398Y-106213302D01*
X117897399Y-106213304D01*
X117957907Y-106359383D01*
X118054161Y-106484824D01*
X118179602Y-106581078D01*
X118325681Y-106641586D01*
X118396413Y-106650898D01*
X118482442Y-106662224D01*
X118482442Y-106662223D01*
X118482443Y-106662224D01*
X118639205Y-106641586D01*
X118785284Y-106581078D01*
X118905106Y-106489135D01*
X118976362Y-106459621D01*
X119052830Y-106469688D01*
X119086514Y-106489135D01*
X119197159Y-106574036D01*
X119269370Y-106603946D01*
X119330559Y-106650898D01*
X119360075Y-106722155D01*
X119350008Y-106798623D01*
X119317709Y-106846963D01*
X116743815Y-109420859D01*
X116677020Y-109459423D01*
X116638456Y-109464500D01*
X114319682Y-109464500D01*
X114245182Y-109444538D01*
X114190644Y-109390000D01*
X114170682Y-109315500D01*
X114179044Y-109266288D01*
X114184546Y-109250562D01*
X114199530Y-109117575D01*
X114200000Y-109109223D01*
X114200000Y-109000000D01*
X110250000Y-109000000D01*
X110250000Y-109109223D01*
X110250469Y-109117575D01*
X110265453Y-109250560D01*
X110326297Y-109424444D01*
X110409828Y-109557383D01*
X110432562Y-109631085D01*
X110415399Y-109706279D01*
X110389025Y-109742015D01*
X109287054Y-110843986D01*
X109277473Y-110852766D01*
X109249375Y-110876343D01*
X109231030Y-110908117D01*
X109224050Y-110919073D01*
X109201262Y-110951619D01*
X109192512Y-110972742D01*
X109185612Y-111011874D01*
X109182800Y-111024558D01*
X109173306Y-111059992D01*
X109176502Y-111096529D01*
X109177069Y-111109512D01*
X109177069Y-113728743D01*
X109176502Y-113741726D01*
X109174089Y-113769318D01*
X109173306Y-113778265D01*
X106967966Y-113778265D01*
X106900000Y-113769317D01*
X106743239Y-113789955D01*
X106597158Y-113850464D01*
X106471718Y-113946718D01*
X106375464Y-114072158D01*
X106314955Y-114218239D01*
X106294317Y-114375000D01*
X104728916Y-114375000D01*
X104678231Y-114341133D01*
X104678230Y-114341132D01*
X104678229Y-114341132D01*
X104619748Y-114329500D01*
X102880252Y-114329500D01*
X102821770Y-114341132D01*
X102755448Y-114385448D01*
X102711132Y-114451770D01*
X102699500Y-114510251D01*
X102699500Y-116249748D01*
X102711132Y-116308229D01*
X102711132Y-116308230D01*
X102711133Y-116308231D01*
X102755448Y-116374552D01*
X102821769Y-116418867D01*
X102880252Y-116430500D01*
X103077775Y-116430500D01*
X103152275Y-116450462D01*
X103206813Y-116505000D01*
X103226775Y-116579500D01*
X103206813Y-116654000D01*
X103152275Y-116708538D01*
X103140745Y-116714540D01*
X103072423Y-116746399D01*
X102878921Y-116881890D01*
X102711890Y-117048921D01*
X102576399Y-117242423D01*
X102476568Y-117456509D01*
X102419363Y-117669999D01*
X98002374Y-117669999D01*
X98000000Y-117669363D01*
X98000000Y-118564498D01*
X97892315Y-118515320D01*
X97785763Y-118500000D01*
X97714237Y-118500000D01*
X97607685Y-118515320D01*
X97500000Y-118564498D01*
X97500000Y-117669364D01*
X97499999Y-117669363D01*
X97286509Y-117726568D01*
X97072423Y-117826399D01*
X96878921Y-117961890D01*
X96711890Y-118128921D01*
X96576399Y-118322423D01*
X96476567Y-118536511D01*
X96466249Y-118575019D01*
X96427684Y-118641813D01*
X96360888Y-118680376D01*
X96283760Y-118680374D01*
X96216966Y-118641809D01*
X96190921Y-118606690D01*
X96173992Y-118575019D01*
X96087685Y-118413550D01*
X96066325Y-118387523D01*
X95956410Y-118253589D01*
X95796451Y-118122316D01*
X95796450Y-118122315D01*
X95613954Y-118024768D01*
X95613953Y-118024767D01*
X95613952Y-118024767D01*
X95415932Y-117964699D01*
X95210000Y-117944416D01*
X95004067Y-117964699D01*
X94806047Y-118024767D01*
X94623548Y-118122316D01*
X94463589Y-118253589D01*
X94332316Y-118413548D01*
X94234767Y-118596047D01*
X94174699Y-118794067D01*
X94154416Y-118999999D01*
X93720500Y-118999999D01*
X93720500Y-118130252D01*
X93718921Y-118122316D01*
X93708867Y-118071770D01*
X93708867Y-118071769D01*
X93664552Y-118005448D01*
X93598231Y-117961133D01*
X93598230Y-117961132D01*
X93598229Y-117961132D01*
X93539748Y-117949500D01*
X91800252Y-117949500D01*
X91741770Y-117961132D01*
X91675448Y-118005448D01*
X91631132Y-118071770D01*
X91619500Y-118130251D01*
X91619500Y-119869748D01*
X90750500Y-119869748D01*
X90750500Y-113750000D01*
X91087132Y-113750000D01*
X91996389Y-113750000D01*
X91956890Y-113774457D01*
X91889299Y-113863962D01*
X91858605Y-113971840D01*
X91868954Y-114083521D01*
X91918948Y-114183922D01*
X91991431Y-114250000D01*
X91091242Y-114250000D01*
X91118269Y-114361412D01*
X91205536Y-114552499D01*
X91327395Y-114723626D01*
X91479431Y-114868592D01*
X91656156Y-114982166D01*
X91851182Y-115060243D01*
X92057466Y-115100000D01*
X92262500Y-115100000D01*
X92262500Y-114300000D01*
X92762500Y-114300000D01*
X92762500Y-115100000D01*
X92911357Y-115100000D01*
X92918438Y-115099662D01*
X93071624Y-115085035D01*
X93273185Y-115025851D01*
X93459909Y-114929589D01*
X93625040Y-114799727D01*
X93762609Y-114640966D01*
X93867648Y-114459033D01*
X93936355Y-114260515D01*
X93937868Y-114250000D01*
X93028611Y-114250000D01*
X93068110Y-114225543D01*
X93135701Y-114136038D01*
X93166395Y-114028160D01*
X93156046Y-113916479D01*
X93106052Y-113816078D01*
X93033569Y-113750000D01*
X93933757Y-113750000D01*
X93972862Y-113700273D01*
X94034606Y-113654052D01*
X94111189Y-113644894D01*
X94170078Y-113670111D01*
X94187324Y-113671620D01*
X94792694Y-113066249D01*
X94803262Y-113132969D01*
X94864382Y-113252923D01*
X94959577Y-113348118D01*
X95079531Y-113409238D01*
X95146248Y-113419804D01*
X94540878Y-114025174D01*
X94597660Y-114064933D01*
X94791924Y-114155519D01*
X94998967Y-114210997D01*
X95212499Y-114229678D01*
X95426032Y-114210997D01*
X95633074Y-114155520D01*
X95827339Y-114064932D01*
X95884120Y-114025173D01*
X95278751Y-113419804D01*
X95345469Y-113409238D01*
X95465423Y-113348118D01*
X95560618Y-113252923D01*
X95621738Y-113132969D01*
X95632304Y-113066250D01*
X96237673Y-113671619D01*
X96277432Y-113614839D01*
X96368020Y-113420574D01*
X96423497Y-113213532D01*
X96442178Y-112999999D01*
X96423497Y-112786467D01*
X96368020Y-112579425D01*
X96277433Y-112385162D01*
X96237673Y-112328379D01*
X95632304Y-112933747D01*
X95621738Y-112867031D01*
X95560618Y-112747077D01*
X95465423Y-112651882D01*
X95345469Y-112590762D01*
X95278749Y-112580194D01*
X95884120Y-111974824D01*
X95827340Y-111935066D01*
X95633075Y-111844480D01*
X95426032Y-111789002D01*
X95212500Y-111770321D01*
X94998967Y-111789002D01*
X94791925Y-111844479D01*
X94597660Y-111935067D01*
X94540879Y-111974825D01*
X95146248Y-112580194D01*
X95079531Y-112590762D01*
X94959577Y-112651882D01*
X94864382Y-112747077D01*
X94803262Y-112867031D01*
X94792695Y-112933749D01*
X94187325Y-112328379D01*
X94147567Y-112385160D01*
X94056979Y-112579425D01*
X94001502Y-112786467D01*
X93982821Y-113000000D01*
X94002630Y-113226419D01*
X93989237Y-113302375D01*
X93939660Y-113361459D01*
X93867183Y-113387838D01*
X93791227Y-113374445D01*
X93732826Y-113325834D01*
X93697607Y-113276377D01*
X93545568Y-113131407D01*
X93368843Y-113017833D01*
X93173817Y-112939756D01*
X92967534Y-112900000D01*
X92762500Y-112900000D01*
X92762500Y-113700000D01*
X92262500Y-113700000D01*
X92262500Y-112900000D01*
X92113643Y-112900000D01*
X92106561Y-112900337D01*
X91953375Y-112914964D01*
X91751814Y-112974148D01*
X91565090Y-113070410D01*
X91399959Y-113200272D01*
X91262390Y-113359033D01*
X91157351Y-113540966D01*
X91088644Y-113739484D01*
X91087132Y-113750000D01*
X90750500Y-113750000D01*
X90750500Y-111724999D01*
X107444817Y-111724999D01*
X107465455Y-111881760D01*
X107479236Y-111915031D01*
X107525964Y-112027841D01*
X107622218Y-112153282D01*
X107747659Y-112249536D01*
X107893738Y-112310044D01*
X108050500Y-112330682D01*
X108207262Y-112310044D01*
X108353341Y-112249536D01*
X108478782Y-112153282D01*
X108575036Y-112027841D01*
X108635544Y-111881762D01*
X108656182Y-111725000D01*
X108635544Y-111568238D01*
X108575036Y-111422159D01*
X108478782Y-111296718D01*
X108353341Y-111200464D01*
X108207262Y-111139956D01*
X108207260Y-111139955D01*
X108050500Y-111119317D01*
X107893739Y-111139955D01*
X107747658Y-111200464D01*
X107622218Y-111296718D01*
X107525964Y-111422158D01*
X107465455Y-111568239D01*
X107444817Y-111724999D01*
X90750500Y-111724999D01*
X90750500Y-106750000D01*
X91087132Y-106750000D01*
X91996389Y-106750000D01*
X91956890Y-106774457D01*
X91889299Y-106863962D01*
X91858605Y-106971840D01*
X91868954Y-107083521D01*
X91918948Y-107183922D01*
X91991431Y-107250000D01*
X91091242Y-107250000D01*
X91118269Y-107361412D01*
X91205536Y-107552499D01*
X91327395Y-107723626D01*
X91479431Y-107868592D01*
X91656156Y-107982166D01*
X91851182Y-108060243D01*
X92057466Y-108100000D01*
X92262500Y-108100000D01*
X92262500Y-107300000D01*
X92762500Y-107300000D01*
X92762500Y-108100000D01*
X92911357Y-108100000D01*
X92918438Y-108099662D01*
X93071624Y-108085035D01*
X93273185Y-108025851D01*
X93459909Y-107929589D01*
X93625039Y-107799728D01*
X93741375Y-107665470D01*
X93805249Y-107622239D01*
X93882180Y-107616737D01*
X93951556Y-107650437D01*
X93994787Y-107714311D01*
X94002415Y-107776030D01*
X93982821Y-107999999D01*
X94001502Y-108213532D01*
X94056980Y-108420575D01*
X94147566Y-108614840D01*
X94187324Y-108671619D01*
X94792694Y-108066249D01*
X94803262Y-108132969D01*
X94864382Y-108252923D01*
X94959577Y-108348118D01*
X95079531Y-108409238D01*
X95146248Y-108419804D01*
X94540878Y-109025174D01*
X94597660Y-109064933D01*
X94791924Y-109155519D01*
X94998967Y-109210997D01*
X95212499Y-109229678D01*
X95426032Y-109210997D01*
X95633074Y-109155520D01*
X95827339Y-109064932D01*
X95884120Y-109025173D01*
X95278751Y-108419804D01*
X95345469Y-108409238D01*
X95465423Y-108348118D01*
X95560618Y-108252923D01*
X95621738Y-108132969D01*
X95632304Y-108066250D01*
X96237674Y-108671619D01*
X96241253Y-108671306D01*
X96317210Y-108684699D01*
X96344942Y-108701527D01*
X96458235Y-108788460D01*
X96604314Y-108848968D01*
X96761076Y-108869606D01*
X96917838Y-108848968D01*
X97063917Y-108788460D01*
X97189358Y-108692206D01*
X97202944Y-108674500D01*
X106475219Y-108674500D01*
X106495857Y-108831260D01*
X106495858Y-108831262D01*
X106556366Y-108977341D01*
X106652620Y-109102782D01*
X106778061Y-109199036D01*
X106924140Y-109259544D01*
X106975366Y-109266288D01*
X107080901Y-109280182D01*
X107080901Y-109280181D01*
X107080902Y-109280182D01*
X107237664Y-109259544D01*
X107383743Y-109199036D01*
X107509184Y-109102782D01*
X107605438Y-108977341D01*
X107665946Y-108831262D01*
X107686584Y-108674500D01*
X107665946Y-108517738D01*
X107605438Y-108371659D01*
X107509184Y-108246218D01*
X107383743Y-108149964D01*
X107338764Y-108131333D01*
X107237662Y-108089455D01*
X107080901Y-108068817D01*
X106924141Y-108089455D01*
X106778060Y-108149964D01*
X106652620Y-108246218D01*
X106556366Y-108371658D01*
X106495857Y-108517739D01*
X106475219Y-108674500D01*
X97202944Y-108674500D01*
X97285612Y-108566765D01*
X97346120Y-108420686D01*
X97366758Y-108263924D01*
X97346120Y-108107162D01*
X97291376Y-107974999D01*
X98894817Y-107974999D01*
X98915455Y-108131760D01*
X98925811Y-108156762D01*
X98975964Y-108277841D01*
X99072218Y-108403282D01*
X99197659Y-108499536D01*
X99343738Y-108560044D01*
X99422119Y-108570363D01*
X99500499Y-108580682D01*
X99500499Y-108580681D01*
X99500500Y-108580682D01*
X99657262Y-108560044D01*
X99803341Y-108499536D01*
X99928782Y-108403282D01*
X100025036Y-108277841D01*
X100085544Y-108131762D01*
X100102891Y-108000000D01*
X109644317Y-108000000D01*
X109664955Y-108156760D01*
X109673022Y-108176236D01*
X109725464Y-108302841D01*
X109821718Y-108428282D01*
X109947159Y-108524536D01*
X110093238Y-108585044D01*
X110250000Y-108605682D01*
X110406762Y-108585044D01*
X110552841Y-108524536D01*
X110552841Y-108524535D01*
X110570964Y-108517029D01*
X110571981Y-108519485D01*
X110615942Y-108501275D01*
X110635395Y-108500000D01*
X111975000Y-108500000D01*
X111975000Y-108499999D01*
X112474999Y-108499999D01*
X112475000Y-108500000D01*
X114200000Y-108500000D01*
X114200000Y-108390776D01*
X114199530Y-108382424D01*
X114184546Y-108249439D01*
X114123702Y-108075555D01*
X114025691Y-107919571D01*
X113895428Y-107789308D01*
X113739444Y-107691297D01*
X113565560Y-107630453D01*
X113432575Y-107615469D01*
X113424223Y-107615000D01*
X112475000Y-107615000D01*
X112474999Y-108499999D01*
X111975000Y-108499999D01*
X111975000Y-107615000D01*
X111025777Y-107615000D01*
X111017422Y-107615469D01*
X110884437Y-107630452D01*
X110859222Y-107639275D01*
X110782309Y-107645037D01*
X110712820Y-107611570D01*
X110691805Y-107589341D01*
X110678282Y-107571718D01*
X110552841Y-107475464D01*
X110406760Y-107414955D01*
X110249999Y-107394317D01*
X110093239Y-107414955D01*
X109947158Y-107475464D01*
X109821718Y-107571718D01*
X109725464Y-107697158D01*
X109664955Y-107843239D01*
X109644317Y-108000000D01*
X100102891Y-108000000D01*
X100106182Y-107975000D01*
X100085544Y-107818238D01*
X100025036Y-107672159D01*
X99928782Y-107546718D01*
X99803341Y-107450464D01*
X99717615Y-107414955D01*
X99657260Y-107389955D01*
X99500499Y-107369317D01*
X99343739Y-107389955D01*
X99197658Y-107450464D01*
X99072218Y-107546718D01*
X98975964Y-107672158D01*
X98915455Y-107818239D01*
X98894817Y-107974999D01*
X97291376Y-107974999D01*
X97285612Y-107961083D01*
X97189358Y-107835642D01*
X97063917Y-107739388D01*
X96973872Y-107702090D01*
X96917836Y-107678879D01*
X96761076Y-107658241D01*
X96604312Y-107678879D01*
X96572578Y-107692024D01*
X96496110Y-107702090D01*
X96424853Y-107672573D01*
X96377902Y-107611382D01*
X96371637Y-107592927D01*
X96368018Y-107579421D01*
X96277433Y-107385162D01*
X96237673Y-107328379D01*
X95632304Y-107933747D01*
X95621738Y-107867031D01*
X95560618Y-107747077D01*
X95465423Y-107651882D01*
X95345469Y-107590762D01*
X95278749Y-107580194D01*
X95884120Y-106974824D01*
X95827340Y-106935066D01*
X95633075Y-106844480D01*
X95426032Y-106789002D01*
X95212500Y-106770321D01*
X94998967Y-106789002D01*
X94791925Y-106844479D01*
X94597660Y-106935067D01*
X94540879Y-106974825D01*
X95146248Y-107580194D01*
X95079531Y-107590762D01*
X94959577Y-107651882D01*
X94864382Y-107747077D01*
X94803262Y-107867031D01*
X94792695Y-107933749D01*
X94187324Y-107328379D01*
X94165039Y-107330328D01*
X94156668Y-107337353D01*
X94080711Y-107350745D01*
X94008235Y-107324363D01*
X93981094Y-107299885D01*
X93937869Y-107250000D01*
X93028611Y-107250000D01*
X93068110Y-107225543D01*
X93135701Y-107136038D01*
X93166395Y-107028160D01*
X93156046Y-106916479D01*
X93106052Y-106816078D01*
X93033569Y-106750000D01*
X93933758Y-106750000D01*
X93906730Y-106638587D01*
X93838153Y-106488426D01*
X116194317Y-106488426D01*
X116214955Y-106645186D01*
X116266788Y-106770321D01*
X116275464Y-106791267D01*
X116371718Y-106916708D01*
X116497159Y-107012962D01*
X116643238Y-107073470D01*
X116800000Y-107094108D01*
X116956762Y-107073470D01*
X117102841Y-107012962D01*
X117228282Y-106916708D01*
X117324536Y-106791267D01*
X117385044Y-106645188D01*
X117405682Y-106488426D01*
X117402888Y-106467207D01*
X117385044Y-106331665D01*
X117385044Y-106331664D01*
X117324536Y-106185585D01*
X117228282Y-106060144D01*
X117102841Y-105963890D01*
X117060269Y-105946256D01*
X116956760Y-105903381D01*
X116800000Y-105882743D01*
X116643239Y-105903381D01*
X116497158Y-105963890D01*
X116371718Y-106060144D01*
X116275464Y-106185584D01*
X116214955Y-106331665D01*
X116194317Y-106488426D01*
X93838153Y-106488426D01*
X93819463Y-106447500D01*
X93697604Y-106276373D01*
X93545568Y-106131407D01*
X93368843Y-106017833D01*
X93173817Y-105939756D01*
X92967534Y-105900000D01*
X92762500Y-105900000D01*
X92762500Y-106700000D01*
X92262500Y-106700000D01*
X92262500Y-105900000D01*
X92113643Y-105900000D01*
X92106561Y-105900337D01*
X91953375Y-105914964D01*
X91751814Y-105974148D01*
X91565090Y-106070410D01*
X91399959Y-106200272D01*
X91262390Y-106359033D01*
X91157351Y-106540966D01*
X91088644Y-106739484D01*
X91087132Y-106750000D01*
X90750500Y-106750000D01*
X90750500Y-95749999D01*
X94494866Y-95749999D01*
X94497494Y-95768275D01*
X94497982Y-95771668D01*
X94497983Y-95771671D01*
X94499500Y-95792877D01*
X94499500Y-96707122D01*
X94497983Y-96728327D01*
X94494923Y-96749613D01*
X94494867Y-96750000D01*
X94495339Y-96753281D01*
X94497983Y-96771671D01*
X94499500Y-96792877D01*
X94499500Y-97019748D01*
X94511132Y-97078229D01*
X94511132Y-97078230D01*
X94511133Y-97078231D01*
X94555448Y-97144552D01*
X94621769Y-97188867D01*
X94680252Y-97200500D01*
X95938940Y-97200500D01*
X96013440Y-97220462D01*
X96067978Y-97275000D01*
X96087940Y-97349500D01*
X96067978Y-97424000D01*
X96057150Y-97440205D01*
X95975464Y-97546660D01*
X95914955Y-97692741D01*
X95894317Y-97849502D01*
X95914955Y-98006262D01*
X95914956Y-98006264D01*
X95975464Y-98152343D01*
X96071718Y-98277784D01*
X96116206Y-98311920D01*
X96163157Y-98373108D01*
X96174500Y-98430129D01*
X96174500Y-98729279D01*
X96173933Y-98742266D01*
X96170735Y-98778809D01*
X96180229Y-98814240D01*
X96183042Y-98826925D01*
X96189943Y-98866060D01*
X96198690Y-98887177D01*
X96200446Y-98889684D01*
X96221487Y-98919734D01*
X96228460Y-98930681D01*
X96246806Y-98962455D01*
X96270127Y-98982024D01*
X96274905Y-98986033D01*
X96284488Y-98994814D01*
X97859270Y-100569596D01*
X97897834Y-100636391D01*
X97901637Y-100694402D01*
X97894317Y-100750002D01*
X97914955Y-100906760D01*
X97931359Y-100946362D01*
X97975464Y-101052841D01*
X98071718Y-101178282D01*
X98197159Y-101274536D01*
X98343238Y-101335044D01*
X98500000Y-101355682D01*
X98656762Y-101335044D01*
X98802841Y-101274536D01*
X98928282Y-101178282D01*
X99024536Y-101052841D01*
X99085044Y-100906762D01*
X99105682Y-100750000D01*
X99085044Y-100593238D01*
X99024536Y-100447159D01*
X98928282Y-100321718D01*
X98802841Y-100225464D01*
X98709438Y-100186775D01*
X98656760Y-100164955D01*
X98500002Y-100144317D01*
X98444402Y-100151637D01*
X98367934Y-100141568D01*
X98319596Y-100109270D01*
X97595543Y-99385217D01*
X96869141Y-98658814D01*
X96830577Y-98592019D01*
X96825500Y-98553456D01*
X96825500Y-98531017D01*
X96825500Y-98430126D01*
X96845461Y-98355630D01*
X96883792Y-98311921D01*
X96928282Y-98277784D01*
X97024536Y-98152343D01*
X97085044Y-98006264D01*
X97105682Y-97849502D01*
X97085044Y-97692740D01*
X97024536Y-97546661D01*
X96928282Y-97421220D01*
X96802841Y-97324966D01*
X96752184Y-97303983D01*
X96690994Y-97257030D01*
X96661479Y-97185773D01*
X96671546Y-97109305D01*
X96685314Y-97083547D01*
X96688867Y-97078231D01*
X96700500Y-97019748D01*
X96700500Y-96792877D01*
X96702017Y-96771671D01*
X96705133Y-96750000D01*
X96702014Y-96728309D01*
X96700500Y-96707135D01*
X96700500Y-95999999D01*
X112144317Y-95999999D01*
X112164955Y-96156760D01*
X112169710Y-96168239D01*
X112225464Y-96302841D01*
X112321718Y-96428282D01*
X112447159Y-96524536D01*
X112593238Y-96585044D01*
X112671619Y-96595363D01*
X112749999Y-96605682D01*
X112749999Y-96605681D01*
X112750000Y-96605682D01*
X112906762Y-96585044D01*
X113052841Y-96524536D01*
X113178282Y-96428282D01*
X113274536Y-96302841D01*
X113335044Y-96156762D01*
X113355682Y-96000000D01*
X113335044Y-95843238D01*
X113274536Y-95697159D01*
X113178282Y-95571718D01*
X113052841Y-95475464D01*
X113008499Y-95457097D01*
X112906760Y-95414955D01*
X112749999Y-95394317D01*
X112593239Y-95414955D01*
X112447158Y-95475464D01*
X112321718Y-95571718D01*
X112225464Y-95697158D01*
X112164955Y-95843239D01*
X112144317Y-95999999D01*
X96700500Y-95999999D01*
X96700500Y-95792863D01*
X96702014Y-95771690D01*
X96705133Y-95750000D01*
X96702014Y-95728309D01*
X96700500Y-95707135D01*
X96700500Y-94792863D01*
X96702014Y-94771690D01*
X96705133Y-94750000D01*
X96702017Y-94728327D01*
X96700500Y-94707122D01*
X96700500Y-94480251D01*
X96692703Y-94441054D01*
X96688867Y-94421769D01*
X96644552Y-94355448D01*
X96578231Y-94311133D01*
X96578230Y-94311132D01*
X96578229Y-94311132D01*
X96519748Y-94299500D01*
X94680252Y-94299500D01*
X94621770Y-94311132D01*
X94555448Y-94355448D01*
X94511132Y-94421770D01*
X94499500Y-94480251D01*
X94499500Y-94707122D01*
X94497983Y-94728327D01*
X94494866Y-94749999D01*
X94497494Y-94768275D01*
X94497982Y-94771668D01*
X94497983Y-94771671D01*
X94499500Y-94792877D01*
X94499500Y-95707122D01*
X94497983Y-95728327D01*
X94494866Y-95749999D01*
X90750500Y-95749999D01*
X90750500Y-94569500D01*
X91142236Y-94569500D01*
X91162874Y-94726260D01*
X91173516Y-94751951D01*
X91223383Y-94872341D01*
X91319637Y-94997782D01*
X91445078Y-95094036D01*
X91591157Y-95154544D01*
X91747919Y-95175182D01*
X91904681Y-95154544D01*
X92050760Y-95094036D01*
X92176201Y-94997782D01*
X92272455Y-94872341D01*
X92332963Y-94726262D01*
X92348516Y-94608126D01*
X92353601Y-94569502D01*
X92353601Y-94569500D01*
X92346281Y-94513903D01*
X92356347Y-94437437D01*
X92388644Y-94389099D01*
X95215526Y-91562217D01*
X95225087Y-91553457D01*
X95253194Y-91529874D01*
X95271542Y-91498093D01*
X95278501Y-91487167D01*
X95299554Y-91457103D01*
X95299555Y-91457098D01*
X95301313Y-91454588D01*
X95310055Y-91433484D01*
X95310587Y-91430465D01*
X95310588Y-91430464D01*
X95316957Y-91394336D01*
X95319765Y-91381672D01*
X95329264Y-91346226D01*
X95326067Y-91309685D01*
X95325500Y-91296698D01*
X95325500Y-90830627D01*
X95345462Y-90756127D01*
X95383792Y-90712419D01*
X95428282Y-90678282D01*
X95524536Y-90552841D01*
X95585044Y-90406762D01*
X95605682Y-90250000D01*
X95585044Y-90093238D01*
X95524536Y-89947159D01*
X95428282Y-89821718D01*
X95302841Y-89725464D01*
X95194972Y-89680783D01*
X95156760Y-89664955D01*
X95000000Y-89644317D01*
X94843239Y-89664955D01*
X94697158Y-89725464D01*
X94571718Y-89821718D01*
X94475464Y-89947158D01*
X94414955Y-90093239D01*
X94394317Y-90250000D01*
X94414955Y-90406760D01*
X94414956Y-90406762D01*
X94475464Y-90552841D01*
X94571718Y-90678282D01*
X94616206Y-90712418D01*
X94663157Y-90773606D01*
X94674500Y-90830627D01*
X94674500Y-91120873D01*
X94654538Y-91195373D01*
X94630859Y-91226232D01*
X91928321Y-93928770D01*
X91861526Y-93967334D01*
X91803515Y-93971136D01*
X91747920Y-93963817D01*
X91591158Y-93984455D01*
X91445077Y-94044964D01*
X91319637Y-94141218D01*
X91223383Y-94266658D01*
X91162874Y-94412739D01*
X91142236Y-94569500D01*
X90750500Y-94569500D01*
X90750500Y-94370968D01*
X90750500Y-87250000D01*
X101394317Y-87250000D01*
X101414955Y-87406760D01*
X101414956Y-87406762D01*
X101475464Y-87552841D01*
X101571718Y-87678282D01*
X101697159Y-87774536D01*
X101843238Y-87835044D01*
X101921619Y-87845363D01*
X101999999Y-87855682D01*
X101999999Y-87855681D01*
X102000000Y-87855682D01*
X102156762Y-87835044D01*
X102302841Y-87774536D01*
X102428282Y-87678282D01*
X102524536Y-87552841D01*
X102585044Y-87406762D01*
X102605682Y-87250000D01*
X102598362Y-87194403D01*
X102608428Y-87117937D01*
X102640725Y-87069599D01*
X103710576Y-85999748D01*
X103720137Y-85990988D01*
X103748244Y-85967405D01*
X103766592Y-85935624D01*
X103773551Y-85924698D01*
X103794604Y-85894634D01*
X103794605Y-85894629D01*
X103796363Y-85892119D01*
X103805105Y-85871015D01*
X103805637Y-85867996D01*
X103805638Y-85867995D01*
X103812007Y-85831867D01*
X103814815Y-85819203D01*
X103824314Y-85783757D01*
X103821116Y-85747213D01*
X103820549Y-85734225D01*
X103820549Y-85479822D01*
X103820549Y-85235575D01*
X103840511Y-85161079D01*
X103878842Y-85117371D01*
X103923332Y-85083234D01*
X104019586Y-84957793D01*
X104080094Y-84811714D01*
X104100732Y-84654952D01*
X104080094Y-84498190D01*
X104019586Y-84352111D01*
X103923332Y-84226670D01*
X103797891Y-84130416D01*
X103651812Y-84069908D01*
X103651810Y-84069907D01*
X103495049Y-84049269D01*
X103338289Y-84069907D01*
X103192208Y-84130416D01*
X103066768Y-84226670D01*
X102970514Y-84352110D01*
X102910005Y-84498191D01*
X102889367Y-84654952D01*
X102910005Y-84811712D01*
X102910006Y-84811714D01*
X102970514Y-84957793D01*
X103066768Y-85083234D01*
X103111253Y-85117368D01*
X103111254Y-85117369D01*
X103158207Y-85178559D01*
X103169549Y-85235579D01*
X103169549Y-85558405D01*
X103149587Y-85632905D01*
X103125908Y-85663764D01*
X102180402Y-86609270D01*
X102113607Y-86647834D01*
X102055596Y-86651636D01*
X102000001Y-86644317D01*
X101843239Y-86664955D01*
X101697158Y-86725464D01*
X101571718Y-86821718D01*
X101475464Y-86947158D01*
X101414955Y-87093239D01*
X101394317Y-87250000D01*
X90750500Y-87250000D01*
X90750500Y-81094646D01*
X95849500Y-81094646D01*
X95888856Y-81279803D01*
X95965849Y-81452730D01*
X96077112Y-81605871D01*
X96077113Y-81605872D01*
X96104667Y-81630682D01*
X96217784Y-81732533D01*
X96381716Y-81827179D01*
X96561744Y-81885674D01*
X96702808Y-81900500D01*
X96706710Y-81900500D01*
X106793290Y-81900500D01*
X106797192Y-81900500D01*
X106938256Y-81885674D01*
X107118284Y-81827179D01*
X107282216Y-81732533D01*
X107422888Y-81605871D01*
X107534151Y-81452730D01*
X107611144Y-81279803D01*
X107650500Y-81094646D01*
X107650500Y-81025000D01*
X113444317Y-81025000D01*
X113464955Y-81181760D01*
X113464956Y-81181762D01*
X113525464Y-81327841D01*
X113621718Y-81453282D01*
X113747159Y-81549536D01*
X113893238Y-81610044D01*
X114050000Y-81630682D01*
X114206762Y-81610044D01*
X114352841Y-81549536D01*
X114478282Y-81453282D01*
X114574536Y-81327841D01*
X114635044Y-81181762D01*
X114655682Y-81025000D01*
X114635044Y-80868238D01*
X114574536Y-80722159D01*
X114478282Y-80596718D01*
X114352841Y-80500464D01*
X114206762Y-80439956D01*
X114206760Y-80439955D01*
X114050000Y-80419317D01*
X113893239Y-80439955D01*
X113747158Y-80500464D01*
X113621718Y-80596718D01*
X113525464Y-80722158D01*
X113464955Y-80868239D01*
X113444317Y-81025000D01*
X107650500Y-81025000D01*
X107650500Y-80905354D01*
X107611144Y-80720197D01*
X107534151Y-80547270D01*
X107422888Y-80394129D01*
X107282216Y-80267467D01*
X107118284Y-80172821D01*
X107118283Y-80172820D01*
X107118282Y-80172820D01*
X106938257Y-80114326D01*
X106801071Y-80099907D01*
X106801057Y-80099906D01*
X106797192Y-80099500D01*
X96702808Y-80099500D01*
X96698943Y-80099906D01*
X96698928Y-80099907D01*
X96561742Y-80114326D01*
X96381717Y-80172820D01*
X96217783Y-80267467D01*
X96077113Y-80394127D01*
X95965848Y-80547271D01*
X95943833Y-80596718D01*
X95888856Y-80720197D01*
X95849500Y-80905354D01*
X95849500Y-81094646D01*
X90750500Y-81094646D01*
X90750500Y-73912000D01*
X97269442Y-73912000D01*
X97289635Y-74155688D01*
X97289635Y-74155691D01*
X97289636Y-74155692D01*
X97343460Y-74368239D01*
X97349665Y-74392739D01*
X97447888Y-74616666D01*
X97581631Y-74821376D01*
X97587583Y-74827841D01*
X97747246Y-75001281D01*
X97886984Y-75110044D01*
X97940215Y-75151475D01*
X98155262Y-75267853D01*
X98155265Y-75267854D01*
X98155267Y-75267855D01*
X98386545Y-75347252D01*
X98627737Y-75387500D01*
X98627738Y-75387500D01*
X98872262Y-75387500D01*
X98872263Y-75387500D01*
X99113455Y-75347252D01*
X99344733Y-75267855D01*
X99559788Y-75151473D01*
X99752754Y-75001281D01*
X99918368Y-74821377D01*
X100052111Y-74616667D01*
X100150336Y-74392736D01*
X100210364Y-74155692D01*
X100230557Y-73912000D01*
X101970022Y-73912000D01*
X101989903Y-74177291D01*
X102049100Y-74436655D01*
X102146294Y-74684301D01*
X102279314Y-74914697D01*
X102330084Y-74978360D01*
X102998766Y-74309677D01*
X103042316Y-74391822D01*
X103162009Y-74532735D01*
X103309195Y-74644623D01*
X103351402Y-74664150D01*
X102682841Y-75332711D01*
X102682841Y-75332712D01*
X102860011Y-75453505D01*
X103099702Y-75568934D01*
X103353913Y-75647348D01*
X103616983Y-75687000D01*
X103883017Y-75687000D01*
X104146084Y-75647348D01*
X104400298Y-75568934D01*
X104639989Y-75453504D01*
X104817158Y-75332712D01*
X104148608Y-74664162D01*
X104267431Y-74592669D01*
X104401658Y-74465523D01*
X104504861Y-74313307D01*
X105169914Y-74978360D01*
X105169915Y-74978360D01*
X105220685Y-74914697D01*
X105353705Y-74684301D01*
X105416226Y-74525000D01*
X112594317Y-74525000D01*
X112614955Y-74681760D01*
X112614956Y-74681762D01*
X112675464Y-74827841D01*
X112771718Y-74953282D01*
X112897159Y-75049536D01*
X113043238Y-75110044D01*
X113200000Y-75130682D01*
X113356762Y-75110044D01*
X113502841Y-75049536D01*
X113628282Y-74953282D01*
X113724536Y-74827841D01*
X113785044Y-74681762D01*
X113805682Y-74525000D01*
X113785044Y-74368238D01*
X113724536Y-74222159D01*
X113628282Y-74096718D01*
X113502841Y-74000464D01*
X113356762Y-73939956D01*
X113356760Y-73939955D01*
X113200000Y-73919317D01*
X113043239Y-73939955D01*
X112897158Y-74000464D01*
X112771718Y-74096718D01*
X112675464Y-74222158D01*
X112614955Y-74368239D01*
X112594317Y-74525000D01*
X105416226Y-74525000D01*
X105450899Y-74436655D01*
X105510096Y-74177291D01*
X105529977Y-73911999D01*
X105510096Y-73646708D01*
X105450899Y-73387344D01*
X105353705Y-73139698D01*
X105220685Y-72909302D01*
X105169914Y-72845638D01*
X104501232Y-73514319D01*
X104457684Y-73432178D01*
X104337991Y-73291265D01*
X104190805Y-73179377D01*
X104148595Y-73159848D01*
X104817157Y-72491287D01*
X104817157Y-72491286D01*
X104639989Y-72370494D01*
X104400298Y-72255065D01*
X104146084Y-72176651D01*
X103883017Y-72137000D01*
X103616983Y-72137000D01*
X103353913Y-72176651D01*
X103099702Y-72255065D01*
X102860012Y-72370494D01*
X102682841Y-72491286D01*
X102682841Y-72491287D01*
X103351391Y-73159837D01*
X103232569Y-73231331D01*
X103098342Y-73358477D01*
X102995137Y-73510692D01*
X102330083Y-72845638D01*
X102279316Y-72909300D01*
X102146294Y-73139698D01*
X102049100Y-73387344D01*
X101989903Y-73646708D01*
X101970022Y-73912000D01*
X100230557Y-73912000D01*
X100210364Y-73668308D01*
X100150336Y-73431264D01*
X100052111Y-73207333D01*
X99918368Y-73002623D01*
X99752754Y-72822719D01*
X99559788Y-72672527D01*
X99559787Y-72672526D01*
X99559784Y-72672524D01*
X99344737Y-72556146D01*
X99113455Y-72476748D01*
X98872263Y-72436500D01*
X98627737Y-72436500D01*
X98507140Y-72456624D01*
X98386544Y-72476748D01*
X98155262Y-72556146D01*
X97940215Y-72672524D01*
X97747245Y-72822719D01*
X97581631Y-73002623D01*
X97447888Y-73207333D01*
X97349665Y-73431260D01*
X97289635Y-73668311D01*
X97269442Y-73912000D01*
X90750500Y-73912000D01*
X90750500Y-70468936D01*
X124645668Y-70468936D01*
X124676134Y-70641711D01*
X124711751Y-70724279D01*
X124745623Y-70802804D01*
X124850390Y-70943530D01*
X124984786Y-71056302D01*
X125141567Y-71135040D01*
X125312279Y-71175500D01*
X125312280Y-71175500D01*
X125439365Y-71175500D01*
X125443709Y-71175500D01*
X125574255Y-71160241D01*
X125739117Y-71100237D01*
X125885696Y-71003830D01*
X126006092Y-70876218D01*
X126093812Y-70724281D01*
X126144130Y-70556210D01*
X126154331Y-70381065D01*
X126138941Y-70293788D01*
X126123865Y-70208288D01*
X126102923Y-70159741D01*
X126054377Y-70047196D01*
X125949610Y-69906470D01*
X125815214Y-69793698D01*
X125815213Y-69793697D01*
X125658435Y-69714961D01*
X125658434Y-69714960D01*
X125658433Y-69714960D01*
X125487721Y-69674500D01*
X125356291Y-69674500D01*
X125351988Y-69675002D01*
X125351987Y-69675003D01*
X125225741Y-69689759D01*
X125060885Y-69749761D01*
X124914304Y-69846170D01*
X124793908Y-69973782D01*
X124706186Y-70125720D01*
X124655870Y-70293788D01*
X124645668Y-70468936D01*
X90750500Y-70468936D01*
X90750500Y-63507848D01*
X90770461Y-63433352D01*
X90824999Y-63378814D01*
X90899499Y-63358852D01*
X90973999Y-63378814D01*
X91028537Y-63433352D01*
X91036630Y-63449576D01*
X91061395Y-63507852D01*
X91099870Y-63598390D01*
X91099871Y-63598391D01*
X91240979Y-63829606D01*
X91240981Y-63829608D01*
X91240982Y-63829610D01*
X91414255Y-64037820D01*
X91615998Y-64218582D01*
X91841910Y-64368044D01*
X91964542Y-64425531D01*
X92087173Y-64483019D01*
X92087175Y-64483019D01*
X92087176Y-64483020D01*
X92346569Y-64561060D01*
X92614561Y-64600500D01*
X92814908Y-64600500D01*
X92817631Y-64600500D01*
X93020156Y-64585677D01*
X93284553Y-64526780D01*
X93398971Y-64483019D01*
X93537554Y-64430016D01*
X93537558Y-64430014D01*
X93773777Y-64297441D01*
X93988177Y-64131888D01*
X94176186Y-63936881D01*
X94193988Y-63911999D01*
X94794901Y-63911999D01*
X94813253Y-64098332D01*
X94867604Y-64277502D01*
X94878260Y-64297438D01*
X94955864Y-64442625D01*
X95002275Y-64499177D01*
X95074642Y-64587357D01*
X95147009Y-64646746D01*
X95219375Y-64706136D01*
X95384499Y-64794396D01*
X95563669Y-64848747D01*
X95750000Y-64867099D01*
X95936331Y-64848747D01*
X96115501Y-64794396D01*
X96280625Y-64706136D01*
X96425357Y-64587357D01*
X96544136Y-64442625D01*
X96632396Y-64277501D01*
X96686747Y-64098331D01*
X96705099Y-63912000D01*
X96705099Y-63911999D01*
X105794901Y-63911999D01*
X105813253Y-64098332D01*
X105867604Y-64277502D01*
X105878260Y-64297438D01*
X105955864Y-64442625D01*
X106002275Y-64499177D01*
X106074642Y-64587357D01*
X106147009Y-64646746D01*
X106219375Y-64706136D01*
X106384499Y-64794396D01*
X106563669Y-64848747D01*
X106750000Y-64867099D01*
X106936331Y-64848747D01*
X107115501Y-64794396D01*
X107280625Y-64706136D01*
X107425357Y-64587357D01*
X107544136Y-64442625D01*
X107632396Y-64277501D01*
X107686747Y-64098331D01*
X107705099Y-63912000D01*
X107686747Y-63725669D01*
X107632396Y-63546499D01*
X107544136Y-63381375D01*
X107484746Y-63309009D01*
X107425357Y-63236642D01*
X107337177Y-63164276D01*
X107280625Y-63117864D01*
X107222914Y-63087017D01*
X107115502Y-63029604D01*
X106936332Y-62975253D01*
X106750000Y-62956901D01*
X106563667Y-62975253D01*
X106384497Y-63029604D01*
X106219376Y-63117863D01*
X106074642Y-63236642D01*
X105955863Y-63381376D01*
X105867604Y-63546497D01*
X105813253Y-63725667D01*
X105794901Y-63911999D01*
X96705099Y-63911999D01*
X96686747Y-63725669D01*
X96632396Y-63546499D01*
X96544136Y-63381375D01*
X96484746Y-63309008D01*
X96425357Y-63236642D01*
X96337177Y-63164275D01*
X96280625Y-63117864D01*
X96222914Y-63087017D01*
X96115502Y-63029604D01*
X95936332Y-62975253D01*
X95750000Y-62956901D01*
X95563667Y-62975253D01*
X95384497Y-63029604D01*
X95219376Y-63117863D01*
X95074642Y-63236642D01*
X94955863Y-63381376D01*
X94867604Y-63546497D01*
X94813253Y-63725667D01*
X94794901Y-63911999D01*
X94193988Y-63911999D01*
X94333799Y-63716579D01*
X94457656Y-63475675D01*
X94545118Y-63219305D01*
X94594319Y-62952933D01*
X94604212Y-62682235D01*
X94574586Y-62412982D01*
X94506072Y-62150912D01*
X94486808Y-62105581D01*
X94400130Y-61901610D01*
X94259020Y-61670393D01*
X94085745Y-61462180D01*
X94047764Y-61428149D01*
X93884002Y-61281418D01*
X93658090Y-61131956D01*
X93450010Y-61034412D01*
X93391027Y-60984715D01*
X93364795Y-60912185D01*
X93378342Y-60836256D01*
X93428039Y-60777273D01*
X93500569Y-60751041D01*
X93513254Y-60750500D01*
X126991097Y-60750500D01*
X127065597Y-60770462D01*
G37*
%TD.AperFunction*%
%TD*%
M02*
